<?xml version="1.0" encoding="UTF-8"?>
<svg version="1.1" xmlns="http://www.w3.org/2000/svg" width="3440" height="1440">
<path d="M0 0 C1135.2 0 2270.4 0 3440 0 C3440 96.36 3440 192.72 3440 292 C3439.67 292 3439.34 292 3439 292 C3438.505 289.525 3438.505 289.525 3438 287 C3435.15949682 286.78717711 3435.15949682 286.78717711 3432 288 C3429.94140642 290.81926253 3428.4472097 293.83022655 3427 297 C3427.66 297.66 3428.32 298.32 3429 299 C3428.34 300.65 3427.68 302.3 3427 304 C3427.66 304.33 3428.32 304.66 3429 305 C3427.68 305 3426.36 305 3425 305 C3424.67 305.99 3424.34 306.98 3424 308 C3421.4375 309.1875 3421.4375 309.1875 3419 310 C3418.2265625 308.8553125 3418.2265625 308.8553125 3417.4375 307.6875 C3413.22509704 303.04305571 3408.08557616 301.74214343 3402 301 C3401.67 301.99 3401.34 302.98 3401 304 C3400.34 304 3399.68 304 3399 304 C3398.505 302.515 3398.505 302.515 3398 301 C3398.66 301 3399.32 301 3400 301 C3397.76425178 298.76425178 3395.71033371 297.75631642 3392.875 296.375 C3391.50988281 295.70597656 3391.50988281 295.70597656 3390.1171875 295.0234375 C3389.41851563 294.68570312 3388.71984375 294.34796875 3388 294 C3388 293.34 3388 292.68 3388 292 C3387.34 292 3386.68 292 3386 292 C3386 290.68 3386 289.36 3386 288 C3385.2575 287.896875 3384.515 287.79375 3383.75 287.6875 C3381 287 3381 287 3379 285.4375 C3376.47041591 283.61936143 3375.05728063 283.84713597 3372 284 C3370.66158328 283.68770276 3369.32860925 283.35169068 3368 283 C3364.62015042 282.46633954 3361.42307206 282 3358 282 C3357.01 282 3356.02 282 3355 282 C3355 282.99 3355 283.98 3355 285 C3354.01 285.33 3353.02 285.66 3352 286 C3351.505 284.515 3351.505 284.515 3351 283 C3350.01 282.34 3349.02 281.68 3348 281 C3347.67 281.66 3347.34 282.32 3347 283 C3344.67624308 283.39460023 3342.3406065 283.72230092 3340 284 C3338.66457061 284.32483418 3337.33038449 284.6550855 3336 285 C3335.34 285 3334.68 285 3334 285 C3334 285.66 3334 286.32 3334 287 C3333.38125 287.12375 3332.7625 287.2475 3332.125 287.375 C3329.80879168 287.87197356 3329.80879168 287.87197356 3328 290 C3325.875 289.625 3325.875 289.625 3324 289 C3324 288.01 3324 287.02 3324 286 C3323.319375 286.350625 3322.63875 286.70125 3321.9375 287.0625 C3318.2775508 288.23056889 3315.73740609 287.70517096 3312 287 C3311.34 287 3310.68 287 3310 287 C3310 286.34 3310 285.68 3310 285 C3308.824375 285.061875 3308.824375 285.061875 3307.625 285.125 C3305 285 3305 285 3303 283 C3302.34 283 3301.68 283 3301 283 C3301 282.34 3301 281.68 3301 281 C3300.34 281 3299.68 281 3299 281 C3298.67 281.66 3298.34 282.32 3298 283 C3297.21625 282.67 3296.4325 282.34 3295.625 282 C3293.15667503 280.88133489 3293.15667503 280.88133489 3291 281 C3291 281.66 3291 282.32 3291 283 C3290.34 283 3289.68 283 3289 283 C3289 282.34 3289 281.68 3289 281 C3287.68 281.33 3286.36 281.66 3285 282 C3285 281.34 3285 280.68 3285 280 C3284.505 280.495 3284.505 280.495 3284 281 C3281.7109392 281.12586907 3279.41748882 281.17577971 3277.125 281.1875 C3275.86945312 281.20167969 3274.61390625 281.21585937 3273.3203125 281.23046875 C3270 281 3270 281 3267 279 C3265.00570492 274.61255081 3264.88992916 271.66229754 3266 267 C3267.98 266.34 3269.96 265.68 3272 265 C3272.19792555 259.16119627 3271.90697283 255.40692378 3269.01171875 250.234375 C3266.60783907 245.79375363 3265.68799988 242.36509827 3265.34375 237.34765625 C3264.95053701 234.66219027 3264.08795055 232.54535858 3263 230.0625 C3260.2698434 223.68882531 3258.96427712 216.78574293 3261 210 C3260.73316406 210.5671875 3260.46632813 211.134375 3260.19140625 211.71875 C3258.51289679 214.93268287 3256.41731656 217.81488295 3254.33984375 220.78125 C3252.91421537 222.88664033 3252.91421537 222.88664033 3252.50390625 225.09375 C3252 227 3252 227 3250.53125 228.453125 C3248.57561596 230.42871449 3248.19776409 232.07523766 3247.5 234.75 C3246.29923171 239.04384681 3244.96129486 242.99213659 3243 247 C3242.34 247.33 3241.68 247.66 3241 248 C3240.34227572 251.02934491 3240.34227572 251.02934491 3240 254 C3239.34 254 3238.68 254 3238 254 C3237.2575 255.2375 3237.2575 255.2375 3236.5 256.5 C3236.005 257.325 3235.51 258.15 3235 259 C3234.34 259 3233.68 259 3233 259 C3231.26337666 262.22515763 3230.1094072 265.51329166 3229 269 C3230.32 268.34 3231.64 267.68 3233 267 C3233 272.32626689 3231.58706631 273.242121 3228 277 C3227.34 277 3226.68 277 3226 277 C3225.67 277.99 3225.34 278.98 3225 280 C3220.65714286 284 3220.65714286 284 3217 284 C3216.34 285.65 3215.68 287.3 3215 289 C3213.68 289 3212.36 289 3211 289 C3211.33 289.66 3211.66 290.32 3212 291 C3214.02463255 291.65213292 3214.02463255 291.65213292 3216 292 C3216.33 291.34 3216.66 290.68 3217 290 C3219.3984375 288.67578125 3219.3984375 288.67578125 3222.375 287.3125 C3223.35210938 286.85488281 3224.32921875 286.39726562 3225.3359375 285.92578125 C3228 285 3228 285 3231 286 C3231 286.66 3231 287.32 3231 288 C3230.34 288.33 3229.68 288.66 3229 289 C3229.495 290.485 3229.495 290.485 3230 292 C3226.25 293.125 3226.25 293.125 3224 292 C3223.67 293.32 3223.34 294.64 3223 296 C3220.69 296.66 3218.38 297.32 3216 298 C3216 298.66 3216 299.32 3216 300 C3212.79895851 302.32803018 3209.55825126 304.28222353 3206 306 C3205.01 306.66 3204.02 307.32 3203 308 C3201.96875 308.33 3200.9375 308.66 3199.875 309 C3196.87488938 309.6686673 3196.87488938 309.6686673 3196 312 C3196.68707031 311.98839844 3197.37414063 311.97679687 3198.08203125 311.96484375 C3198.98308594 311.95582031 3199.88414062 311.94679688 3200.8125 311.9375 C3201.70582031 311.92589844 3202.59914063 311.91429687 3203.51953125 311.90234375 C3206 312 3206 312 3209 313 C3208.6875 314.875 3208.6875 314.875 3208 317 C3207.01 317.66 3206.02 318.32 3205 319 C3205 319.99 3205 320.98 3205 322 C3204.34 322.33 3203.68 322.66 3203 323 C3202.34 323.99 3201.68 324.98 3201 326 C3199.4840625 326.495 3199.4840625 326.495 3197.9375 327 C3196.968125 327.33 3195.99875 327.66 3195 328 C3194.67 328.99 3194.34 329.98 3194 331 C3193.34 331 3192.68 331 3192 331 C3191.67 332.32 3191.34 333.64 3191 335 C3188.84365964 335 3187.07553648 334.5534764 3185 334 C3184.896875 333.360625 3184.79375 332.72125 3184.6875 332.0625 C3184.460625 331.381875 3184.23375 330.70125 3184 330 C3183.01 329.67 3182.02 329.34 3181 329 C3181.66 328.34 3182.32 327.68 3183 327 C3179.95474193 326.65293221 3179.95474193 326.65293221 3178.25 328.6875 C3176.73118407 330.97047583 3176.73118407 330.97047583 3177.3125 333.75 C3177.539375 334.4925 3177.76625 335.235 3178 336 C3177.34 336 3176.68 336 3176 336 C3176 336.66 3176 337.32 3176 338 C3172.40089595 339.68708002 3169.11653715 340.26074598 3165.18896484 340.71655273 C3161.00110462 341.25883533 3156.8735622 342.14563418 3152.73632812 342.98242188 C3149.093416 343.69417468 3145.70748606 344.09437237 3142 344 C3141.278125 344.185625 3140.55625 344.37125 3139.8125 344.5625 C3138 345 3138 345 3136 344 C3136 344.66 3136 345.32 3136 346 C3131.59748773 346.85902678 3127.47579506 347 3123 347 C3122.34 347.33 3121.68 347.66 3121 348 C3121.33 348.66 3121.66 349.32 3122 350 C3119 351 3119 351 3116 351 C3114.66018514 351.3062434 3113.32488113 351.63451555 3112 352 C3112.04125 352.928125 3112.0825 353.85625 3112.125 354.8125 C3112 358 3112 358 3110 361 C3108.49966418 364.90353333 3108.49966418 364.90353333 3108 369 C3107.34 369 3106.68 369 3106 369 C3106.185625 369.721875 3106.37125 370.44375 3106.5625 371.1875 C3107 374 3107 374 3106.375 376.5625 C3105.72972671 379.08054773 3105.72972671 379.08054773 3107.3125 381.3125 C3107.869375 381.869375 3108.42625 382.42625 3109 383 C3109.66 383 3110.32 383 3111 383 C3111.495 384.485 3111.495 384.485 3112 386 C3110.02 386 3108.04 386 3106 386 C3106 386.66 3106 387.32 3106 388 C3105.443125 388.268125 3104.88625 388.53625 3104.3125 388.8125 C3101.93549341 389.98661429 3101.93549341 389.98661429 3099.5625 391.5625 C3096.97938206 393.01156616 3094.91240988 393.58394145 3092 394 C3091.38125 393.21625 3090.7625 392.4325 3090.125 391.625 C3087.23899445 388.05993432 3084.02665266 385.38045141 3080.4609375 382.53515625 C3079 381 3079 381 3079 378 C3078.34 377.67 3077.68 377.34 3077 377 C3076.67 376.34 3076.34 375.68 3076 375 C3075.01 375 3074.02 375 3073 375 C3073.1546875 373.948125 3073.1546875 373.948125 3073.3125 372.875 C3072.86345295 368.74376717 3070.84988305 366.9161594 3068 364 C3067.01 363.67 3066.02 363.34 3065 363 C3064.505 361.515 3064.505 361.515 3064 360 C3063.01 359.67 3062.02 359.34 3061 359 C3060.67 359.66 3060.34 360.32 3060 361 C3058 358 3058 358 3057 354.875 C3056.3313327 351.87488938 3056.3313327 351.87488938 3054 351 C3054 350.34 3054 349.68 3054 349 C3053.34 348.67 3052.68 348.34 3052 348 C3051.5859375 345.93359375 3051.5859375 345.93359375 3051.375 343.4375 C3051.30023437 342.61121094 3051.22546875 341.78492188 3051.1484375 340.93359375 C3051.09945312 340.29550781 3051.05046875 339.65742188 3051 339 C3050.67 340.32 3050.34 341.64 3050 343 C3046.125 341.25 3046.125 341.25 3045 339 C3044.92660387 337.01426758 3044.91645214 335.02603941 3044.9375 333.0390625 C3044.94523437 331.84539062 3044.95296875 330.65171875 3044.9609375 329.421875 C3044.9868988 326.89843667 3045.01293997 324.37499916 3045.0390625 321.8515625 C3045.04679687 320.6553125 3045.05453125 319.4590625 3045.0625 318.2265625 C3045.07410156 317.12908691 3045.08570312 316.03161133 3045.09765625 314.90087891 C3045.1043113 312.08052377 3045.1043113 312.08052377 3044.43359375 309.73583984 C3044 308 3044 308 3045 306 C3044.90790415 303.42428702 3044.75822505 300.88058164 3044.5625 298.3125 C3044.00559899 290.19080908 3043.89337024 282.13940501 3044 274 C3043.34 275.98 3042.68 277.96 3042 280 C3040 277 3040 277 3040.4375 274.5 C3040.7159375 273.2625 3040.7159375 273.2625 3041 272 C3040.505 270.515 3040.505 270.515 3040 269 C3040.4375 266.3125 3040.4375 266.3125 3041 264 C3040.34 263.67 3039.68 263.34 3039 263 C3039.495 260.525 3039.495 260.525 3040 258 C3039.01 258.33 3038.02 258.66 3037 259 C3037.66 257.35 3038.32 255.7 3039 254 C3038.34 254 3037.68 254 3037 254 C3035.9287172 247.97403427 3035.90054585 242.11090483 3036 236 C3035.34 236 3034.68 236 3034 236 C3034 233.69 3034 231.38 3034 229 C3033.34 229 3032.68 229 3032 229 C3031.9690625 230.7325 3031.9690625 230.7325 3031.9375 232.5 C3031.92589844 233.1496875 3031.91429688 233.799375 3031.90234375 234.46875 C3031.96468837 237.20957897 3031.96468837 237.20957897 3032.53125 240.73046875 C3033.11093899 245.15709118 3032.88675913 249.37285991 3032.5625 253.8125 C3031.76028051 266.76770802 3031.7246173 279.6637465 3032.4375 292.625 C3032.47665527 293.35412598 3032.51581055 294.08325195 3032.55615234 294.83447266 C3032.5008996 298.20779673 3032.5008996 298.20779673 3034 301 C3034.04775936 302.81187066 3034.036935 304.62537637 3034 306.4375 C3033.96404893 310.26179488 3034.03447413 313.95467105 3034.5 317.75 C3035.09791228 322.89038474 3035.02850431 327.99793072 3034.98046875 333.16235352 C3034.95161988 338.20549655 3035.3452009 343.00715686 3036 348 C3036.03400652 349.6663197 3036.05373549 351.33419981 3036 353 C3033 353 3030 353 3027 353 C3027.33 352.01 3027.66 351.02 3028 350 C3024.71009876 348.10198005 3021.72279213 347.6078028 3018 347 C3016.3255761 346.3530635 3014.65697379 345.69040574 3013 345 C3012.34 345 3011.68 345 3011 345 C3010.67 344.34 3010.34 343.68 3010 343 C3007.69 343 3005.38 343 3003 343 C3003 342.34 3003 341.68 3003 341 C3002.113125 341.165 3001.22625 341.33 3000.3125 341.5 C2997.46403108 341.92995757 2994.86995198 342.08441035 2992 342 C2992 341.34 2992 340.68 2992 340 C2990.54096742 340.30921884 2989.08279278 340.62248799 2987.625 340.9375 C2986.40683594 341.19853516 2986.40683594 341.19853516 2985.1640625 341.46484375 C2982.970537 341.92330693 2982.970537 341.92330693 2981 343 C2980.505 342.505 2980.505 342.505 2980 342 C2979.34 342.66 2978.68 343.32 2978 344 C2974.875 343.625 2974.875 343.625 2972 343 C2972 342.34 2972 341.68 2972 341 C2970.8553125 341.5259375 2970.8553125 341.5259375 2969.6875 342.0625 C2967 343 2967 343 2964 342 C2964 343.32 2964 344.64 2964 346 C2960.62496331 344.8141763 2958.35277269 343.72426311 2956 341 C2954.68 341.66 2953.36 342.32 2952 343 C2951.67 342.34 2951.34 341.68 2951 341 C2948.525 341.99 2948.525 341.99 2946 343 C2946 342.01 2946 341.02 2946 340 C2944.02 340.33 2942.04 340.66 2940 341 C2940 340.34 2940 339.68 2940 339 C2936.39007621 339.65585189 2936.39007621 339.65585189 2933 341 C2933 340.34 2933 339.68 2933 339 C2931.96875 339.165 2930.9375 339.33 2929.875 339.5 C2926.51137212 339.9340165 2923.37942233 340 2920 340 C2917.73433657 340.43941523 2917.73433657 340.43941523 2916 341 C2916 340.34 2916 339.68 2916 339 C2914.68 338.67 2913.36 338.34 2912 338 C2911.67 338.66 2911.34 339.32 2911 340 C2911 339.34 2911 338.68 2911 338 C2909.9275 338.185625 2908.855 338.37125 2907.75 338.5625 C2904 339 2904 339 2901.875 338.375 C2898.96390926 337.79278185 2897.43371642 339.45666764 2895 341 C2892.1875 341.6875 2892.1875 341.6875 2890 342 C2889.67 341.34 2889.34 340.68 2889 340 C2888.67 340.99 2888.34 341.98 2888 343 C2887.360625 342.835 2886.72125 342.67 2886.0625 342.5 C2883.24950504 341.79004466 2883.24950504 341.79004466 2880.5 343.3125 C2877.72212778 344.81795991 2877.72212778 344.81795991 2877 348 C2876.34 348 2875.68 348 2875 348 C2875 348.66 2875 349.32 2875 350 C2874.34 350 2873.68 350 2873 350 C2873.20625 350.598125 2873.4125 351.19625 2873.625 351.8125 C2874 354 2874 354 2872 357 C2871.01 357 2870.02 357 2869 357 C2868.67 357.99 2868.34 358.98 2868 360 C2868 359.01 2868 358.02 2868 357 C2867.01 356.896875 2866.02 356.79375 2865 356.6875 C2862.10791035 356.29155915 2860.27270108 355.68830046 2857.5 354.5 C2853.53168925 352.87870573 2849.89112159 352.77092368 2845.625 352.625 C2839.56255384 352.33631209 2835.51599375 351.29847793 2830.296875 348.27734375 C2826.72321605 346.28995178 2822.90604341 345.16049116 2819 344 C2819 343.34 2819 342.68 2819 342 C2818.443125 341.87625 2817.88625 341.7525 2817.3125 341.625 C2814.77885636 340.94023145 2812.42078968 340.00866237 2810 339 C2810 338.34 2810 337.68 2810 337 C2809.030625 336.71125 2808.06125 336.4225 2807.0625 336.125 C2804 335 2804 335 2803 333 C2802.01 332.67 2801.02 332.34 2800 332 C2797.41309808 329.54925081 2794.9869493 326.9859454 2792.5625 324.375 C2789.87295024 321.88224657 2787.33906463 320.47540065 2784 319 C2784 318.34 2784 317.68 2784 317 C2783.113125 316.731875 2782.22625 316.46375 2781.3125 316.1875 C2778 315 2778 315 2775.5 313.4375 C2769.82875886 310.17653634 2764.2583305 311.12664963 2758 311.84375 C2755 312 2755 312 2752.015625 311.4921875 C2748.70232257 310.95141534 2746.06438007 311.1336723 2742.75 311.625 C2741.71359375 311.76164062 2740.6771875 311.89828125 2739.609375 312.0390625 C2736.7823827 312.73611109 2736.7823827 312.73611109 2735.84375 315.41015625 C2735.5653125 316.26480469 2735.286875 317.11945313 2735 318 C2731.95591077 321.17746428 2729.0874786 322.91792614 2724.6875 323.25 C2723.800625 323.1675 2722.91375 323.085 2722 323 C2721.34 323.33 2720.68 323.66 2720 324 C2718.15865518 323.76130715 2716.31781516 323.51773718 2714.48046875 323.25 C2710.65957381 322.86490193 2706.86111852 323.03150609 2703.02734375 323.16015625 C2700 323 2700 323 2697.1081543 322.01147461 C2691.60693235 320.39369538 2685.92921903 320.68183229 2680.2421875 320.65625 C2678.41036423 320.6343158 2678.41036423 320.6343158 2676.54153442 320.61193848 C2671.33394584 320.54984875 2666.12624183 320.51003711 2660.91845703 320.46826172 C2657.10957454 320.43452957 2653.30094242 320.3894275 2649.4921875 320.34375 C2647.72643875 320.33583435 2647.72643875 320.33583435 2645.92501831 320.32775879 C2644.8268277 320.31434448 2643.72863708 320.30093018 2642.59716797 320.28710938 C2641.63455048 320.27981812 2640.67193298 320.27252686 2639.68014526 320.26501465 C2636.8037245 319.98059214 2634.61837078 319.19589497 2632 318 C2632 317.34 2632 316.68 2632 316 C2630.68 315.67 2629.36 315.34 2628 315 C2628 314.34 2628 313.68 2628 313 C2627.443125 312.9175 2626.88625 312.835 2626.3125 312.75 C2622.46832163 311.50323945 2619.81736793 308.81736793 2617 306 C2615.67592331 305.31513275 2614.34090759 304.65129797 2613 304 C2610.25 302.5 2610.25 302.5 2608 301 C2608 300.34 2608 299.68 2608 299 C2606.88625 298.814375 2606.88625 298.814375 2605.75 298.625 C2603.19858515 298.04513299 2601.2732427 297.26291261 2599 296 C2599 295.34 2599 294.68 2599 294 C2597.865625 293.731875 2596.73125 293.46375 2595.5625 293.1875 C2594.386875 292.795625 2593.21125 292.40375 2592 292 C2591.505 290.515 2591.505 290.515 2591 289 C2589.35 288.67 2587.7 288.34 2586 288 C2586 287.34 2586 286.68 2586 286 C2585.05125 285.690625 2584.1025 285.38125 2583.125 285.0625 C2580 284 2580 284 2578 283 C2578 282.34 2578 281.68 2578 281 C2576.7625 280.896875 2575.525 280.79375 2574.25 280.6875 C2570.67411662 280.24603292 2568.69236177 279.49292756 2566 277 C2565.01 276.34 2564.02 275.68 2563 275 C2562.55859375 273.046875 2562.55859375 273.046875 2562.4375 270.75 C2562.13393736 266.87183242 2561.28185746 263.68534019 2560 260 C2559.87625 258.7625 2559.7525 257.525 2559.625 256.25 C2559.41875 255.1775 2559.2125 254.105 2559 253 C2557.13252737 251.60761953 2557.13252737 251.60761953 2555 251 C2553 249 2553 249 2552.125 247 C2550.7636296 244.57978596 2549.53453445 244.01381378 2547 243 C2547 242.34 2547 241.68 2547 241 C2546.01 240.67 2545.02 240.34 2544 240 C2544 239.01 2544 238.02 2544 237 C2542.68 237 2541.36 237 2540 237 C2539.34 235.68 2538.68 234.36 2538 233 C2537.34 233 2536.68 233 2536 233 C2535.505 231.02 2535.505 231.02 2535 229 C2533.329375 228.5978125 2533.329375 228.5978125 2531.625 228.1875 C2528 227 2528 227 2526 224 C2521.50878144 221.51549612 2517.83392976 219.85778432 2512.6875 220 C2509.01032941 220.04806759 2505.61570214 219.74168249 2502 219 C2501.27596778 216.18431914 2500.93299404 214.30524938 2501.5625 211.4375 C2502.09010245 208.49800065 2501.41379068 207.54267296 2500 205 C2500.03480469 205.75925781 2500.06960937 206.51851562 2500.10546875 207.30078125 C2500.13253906 208.29464844 2500.15960937 209.28851563 2500.1875 210.3125 C2500.22230469 211.29863281 2500.25710937 212.28476563 2500.29296875 213.30078125 C2500 216 2500 216 2498.48828125 217.85546875 C2497.99714844 218.23316406 2497.50601563 218.61085937 2497 219 C2496.01 218.67 2495.02 218.34 2494 218 C2491.36195411 218.39397335 2491.36195411 218.39397335 2489 219 C2489 218.34 2489 217.68 2489 217 C2488.34 217 2487.68 217 2487 217 C2487 215.35 2487 213.7 2487 212 C2486.34 212 2485.68 212 2485 212 C2484.34 213.32 2483.68 214.64 2483 216 C2481.865625 215.979375 2480.73125 215.95875 2479.5625 215.9375 C2476.18424326 215.58422523 2476.18424326 215.58422523 2475 217 C2473.33382885 217.04063832 2471.66611905 217.042721 2470 217 C2469.67 217.66 2469.34 218.32 2469 219 C2469 218.34 2469 217.68 2469 217 C2467.9275 217.2475 2466.855 217.495 2465.75 217.75 C2462 218 2462 218 2459.625 216.4375 C2458 214 2458 214 2457.625 210.9375 C2457.41875 209.968125 2457.2125 208.99875 2457 208 C2454.06644453 206.19970518 2454.06644453 206.19970518 2451 205 C2450.505 204.01 2450.505 204.01 2450 203 C2450.33 202.01 2450.66 201.02 2451 200 C2452.84765625 199.26953125 2452.84765625 199.26953125 2455.0625 198.8125 C2455.79597656 198.65394531 2456.52945313 198.49539062 2457.28515625 198.33203125 C2457.85105469 198.22246094 2458.41695312 198.11289063 2459 198 C2455.27082295 197.30619962 2451.79156816 196.89752518 2448 197 C2447.01 197 2446.02 197 2445 197 C2444.34 197.350625 2443.68 197.70125 2443 198.0625 C2441 199 2441 199 2438 198 C2435 194.55555556 2435 194.55555556 2435 192 C2435.66 191.67 2436.32 191.34 2437 191 C2436.505 187.535 2436.505 187.535 2436 184 C2435.01 184.66 2434.02 185.32 2433 186 C2429.05220686 186 2426.6037898 185.52160014 2423 184 C2422.67 183.01 2422.34 182.02 2422 181 C2419.72942623 180.94601013 2417.45848712 180.90721258 2415.1875 180.875 C2413.92292969 180.85179687 2412.65835938 180.82859375 2411.35546875 180.8046875 C2407.8661976 180.72418082 2407.8661976 180.72418082 2405 183 C2402.2578125 183.44921875 2402.2578125 183.44921875 2399.125 183.6875 C2398.09632813 183.77386719 2397.06765625 183.86023438 2396.0078125 183.94921875 C2393.15370333 183.99740501 2390.76259558 183.6779063 2388 183 C2388 182.01 2388 181.02 2388 180 C2387.34 180 2386.68 180 2386 180 C2386 179.34 2386 178.68 2386 178 C2386.66 178 2387.32 178 2388 178 C2387.98259766 176.77023438 2387.98259766 176.77023438 2387.96484375 175.515625 C2387.95582031 174.43796875 2387.94679688 173.3603125 2387.9375 172.25 C2387.92009766 170.64898437 2387.92009766 170.64898437 2387.90234375 169.015625 C2387.98489913 166.46631499 2388.25382442 164.42066409 2389 162 C2388.01 161.34 2387.02 160.68 2386 160 C2386 160.66 2386 161.32 2386 162 C2385.34 162 2384.68 162 2384 162 C2383.34 161.01 2382.68 160.02 2382 159 C2380.0187415 158.27954236 2378.01495907 157.61998741 2376 157 C2373.98529902 156.02995879 2371.98077953 155.03755118 2370 154 C2370 153.34 2370 152.68 2370 152 C2368.4840625 151.443125 2368.4840625 151.443125 2366.9375 150.875 C2366.36902344 150.66617188 2365.80054687 150.45734375 2365.21484375 150.2421875 C2358.79851976 149.54057888 2351.57314434 153.65031018 2345.75 156 C2344.8528125 156.35578125 2343.955625 156.7115625 2343.03125 157.078125 C2342.17015625 157.42359375 2341.3090625 157.7690625 2340.421875 158.125 C2339.25543457 158.59292969 2339.25543457 158.59292969 2338.06542969 159.0703125 C2335.76612947 160.03725111 2335.76612947 160.03725111 2333 162 C2332.01 162 2331.02 162 2330 162 C2330.7425 163.36125 2330.7425 163.36125 2331.5 164.75 C2333 168 2333 168 2333 172 C2333.99 171.01 2334.98 170.02 2336 169 C2337.03159626 172.09478879 2336.97482862 173.52631393 2336.5625 176.6875 C2336.46066406 177.49574219 2336.35882812 178.30398437 2336.25390625 179.13671875 C2336.17011719 179.75160156 2336.08632812 180.36648437 2336 181 C2334.35 180.34 2332.7 179.68 2331 179 C2331 179.99 2331 180.98 2331 182 C2326.9472484 182.98248524 2323.16138263 183.08159574 2319 183 C2319 182.34 2319 181.68 2319 181 C2316.92156989 181.47359212 2316.92156989 181.47359212 2315 183 C2314.29211565 186.33975372 2314.29211565 186.33975372 2314.25 190.125 C2314.19328125 191.40632812 2314.1365625 192.68765625 2314.078125 194.0078125 C2314.05234375 194.99523437 2314.0265625 195.98265625 2314 197 C2316.97 197.66 2319.94 198.32 2323 199 C2325.21538462 205.4 2325.21538462 205.4 2324.125 208.4375 C2323.75375 208.953125 2323.3825 209.46875 2323 210 C2322.34 210 2321.68 210 2321 210 C2318.2414853 211.20379627 2315.53866143 212.50877195 2312.82421875 213.80859375 C2310.18733597 214.92097169 2307.81698146 215.5535931 2305 216 C2304.95745644 217.99954746 2304.95919217 220.00041636 2305 222 C2305.33 222.33 2305.66 222.66 2306 223 C2306 222.01 2306 221.02 2306 220 C2306.66 219.67 2307.32 219.34 2308 219 C2308 218.34 2308 217.68 2308 217 C2309.26839526 216.49384702 2310.53983102 215.99530901 2311.8125 215.5 C2312.52019531 215.2215625 2313.22789062 214.943125 2313.95703125 214.65625 C2316 214 2316 214 2319 214 C2319.33 213.01 2319.66 212.02 2320 211 C2321.32 211.33 2322.64 211.66 2324 212 C2322.81815291 218.02742016 2321.18192793 220.34216852 2316 224 C2315.05125 224.556875 2314.1025 225.11375 2313.125 225.6875 C2312.42375 226.120625 2311.7225 226.55375 2311 227 C2311 227.66 2311 228.32 2311 229 C2312.98 228.67 2314.96 228.34 2317 228 C2316.505 230.97 2316.505 230.97 2316 234 C2308 234 2308 234 2305 232 C2305 231.34 2305 230.68 2305 230 C2305.66 229.67 2306.32 229.34 2307 229 C2306.34 227.68 2305.68 226.36 2305 225 C2304.34 227.31 2303.68 229.62 2303 232 C2299.66666667 231.33333333 2296.33333333 230.66666667 2293 230 C2293 230.66 2293 231.32 2293 232 C2292.4225 232.20625 2291.845 232.4125 2291.25 232.625 C2288.70959818 233.95861411 2288.70959818 233.95861411 2286.9375 237.125 C2286.298125 238.07375 2285.65875 239.0225 2285 240 C2284.01 240 2283.02 240 2282 240 C2281.79375 240.556875 2281.5875 241.11375 2281.375 241.6875 C2279.48959912 244.85840149 2276.84640641 246.68729479 2274 249 C2273.34 249.99 2272.68 250.98 2272 252 C2269.69631264 253.06652192 2267.35981813 254.06421005 2265 255 C2261.82144422 256.2886999 2261.82144422 256.2886999 2260 259 C2256.48253401 261.34497733 2252.7174107 263.15749664 2248.9296875 265.015625 C2247.28817363 265.85299645 2245.69908161 266.79186337 2244.125 267.75 C2242 269 2242 269 2240 269 C2240 269.66 2240 270.32 2240 271 C2238.9275 271.2475 2237.855 271.495 2236.75 271.75 C2232.90669323 273.03110226 2231.68114697 274.13394634 2229 277 C2228.35417969 277.11085938 2227.70835937 277.22171875 2227.04296875 277.3359375 C2224.8169744 277.82694359 2224.8169744 277.82694359 2223.65625 280.00390625 C2223.2746875 280.84824219 2222.893125 281.69257813 2222.5 282.5625 C2222.08363281 283.45839844 2221.66726562 284.35429687 2221.23828125 285.27734375 C2220.62533203 286.62505859 2220.62533203 286.62505859 2220 288 C2219.23609654 289.54511218 2218.46602645 291.08720394 2217.6875 292.625 C2217.130625 293.73875 2216.57375 294.8525 2216 296 C2215.34 296 2214.68 296 2214 296 C2214 296.66 2214 297.32 2214 298 C2213.34 298 2212.68 298 2212 298 C2211.71125 298.72445313 2211.4225 299.44890625 2211.125 300.1953125 C2210.42395891 301.94304688 2209.71670514 303.68831798 2209 305.4296875 C2207.43345174 309.26038754 2205.94538171 312.96524591 2205 317 C2204 320 2204 320 2202.125 321.125 C2201.073125 321.558125 2201.073125 321.558125 2200 322 C2199.071875 323.175625 2199.071875 323.175625 2198.125 324.375 C2195.70125176 327.36904194 2193.22377315 328.89854884 2190 331 C2187.92607976 332.50522261 2185.86350319 334.02619723 2183.8125 335.5625 C2182.78769531 336.32691406 2181.76289063 337.09132813 2180.70703125 337.87890625 C2178.07461728 339.84578136 2178.07461728 339.84578136 2176.26171875 341.77734375 C2175 343 2175 343 2173 343 C2172.87753906 343.55945313 2172.75507813 344.11890625 2172.62890625 344.6953125 C2170.74484078 351.59965181 2167.64637509 357.46808766 2161.64453125 361.49609375 C2154.4932186 365.56294068 2147.04801917 369.06051982 2139.6328125 372.61328125 C2136.93360032 373.86899486 2136.93360032 373.86899486 2135 376 C2134.030625 376.391875 2133.06125 376.78375 2132.0625 377.1875 C2127.54428556 379.0156245 2123.66651991 381.74795066 2119.6484375 384.4765625 C2117.01893686 385.98910712 2114.985336 386.60123671 2112 387 C2112 387.66 2112 388.32 2112 389 C2109.730384 390.14829977 2107.45939222 391.29371978 2105.1875 392.4375 C2104.22360352 392.92573242 2104.22360352 392.92573242 2103.24023438 393.42382812 C2100.51734534 394.79232676 2097.89550206 396.03483265 2095 397 C2095 397.66 2095 398.32 2095 399 C2094.01 399 2093.02 399 2092 399 C2091.79117188 399.721875 2091.58234375 400.44375 2091.3671875 401.1875 C2089.64581088 404.72861762 2087.17903607 406.6563752 2084.125 409 C2079.79815887 412.35249355 2079.79815887 412.35249355 2076.2265625 416.48046875 C2072.88122665 420.26598037 2068.72945844 422.07954938 2064.25 424.3125 C2063.31784668 424.78816406 2062.38569336 425.26382812 2061.42529297 425.75390625 C2058.62239067 427.18052456 2055.81182266 428.59106412 2053 430 C2051.43445458 430.79470426 2049.86931623 431.59021121 2048.3046875 432.38671875 C2033.79692105 439.73435965 2033.79692105 439.73435965 2027 442 C2026.93941406 442.6290625 2026.87882812 443.258125 2026.81640625 443.90625 C2026.29004493 449.28323337 2025.69453543 454.64215527 2025 460 C2024.34 460 2023.68 460 2023 460 C2022.74283203 460.92619141 2022.74283203 460.92619141 2022.48046875 461.87109375 C2020.21585769 465.1275925 2017.00031144 465.32094729 2013.3125 466.0625 C2009.25973867 466.92263192 2005.61075382 467.70336987 2001.86328125 469.5234375 C1996.27714501 472.06215611 1989.9052021 472.03880825 1983.875 472.5625 C1981.37178437 472.78622969 1978.869138 473.01644647 1976.3671875 473.25390625 C1974.71372314 473.39807983 1974.71372314 473.39807983 1973.02685547 473.54516602 C1967.5870264 474.36258831 1964.72400521 476.05029751 1961 480 C1959.01942511 481.69763562 1957.02345501 483.35512689 1955 485 C1954.26652344 485.61101562 1953.53304688 486.22203125 1952.77734375 486.8515625 C1945.07438401 493.17506986 1937.02076959 498.71513444 1928 503 C1927.01 503.66 1926.02 504.32 1925 505 C1923.53198434 505.48401084 1922.04748375 505.91919426 1920.5546875 506.3203125 C1914.54482346 508.05765804 1908.87381174 510.42384212 1903.125 512.875 C1901.10677083 513.7265625 1899.08854167 514.578125 1897.0703125 515.4296875 C1895.57902832 516.06197266 1895.57902832 516.06197266 1894.05761719 516.70703125 C1868.37326732 527.5681233 1868.37326732 527.5681233 1856 528 C1855.24572703 532.97906259 1855.24572703 532.97906259 1855 538 C1854.34 538 1853.68 538 1853 538 C1853 538.99 1853 539.98 1853 541 C1851.02 541 1849.04 541 1847 541 C1847 540.34 1847 539.68 1847 539 C1846.01 539 1845.02 539 1844 539 C1844 538.34 1844 537.68 1844 537 C1842.906875 536.855625 1841.81375 536.71125 1840.6875 536.5625 C1837 536 1837 536 1834 535 C1833.67 534.34 1833.34 533.68 1833 533 C1818.65436539 523.75164407 1798.64788 524.49352556 1782.19140625 523.8984375 C1777.03504548 523.55885048 1773.59048171 521.9190201 1769.17578125 519.265625 C1763.43910616 515.92867217 1757.05062749 514.43437566 1750.6796875 512.7578125 C1748.26434287 512.07475586 1745.96287419 511.28368318 1743.625 510.375 C1740.63953637 509.24258276 1738.11756469 508.53226714 1735 508 C1734.33226562 507.78859375 1733.66453125 507.5771875 1732.9765625 507.359375 C1728.53968005 506.05708186 1725.96241904 505.6092396 1721.8125 507.875 C1721.16925781 508.25914062 1720.52601562 508.64328125 1719.86328125 509.0390625 C1717.21689004 510.40386803 1714.91342265 510.29134227 1712 510 C1712 510.66 1712 511.32 1712 512 C1711.030625 512.2475 1710.06125 512.495 1709.0625 512.75 C1705.33815612 513.81196151 1701.91727145 515.31467751 1698.3984375 516.91796875 C1686.4133829 522.32490706 1686.4133829 522.32490706 1680 523 C1680 523.66 1680 524.32 1680 525 C1678.96101563 525.24234375 1677.92203125 525.4846875 1676.8515625 525.734375 C1669.97490367 527.37293449 1663.35720741 529.06326738 1656.84375 531.8515625 C1652.82303293 533.47531362 1648.73276648 534.86392385 1644.625 536.25 C1643.83883301 536.52054199 1643.05266602 536.79108398 1642.24267578 537.06982422 C1641.4948584 537.32006348 1640.74704102 537.57030273 1639.9765625 537.828125 C1639.30705566 538.0540332 1638.63754883 538.27994141 1637.94775391 538.51269531 C1636 539 1636 539 1632 539 C1632 539.66 1632 540.32 1632 541 C1626.88688141 542.85130156 1621.89290731 544.28906137 1616.5625 545.375 C1605.58390718 547.66515807 1594.71044884 550.18850487 1584.49658203 554.90161133 C1575.00436847 559.2566695 1568.34239382 559.58792309 1558 558 C1556.08574219 557.76796875 1556.08574219 557.76796875 1554.1328125 557.53125 C1548.26309959 556.78667754 1542.6273872 555.87579573 1537 554 C1536.319375 553.78472656 1535.63875 553.56945312 1534.9375 553.34765625 C1527.05065837 550.81455607 1519.33594088 547.86102152 1512 544 C1512 543.34 1512 542.68 1512 542 C1510.02 541.67 1508.04 541.34 1506 541 C1506 540.34 1506 539.68 1506 539 C1505.113125 539.185625 1504.22625 539.37125 1503.3125 539.5625 C1496.036237 540.60409184 1487.6621687 540.23758023 1481 537 C1479.66666667 535.66666667 1478.33333333 534.33333333 1477 533 C1474.36777038 531.74563813 1474.36777038 531.74563813 1472 531 C1472 530.34 1472 529.68 1472 529 C1470.7625 528.87625 1469.525 528.7525 1468.25 528.625 C1465.1237803 528.24253695 1462.71120763 527.69450477 1460 526 C1460 525.34 1460 524.68 1460 524 C1458.7315625 523.87625 1458.7315625 523.87625 1457.4375 523.75 C1452.83912959 522.74671918 1448.87811847 520.92283558 1445.5234375 517.48828125 C1443.34385435 515.35899618 1440.8976568 514.33649357 1438.16015625 513.0546875 C1436 512 1436 512 1434.12109375 510.8203125 C1428.10942315 507.18067894 1422.77285452 507.96149564 1416 509 C1416 509.66 1416 510.32 1416 511 C1414.96875 511.12375 1413.9375 511.2475 1412.875 511.375 C1411.24989622 511.58252225 1409.62491633 511.7910151 1408 512 C1406.81921875 512.14566406 1405.6384375 512.29132812 1404.421875 512.44140625 C1403.16890625 512.60511719 1401.9159375 512.76882813 1400.625 512.9375 C1399.42101563 513.09089844 1398.21703125 513.24429688 1396.9765625 513.40234375 C1393.89561252 513.73500737 1393.89561252 513.73500737 1392 516 C1390.34080104 516.36871088 1388.67225729 516.69595322 1387 517 C1385.66582031 517.46212891 1385.66582031 517.46212891 1384.3046875 517.93359375 C1380.68616826 519.10127194 1377.10861294 519.84795083 1373.375 520.5625 C1368.6008045 521.44684858 1368.6008045 521.44684858 1363.88671875 522.58984375 C1361.36480722 523.13808539 1359.01733217 523.05381658 1356.4375 523 C1352.3715463 522.94957667 1348.36131418 523.01740634 1344.30859375 523.32421875 C1330.04115296 524.39725747 1320.40317603 522.50718549 1308 515 C1306.66829135 514.33009382 1305.33483821 513.66364838 1304 513 C1303.42121094 512.68160156 1302.84242187 512.36320313 1302.24609375 512.03515625 C1296.72912305 509.06814609 1291.08197984 507.42731066 1285 506 C1283.82630859 505.70996094 1283.82630859 505.70996094 1282.62890625 505.4140625 C1278.03843982 504.69104698 1273.42195292 505.04221097 1268.7890625 505.16015625 C1262.65178926 504.90074573 1258.15125441 503.20213112 1253 500 C1250.80869466 499.30420546 1250.80869466 499.30420546 1249 499 C1249 498.34 1249 497.68 1249 497 C1246.00165422 496.57986889 1243.00392898 496.18854741 1240 495.8125 C1239.16082031 495.69197266 1238.32164063 495.57144531 1237.45703125 495.44726562 C1230.0937007 494.56252436 1225.26453563 495.82364291 1219 500 C1218.2575 500.2475 1217.515 500.495 1216.75 500.75 C1214.11396745 501.94819661 1212.67488601 503.07880125 1210.5625 505 C1207.53358291 507.72536549 1204.9309829 508.83857323 1201 510 C1199.97895449 510.97850195 1198.9793879 511.97980427 1198 513 C1196.00892752 514.01765927 1194.00781177 515.01577854 1192 516 C1189.95675315 517.27876673 1187.98439229 518.62982437 1186 520 C1186 519.34 1186 518.68 1186 518 C1185.34 518 1184.68 518 1184 518 C1183.7525 518.639375 1183.505 519.27875 1183.25 519.9375 C1182 522 1182 522 1180.1875 522.9375 C1177.09168017 523.025952 1175.55715868 521.68398255 1173 520 C1172.113125 519.690625 1171.22625 519.38125 1170.3125 519.0625 C1168 518 1168 518 1167.125 516.0625 C1165.34893351 512.80637811 1162.3450381 512.31412211 1159 511 C1158.34 510.34 1157.68 509.68 1157 509 C1157 508.01 1157 507.02 1157 506 C1156.34 506 1155.68 506 1155 506 C1155 505.34 1155 504.68 1155 504 C1154.34 504 1153.68 504 1153 504 C1153 503.34 1153 502.68 1153 502 C1152.01 502 1151.02 502 1150 502 C1149.34 500.02 1148.68 498.04 1148 496 C1146.68 496 1145.36 496 1144 496 C1142.5078125 494.35546875 1142.5078125 494.35546875 1141.125 492.1875 C1138.53996493 488.46162037 1136.32298176 486.64685019 1132 485 C1132 484.34 1132 483.68 1132 483 C1131.38125 482.690625 1130.7625 482.38125 1130.125 482.0625 C1128.75 481.375 1127.375 480.6875 1126 480 C1126 479.34 1126 478.68 1126 478 C1124.35 478 1122.7 478 1121 478 C1121.33 476.68 1121.66 475.36 1122 474 C1121.34 474 1120.68 474 1120 474 C1120 473.34 1120 472.68 1120 472 C1119.1028125 471.5978125 1119.1028125 471.5978125 1118.1875 471.1875 C1116 470 1116 470 1114.5625 468.5 C1112.5843405 466.60096688 1110.56441218 465.90100969 1108 465 C1108 464.34 1108 463.68 1108 463 C1105.49881715 461.3703727 1102.90043556 459.97337595 1100.28515625 458.53515625 C1098 457 1098 457 1097 454 C1094.98491642 453.26676204 1094.98491642 453.26676204 1093 453 C1093 452.34 1093 451.68 1093 451 C1092.38125 450.7525 1091.7625 450.505 1091.125 450.25 C1088.59641373 448.76259631 1088.28160996 447.56321991 1087 445 C1086.34 444.67 1085.68 444.34 1085 444 C1083 443 1083 443 1082.1875 440.9375 C1081.09326563 438.6420492 1081.09326563 438.6420492 1077.9375 438.25 C1070.1387387 437.75484055 1063.42444214 437.65245634 1056.0625 440.5 C1049.64316252 442.92080081 1049.64316252 442.92080081 1046 443 C1043.9866347 441.68693567 1041.98768394 440.35162508 1040 439 C1037.30060115 438.38383287 1034.7759357 438.19144384 1032 438 C1032 438.66 1032 439.32 1032 440 C1030.3733152 439.71788123 1028.74867104 439.42397625 1027.125 439.125 C1026.22007813 438.96257812 1025.31515625 438.80015625 1024.3828125 438.6328125 C1022 438 1022 438 1020 436 C1017.33757179 435.53709779 1017.33757179 435.53709779 1014.375 435.375 C1012.87066406 435.26285156 1012.87066406 435.26285156 1011.3359375 435.1484375 C1010.56507813 435.09945313 1009.79421875 435.05046875 1009 435 C1008.67 434.01 1008.34 433.02 1008 432 C1006.33524314 431.65725594 1004.66804677 431.32635698 1003 431 C1002.08089844 430.81953125 1001.16179688 430.6390625 1000.21484375 430.453125 C996.9426544 429.99191727 993.98371282 430.03858684 990.6875 430.1875 C984.57904104 430.26455625 980.2581209 429.04346016 975 426 C975 425.34 975 424.68 975 424 C974.01 424 973.02 424 972 424 C972 423.01 972 422.02 972 421 C971.34 421 970.68 421 970 421 C970 420.34 970 419.68 970 419 C969.34 419 968.68 419 968 419 C966.07257338 417.40777801 964.98346126 415.96866343 963.8125 413.75 C961.59932067 410.39207274 958.92860933 408.19077342 955.83984375 405.6484375 C954 404 954 404 952 401 C950.11683841 399.89163577 950.11683841 399.89163577 948 399 C944.76311542 397.57196269 944.07010268 397.10515402 942 394 C940.33360669 392.99954454 938.66686485 391.99966962 937 391 C934.14672602 388.80352575 931.38896234 386.4948287 928.625 384.1875 C927.89539063 383.58357422 927.16578125 382.97964844 926.4140625 382.35742188 C924.26984778 380.57887234 922.13321592 378.79172138 920 377 C919.3299292 376.43869385 918.6598584 375.8773877 917.96948242 375.29907227 C917.34662354 374.77240967 916.72376465 374.24574707 916.08203125 373.703125 C915.53264893 373.23938477 914.9832666 372.77564453 914.41723633 372.29785156 C913 371 913 371 911.0625 368.5625 C909.19582085 366.24329257 907.38289462 364.54143608 905.125 362.625 C901.83709644 359.81989269 899.03613888 356.87868525 896.296875 353.54296875 C894.95109053 351.87998697 894.95109053 351.87998697 893 350.125 C889.23469937 346.12436808 886.22690152 341.33111288 883.671875 336.4765625 C881.61690639 333.43252022 879.34635203 331.86282876 876.3125 329.8125 C874.50869949 328.58891029 872.72775082 327.32881345 871 326 C871 325.34 871 324.68 871 324 C870.13375 323.62875 870.13375 323.62875 869.25 323.25 C866.67060021 321.81700012 864.93878408 320.21575324 863 318 C863 317.34 863 316.68 863 316 C862.236875 315.731875 861.47375 315.46375 860.6875 315.1875 C858.07686496 314.03396359 856.92614911 313.01370135 855 311 C854.01 310.67 853.02 310.34 852 310 C851.979375 309.0925 851.95875 308.185 851.9375 307.25 C851.27531623 303.7628209 851.27531623 303.7628209 848.125 301.75 C843.38374477 299.37442327 838.20578537 298.71544247 833 298 C833 298.66 833 299.32 833 300 C831.39985065 300.45221612 829.79964483 300.904233 828.19921875 301.35546875 C826.6325176 301.81462628 825.07317405 302.29921153 823.51953125 302.80078125 C818.87643122 304.28292059 814.94039281 305.39003101 810 305 C810 305.66 810 306.32 810 307 C806.7 307 803.4 307 800 307 C800 307.66 800 308.32 800 309 C795.40328841 309.901316 792.10637637 310.53629129 788 308 C787.1875 305.875 787.1875 305.875 787 304 C786.4225 303.896875 785.845 303.79375 785.25 303.6875 C782.64338842 302.89103535 781.0264689 301.80934723 779 300 C779 299.34 779 298.68 779 298 C777.4221875 297.6596875 777.4221875 297.6596875 775.8125 297.3125 C771.80332289 296.18315433 769.82845763 294.05175692 767 291 C766.071875 290.443125 765.14375 289.88625 764.1875 289.3125 C763.465625 288.879375 762.74375 288.44625 762 288 C762 287.34 762 286.68 762 286 C760.99839844 286.15597656 759.99679687 286.31195313 758.96484375 286.47265625 C757.62247165 286.66978782 756.28001927 286.86637324 754.9375 287.0625 C753.95233398 287.2181543 753.95233398 287.2181543 752.94726562 287.37695312 C748.3998742 288.02658047 744.50449163 287.8372661 740 287 C739.21625 286.855625 738.4325 286.71125 737.625 286.5625 C736 286 736 286 735 284 C734.195625 283.54625 733.39125 283.0925 732.5625 282.625 C730 281 730 281 729.1875 278.875 C728.795625 278.25625 728.40375 277.6375 728 277 C725.34811684 276.42059696 722.70831151 276.25793443 720 276 C719.67 275.34 719.34 274.68 719 274 C717.07677144 273.27049951 715.15118796 272.54622139 713.2109375 271.86328125 C709.91676889 270.57704227 707.02355856 268.8267333 704 267 C704 266.34 704 265.68 704 265 C703.113125 264.773125 702.22625 264.54625 701.3125 264.3125 C697.473334 262.79132102 695.87451293 260.94136207 693 258 C690.63589151 256.37467541 688.2330091 254.84063695 685.79296875 253.33203125 C685.20128906 252.89246094 684.60960937 252.45289063 684 252 C684 251.34 684 250.68 684 250 C682.7625 250.0825 681.525 250.165 680.25 250.25 C677.00519727 250.26146573 676.27394839 250.21627505 673.625 248.125 C673.08875 247.42375 672.5525 246.7225 672 246 C670.15811388 243.94729537 670.15811388 243.94729537 668 243 C668 242.34 668 241.68 668 241 C667.21625 240.87625 666.4325 240.7525 665.625 240.625 C663 240 663 240 661 238 C659.3523962 237.28752268 657.68236471 236.62599617 656 236 C647.3030303 232.60606061 647.3030303 232.60606061 646 230 C644.02111039 229.27306096 642.02045442 228.60183749 640 228 C640 227.34 640 226.68 640 226 C634.48166201 224.04558863 630.74440033 223.61022573 625 225 C622.39585286 227.35412766 622.39585286 227.35412766 620 230 C617.69747517 231.06902939 615.3627974 232.07175817 613 233 C612.071875 233.556875 611.14375 234.11375 610.1875 234.6875 C608 236 608 236 606 236 C606 236.66 606 237.32 606 238 C605.443125 238.103125 604.88625 238.20625 604.3125 238.3125 C600.58646808 239.42023922 597.73723933 241.26276067 595 244 C592.375 244.625 592.375 244.625 590 245 C590 245.66 590 246.32 590 247 C589.29875 247.2475 588.5975 247.495 587.875 247.75 C584.87411348 248.94592334 584.87411348 248.94592334 582 251.0625 C579.15405578 252.90050564 577.31670812 253.60979904 574 254 C574 254.66 574 255.32 574 256 C573.030625 256.12375 572.06125 256.2475 571.0625 256.375 C570.051875 256.58125 569.04125 256.7875 568 257 C567.67 257.66 567.34 258.32 567 259 C565.1796875 259.2734375 565.1796875 259.2734375 562.875 259.375 C557.92423799 259.81506773 555.14367532 261.29067383 551 264 C546.17857143 267 546.17857143 267 544 267 C543.67 267.99 543.34 268.98 543 270 C542.01 270 541.02 270 540 270 C540 270.66 540 271.32 540 272 C538.1875 274.125 538.1875 274.125 536 276 C535.01 276 534.02 276 533 276 C532.8453125 276.9590625 532.8453125 276.9590625 532.6875 277.9375 C532.460625 278.618125 532.23375 279.29875 532 280 C531.01 280.33 530.02 280.66 529 281 C528.38125 281.7425 528.38125 281.7425 527.75 282.5 C524.97505025 284.87852835 522.6078745 284.82542543 519 285 C516.74879097 284.58919543 514.55522489 284.04499669 512.3359375 283.48828125 C506.73893622 282.31833951 501.11253211 282.22462543 496 285 C495.319375 285.515625 494.63875 286.03125 493.9375 286.5625 C492 288 492 288 490 288.4375 C487.22421025 289.21819087 485.98492217 290.95304901 484 293 C481.40585768 294.540272 478.9437376 295.36919909 476 296 C476 296.66 476 297.32 476 298 C474.68 298 473.36 298 472 298 C471.773125 298.61875 471.54625 299.2375 471.3125 299.875 C469.59809523 302.65070297 468.05897305 303.03008172 465 304 C464.01 304.33 463.02 304.66 462 305 C461.731875 305.61875 461.46375 306.2375 461.1875 306.875 C459.48520813 309.92120651 457.10879368 310.57513623 454 312 C453.34 312.66 452.68 313.32 452 314 C451.01 314 450.02 314 449 314 C449.33 315.32 449.66 316.64 450 318 C448.02 317.67 446.04 317.34 444 317 C444 317.66 444 318.32 444 319 C441.69 319.66 439.38 320.32 437 321 C437 321.66 437 322.32 437 323 C435.14956573 324.19820784 433.24209738 325.30894982 431.3125 326.375 C428.07812484 328.16792591 425.18792243 329.84177875 422.35546875 332.2265625 C420 334 420 334 416 334 C416 334.66 416 335.32 416 336 C404.9296986 339.38147388 394.33190569 339.18020968 382.875 339.046875 C376.11579958 338.97374014 369.37914223 339.11749251 362.625 339.375 C361.61518066 339.40609863 360.60536133 339.43719727 359.56494141 339.46923828 C358.62827637 339.50774902 357.69161133 339.54625977 356.7265625 339.5859375 C355.49800537 339.63306885 355.49800537 339.63306885 354.24462891 339.68115234 C351.81197477 340.02670883 350.12206645 340.78730376 348 342 C348 342.66 348 343.32 348 344 C345.35153204 345.79161068 342.6322184 347.17681808 339.75 348.5625 C336.90101081 349.71006958 336.90101081 349.71006958 336 352 C334.35 352 332.7 352 331 352 C330.979375 352.5775 330.95875 353.155 330.9375 353.75 C329.63730733 356.8704624 327.67271726 357.67041173 324.7890625 359.265625 C323 360 323 360 320 360 C319.67 360.66 319.34 361.32 319 362 C317.33333333 362.33333333 315.66666667 362.66666667 314 363 C313.67 363.66 313.34 364.32 313 365 C310.1875 366.0625 310.1875 366.0625 307 367 C305.948125 367.3403125 305.948125 367.3403125 304.875 367.6875 C302.57845529 368.07025745 301.15096732 367.89005544 299 367 C298.67 366.01 298.34 365.02 298 364 C295.69 364 293.38 364 291 364 C290.34 365.32 289.68 366.64 289 368 C288.67 367.34 288.34 366.68 288 366 C286.824375 366.495 285.64875 366.99 284.4375 367.5 C280.40779889 369.02999347 277.27861686 369.26741355 273 369 C272.67 369.66 272.34 370.32 272 371 C266.22796526 373.58222607 260.07629511 375.28665331 254 377 C252.3603125 377.4640625 252.3603125 377.4640625 250.6875 377.9375 C244.10392034 378.0490861 236.76490996 376.25973881 231.60546875 372.04296875 C230 370 230 370 230 367 C229.01 367.33 228.02 367.66 227 368 C227 367.34 227 366.68 227 366 C227.66 365.67 228.32 365.34 229 365 C228.67 364.01 228.34 363.02 228 362 C229.9375 359.3125 229.9375 359.3125 232 357 C231.01 356.01 230.02 355.02 229 354 C229.66 354 230.32 354 231 354 C231 353.34 231 352.68 231 352 C229.68 352 228.36 352 227 352 C227.185625 352.721875 227.37125 353.44375 227.5625 354.1875 C228.01995307 357.12826973 227.73516357 359.14103058 227 362 C226.01 361.67 225.02 361.34 224 361 C223.67 360.01 223.34 359.02 223 358 C221.515 359.485 221.515 359.485 220 361 C220.99 362.485 220.99 362.485 222 364 C220 367 220 367 217.84301758 367.65405273 C214.40015473 368.07299105 210.97417693 368.32823644 207.51171875 368.53515625 C206.80852005 368.57813339 206.10532135 368.62111053 205.3808136 368.66539001 C203.14989032 368.80099549 200.91871657 368.93181824 198.6875 369.0625 C197.1686007 369.15398045 195.64972022 369.245774 194.13085938 369.33789062 C190.42078388 369.56221813 186.71046856 369.78225917 183 370 C183.33 370.99 183.66 371.98 184 373 C180.65747276 373.07427838 178.1964086 373.06546953 175 372 C174.34 372 173.68 372 173 372 C172.67 372.99 172.34 373.98 172 375 C170.33333333 376.66666667 168.66666667 378.33333333 167 380 C165.20000599 382.69999101 164.02704609 384.91886173 163 388 C162.01 388 161.02 388 160 388 C160 388.66 160 389.32 160 390 C159.34 390 158.68 390 158 390 C158.33 391.32 158.66 392.64 159 394 C158.01 393.67 157.02 393.34 156 393 C155.67 393.99 155.34 394.98 155 396 C154.34 396.33 153.68 396.66 153 397 C154.32 397.66 155.64 398.32 157 399 C152.58300512 400.10424872 148.52642225 400.15088074 144 400 C143.67 399.67 143.34 399.34 143 399 C141.48530552 398.76807135 139.96245438 398.58784762 138.4375 398.4375 C137.61121094 398.35371094 136.78492188 398.26992188 135.93359375 398.18359375 C135.29550781 398.12300781 134.65742188 398.06242187 134 398 C134 397.34 134 396.68 134 396 C133.01 396.33 132.02 396.66 131 397 C129.0546875 396.51171875 129.0546875 396.51171875 126.875 395.6875 C122.96296666 394.28350761 119.12211938 393.30750917 115.04296875 392.52734375 C112.82742388 391.95545358 111.03804861 391.02903437 109 390 C106.90471008 389.39357877 104.81467785 388.96293557 102.67578125 388.53515625 C101.89589844 388.37917969 101.11601563 388.22320312 100.3125 388.0625 C99.52488281 387.90910156 98.73726563 387.75570313 97.92578125 387.59765625 C97.29027344 387.40042969 96.65476562 387.20320313 96 387 C95.67 386.34 95.34 385.68 95 385 C93.00840984 384.58071786 91.01574937 384.16619495 89.01953125 383.76953125 C83.6846407 382.40992784 78.60657012 380.3202163 73.4765625 378.33984375 C68.95200376 376.50704793 68.95200376 376.50704793 64.1875 376.125 C60.41911345 375.97722014 58.28453761 374.78507479 55 373 C52.76474965 372.31363375 52.76474965 372.31363375 51 372 C51 371.34 51 370.68 51 370 C49.68 370.33 48.36 370.66 47 371 C46.505 369.515 46.505 369.515 46 368 C40.65853529 367.06524368 35.29129299 366.27985116 29.88671875 365.8203125 C25.48525163 365.40586174 22.64671714 364.46689689 19 362 C18.34 362 17.68 362 17 362 C16.67 361.34 16.34 360.68 16 360 C14.07094938 359.76718355 12.14094794 359.53972737 10.20703125 359.3515625 C6.83170078 358.81389924 4.08438783 357.44777388 1 356 C0.67 356 0.34 356 0 356 C0 238.52 0 121.04 0 0 Z M2387 152 C2387 152.66 2387 153.32 2387 154 C2387.66 153.67 2388.32 153.34 2389 153 C2388.34 152.67 2387.68 152.34 2387 152 Z M2387 156 C2387 156.66 2387 157.32 2387 158 C2387.66 158 2388.32 158 2389 158 C2389 157.34 2389 156.68 2389 156 C2388.34 156 2387.68 156 2387 156 Z M2484 193 C2485 195 2485 195 2485 195 Z M2473.3125 195 C2471.82169922 195.2784375 2471.82169922 195.2784375 2470.30078125 195.5625 C2469.54152344 195.706875 2468.78226563 195.85125 2468 196 C2472.38008443 198.58464442 2475.11125113 197.81479148 2480 197 C2480 196.34 2480 195.68 2480 195 C2480.66 194.67 2481.32 194.34 2482 194 C2478.95438718 194 2476.30174598 194.4373184 2473.3125 195 Z M2464 196 C2465 199 2465 199 2465 199 Z M3032 223 C3032 223.99 3032 224.98 3032 226 C3032.99 225.67 3033.98 225.34 3035 225 C3034.67 224.34 3034.34 223.68 3034 223 C3033.34 223 3032.68 223 3032 223 Z M3035 225 C3035 227.97 3035 230.94 3035 234 C3035.66 233.34 3036.32 232.68 3037 232 C3036.67673447 228.40320934 3036.67673447 228.40320934 3036 225 C3035.67 225 3035.34 225 3035 225 Z M3284 276 C3284 276.33 3284 276.66 3284 277 C3285.65 277 3287.3 277 3289 277 C3289.33 277.66 3289.66 278.32 3290 279 C3290 278.01 3290 277.02 3290 276 C3288.02 276 3286.04 276 3284 276 Z M3291 276 C3292.32 277.32 3293.64 278.64 3295 280 C3295 279.34 3295 278.68 3295 278 C3297.31 278.33 3299.62 278.66 3302 279 C3299.60236815 276.60236815 3298.66726502 276.65719414 3295.375 276.375 C3294.14910156 276.26285156 3294.14910156 276.26285156 3292.8984375 276.1484375 C3292.27195312 276.09945313 3291.64546875 276.05046875 3291 276 Z M3302 279 C3302.33 279.66 3302.66 280.32 3303 281 C3303.66 281 3304.32 281 3305 281 C3305 280.34 3305 279.68 3305 279 C3304.01 279 3303.02 279 3302 279 Z M3308 280 C3309 282 3309 282 3309 282 Z M3310 281 C3309.67 281.66 3309.34 282.32 3309 283 C3309.7425 282.979375 3310.485 282.95875 3311.25 282.9375 C3313.70462279 282.99328688 3315.66109261 283.3069904 3318 284 C3318.33 283.34 3318.66 282.68 3319 282 C3316.03 281.67 3313.06 281.34 3310 281 Z M3434 283 C3434.33 283.99 3434.66 284.98 3435 286 C3435.66 285.67 3436.32 285.34 3437 285 C3436.67 284.34 3436.34 283.68 3436 283 C3435.34 283 3434.68 283 3434 283 Z M3424 298 C3424.33 298.66 3424.66 299.32 3425 300 C3425.66 299.34 3426.32 298.68 3427 298 C3426.01 298 3425.02 298 3424 298 Z M3051 325 C3052 328 3052 328 3052 328 Z M3050 328 C3050 328.66 3050 329.32 3050 330 C3050.66 329.67 3051.32 329.34 3052 329 C3051.34 328.67 3050.68 328.34 3050 328 Z M3176 333 C3177 335 3177 335 3177 335 Z M2948 339 C2947.67 339.66 2947.34 340.32 2947 341 C2947.99 340.67 2948.98 340.34 2950 340 C2949.34 339.67 2948.68 339.34 2948 339 Z M2960 340 C2960 340.66 2960 341.32 2960 342 C2960.66 342 2961.32 342 2962 342 C2962 341.34 2962 340.68 2962 340 C2961.34 340 2960.68 340 2960 340 Z M227 345 C224.69328085 347.71549154 224.69328085 347.71549154 225.375 350.1875 C225.58125 350.785625 225.7875 351.38375 226 352 C228.30671915 349.28450846 228.30671915 349.28450846 227.625 346.8125 C227.41875 346.214375 227.2125 345.61625 227 345 Z M222 354 C223 356 223 356 223 356 Z M220 356 C220.33 356.66 220.66 357.32 221 358 C221.33 357.34 221.66 356.68 222 356 C221.34 356 220.68 356 220 356 Z M3066 360 C3067 362 3067 362 3067 362 Z M161 384 C162 386 162 386 162 386 Z M1852 535 C1852.66 535.66 1853.32 536.32 1854 537 C1854 536.34 1854 535.68 1854 535 C1853.34 535 1852.68 535 1852 535 Z " fill="#CCE791" transform="translate(0,0)"/>
</svg>
