<svg xmlns="http://www.w3.org/2000/svg" width="3440" height="1440" viewBox="0 0 3440 1440">
  <linearGradient id="a" x1="0" x2="0" y1="0" y2="1">
    <stop offset="0%" stop-color="#cde59a"/>
    <stop offset="45%" stop-color="#78b186"/>
  </linearGradient>
  <path id="mountainPath" d="M0 0 C22 8 29 11 37 9c2 0 2 0 4 1q2 0 4 1c3 0 6 1 10 2v2l3-1c2 1 2 1 5 2l3 1a797 797 0 0 1 10 5c2 1 5 2 7 3v2q4 1 9 1c1 0 2 0 3 0 1 0 1 0 2 0l2 0c3 0 5 0 8 0 3 0 4 0 7 1l1-2 1 1a696 696 0 0 0 6-1c3 0 5 0 7 1l1-2c3-1 6-1 9-1 4 0 7-1 10-3 5-2 9-3 14-3 4-1 8-2 12-3l2-1c4-1 4-1 7-2 5 0 8 0 13 2l4 2C204 18 204 18 205 20c2 1 2 1 4 1v2l2 1C213 25 213 25 216 27c3 2 6 3 10 4v2l3 0c3 1 5 2 8 4l2 1c2 1 4 2 6 3 4 2 8 3 13 3H262l1 1 3 0c4 0 6 1 9 2v2l4 1v2l2 0c3 1 5 1 8 2C299 59 309 62 320 62l1 2a96 96 0 0 0 8 1l2 0c2 0 4 0 5 0l1-2c2-1 2-1 4-1a167 167 0 0 0 10-3c6-2 13-4 20-6l7-2 3-1A102 102 0 0 0 386 48h4l1-2c2-1 2-1 4-1 9-2 17-5 26-8l5-2q5-2 9-3A385 385 0 0 1 442 29q4-1 7-3l4-2q3-1 7-3 3-1 6-2l2-1C473 17 473 17 475 17l1-2c3-1 5-1 8-1L486 13l1-2c12 1 24 5 36 9 2 1 2 1 4 1 2 1 4 1 7 2l2 1C538 26 538 26 539 28c3 0 5 1 8 1l2 0c3 0 7 0 10 1 12 1 24 2 35 6v2l2 1c3 1 5 3 8 5-4 3-6 6-11 7l-3 1h-4l5 2-1 2a140 140 0 0 1-7 2c-3 1-3 1-5 4l-1-3c-2 0-2 0-5 1l-1 2-3 1v4q-3 1-6 1l-1-1-2 3-3 1v2h-2l-2 2h-2v-4l-1 4h-2l-1 3-3-1v-2c-3 1-3 1-5 3-3 3-5 3-9 4-3 1-3 2-5 4-5 5-9 7-15 9-2-1-2-1-4-2l-2 2h-6l-4 1c-3 1-3 1-6 0L486 95l-1 2c-5 1-10 1-15 0-5 0-5 0-10 1a65 65 0 0 1-4-1c-6-1-12 0-17 4h-5l-3 1c-3 1-5 1-8 1l-2 4h-2l-2 3c-2 1-2 1-5 1l-3 0L408 111l-1 3-4-1-2 3c-2 0-4 0-6 0-3 1-3 1-5 2v2l-2 0c-3 1-4 2-7 4h-3l2 2c-3 2-3 2-6 3l-3-1-2 3C366 133 366 133 362 133l-1 2-5-1 2 3c-3 1-3 1-6 0l-1 3h-4q0-2-1-5l0-3C346 130 346 130 346 128h-2l0 2c-1 3-2 5-3 8l-1 3C338 143 338 143 336 145c-2 0-2 0-5 1l-3 0C326 146 326 146 324 145l-3 1-3-1a22 22 0 0 0-16-1A226 226 0 0 0 297 146h-4l-1 2h-3l-1 2-2 0c-4 0-7 1-10 3C274 153 274 153 272 152v2c-2 0-2 0-4-1-1-3-1-3-3-7l-1-4L263 140h-2l-2 14-4 1-2-2-2-1c-2-1-2-1-4-3-4-1-4-1-8 0l-2-1c-2-1-2-1-5 0v-2l-5-1c0-3 0-3 1-5l-3-1L223 138v-3l5 1c-3-4-3-4-6-6l-2-6-2-1-1 2-1 3-1 3C215 134 215 134 213 135L211 136l-1 2-6 0c-2 0-2 0-4 1-3 1-6 1-9 1l-4 0c-3 0-5 0-7-1l-3 0c-3-1-4-2-7-4l1-1-4-2v-2c-3-1-3-1-5-1l-1-2-2 1c-3 0-5-1-8-3l-1 2v-2c-4-1-7-1-11 1-3 1-3 1-6 1l-2-2q-2 0-4 1l-4-1-2 0c-4 1-8 0-12 0l-1-16-4 1c-1 3-1 3-2 6-2 7-2 7-3 9-5 0-9 0-14-4C85 120 85 120 85 118h-4l-3 7c-3-3-3-7-4-11l-1-4C73 107 73 107 75 104c-3 1-5 3-7 5v-2h-2l1 2c0 6-2 12-6 18-3 3-6 3-9 4-1-4-2-7-2-11l-5-1 0 3c0 4-1 7-2 10-7-3-7-3-9-4l-1-3v3l-3 1-1-2c-2-1-2-1-4-2l5-1-3-1c-3-1-4-2-6-4-5-4-10-6-16-7v-2l-3 1c-3-1-3-1-5-3 0-3 1-6 2-9 2-1 2-1 4-2l-3-1v-2h-2v-2l-2-1c-3-2-5-6-6-9-3-6-6-11-11-15L-23 66v-2h-3v-2h-2l-1-4h-2l-1-2C-35 53-38 53-42 52l-1-4c-1-4-1-4-5-6L-50 41v-2l-2-1v-2h-3c-1-2-1-2-3-4l-1-2L-60 29l3-2 1-2 3-1 1-2 5 1 1-4 3 0C-39 18-37 16-34 13c3-1 3-1 5-1l1-4 2 0c4-1 8-3 11-5C-10 0-6-1 0 0" fill="url(#a)" transform="translate(1237 493)"/>
</svg>
