<svg version="1.1" xmlns="http://www.w3.org/2000/svg" width="3440" height="1440" viewBox="0 0 3440 1440">
    <linearGradient id="mountainBase" x1="0" x2="0" y1="0" y2="1">
      <stop offset="0%" stop-color="#cde59a"/>
      <stop offset="45%" stop-color="#78B186"/>
    </linearGradient>
      <path id="mountainPath" d="M0 0 C0.99 0 1.98 0 3 0 C7.38775194 1.00552649 11.18255001 2.50836657 15.25 4.4375 C22.44530456 7.7774692 29.09802699 10.65153777 37 9 C39.03515625 9.40625 39.03515625 9.40625 41 10 C42.47633107 10.19015355 43.95593467 10.35620856 45.4375 10.5 C48.67411117 10.83647938 51.82142634 11.28225756 55 12 C55 12.66 55 13.32 55 14 C55.99 13.67 56.98 13.34 58 13 C60.1640625 13.8203125 60.1640625 13.8203125 62.625 15.125 C63.50800781 15.58777344 64.39101562 16.05054688 65.30078125 16.52734375 C68.55390655 18.30220372 71.7876124 20.10963784 75.015625 21.9296875 C77.27907241 23.15052331 79.57665595 24.14010372 82 25 C82 25.66 82 26.32 82 27 C84.93728294 27.33534729 87.87479818 27.66836013 90.8125 28 C91.64587891 28.09539063 92.47925781 28.19078125 93.33789062 28.2890625 C94.54155273 28.42441406 94.54155273 28.42441406 95.76953125 28.5625 C96.87711792 28.68818359 96.87711792 28.68818359 98.00708008 28.81640625 C100.80609987 29.07426033 103.16958758 28.96752578 105.9375 28.4375 C108.7763767 28.03194619 110.33886482 28.07883782 113 29 C113.33 28.34 113.66 27.68 114 27 C114.33 27.33 114.66 27.66 115 28 C116.9747983 27.73669356 118.94941135 27.47166637 120.921875 27.19140625 C123.4415988 26.95932643 125.57210377 27.31715419 128 28 C128.33 27.34 128.66 26.68 129 26 C132.02745219 24.94549418 135.00547484 24.84820834 138.1875 24.6875 C142.03049016 24.37275048 144.9279166 23.78285586 148.375 22.0625 C152.957621 19.79957742 157.33129358 19.22714411 162.3671875 18.56640625 C166.5447713 17.91506254 170.59152731 16.97429165 174.6875 15.9375 C175.73079468 15.67549805 175.73079468 15.67549805 176.79516602 15.40820312 C180.48996905 14.46286864 180.48996905 14.46286864 184 13 C188.98909751 12.75463455 192.45648772 12.78649402 197 15 C198.24981534 15.50046139 199.49982519 16.00043725 200.75 16.5 C204 18 204 18 205 20 C207.02463255 20.65213292 207.02463255 20.65213292 209 21 C209 21.66 209 22.32 209 23 C209.804375 23.37125 209.804375 23.37125 210.625 23.75 C213 25 213 25 215.8125 27 C219.29575939 29.18557452 222.03692558 30.04886214 226 31 C226 31.66 226 32.32 226 33 C226.886875 33.103125 227.77375 33.20625 228.6875 33.3125 C232.11254509 34.02335841 234.08406617 35.13081165 237 37 C237.78375 37.309375 238.5675 37.61875 239.375 37.9375 C241.60624387 38.84062252 243.4496583 39.82874461 245.5 41.0625 C249.78516473 43.54144476 253.34351108 44.0348596 258.25 44 C259.4875 44 260.725 44 262 44 C262.33 44.33 262.66 44.66 263 45 C264.0725 44.979375 265.145 44.95875 266.25 44.9375 C269.80208608 44.99670143 271.85105168 45.47323718 275 47 C275 47.66 275 48.32 275 49 C276.32 49.33 277.64 49.66 279 50 C279 50.66 279 51.32 279 52 C279.72316406 52.12761719 280.44632813 52.25523437 281.19140625 52.38671875 C283.91768151 52.98202503 286.33791303 53.80711274 288.9375 54.8125 C298.96754195 58.52632634 309.21057768 62 320 62 C320.33 62.66 320.66 63.32 321 64 C323.54941373 64.31241371 326.00361513 64.51303421 328.5625 64.625 C329.27341797 64.66367187 329.98433594 64.70234375 330.71679688 64.7421875 C332.47742425 64.83671783 334.23867728 64.91945817 336 65 C336.33 64.34 336.66 63.68 337 63 C338.6796875 62.2890625 338.6796875 62.2890625 340.875 61.625 C344.29253635 60.57046788 347.63386965 59.3993348 350.9765625 58.12890625 C357.38260712 55.78515265 363.90377946 54.03276433 370.5 52.3125 C372.80226107 51.70510037 375.10435281 51.09705846 377.40625 50.48828125 C378.40978516 50.22571533 379.41332031 49.96314941 380.44726562 49.69262695 C382.31474063 49.18592969 384.16430272 48.61189909 386 48 C387.32 48 388.64 48 390 48 C390.33 47.34 390.66 46.68 391 46 C392.8359375 45.38134766 392.8359375 45.38134766 395.375 44.7890625 C404.10172779 42.5452887 412.51856417 39.39389948 421 36.375 C422.70690111 35.77046577 424.41393148 35.16629634 426.12109375 34.5625 C429.22738022 33.46371265 432.33276541 32.36244088 435.4375 31.25927734 C437.61874262 30.48824874 439.80521663 29.73159446 442 29 C444.3376535 28.09956648 446.67171869 27.19171415 449.00390625 26.27734375 C450.39772417 25.73356428 451.79160633 25.18994943 453.18554688 24.64648438 C455.38076012 23.78992995 457.57556082 22.93237768 459.76928711 22.07202148 C461.88797885 21.24156639 464.00828306 20.41535199 466.12890625 19.58984375 C466.78725967 19.33049545 467.4456131 19.07114716 468.12391663 18.80393982 C472.77270913 17 472.77270913 17 475 17 C475.33 16.34 475.66 15.68 476 15 C478.56634394 14.35841401 481.13823206 13.97800854 483.75 13.5625 C484.4925 13.376875 485.235 13.19125 486 13 C486.33 12.34 486.66 11.68 487 11 C499.22838634 11.66700289 511.08652002 16.24698291 522.58203125 20.203125 C524.91812657 21.00980955 524.91812657 21.00980955 527.03125 21.48828125 C529.36621776 22.09518755 531.47827283 22.96982198 533.6875 23.9375 C534.47511719 24.27652344 535.26273438 24.61554687 536.07421875 24.96484375 C538 26 538 26 539 28 C541.52947355 28.35819468 543.97136243 28.58864526 546.515625 28.74609375 C547.28243591 28.80273697 548.04924683 28.85938019 548.83929443 28.91773987 C552.12302967 29.16015198 555.40811812 29.38088664 558.69335938 29.60180664 C570.93009835 30.44141312 582.32270092 32.00439665 594 36 C594 36.66 594 37.32 594 38 C594.721875 38.2475 595.44375 38.495 596.1875 38.75 C599.24713266 40.10983674 601.4673738 41.82917754 604 44 C600.43128878 47.1537448 597.58962082 49.51147433 593 51 C591.515 51.495 591.515 51.495 590 52 C588.68 52 587.36 52 586 52 C588.475 52.99 588.475 52.99 591 54 C590.67 54.66 590.34 55.32 590 56 C587.68529088 56.72870472 585.3494053 57.39239518 583 58 C579.72226496 58.75150023 579.72226496 58.75150023 578 62 C577.67 61.01 577.34 60.02 577 59 C574.52733235 59.34444881 574.52733235 59.34444881 572 60 C571.67 60.66 571.34 61.32 571 62 C569.515 62.495 569.515 62.495 568 63 C568 64.32 568 65.64 568 67 C566.0085944 67.38133299 564.00720923 67.71325582 562 68 C561.67 67.67 561.34 67.34 561 67 C560.34 67.99 559.68 68.98 559 70 C557.515 70.495 557.515 70.495 556 71 C556 71.66 556 72.32 556 73 C555.34 73 554.68 73 554 73 C553.34 73.66 552.68 74.32 552 75 C551.34 75 550.68 75 550 75 C550 73.68 550 72.36 550 71 C549.67 72.32 549.34 73.64 549 75 C548.34 75 547.68 75 547 75 C546.67 75.99 546.34 76.98 546 78 C545.01 77.67 544.02 77.34 543 77 C543 76.34 543 75.68 543 75 C539.82915641 75.71586975 539.82915641 75.71586975 538.375 78.4375 C535.40956952 81.63704341 533.3231254 81.86425585 529.12109375 82.4453125 C526.57760559 83.11046042 525.68519996 84.02025219 524 86 C519.4157269 91.09363678 515.41594944 92.86135019 509 95 C506.8125 94.0625 506.8125 94.0625 505 93 C504.34 93.66 503.68 94.32 503 95 C501 95 499 95 497 95 C495.80375 95.37125 494.6075 95.7425 493.375 96.125 C490 97 490 97 487.5625 96.125 C486.7890625 95.568125 486.7890625 95.568125 486 95 C485.67 95.66 485.34 96.32 485 97 C479.89489101 98.08719914 475.0702289 98.20084369 470 97 C464.85164759 96.6183099 464.85164759 96.6183099 460 98 C458.64019127 97.85913187 457.28579183 97.66340428 455.9375 97.4375 C449.73133817 96.65546345 444.23110478 97.51259681 439 101 C437.33333333 101 435.66666667 101 434 101 C433.175 101.33 432.35 101.66 431.5 102 C428.8072045 103.0771182 426.87076881 103.16404393 424 103 C423.34 104.32 422.68 105.64 422 107 C421.34 107 420.68 107 420 107 C419.34 107.99 418.68 108.98 418 110 C415.6171875 110.51171875 415.6171875 110.51171875 412.875 110.6875 C411.96492188 110.75324219 411.05484375 110.81898438 410.1171875 110.88671875 C409.06917969 110.94279297 409.06917969 110.94279297 408 111 C407.67 111.99 407.34 112.98 407 114 C405.68 113.67 404.36 113.34 403 113 C402.34 113.99 401.68 114.98 401 116 C399.00049364 116.04443347 396.99961564 116.03920815 395 116 C392.21433941 116.91257303 392.21433941 116.91257303 390 118 C390 118.66 390 119.32 390 120 C389.2575 120.103125 388.515 120.20625 387.75 120.3125 C384.80570789 121.04857303 383.37255074 122.18104443 381 124 C380.01 124 379.02 124 378 124 C378.66 124.66 379.32 125.32 380 126 C377.1875 127.5625 377.1875 127.5625 374 129 C373.01 128.67 372.02 128.34 371 128 C370.2575 128.825 369.515 129.65 368.75 130.5 C366 133 366 133 362 133 C361.67 133.66 361.34 134.32 361 135 C359.35 134.67 357.7 134.34 356 134 C356.66 134.99 357.32 135.98 358 137 C355 138 355 138 352 137 C351.67 137.99 351.34 138.98 351 140 C349.68 140 348.36 140 347 140 C346.83211627 138.37512529 346.66573213 136.75009558 346.5 135.125 C346.4071875 134.22007812 346.314375 133.31515625 346.21875 132.3828125 C346 130 346 130 346 128 C345.34 128 344.68 128 344 128 C343.88527344 128.71800781 343.77054688 129.43601562 343.65234375 130.17578125 C342.96788096 133.13905427 341.94153821 135.4826209 340.5625 138.1875 C339.91474609 139.47720703 339.91474609 139.47720703 339.25390625 140.79296875 C338 143 338 143 336 145 C333.6875 145.44921875 333.6875 145.44921875 331 145.6875 C330.113125 145.77386719 329.22625 145.86023438 328.3125 145.94921875 C326 146 326 146 324 145 C323.01 145.33 322.02 145.66 321 146 C319.989375 145.525625 318.97875 145.05125 317.9375 144.5625 C312.89129747 142.24743457 307.24180654 141.92761533 301.9453125 143.6796875 C300.28522612 144.4277951 298.64155238 145.21205486 297 146 C295.68 146 294.36 146 293 146 C292.67 146.66 292.34 147.32 292 148 C291.01 148 290.02 148 289 148 C288.67 148.66 288.34 149.32 288 150 C287.360625 149.938125 286.72125 149.87625 286.0625 149.8125 C282.37826578 150.03806536 279.422144 151.14288672 275.98828125 152.44140625 C274 153 274 153 272 152 C272 152.66 272 153.32 272 154 C270.171875 153.91015625 270.171875 153.91015625 268 153 C266.515625 150.05859375 266.515625 150.05859375 265.25 146.4375 C264.60804688 144.64119141 264.60804688 144.64119141 263.953125 142.80859375 C263.63859375 141.88175781 263.3240625 140.95492187 263 140 C262.34 140 261.68 140 261 140 C260.34 144.62 259.68 149.24 259 154 C257.68 154.33 256.36 154.66 255 155 C254.34 154.34 253.68 153.68 253 153 C252.34 152.835 251.68 152.67 251 152.5 C249 152 249 152 247 150 C242.90154112 148.91755221 242.90154112 148.91755221 239 150 C238.360625 149.67 237.72125 149.34 237.0625 149 C234.8881755 147.64925728 234.8881755 147.64925728 232 149 C232 148.34 232 147.68 232 147 C230.35 146.67 228.7 146.34 227 146 C227 143 227 143 228 141 C227.175 140.566875 226.35 140.13375 225.5 139.6875 C224.675 139.130625 223.85 138.57375 223 138 C223 137.01 223 136.02 223 135 C224.65 135.33 226.3 135.66 228 136 C225.45395403 132.47618313 225.45395403 132.47618313 222 130 C221.33333333 128 220.66666667 126 220 124 C219.34 123.67 218.68 123.34 218 123 C217.82984375 123.77085937 217.6596875 124.54171875 217.484375 125.3359375 C217.24203125 126.33882812 216.9996875 127.34171875 216.75 128.375 C216.51796875 129.37273437 216.2859375 130.37046875 216.046875 131.3984375 C215 134 215 134 212.953125 135.2265625 C212.30859375 135.48179687 211.6640625 135.73703125 211 136 C210.67 136.66 210.34 137.32 210 138 C208.046875 137.96744792 206.09375 137.93489583 204.140625 137.90234375 C202.03207131 137.92631629 202.03207131 137.92631629 200.171875 138.46484375 C197.13065897 139.21420813 194.1214114 139.39353941 191 139.625 C189.1746875 139.76808594 189.1746875 139.76808594 187.3125 139.9140625 C184.50846507 139.98680869 182.62569966 139.83544989 180 139 C179.175 138.87625 178.35 138.7525 177.5 138.625 C174.72065601 137.930164 173.16276259 136.84235331 171 135 C171.33 134.67 171.66 134.34 172 134 C170.68 133.34 169.36 132.68 168 132 C168 131.34 168 130.68 168 130 C165.21081851 128.89459074 165.21081851 128.89459074 163 129 C162.67 128.34 162.34 127.68 162 127 C161.46375 127.226875 160.9275 127.45375 160.375 127.6875 C156.93918099 128.13958145 154.94233306 126.67178015 152 125 C151.67 125.66 151.34 126.32 151 127 C151 126.34 151 125.68 151 125 C146.64170058 123.71814723 144.20203326 124.45639594 140 126 C136.75 126.75 136.75 126.75 134 127 C133.34 126.34 132.68 125.68 132 125 C130.66158328 125.31229724 129.32860925 125.64830932 128 126 C126.66666667 125.66666667 125.33333333 125.33333333 124 125 C123.40703125 125.16371094 122.8140625 125.32742188 122.203125 125.49609375 C118.15061712 126.42299715 114.08996991 125.48433854 110 125 C109.67 119.72 109.34 114.44 109 109 C107.68 109.33 106.36 109.66 105 110 C103.66203121 112.93394327 103.66203121 112.93394327 102.8125 116.4375 C101.00977995 122.9804401 101.00977995 122.9804401 100 125 C94.53226681 125.21442091 90.50355572 125.07190818 86.1875 121.5 C85 120 85 120 85 118 C83.68 118 82.36 118 81 118 C80.01 120.31 79.02 122.62 78 125 C74.92035321 121.92035321 74.78748634 118.18394916 74 114 C73.7525 112.72125 73.505 111.4425 73.25 110.125 C73 107 73 107 75 104 C72.11562221 105.29299694 70.12780579 106.65941363 68 109 C68 108.34 68 107.68 68 107 C67.34 107 66.68 107 66 107 C66.2475 107.763125 66.495 108.52625 66.75 109.3125 C67.19028613 115.80672046 64.45470234 121.54205467 61.1875 127.0625 C58.34115805 129.58354573 55.67935812 130.22167424 52 131 C50.77036367 127.31109101 50.44329599 123.86300794 50 120 C48.35 119.67 46.7 119.34 45 119 C45.04125 119.845625 45.0825 120.69125 45.125 121.5625 C44.98464972 125.42213269 44.17219836 128.33688013 43 132 C36.25 129.125 36.25 129.125 34 128 C33.67 127.01 33.34 126.02 33 125 C33 125.99 33 126.98 33 128 C32.01 128.33 31.02 128.66 30 129 C29.67 128.34 29.34 127.68 29 127 C26.98330173 125.86649466 26.98330173 125.86649466 25 125 C26.65 124.67 28.3 124.34 30 124 C28.515 123.505 28.515 123.505 27 123 C23.82915948 121.94305316 23.26600591 121.26600591 21 119 C15.82623241 115.28838412 11.26877119 113.07464649 5 112 C5 111.34 5 110.68 5 110 C3.515 110.495 3.515 110.495 2 111 C-0.6875 109.75 -0.6875 109.75 -3 108 C-3 104.52710626 -2.35830457 102.19201574 -1 99 C1.125 97.625 1.125 97.625 3 97 C2.01 96.67 1.02 96.34 0 96 C0 95.34 0 94.68 0 94 C-0.66 94 -1.32 94 -2 94 C-2 93.34 -2 92.68 -2 92 C-2.57878906 91.83113281 -3.15757813 91.66226563 -3.75390625 91.48828125 C-7.20352418 89.20253441 -8.27362237 85.88756846 -9.9375 82.1875 C-12.77460552 75.90493167 -15.61197551 71.47234219 -21.3125 67.3125 C-21.869375 66.879375 -22.42625 66.44625 -23 66 C-23 65.34 -23 64.68 -23 64 C-23.99 64 -24.98 64 -26 64 C-26 63.34 -26 62.68 -26 62 C-26.66 62 -27.32 62 -28 62 C-28.33 60.68 -28.66 59.36 -29 58 C-29.66 58 -30.32 58 -31 58 C-31.37125 57.38125 -31.7425 56.7625 -32.125 56.125 C-34.95269814 52.92027545 -37.85768218 52.81488219 -42 52 C-42.20625 50.741875 -42.4125 49.48375 -42.625 48.1875 C-43.50806022 44.51890422 -43.72993883 44.17283915 -47.125 42 C-48.07375 41.67 -49.0225 41.34 -50 41 C-50 40.34 -50 39.68 -50 39 C-50.66 38.67 -51.32 38.34 -52 38 C-52 37.34 -52 36.68 -52 36 C-52.99 36 -53.98 36 -55 36 C-56.38671875 34.46875 -56.38671875 34.46875 -57.6875 32.5 C-58.12449219 31.8503125 -58.56148437 31.200625 -59.01171875 30.53125 C-59.33785156 30.0259375 -59.66398437 29.520625 -60 29 C-59.01 28.34 -58.02 27.68 -57 27 C-56.67 26.34 -56.34 25.68 -56 25 C-55.01 24.67 -54.02 24.34 -53 24 C-52.67 23.34 -52.34 22.68 -52 22 C-50.35 22.33 -48.7 22.66 -47 23 C-46.67 21.68 -46.34 20.36 -46 19 C-45.13375 18.938125 -44.2675 18.87625 -43.375 18.8125 C-39.20623193 17.80890769 -37.23296054 15.75145578 -34 13 C-31.125 12.1875 -31.125 12.1875 -29 12 C-28.67 10.68 -28.34 9.36 -28 8 C-27.46117187 7.89558594 -26.92234375 7.79117187 -26.3671875 7.68359375 C-22.34386378 6.52174284 -18.77322087 4.39987326 -15.0703125 2.47265625 C-9.55813136 -0.17122707 -6.02422897 -1.33871755 0 0 Z" fill="url(#mountainBase)" transform="translate(1237,493)"/>
</svg>
