<svg xmlns="http://www.w3.org/2000/svg" width="3440" height="1440">
  <g fill="#5a9f72">
    <path d="m2171 183 3 1c.809 2 .809 2 1 5 .893 3.673 1.829 6.714 3.812 9.938L2181 202l-1 2c-2.937-1-2.937-1-6-3-.875-2.07-.875-2.07-1-4l-4-1c-4 6-8 12.64-12 19-1-1.733-1-1.733-2-4 .72-2 .72-2 2-4.06l1-2 1.585-2.535q1.507-2.04 3-4.953l1.07-2c1.977-3.05 3.667-6.863 5-10.03z"/>
    <path d="M1884 295c3 0 3 0 6 1v5a197 197 0 0 1-5 3c-1.826 3-1.826 3-3 6h-2l-1 3c-4.724.07-8-1-12.07-3l-1.905-.936c-3-1.648-4.851-2.667-6.908-5.752l4-1v2q3.07.754 6.05 1.5l3.586.844c2.847.726 2.847.726 5 .656l.688-2.625c1.623-4.05 3-6 6-9.05"/>
    <path d="m2033 273-1 3-2.687 1.08c-3.894 2-5 4-7.626 8-1.687 1.742-1.687 1.742-4.06 2.73-4 0-5.908-1-9.04-3.925-4.945-3.764-4.945-3.764-10.937-4.03 0-1.937 0-1.937 1-4l3-1c3 1.716 6 3 9.03 5.813 2 1.508 2 1.508 5.07.875L2018 281v-3h2l1-3c3.634-2.762 7.65-2 12-2"/>
    <path d="M2197 126v3c-1.984 1.621-1.984 1.621-4.75 3-5.06 3.73-9.84 7.909-14.04 12.613-4.669 4.848-4.669 4.848-8.886 5.09-4.899 0-9-1.695-14-3v-3h4l2.08.05c2.07.07 2.07.07 5.7.984 3 .05 4 0 6.687-1.687 1.584-1.67 1.584-1.67 3.03-3.625 5-6 12-11.577 19.937-14.05"/>
    <path d="m1802 422 .953 1.828c3.04 6 5.943 10.804 13 13.02v2c-4.782 0-8.64 0-13-2-1.875-2.625-1.875-2.625-3-5-3 0-4 1-6 3.73a240 240 0 0 0-2.563 3l-1 1.713a162 162 0 0 0-5.96 8.526L1782 452h-1c0-5.74 2-9 5.563-13.875l1-1.827C1798.63 422 1798.63 422 1802 422"/>
    <path d="m1684 459 3 1v7l-1.719.59c-3.734 2-5.638 6-7.926 9.799-2.892 4-2.892 4-5.636 5.513L1670 483l-.75-1.875c-1.08-2.546-2.59-2.952-5-4l-1.937-1.687c-2-1.607-2-1.607-4.813-1l-2.5.562c-3-4.75-3-4.75-3-7 4.03 0 6.675 1.09 10 3.563 3.03 2 5.756 2.967 10 2l.797-2c2-5 5.526-11.02 11.64-12.03"/>
    <path d="M1871 363c-2.06 2-4.03 4.08-6.875 6-3 3-6 6-9 9.687-1.5 1.875-1.5 1.875-3 3-2.687.08-2.687.08-5 0v-2l-6-1v-2c-4.03-1.563-4.03-1.563-9-2-2 0-3.817-.867-5.812-2-1.08-1.688-1.08-1.688-.876-3.875L1826 367c6.653 1.978 13.04 4.91 19.04 8 1.85 1 1.85 1 4.04.844 2.994-1 4-2.788 6-5 3.801-4 9-9.684 15-7.695"/>
    <path d="M1737 390c1.875.688 1.875.688 4 2l.938 2.5c.848 2.748.848 2.748 3.687 3.813L1748 399l1.03-1.566c3-3 5-5 10-5.676 3 .05 6.03.663 9.574 1l-1 2-2.812.813c-3.814 1-4.888 2.89-7.08 6.07-3.03 4.674-3.03 4.674-6 6-2.563 0-2.563 0-5.06-2C1744 403 1744 403 1744 401h-2a805 805 0 0 1-2.5-4.05l-1-2C1737 392 1737 392 1737 390"/>
    <path d="M2363 141h2l1 8 1.77.05c2.08.603 3.913 1.03 5.902 2.03l2 1.04 2.06 1 2 1q2.572 1.02 5 2.795l1-9 5-1 3.5 6.05 1 1.828c2.08 4.57 2.08 4.57 2.08 6.797l3-.02C2405 163 2405 163 2408 164v3l-6 1c2.648 3.832 5 7 9 10 3.586.629 6.568.532 10 0 3 0 3 0 6 2l1 3 10-3c3 8 3 8 1.688 12.563L2438 195l3 1v-3l3 .508c11 1.533 20.735 1.03 31.66-.508l5-.809c2.539-.08 5.05-.801 7.61-1 3-.577 6.702-.966 10-.966l1-5 3 2v2l4 1v2l-1.02 1c-2 2-1.866 3.562-1.811 6.567v2.842l.05 2.958v2.995q.03 3.66 0 7h3.832l4.98.508h2.526l2 .04h2C2522 218 2522 218 2525 220v2l4 1v2l2 .688c3.616 1.65 5.963 3.603 8.875 6v2l1.688.625c2.599 1.546 4 3 5.96 5.797 2.03 2.525 4.778 4.07 7.02 6.578 5.917 5 7.909 9.698 8.875 17.563.568 3.967.913 6 3 9.5 3 2.08 6.78 3.615 10.598 4.945 2.08 1 4.03 2 6 3.992l2 1c1.875 1 1.875 1 3.875 4 1.872 1 1.872 1 4 1.855 4.946 2.05 9 4.643 14 7l2 1c4.62 2.877 8.734 5.873 12.662 9.656 3 2.676 6.931 4 10.652 6C2636 316 2636 316 2637 318l10-1v2l1.813-.562C2651 318 2651 318 2654 319h3.563c3 0 3 0 5 1l1-2h13c4.77 0 9 0 13.887 1.06 7 1.02 14.662 1.05 22.03 1.02h3.912c7 .06 7 .06 14-1.06l1-3h2l.813-2.05C2736 311 2736 311 2739 309c2.848 0 2.848 0 6.03-.687l3-.02C2751 308 2751 308 2753 309c5 0 10.03 0 15-1v2h2l1-2v2h2.03c5.03 1 9 2.916 12.937 6.687a346 346 0 0 0 5.688 4c4 3 8.604 6.658 12.593 10 1.661 1.04 1.661 1.04 3.875 1.812l1.844.5 1 3c2.85 1.832 5.684 2 9 3v2c2.982.773 5.976 1 9 2v2l3-1v2h1.734q2.05.543 4 1c3.772.916 7 1.577 11 1.05 3.81 0 6.02.64 9.812 2 1.946.59 1.946.59 4 1l3.5.813c3.507.583 3.507.583 5.625-1.563L2874 350l2.563-1.5c2.621-1.613 3.883-2.859 5-5.5a127 127 0 0 0 1-5l2.598-.04c7-.07 7-.07 14-1 4.934-.559 10.787-.638 15 1.625l1-2 1.688.04c4 .537 7.658.838 11.687 0 3.625-.5 3.625-.5 6.625.5 2 0 4 0 6-.02 5 0 10.05.03 15 1.55 7.678 1.5 17 3 24.621.512 1.92-.03 3.84 0 5.762-.08h10.19v1050C0 2400 0 500 0 500c2.02.694 4 1 6.08 2 7.94 2 13 .664 20.593-2.691 5-2.06 10.505-3 15.92-4.646 3.583-.879 6.557-1.727 9.85-3 3.02-1.605 5-1.544 9-1.02l3.05.02L303 362l1 2c10-1 18.686-7.04 27-12.75l2-1.05a151 151 0 0 0 6.05-4c10.823-7.82 19.07-8.796 32.582-8 28 .76 28 .76 53.523-10C428 325 428 325 430 325v-2c1.941-1 1.941-1 4.563-2.937.846-.505 1.693-1 2.566-1.528C440 317 440 317 443.03 315.645c4.05-1.897 7.579-4.03 11.02-7 9.06-6.555 18-12 28.03-18a271 271 0 0 0 5.96-3.75c5.04-3.03 9.74-5 16.03-5.59 2 0 2 0 5-1 2 .64 4 1 6 2 5 .992 5 .992 10 0l2-3a68 68 0 0 1 3.08-2.812l1.882-1.579L535 273q1.784-1.53 3.563-3.02l1.746-1.05q1.665-1 3-2.906c3.04-2.718 5-4.04 9-4.547v-2c3.605-1 7-2.02 10.813-2.75 4.892-.918 8-2.901 12.03-5.8 1.91-1 3.633-2 5.782-3.05 3-1.02 3-1.02 6.562-3.562C591 242 591 242 594 242v-2l2.563-1a107 107 0 0 0 7.02-3.937C607 233 607 233 611 233l1-3c2-1 2-1 4.813-2.5 2.639-1 4.964-2 7-4 3.05-2.02 6.06-2.859 9.907-2 2 1.03 4.558 2.73 6.773 4.05 5 3.797 11 6 17 8.625v2l3 .05c5 .905 7.675 2 10.938 6.625 3 3.943 5 4.629 10 5 4.904 1.02 8.871 5 12 8.687v2h3v2l1.563.75c8 4 8 4 11 6.79 2 1.71 4.562 2 7.02 2.897 4.582 1 7.862 2.607 11.625 5.563l2.875 2L735 281v2c5.504 2.04 8.597 3 14.582 2 10.5-1.902 10.5-1.902 14.856 1a582 582 0 0 1 4.562 4c2.844 2 5.74 4 8.625 6 4.898 3.09 9.513 6.861 13.864 10.947 1.6 1 1.6 1 4 .553L799 306c1.534 0 3.07-.658 4.625-.937 7.897-1.53 15.586-3 23-6 6.03-2.06 10.788-3.658 17-1.953v2l2.08.08c3.712 1.02 5 2.91 7.812 5.812l1 3 2.813 1.875c3 2 4.92 4 7.07 7l2 1v2h2v2l3 1v2l1.625.75c2.957 1.557 5.672 3.04 8.05 5v2h2c1.516 2 1.516 2 3 5 5 8 10.755 15 17.688 22l2.02 2c3.716 3.684 7.51 7 11.53 10.551 1.02 1.04 2.61 2 3.855 3.712 3.62 3.533 7.596 6.512 11.625 9.562l2.04 1.746 2 1.629 1.898 1c1.835 1 1.835 1 4.727 2.05v2l2 .75c3 1 4.926 2.96 7 5 3 2.91 3 2.91 6.653 5 1.785 1 1.785 1 2 2.922L964 411c1.05 1.7 1.05 1.7 3 3 2.738 2.581 5.07 5 7 8.08 2.617 3.04 2.617 3.04 6.625 3.937L984 426l1.766 1c3.03 1.03 5 .684 8.797 0 6.95-.637 10.549.825 16 4.856C1013 434 1013 434 1015 436c2.564 2.549 4.06 3 7.863 3.852 3-.725 6-1.855 9-3 3.993-1 6.966-1.02 11 0l3 3c1.959 0 1.959 0 4-1l2.625-1a74 74 0 0 0 4.05-2v2l2.5-1.5c3-1.05 5.658-1.695 9-1.54 3.754 0 7 0 11-.96v4l4-1-1 4 3 .688c4.03 1.03 5 2.606 7.75 6v3l2.05.813C1099 453 1099 453 1101 456h4a91 91 0 0 1 4 4l4 2v3l1.688.688c3.735 2 6 5.09 8.937 8.562 1 2 1 2 4.05 2.75v3h4l1.05 1.875c2.04 2.817 4.06 3 7.625 4v3h4v4h4l.813 2L1151 498l3 1v3l3 1-1 2 3-1 1 3 3 1 1 3c2.06 1.04 2.06 1.04 5 2 3 1 3.855 2 5.691 5 2.914 4 6.67 9.575 11 11.895v2q2 1 4 2.08c3 2 4 4 5.562 7.812v3l3 .04c5 .723 7.03 3.995 10.03 7.739 3.884 4.544 7 7.87 12 11.07 1.723 2 1.723 2 3.03 4.625l1.5 2.64c1 2.674 2.707 5 4 8 1.914 3.921 3.696 6 7 8.625l2 1.75L1242 591l-2 .75c-2.924 1-3.988 2.566-5.688 5 .821 2.523.821 2.523 3 5 2.546 1 5.02 1.687 7.723 2C1247 605 1247 605 1249 607c2.57.648 2.57.648 5 1v2h2v2l2.875.813C1262 614 1262 614 1264 617l-1 1c2.509 2 3.644 2.986 7 3h3l2 1v2l3-1 2 1 .07-2 .03-3v-3c.828-2.602.828-2.602 2.906-3.954L1286 611c2 3 2 4.04 2.625 7.688v2L1289 623c4.778-.742 4.778-.742 8.508-3.598C1301 613.78 1303 607.738 1303 601h1.875c2-.563 2-.563 4-3.688h3c-.05.615 0 1 0 1.863v2l-.02 2c0 2.55 0 2.55 1.977 5.02.04 2 .735 4.658 1 7l.75-1.875c1-2.06 2.628-3.06 5-4l1.02 1.07 1.578 1.66 1.547 1.653c3.73 3 8.05 2.5 12.703 2l.516-2.04.734-3.06.703-3c1-3.04 2-4.787 5-7l3 2c0 2.627.02 5 .08 7.625v7h20.82C1371 618 1371 618 1372 619a77 77 0 0 0 4.75 0c3 0 6.778-.615 10-.563h3c1.671 0 3 .64 5 1v2l5-1v2l2 .563c2.944 1 4.535 2.778 6.875 5 3.69 3 6 4 11 4l2 .04c4 0 4 0 8.633-1.04h7l3-1 3.5.08c3.557 0 3.557 0 5-2.08l1.02-2-2-1v-2h2l.75-2.07c1-3 3-5 5-7.813l2 1a140 140 0 0 1 2 7l1 3h2c1.688 2 1.688 2 3 5l-1 3-4-2 5 3c-1 3-1 3-3.02 4.08L1462 638l7 2v2h2l1-2 2 1.03c2.735 1 2.735 1 5.687-.03 3 .813 3 .813 6 2l1 2 4-1 1 3h3l2-14 3-1a486 486 0 0 1 2.5 4.75l1 2.672C1505 642 1505 642 1505 646c5.06-.623 10.697-1.878 16-3 2.976-.722 5.94-1.02 8.965-1.719v-2c9-3 16.693-5 26-1.937 5.618 1 11 1.03 16.875.937v-2h2v-2.5c.785-3.661 2-6.06 3.813-9.668 1-1.976 1-1.976 1.937-4.832h2l2 12 3 1-1-3 2-1c2.625.938 2.625.938 5 2l-2-4 6 1 1-2 5 1-1-3h3l1-3 8-1-1-3h3v-2c6.625-2 6.625-2 10-1v-2l1.715-.621 2-.817 2-.808c1.831-.608 1.831-.608 2.848-1.754v-2h8l1-2c3.82-.778 6-1 10 0v-2h2l1-3h3v-2c5.635-1.921 5.635-1.921 8-2.5l1.687-.5 1-2h3v-2h2v2l2-.03c5.875-1.08 10.768-1.857 16.621-.527v-2h15.77v2l2.08-1c2.847-1 4.835-1 7.812-1l2-2 1.688 1c3 1 4.03 0 7-1a98 98 0 0 1 7 0h2l-1-2h6v2h2v-2l9-2v-2l2-2 1-3c3.563-1.07 3.563-1.07 7-2v4l2-5 4 1 .75-2c1-2.563 1-2.563 3.05-3.05L1780 568l1 2 2-1 2-1c.652-2 .652-2 1-4h2l1 3 3-1 2 1v-4h3v-3h5v3h2l1-3 1-1h-2l1-4h2l1.875-2.02L1811 551c2.08 0 2.08 0 4 1 2 0 4-.595 6-1l1-7h7v-2l11-2v-4c2.756-1 5.03-.98 8-.84 2 0 2 0 3.875-2h3l.688-2.875C1857 527 1857 527 1859 525.688c2.676-.614 5.05-.866 7.813-1.03 4.07-.05 7.632-1.519 11.06-3.785C1880 520 1880 520 1883 520l1-2c2 0 4.657-.744 7-1v-2h1.625c2-.634 2-.634 4.938-2 2.888-1 5.666-2.543 8.687-3.625 23.03-8 23.03-8 43-22 3-3 7-5.939 11-8.66 2.654-1.84 2.654-1.84 4.508-4.06 3.03-2.584 5-2.02 9.03-2 5.874-.07 11.533-.73 17-1.813 1 0 2.518 0 3.816-.71 3.763-.95 7-2.05 10.621-3.915 2.542-.629 4.929-.994 7.535-1 3.04 0 4.911-.991 7.05-2.773 2-4.885 3.07-9.758 4-15 .835-3.923 1.745-5 5-8 2-1 4.65-1.916 7-2.805a127.5 127.5 0 0 0 23-12c2-1 4-1.728 6-2 4.621-1 6.622-3.783 9.555-7.507 2-2 4.03-4.07 6.945-6 3-2 5.517-4.05 7.813-7.5 3.976-4.927 9.63-7.05 15-10l5.625-3.02 2.723-1.03a266 266 0 0 0 14.937-8.93c5.772-3.633 11.713-6 18-9 3-1.02 6.02-2.75 9-4.746C2159 360 2159 360 2161 360v-2l1.832-.727c2.643-1.552 3-2.955 4.856-5.648l1-2c.966-2 1.582-4 2-6h2v-2h2v-2c5-4 5-4 8-4v-2h3v-2l4-1v-2a95 95 0 0 1 4.813-3.875c5.05-4.03 8-7 9.874-13.875l.762-2.984L2206 305h2v-2.02c.892-2.997 1.64-4 3.688-6 4-4 6.04-9 8.02-14.875 2-6.03 8.848-8.901 14.563-11.563 7.526-3.635 14.651-7.737 21.754-12a614 614 0 0 1 5-3c7-4 13-8 18-14.793 3.517-3 3.517-3 6-3l.773-1.797c1-2 2.72-3.715 4.852-5.03l1.914-1.578L2295 227l6 3v2h2l-2-7 1-1c0-1.849 0-3.705.563-5.562l.03-3L2303 213h2.875c4.977-.744 9.805-2 14-4.75 1.04-3 1.04-3 1-6l-1-2c-2 0-2 0-4.562-.625h-2.504L2311 199v-6.07c0-1 .02-2.08 0-3 0-2.848.691-5.544 1-8h2v-6h4v6c1.626-.07 3-.05 4.875 0l2.742-.06c2.745 0 2.745 0 4.03-3.512-.722-3-1.835-4.82-4-7.07-4-2.06-8-3-13-3.813l1-3h2c7-.02 12.564-1.576 19-5 4.603-2.06 9-4.04 14-6l2.698-1.04C2359.737 148 2359.737 148 2362 148zm28 13-1 7 4 1-2-8zm-64 12 3 3 1-2zm63 0 1 4 5-4zm0 7c-.834 3.629-.834 3.629 0 7 1.819 2.08 1.819 2.08 4 2h5.813a52 52 0 0 0 7.187-2c-1-3-3-5.595-5.02-8l-1.598-2-1.382-2c-3 0-6.733 2.97-9 5m-49-3v3h-2l1 3h2v-6zm7 0v5h4v-4zm10 0-2 3 1 3 4-1 1-4zm9 0v6l5-2-1-4zm13 0c-1.06 1.06-1.06 1.06-1.02 3.563L2379 176h4l1-6zm-45 1-1 5 2-1zm13 7v2h4v-2zm10 0-1 2h5l-1-2zm10 0 4 1Zm10 1v1h5v-1zm-59 6 1 2h2v-2zm7 0 2 2 1-2zm-8 3v2h4v-2zm9 0-1 2 3-1zm151.813 9.05c-7.94 1.611-15.721 2.08-23.813 2.625v2l-3 1c3.04 2 3.04 2 7 3l.05 1.688c.685 2.533 1.634 4.884 2.625 7q3 0 6 .03h3.62c2.83 0 2.83 0 3.942-1.08h6v-2l3-1c2.797-2.576 5.06-5 7.688-8C2495 200 2495 200 2497 199v-3l-1.898.04h-4.07c-3.98 0-7.07 0-11.02.06M2497 203a129 129 0 0 0-3.05 4l-1.836 2a1509 1509 0 0 0-5.114 7l11 1v-14zm-181.625 12.5-2.07 1L2311 218v3l4 2c3-2.99 5-5.932 7-10-2.743 0-4.05 1-6.625 2.5M2307 221v6l4-2zm-484 325-1 4 5-1v-2z"/>
  </g>
  <g fill="#53986d">
    <path d="M2460 455c-3 5-3 5-4 7.07q-1 2-2.925 4.902a411 411 0 0 1-10 16.06c-1.05 2-1.815 3.977-2 6l-4 2c-1 1.85-1 1.85-2 4l-2 4-1 2c-1 1.875-1 1.875-3 3.875l-1-1-2 2-2-2c-2.782 0-2.782 0-5 2l-2 3c-2-1-2-1-4-4 0-3 0-3 2-5.07l2-1.813-3-4-1.812 1.938C2409 499 2409 499 2406 500l.938-2c1.732-4.03 2-7 1.02-11.75h2l1-3 2 1c.625 2.563.625 2.563 1 5h1l.813-2.937L2417 483l3-1v-2.07c.755-3 1.842-5 3.687-7.813h2l2-2 4 5 1.75-2.875c2-3 3-3.664 6-5 1.734-2 1.734-2 3-4v3l3-4 5 1 1-2-1-1c.998-2.04 1.686-3.787 3.938-5C2457 454 2457 454 2460 455m-40 37 1 3v-3zm-2 4-1 2h2z"/>
    <path d="m2418 518 2 3c-.75 2.625-.75 2.625-2 5l-2 1a104 104 0 0 0-2 5 175 175 0 0 1-2 4h-2l-.875 2.938C2408 542 2408 542 2406 543l-2-1-1 3c-1.562 1.688-1.562 1.688-3 3l4 1-4 4c-2-5.625-2-5.625-1-9l-4 3c-2-2.02-3-3-4-6l1.938-.05L2395 540l1-2c2.563-.625 2.563-.625 5-1l-1-3h3l1 1v-5l3 1 3-6h2c2-1.856 3-3.62 5-6z"/>
    <path d="M2394 391c2 1.05 2 1.05 4 3v2h-2l1 5c-3 2-3 2-5 3l-1 3c-1.937 1.03-1.937 1.03-4 2l-2 2c-1.652 1.652-3.849 2.03-6 3l-2-2-2.07-1.75c-1.813-2-1.813-2-1.563-5.5l.75-2.75h3l1-3 4 2-1 3c1.928-1.676 2.905-2.598 3.5-5l.5-1.875c3-1 3-1 4-1 2-.775 2-.775 4-2z"/>
    <path d="m2070 630-2 4h-2l-1 2a71 71 0 0 1-3 3.03l-1.801 1.597c-1.984 1-3.51 1.915-5.887 2l-1-3h3l2-2c2-2 3.04-3 6.562-3.563v-2c3-2 3-2 5-2"/>
    <path d="M2363 141h2l1 8 1.77.05c2.08.603 3.913 1.03 5.902 2.03l2 1.04 2.06 1 2 1q2.572 1.02 5 2.795l1-9 5-1 3.5 6.05 1 1.828c2.08 4.57 2.08 4.57 2.08 6.797l3-.02C2405 163 2405 163 2408 164v3l-6 1c2.648 3.832 5 7 9 10 3.586.629 6.568.532 10 0 3 0 3 0 6 2l1 3 10-3c3 8 3 8 1.688 12.563L2438 195l3 1v-3l3 .508c11 1.533 20.735 1.03 31.66-.508l5-.809c2.539-.08 5.05-.801 7.61-1 3-.577 6.702-.966 10-.966l1-5 3 2v2l4 1v2l-1.02 1c-2 2-1.866 3.562-1.811 6.567v2.842l.05 2.958v2.995q.03 3.66 0 7h3.832l4.98.508h2.526l2 .04h2C2522 218 2522 218 2525 220v2l4 1v2l2 .688c3.616 1.65 5.963 3.603 8.875 6v2l1.688.625c2.599 1.546 4 3 5.96 5.797 2.03 2.525 4.778 4.07 7.02 6.578 5.917 5 7.909 9.698 8.875 17.563.568 3.967.913 6 3 9.5 3 2.08 6.78 3.615 10.598 4.945 2.08 1 4.03 2 6 3.992l2 1c1.875 1 1.875 1 3.875 4 1.872 1 1.872 1 4 1.855 4.946 2.05 9 4.643 14 7l2 1c4.62 2.877 8.734 5.873 12.662 9.656 3 2.676 6.931 4 10.652 6C2636 316 2636 316 2637 318l10-1v2l1.813-.562C2651 318 2651 318 2654 319h3.563c3 0 3 0 5 1l1-2h13c4.77 0 9 0 13.887 1.06 7 1.02 14.662 1.05 22.03 1.02h3.912c7 .06 7 .06 14-1.06l1-3h2l.813-2.05C2736 311 2736 311 2739 309c2.848 0 2.848 0 6.03-.687l3-.02C2751 308 2751 308 2753 309c5 0 10.03 0 15-1v2h2l1-2v2h2.03c5.03 1 9 2.916 12.937 6.687a346 346 0 0 0 5.688 4c4 3 8.604 6.658 12.593 10 1.661 1.04 1.661 1.04 3.875 1.812l1.844.5 1 3c2.85 1.832 5.684 2 9 3v2c2.982.773 5.976 1 9 2v2l3-1v2h1.734q2.05.543 4 1c3.772.916 7 1.577 11 1.05 3.81 0 6.02.64 9.812 2 3.61 1 7 1.5 11 2 0 4-1.933 7-3.812 10.563-5.795 10.05-5.795 10.05-6.5 22 1.06 2.559 1.06 2.559 3 3 1.688 2.05 1.688 2.05 3 5l-1 3c-1 2-2 3.75-4 5.03l1.563 1.813L2692 496l-1 3h-2v-2h-4c-4.04 6-5.505 10.906-5 18.06 0 2.94 0 2.94-1 4.94-5 2-10 3.03-16 4q-2 .576-4 1.08l-4 .92-2-2c-2.04-.05-2.04-.05-5 0-6.787-.03-13-1.896-19.688-3.563l-3.06-.723c-19-4.606-19-4.606-24.934-9.07 5.75-3 5.75-3 8-3l1-2C2653 470 2653 470 2651 470v2c-1 1-2.92 2.05-4 3.625-4 3-8 6.931-12 10.71-2 1.795-4.02 2.724-7 3.665l-.875-2.875c-.893-3.07-.893-3.07-3-5h1.938L2627 481l1-3 2-4 1-3 5 2v-2h2l1-3a99 99 0 0 1 5-3c2.03-2 2.03-2 4-4.5 2-2.5 2-2.5 4-4.5l2 5-1 1h2l1-4 2 2-2-6 4-2-1-3 2-3 4 2-1-2-1-3 2-3v-2h-2l-1 2-1-5-1 1.5c-2 1.5-2 1.5-6 1.5v-2c0-2.04 0-2.04-1.563-3.563v4h-2l5 6-2 4-7-1 1.563-1.687c-3-.936-4-1-7 .02-4 2-4 2-6.625 6-1.05 2-1.05 2-5 2.75L2573 481l-2-6c-2.621 0-4.51 0-7 1l1-2.07c3.571-1.88 5.547-3 7-7l-1-1-1 2h-2c-3.532 0-4.516 1.603-6.75 4l-3-2v-4l-2 5-3-1-.687 1.813c-1.651 2.75-3.51 3.712-6 5.07l-2-3-2 2-4-2 1-5 1 2c2-.941 2-.941 3.5-4.5 1.5-3.5 1.5-3.5 3.5-4.5 1.897-5.05 1.897-5.05 1-11l-1-2 2-1 2 1v3h3c1-2.647 2-3.894 2-7l-2-2c-3.833 0-4.774.85-8 3-1-3.75-1-3.75 0-6h3l-2-1.875C2551 425 2551 425 2550 423h2l-2-5h-2c0-1.875 0-1.875 1-4 2.03-1 2.03-1 4-2-1.05-2.51-2.5-2.871-5-4v-3l2-1c1-3 2-6.03 2-10l-2-1c-2 1-4 2.508-6 3.625l-2 2-5-3-1 2-3 3c-2-.05-2-.05-4-1l-2 5-2-2-3 2h-2c-2 .833-2 .833-3 3l-3 1-3-4-1 2-2-2 1-3 2 1-1.02-1.812C2506 394 2506 394 2507 391l2-2-3-1-.812 2-1.188 3-3 1-4-4-1 2c-1.625-1.687-1.625-1.687-3-4 .625-2.687.625-2.687 2-5l3-1h-3l-1-6 1.938-.05L2498 375l1-2h2l-2-3 1-3-2-3 2-4-2-3 2-3-6 4c-1-2.647-2-3.894-2-7h-2v-2l-1.5-1.5-1.5-1.5v-2l3-1 2-1 1 2 .938-2.05C2495 339 2495 339 2496 337l-1.812 1c-2.08 1-2.08 1-5.08 1l-2-3-1 3-1-2-.875 2.05c-1.05 2.953-2.873 4.03-5 6.625l-2-2-2 2-1-1-2 3c-2.763-.523-5-1-8-2v-2l-6 3v2c-1.881 2.957-2.588 3.863-6 5l-1 2 2 1-3 3c2.631 1.03 2.631 1.03 4 1q1.53-1 3-3l3 4-2 1-2-1 1 4h4l3 2-.5 1.813c-.611 2-.611 2-.5 5.07l-2-2-2 1-1-4v6c-2 1.08-2 1.08-5 2-5.571-2-5.571-2-7-5h-2l-1-3-3-1-1 3-2-4h-2l1 5-2 1-1-1c-3 1.03-4.986 2.979-7 6l-1-2-3 2h-3l-2 4-9-3 3-4 5 1 .05-1.875C2417 373 2417 373 2419 371l-1.812-.812c-3.794-2-3.794-2-5.08-4.08 0-3.687 0-3.687 1-7l-1.937-.875C2409 357 2409 357 2408 355l-2-1h2v-3l-2-1v-2c-3.987-.89-3.987-.89-8-1-3 2-3 2-5 5l-1-1.562-2-1.438c-2.03 0-2.03 0-4 1l1-3c-3.05.776-3.05.776-5 3h-3v2h-3l-1 2-1-1-2 2h-4l-.687 1.875c-1.719 2.782-3 3-6 4h-3c-2.688 2-2.688 2-5 5l-2-2c-3 1.72-5.763 3.02-8 6v2l-2.05.875c-2.722.974-2.722.974-4.625 3a249 249 0 0 1-4 3l-2-1v-2l-2.07 1.875c-2.623 1.981-4.796 2.934-7.813 4a101 101 0 0 0-3 3h-2l-.812 1.938C2313 389 2313 389 2310 390h-2v2h-4l-1 2c-.75-1.75-.75-1.75-1-4 1.938-2 1.938-2 4-4l-1-3 2-2c.648-2.57.648-2.57 1-5h2l1-3 1 2h2l1 6 2-4-2 1c0-4 0-6.05 2-9.937l2-2.03h-3v-2l-3 1-.75-1.937c-1.06-2-1.06-2-3.05-2.813L2307 360v2h-2l-1 2-1 2h-4l-.75 1.875c-1.507 2.562-2.523 3-5 4l-2.562 1.03c-1.796.69-3.613 1-5 1.937v2l-4 2c.51-3.773 1-5 4-8v-2h2l1-3 3-3 1-3h3l2-5h2l.813-1.937C2301 351 2301 351 2304 350l1 1 1-2.625c2-3.777 5.835-5.764 9.636-8 2.02-1 2.02-1 2.926-3.07h2c2-4 3-8.693 4.582-13 2.833-10 8.04-18.857 14.781-27.07 1.792-2.05 1.792-2.05 2.637-5h2l2-6h2v-1.625c1.665-5.753 4-8.755 8.687-12.05 1.79-2.619 1.79-2.619 3-5l-3-1a117 117 0 0 0-5 4h-2l-1 2c-1.725 1-3 2-5 3-3 2-6 3.976-8.75 7.08l-2 2.562h-3l-.758 1.805c-1 2.09-2.799 3.65-5 5l-2.05 1.508c-1.968 1-3.963 2-6 3l-1.5 1.5c-1.694 1.694-3 2-5.5 3.5l-1.625 1.625-1.066.86h-2l-1 2a71 71 0 0 1-3.937 2.5c-2 1.09-4 2.555-6.03 4.5l-1-3 1.813-1.687c2.05-2 3.652-4.521 5.07-7l1-1.86c1.04-2 1-4 1.578-6.89v-2L2303 288l2 4v-6h2l-.687-1.562c-.07-3.715 1-6 2.687-9l2-1 .05-2.602c.812-4.07 2.639-7 4.957-10.773q1-1.98 2.04-3.965l1.07-1.906c1.9-3.05 3.03-6 5-9.754-3 .917-6.567 1.813-9.75 3.08C2313 249 2313 249 2310 248l-1 2c-5.04 4-5.04 4-10 4l-1 2c-3.03 1.727-6 2-10 2l-1 2-3-1c2.606-2.674 5-5 8-7.648l1.578-1q1.602-1.05 3-2.71c4-3.526 4.693-6.04 5-11.02l2-3 6 1v-3h2v3h5l-2-5 1-1-3-1-1 2-4-1v-2c3.07-2 3.669-2 7-2h4.875v-2l-2-1 2-1 3 1v-3h2l-.562-2L2324 213l1-1-3-1 .05-5.957c-.02-2-.02-2-2.05-5-2.05-.58-2.05-.58-4.625-.687h-2.07L2311 199v-6.07c0-1 .02-2.08 0-3 0-2.848.691-5.544 1-8h2v-6h4v6c1.626-.07 3-.05 4.875 0l2.742-.06c2.745 0 2.745 0 4.03-3.512-.722-3-1.835-4.82-4-7.07-4-2.06-8-3-13-3.813l1-3h2c7-.02 12.564-1.576 19-5 4.603-2.06 9-4.04 14-6l2.698-1.04C2359.737 148 2359.737 148 2362 148zm28 13-1 7 4 1-2-8zm-64 12 3 3 1-2zm63 0 1 4 5-4zm0 7c-.834 3.629-.834 3.629 0 7 1.819 2.08 1.819 2.08 4 2h5.813a52 52 0 0 0 7.187-2c-1-3-3-5.595-5.02-8l-1.598-2-1.382-2c-3 0-6.733 2.97-9 5m-49-3v3h-2l1 3h2v-6zm7 0v5h4v-4zm10 0-2 3 1 3 4-1 1-4zm9 0v6l5-2-1-4zm13 0c-1.06 1.06-1.06 1.06-1.02 3.563L2379 176h4l1-6zm-45 1-1 5 2-1zm13 7v2h4v-2zm10 0-1 2h5l-1-2zm10 0 4 1Zm10 1v1h5v-1zm-59 6 1 2h2v-2zm7 0 2 2 1-2zm-8 3v2h4v-2zm9 0-1 2 3-1zm151.813 9.05c-7.94 1.611-15.721 2.08-23.813 2.625v2l-3 1c3.04 2 3.04 2 7 3l.05 1.688c.685 2.533 1.634 4.884 2.625 7q3 0 6 .03h3.62c2.83 0 2.83 0 3.942-1.08h6v-2l3-1c2.797-2.576 5.06-5 7.688-8
M959 550c3.736 1.02 3.736 1.02 5 4l2-1 1 5h2c2.625 2.05 2.625 2.05 5 5v2l6 2v2l3 1v2h2l1 3 3.5 1 3.5 1 1 3c4.85-1 7.778-2 11-6l2 5 1-3 2.05 1.03L1042 580l2-1v2h2l1 2c3.629 0 3.629 0 7-1l2 2-1 2 7 2 2-3v5l1-1 1 1.563 2 1.437c2-.02 3.909-.954 6-2l3 6h4v2h2l1 1 2-1 1 2c2 .653 2 .653 4.05 1.03 7.06 1 7.06 1 8.813 3.05 2.788 2 6.04 3 9.812 3.562l2-1v2h2.75c3 0 4 .641 7 2q2.988.57 6 1 2.502.07 5 1v2l1.75.08c5 1.805 6.868 6.891 9 11 1.512 3 3 5.917 4.832 8.836.59 1 1 2 1.79 3 1.04 2.538 1.04 2.538 3.585 3l1 2.813c1.82 3 3.62 4.881 6.687 7.07q1-3 2-6.07l1-3c.781-2.975 1-5.05.875-8l3-1c3.03 1.875 3.03 1.875 6 4l2 1 1-5 3-1c1-2 1-2 1.688-5.02 0-.92.502-1.839.761-2.786L1184 622c2 .75 2 .75 5 2 .688 1.75.688 1.75 1 4 .883 3 .883 3 2 6l2 1 1-2 3-1q1-1.988 2-4l3-2v-3c3.61 0 6.558.96 10 2l.07-1.828c.912-4.878 1.579-8 5.703-11.02 3.551 3.995 3 7.05 3.594 12 .06 2.94 1.05 3.774 3 5.559 2 1.06 2 1.06 4 2 4-5.915 5.675-12.998 7-20 1.979 1.622 2.937 2 3 5v2.02c0 6 .842 12 1.937 18.625l3 1 .805-1.898 1-2.07 1.05-2C1249 630 1249 630 1251 628c2 1.708 2.938 2.521 3.03 5.02v2l-.03 2V640c3 0 5.835-.875 9-2v-2l2.688-.687c3-1 3-1 5.874-4L1274 629c2.652.05 2.652.05 5 1l.516-3.648q.05-2.04.734-4.727v-2c.946-5.875.946-5.875 3.527-7.758L1286 611c2 3 2 4.04 2.625 7.688v2L1289 623c4.778-.742 4.778-.742 8.508-3.598C1301 613.78 1303 607.738 1303 601h1.875c2-.563 2-.563 4-3.688h3c-.05.615 0 1 0 1.863v2l-.02 2c0 2.55 0 2.55 1.977 5.02.04 2 .735 4.658 1 7l.75-1.875c1-2.06 2.628-3.06 5-4l1.02 1.07 1.578 1.66 1.547 1.653c3.73 3 8.05 2.5 12.703 2l.516-2.04.734-3.06.703-3c1-3.04 2-4.787 5-7l3 2c0 2.627.02 5 .08 7.625v7h20.82C1371 618 1371 618 1372 619a77 77 0 0 0 4.75 0c3 0 6.778-.615 10-.563h3c1.671 0 3 .64 5 1v2l5-1v2l2 .563c2.944 1 4.535 2.778 6.875 5 3.69 3 6 4 11 4l2 .04c4 0 4 0 8.633-1.04h7l3-1 3.5.08c3.557 0 3.557 0 5-2.08l1.02-2-2-1v-2h2l.75-2.07c1-3 3-5 5-7.813l2 1a140 140 0 0 1 2 7l1 3h2c1.688 2 1.688 2 3 5l-1 3-4-2 5 3c-1 3-1 3-3.02 4.08L1462 638l7 2v2h2l1-2 2 1.03c2.735 1 2.735 1 5.687-.03 3 .813 3 .813 6 2l1 2 4-1 1 3h3l2-14 3-1a486 486 0 0 1 2.5 4.75l1 2.672C1505 642 1505 642 1505 646c5.06-.623 10.697-1.878 16-3 2.976-.722 5.94-1.02 8.965-1.719v-2c9-3 16.693-5 26-1.937 5.618 1 11 1.03 16.875.937v-2h2v-2.5c.785-3.661 2-6.06 3.813-9.668 1-1.976 1-1.976 1.937-4.832h2C1591 648 1591 648 1591 650c-3 1-3 1-5 1l1.938 2.625c2 3 2.696 5.535 3.02 9.05h2l4 7c-1.75.75-1.75.75-4 1-2-1.937-2-1.937-4-4l1.625 2.08L1592 672l-1.02 2c0 .845-.62 1.69-.938 2.562a150 150 0 0 0 4 6c0 2.05 0 2.05-1 4l5 2-.5 1.813c-.611 2-.611 2-.5 5.07h-4l2 1.08c2.948 1.942 4.681 3.977 6.75 6.812l-2 2h-2l-2 1 3 1.813c3 1.812 3 1.812 4.562 5.07l-1 2 3.508-.762q2-.05 4.617-.926l2-.51c5-1 7.856-.659 12.57 2.08 2.05.72 2.05.72 4.5 1h2c2.725.505 5 .985 8 1v2h2l.813 3c1.04 3 1.534 4.637 4.07 6.687l2-2 1 2a993 993 0 0 1-4.05 5.5l-2 3.04L1642 742h-2l-.875 1.875C1638 746 1638 746 1636 748v3l2-1c.813 1.688.813 1.688 1 4l-2.5 2-2.5 3c0 2.76 0 2.76 1 5l-4 1v2l-5 4v2 a87 87 0 0 1-2 4h-2l-1 4h-2l-1 2-.05-2L1152 695l-2-1 1-5h-2C0 2000 0 900 957 550z
m-242-168 1 2h4l2 4 4-1 1 4h1.758c5.05 0 8.617 1 13 3.887 2.04.545 4.74.988 7 1.05L753 398l1 3 2.08.05C768 405 768 405 771 406v3l4-2v2h2l1 4 1-2v2l1.813-.687L783 412c2.84 2 4.04 5 5.918 8.04l1.611 3.08 1.659 3 1.693 3C798 437.736 798 437.736 798 440h2l.87 1.712c1 2.559 2.624 5 3.942 7.663l1 2.695 1 2.578 1 2C810 459 810 459 813 461v2h2v2c3.697 1.54 7 2.784 11 3.938 3.777 1 7.527 2 11 3.625 4.728 1.628 9.58 2.554 14.04 3.06 3 1 5 2.06 8 4.941v2l1.625.75c8 4 8 4 9.03 7L871 493l3 1v2h2c1.592 2 2.957 4 4 6.738 1.666 2 3.05 3.588 5.633 5.02v2l2 2h-2v4a126 126 0 0 1-2 6h2l1-2a1420 1420 0 0 1 6.813-.02h3.832C901 520 901 520 904 521a349 349 0 0 1 4 5l2 1.688 2 1.312v2l3 1v2l2 1.5 2 1.5v2h2v2l2 1 4 2v3l8-3 1 3 2 1 1-2 2 1v2l3-1 3 2-4 10h-2l-.875 2.75c-2 6.643-2 6.643-5 8.813L933 573v3l5-1c0 2.05 0 2.05-1 5l-3 2v4h-2v2l-2.937.813L926 590l-1 3 3 2-1 2 2 1-1.937.625c-2 1-2 1-2.813 4.5L924 606c-9 .638-9 .638-12.75-2l-2-2c-3.864 0-7 .02-11 1h-2l-1-3c-2.76-2-4-3-7.875-3-4 0-6.07-1-10-3v-2q-2-.722-4.687-1l-2.637-.81c-5.864-1.727-5.864-1.727-11.676-.503-8 2.915-16 5.03-25 4.758-2-.05-2-.05-4.08.02-2.795.559-5 .688-8 .707h-2.852C815 595 815 595 812 593h2c-.617-4.07-1.636-8-3-12-1.678-5-2.625-10-3-15.688-2.688 1-2.7 2.509-3.687 5-3.04 8.03-8 16-13 23.687l6-5c-1 3.992-3 6-6 9-1.02 2-1.02 2-2 4l-1 2-3 1v4l2 1-1 2-1.915 2.703-1.898 2.672c-1 2.02-2.642 4-3.727 6.578-3.03-1.04-6-2.71-9-5l-2-1a198 198 0 0 1-5.02-3l-2.723-1.766c-2.607-2-2.756-3.607-3-6.984l-2-1c-1.991-2.986-2.941-5.597-4-9l2-2-2-1 1-2 2 1v-2h-5c0-5 .51-8.5 3-12.848 1.7-4.02 0-8-1-12.02-1-1.9-2.961-3.522-4.602-5-4-5-3.625-12.54-3.08-18.773-7.978-4.714-16-9-25-12v-2l-2.5-.07c-5.62-1-9.862-3-13-8.02-1-2.506-2.505-4.847-3-7.551l1-3 1 2 2-1-1.75-3c-2.53-4.978-3.695-10-4.942-15.627-.56-3.05-.56-3.05-2-6.03-6 11-6 11-11 23l3-1-3 9c-2.04-2.622-3-4.644-4-8h-2l-1.812-2.937L672 501l-2.5-.05c-2.5-.625-2.5-.625-3.672-2-2-4.03-3-7.804-3.828-12.07h-2v1.906c0 5.797-1 9.04-4.684 14-2 3.648-3.885 7.72-5.03 11.883l5-2c-.953 4.02-1.633 5.72-5 8.05L647 522c-3-1.81-5.99-3.913-8.75-6.562-4.05-3.662-7.784-5.02-13-5-2.734.05-2.734.05-5 1h-4a69 69 0 0 0-4 1v3l-3 1-1-3c-1.654-1.654-3.81-1.635-6.02-2.02l-2.786-.536L597 510l-.812-3-1.188-4-3-1-1-3-2-1-.687-3.875c-.63-2.03-.63-2.03-2-4-3.83-1.04-7-1.87-11-2-3-.503-5.687-1.04-8.664-2.57-3.524-.04-6.56 0-10 1-2.663 0-5 .683-8 1l-.875-2.05c-.974-2.722-.974-2.722-3-4.625-2-.643-2-.643-4-1v-2l6-1c-2-3.06-3.735-4.06-7-6l-1 4h-4l-1 2v-2l-2-1 4-3-1-2-3-1 2-1 2 1v-2h1.875c2-.05 2-.05 4-1.563-1-2-1.878-3.878-3.625-5.625L536 456v-2a63 63 0 0 0-2-3.625L532 447l3-3-4-6 1-2 2 2c2 2.73 2 2.73 5.687 3.562l-1.04-1-1-1.915-1-1.898C535 435 535 435 535 433h-2l-1.05-3.687A365 365 0 0 0 528 420l2 1v2l6 1v2l3.625.813c3.777.947 6.939 2 10.05 4.07 4 2 8.502 4 13 6l1-2c4-2.05 7-3 12-3l2-4 1.875.625L582 429l2-2 3-.75c3-.95 3-.95 4-4l1-3.25 1.03-2.875c.789-2.63 1-4.678 1-7.05.625-3.75.625-3.75 2.688-5L599 403v2l2 1-1 11 2 1a100 100 0 0 1 3 4l3-2h3c1.595-1.824 1.595-1.824 3-4.07l1.582-2.07a149 149 0 0 0 3-5.09L620 406h3l-1 2 2 1c.625 3.03.625 3.03 1 6 3.05-.776 3.05-.776 5-3l4 2-1-3 2-1 2 1 1-2 1.813-.05c2.07 0 2.07 0 3.937-2.75C646 404 646 404 648 403.961c2 0 3.989.643 5.969 1l2-4 4 1v-2h4l1-2 2 1v-2h3l1-2h2c6.854-1.818 13.656-3.809 20-7 5.582-1.786 11-2.9 17-4l2.68-.559C715 383 715 383 717 383
M228 331c2 2 2 2 2 4.06l-.03 2.07c0 6.566 1 11.976 5.03 17v4l-1.562 1c-1.65 1.626-1.65 1.626-1 3.715.03 2 .615 4 .977 6l2.625.875c2.02.694 4 1 6.08 2 7.94 2 13 .664 20.593-2.691 5-2.06 10.505-3 15.92-4.646 3.582-.878 6.562-1.73 9.858-3 3-1.593 5-1.58 9-1h3c3 1 5 3 7.812 5.812l600 200c2.937 1.523 5.917 2.801 9 4l1-5 3 2c2.03 0 2.03 0 4-1-1.05 4-3.547 7.07-6 11a86 86 0 0 0-2 4h-2l1 1 4-2v3h-2v2h-2v2l-4 2v7l4 1-2 1.688c0 2.99.72 5.99 1 9q.06 2.531.563 5.03L92 548l-2-1.75c-9.074-6.25-20.97-8.695-31-8.25v2h-5l-2-2h-6c-3 0-3 0-4.687-.5-2.51-.634-2.51-.634-5.938 0-5.763.04-11-1-16.8-2.676-4.678-1-7.78-1-12.575-.07l-6-2V353l9 2v2h7v2c3.583 1 3.583 1 7 0l1 2c2.744 2 2.744 2 5.05 1.563L32 362c2.813 0 2.813 0 5 1v2l1.563-.75c3.04 0 4.984 1 7.687 2.758 2 1 4.03 1.69 6.75 1.992v2l3-1 2 1c2.57 1.804 2.57 1.804 5.06 1.515 3.642.03 5.95.906 9.03 2l3 1C79 378 79 378 81.539 379.641c2.8 1.546 4.6 1.718 7.773 1.796 4.682.07 7.906 1 11.934 3.625 1.926 1 3.6 1.584 5.754 1.938l2-1v2h1.723c5.775 1.04 11 2.79 17.06 4l3 .86 2.832.824c2 .743 2 .743 4.05-.512v2l3.813.5h2c2.08.02 2.08.02 5 0 1.543-1.09 1.543-1.09 2.938-3 1.632-2 3-3.85 5.02-5.625 1.92-2 3.03-4 4.75-6.05 7.867-11.81 7.867-11.81 13.936-13.06 9-1 18-1.876 27-2l4-.02q5 0 10.74-.613l1-4-3 1c0-4.523 2.531-7.07 5-11 2.541-4.04 3-9.04 4-14C226 334 226 334 228 331
    M483.625 400.813c4.882.02 8.885 0 13.05 2.07 1 2.03 1 2.03 2 4 2 .761 2 .761 5 1 2.978.596 3.784.784 6 3a249 249 0 0 0 4 3l-1.07 1.828-1.66 2-1.653 2c0 500 -200 100 -400 0 C412 456 412 456 411 453.875V452l2-1v2l6-1-2.5-1.05L414 449v-2h-2v-2l2.938-1.05c3-1.03 3-1.03 4.02-3.625l-11-4v-3l-4-1-1 2c0-3 0-3 1.03-6 1-3 1-3-.03-6l6 3v2l2-2c-.776-3.05-.776-3.05-3-5 7.691-.752 15.02-1 23-1l1-2 3 1 3-1 3 1v-2h2l.824-1.809c2.525-4.705 6-7 11-9 6.07-1.524 12.537-2 18.99-2.773 3 0 5-1.06 8.671-1.09"/>
  </g>
  <path d="M2388 148h3l3.5 6.05 1 1.828c2.08 4.57 2.08 4.57 2.08 6.797l3-.02C2405 163 2405 163 2408 164v3l-6 1 9 10-4 2-8-11-8 3c1-4 1-4 3-6v-2l-4-1 1-2 3 1a125 125 0 0 0-3-4h-1v-9z" fill="#62a070"/>
  <path d="M2573 278c4.06 1.02 7.534 2 11 5l2 1c1.875 1 1.875 1 3.875 4 2 1.02 2 1.02 4 1.938 3.744 1.564 6.649 3 9.687 6.02l-2 2h-2c-3 .646-3 .646-4 3l-.05-2L2595 296l-2-1-.875-2c-.953-2.04-.953-2.04-3-2.875h-2l-2 2 1 2h-4l-1 3c-1.676-3.03-.811-6 0-9.687l.563-2L2582 283l-4 1-1-2-3 2-2-2c.05-2 .05-2 1-4" fill="#60a273"/>
  <path d="M2331 192.863h9.047C2343 193 2343 193 2346 194c-.687 1.938-.687 1.938-2 4-2.625.75-2.625.75-5 1l4 1-2 5-7 1 1-7h-9l-2-5c1.93-1.93 4.775-1 7-1" fill="#5fa273"/>
  <path d="M2480.875 192.938h2L2485 193c-2.03 3.684-4 4.722-8 5.75-7 1.65-14 1.524-21.75 1l-1-3-3-2 3.945-.04 5-.04h2.594c6.08 0 12.05-1.598 18-1.506" fill="#68a573"/>
  <path d="M2330.08 198h2.73l2.19 1v2l2 1h-2l-1 2c-1.75.875-1.75.875-4 1-2.75-1.937-2.75-1.937-5-4l1.5 2c1.5 3 1.5 3 1.5 6-3 2-3 2-6 2v-12c3-1 4.885-.948 8.08-.562" fill="#509569"/>
  <path d="M1652 468c4.03 0 6.675 1.09 10 3.563 3.03 2 5.756 2.967 10 2l-1 2h-3l1 5-1-2a178 178 0 0 0-4-2l-1.937-1.687c-2-1.607-2-1.607-4.813-1L1655 475c-3-4.75-3-4.75-3-7" fill="#7fb57c"/>
  <path d="m2171 183 3 1c1.07 3 1.02 7.04 1 11l-2 1-2-1v-2l-3-1c.75-6.75.75-6.75 3-9" fill="#6eab77"/>
  <path d="m2019 360 2 .84c7.66 2.785 14.7 3.898 22.832 4v2c-7 .92-13.04 1.02-20-1q-1.53-1-3-3l-2-1z" fill="#99c382"/>
  <path d="M1826 367c3.724 1 7 2.509 11 4v4l2 1-1.812-.5c-2-.611-2-.611-5.08-.5-2 0-3.817-.867-5.812-2-1.08-1.688-1.08-1.688-.876-3.875z" fill="#8dbb7e"/>
  <path d="M2317.855 212.984 2319 215c-4.86 2.592-9.653 2.07-15 2l1-5a207 207 0 0 1 5-.75h2.988c2.699.02 2.699.02 4.554 2" fill="#64a473"/>
  <path d="M1845 535c3.947 0 6.598-.04 10 2l-1 5c-1.875.625-1.875.625-4 1l-2-2c-2-.643-2-.643-4-1z" fill="#7eb279"/>
  <path d="m1791 435 2 2q-2.02 2.91-4 5.813l-1 1.658c-2 2.69-3.992 5-6.03 7.529.06-6.02 2.765-11 7-16z" fill="#8ab97d"/>
  <path d="m2500 208 2 1c0 2.06 0 2.06.625 4.563v2.503L2503 218l4 1h-3l-2 4c-2.638-1-2.983-2-4-5a98 98 0 0 1 0-7h2z" fill="#51966b"/>
  <path d="M2155 144c9 .964 9 .964 14 2l1 4c-5.955-.02-10.628-1-16-4z" fill="#8cbb7e"/>
  <path d="M2500 202h3a75.6 75.6 0 0 1 1 14l-.05-1.937L2503 212l-2-1v-2l-1 2h-2v-7z" fill="#6da975"/>
  <path d="M1871 363c-2 2-4.59 4-7.07 6.08l-2 1.605L1860 372l-3-3a701 701 0 0 1 3.813-2.937l2-1.653c3-2 4.03-2.627 8-1" fill="#8bba7d"/>
  <path d="M2388 148h3a274 274 0 0 1 2.563 4.688l1 2.636c1 3 .924 4.595 0 7.676h-5l1-2 3 1a125 125 0 0 0-3-4h-1v-9z" fill="#7ab078"/>
  <path d="m2500 185 3 2v2l4 1v2c-1.5 1-1.5 1-4 2-2.788-.729-5.07-1.816-8-3l4-1z" fill="#92be80"/>
  <path d="M1737 390c1.875.688 1.875.688 4 2l2 5 4 2-2 4-1-2h-2a805 805 0 0 1-2.5-4.05l-1-2C1737 392 1737 392 1737 390" fill="#76af79"/>
  <path d="m2389 386 3 1 1 7h-2c-2.77.525-2.77.525-5.688 1.562l1-5h2l-1-3h2z" fill="#51966b"/>
  <path d="M2019 281h4c-1 3.653-1.671 4.78-5 7-2.687-.05-2.687-.05-5-1l-1-3 7-1z" fill="#72ac78"/>
  <path d="M2321 215h2c1 3 1 3 0 6h-4l1 3 3 1c-3 1-3.99.934-7 0 1-3.873 2-7 5-10" fill="#60a272"/>
  <path d="M2337 172h2l1 3 2 1v4l-2-.5c-2.94-.62-2.94-.62-6.75-.5z" fill="#77af79"/>
  <path d="m1868 526-2 1-1 3-1-2h-2l-1 3c-2.02.688-2.02.688-4 1-.07-2.05-.07-2.05 0-5 4-2.786 6-1.796 11-1" fill="#78b07a"/>
  <path d="m2513 250 4 2-3 5-6-2-1 2 1-5h1.938c2-.03 2-.03 3.02-1.563" fill="#589e71"/>
  <path d="M2401 169c2 0 2 0 3.691 1.68l1.872 2.05 1.878 2C2410 177 2410 177 2411 179l-4 1-7-9z" fill="#77ae77"/>
  <path d="m1681 460 4 1h-2l-.75 1.625c-1.564 2.972-3 5.687-5 8.05h-3c1.78-4 4.05-7 7-11" fill="#85b77c"/>
  <path d="M2436 180h2l3 9-2 2v-3l-4-1c-.625-1.812-.625-1.812-1-4z" fill="#6ca874"/>
  <path d="m1887.08 295 2.92 1v5l-4 1-1-3c-2-.733-2-.733-4-1 2-2.83 2.597-3 6.08-2.687" fill="#89ba7e"/>
  <path d="m1956 367-1 2c-2 .03-4.618.507-6.969.656L1946 370l-1 2-4-2c5.05-2.05 9.03-3 15-3" fill="#b6d58c"/>
  <path d="m2157 207 4 1-4 7c-1-1.75-1-1.75-2-4 .875-2 .875-2 2-4" fill="#9cc582"/>
  <path d="m1785 443 2 2a698 698 0 0 1-2 3.5l-1 1.969-2 1.531h-1c0-3.05 0-3.05 1-7z" fill="#aacd87"/>
  <path d="m1652 468 6 1-2 6c-4-4.75-4-4.75-4-7" fill="#9cc482"/>
  <path d="m1893 415-1 2c-2.06.633-2.06.633-4.562 1l-2.504.508L1883 419l-1-2c3.83-1.802 6.781-2.06 11-2" fill="#8cba7e"/>
  <path d="M2197 126v3c-2 1.688-2 1.688-4 3l-4-2z" fill="#91be7f"/>
  <path d="m2313.688 224.05 2.312.95c-1.75 2.03-1.75 2.03-4 4-2 0-2 0-4-1v-2c3-2 3-2 5.688-1.625" fill="#599c6e"/>
  <path d="M1859 302h3v2l4 2c-1.75.75-1.75.75-4 1-2-1.937-2-1.937-4-4z" fill="#8bbb7e"/>
  <path d="M2434 192h5l-1 3 3 2-4 1v-2l-4-2z" fill="#72ac77"/>
  <path d="m2019 360 9 3-2 3c-2 0-2 0-3.5-1l-1.5-2-2-1z" fill="#aacd87"/>
  <path d="M1869 308h8l-1 3-5 1z" fill="#6ba977"/>
  <g fill="white" opacity="0.1">
    <path d="M2441 283h1c0 6.952.673 11.597-4 17-2.503-2.503-3.09-4.603-4-8l1-3 4-1 1-3zm-2 9 1 2Z-2 9M2451 195h19l-4 1 1 4h-12l-1-3z 2451 195 m2313 226 5 2-1 2v4h-5v-3l-2 4c-1.937-.812-1.937-.812-4-2l-1-3h3v-2l4 1z 2313 226 M2503 217h11l-1 4-3-1c-2.638.04-2.638.04-5 1z2503 217m2486 208 2 1-6 8-6-3v-1h2.08c3.932 0 5.05-2 7.812-5 2486 208m2494 202 3 2-4 5-1-2h-3c.813-1.937.813-1.937 2-4z2494 202m2495 200 2 1-1 2 2.875-1.5C2502 199 2502 199 2504 199c-1 3-1 3-3.07 4-3.05.879-5.521.516-8.813 0z2495 200m2303 213 1 4 2 1-2 5h-1zm3 3 6 1-3 3z"/>
    <path d="M2363 141h2l1 8h-6l2-1c0-2 .744-4.657 1-7"/>
    <path d="M2488 310c2.03 2.03 2.998 4.707 4 8l-4 2v-2c.06-2.915.06-2.915-2-5.688h2z"/>
    <path d="M2517 218c3.716 0 4.772-.02 8 2v2l2 1-3 2c-1.5-1-1.5-1-3-3v-3z"/>
    <path d="m1456 613 3 1c1 3.05 1 3.05 2 7l1 3h2c1.688 2 1.688 2 3 5l-1 3-4-2 5 3c-1 3-1 3-3.02 4.08l-1.98.92 7 2v2h2l1-2 2 1.03c2.735 1 2.735 1 5.687-.03 3 .813 3 .813 6 2l1 2 4-1 1 3h3l2-14 3-1a486 486 0 0 1 2.5 4.75l1 2.672C1505 642 1505 642 1505 646c5.06-.623 10.697-1.878 16-3 2.976-.722 5.94-1.02 8.965-1.719v-2c9-3 16.693-5 26-1.937 5.618 1 11 1.03 16.875.937v-2l2 1a125 125 0 0 1-4 6h-2l-.937 2.05C1567 648 1567 648 1566 650h-2l1 3-1 2 2.05-1.5c2.95-1.5 2.95-1.5 4.95-1.5-1.02 4.972-3.605 9-6 14h-2v2h-3l1 3 2 1 1-2c2.563-.625 2.563-.625 5-1a56.5 56.5 0 0 1-4 7h-2v2c-1.875 0-1.875 0-4-1l-2-3c-4.669-2.03-8.798-3-13.93-3.809a72 72 0 0 1-4-.539c-5-.76-8.725 0-13.742 1h-3c-12 1.803-12 1.803-22 9a100 100 0 0 0-3 6h-2l-.875 2.75c-2 6.05-2 6.05-4.687 8.75-1.701 1.775-2 3-2 5.5h2v2l4 1v2c-7.05 2-7.05 2-10.5 1L1481 708v-3h-2c-2-2-2-2-3-4h-3v-2.957l.02-3.856v-3.832c0-3.05 0-3.05-1.645-5L1470 684c-3.02-5-5.544-10.911-7-17l7 3 2-3-1.797-1c-2-1.908-3.786-3.755-5.03-6l-1.578-2c-1-2.63-1-4.03-.86-7l.265-3 3-1v-2h-2v-2l-3-1a100 100 0 0 1-3-6c-1.744-3-1.744-3-4-6l-1-3-4-2v-2h2l.813-2.07c1.07-2.789 2.578-5.04 4.07-7.813"/>
    <path d="m1585 649 1.688.563c2 .614 2 .614 4.624-.08 4-.559 6 .664 9.688 2.625a107 107 0 0 1 4 6l4 2v2l1.941-.04c12.05-1.05 12.05-1.05 16.82 1 1.677 1 1.677 1 4 3.887v2h2c1.625 1.05 1.625 1.05 3 3v2l1.875.938L1643 677v2l2 .688c10 4.02 10 4.02 12 8l2 .813c3 1 5.602 2.06 8 3.625 5.677 2.88 10.902 5.02 17 5.937 4.597.754 5.881 2 8.812 5.625l1.75 1c1.854 2 1.929 4.67 2 7.562h9l1 2q2.999.51 6 1l2 2c-5.75 4-5.75 4-8 4v2h4l-1 4h-2l.875 3.08c0 3.812 0 3.812-1 5-1.668 1-1.668 1-4.73 3 1.765 1 1.765 1 4 2 2-.783 2-.783 4-2l-2 2.08A73 73 0 0 0 1701 753h-3v-2l-3-1-2-2.5c-2.06-2-3-2.92-6.563-3.5l-1-2q-3.844 0-7.687-.02h-2.06c-3.843 0-7.03.03-11 1.08-5.04-8-4-18.754-4-28-5.697 2.849-9 12.569-12 18-3-3.92-5-6.751-5-12h-2v-2h-10v-2l-2.02.08c-2.938-.08-2.938-.08-6-1.813-4.05-2-8.5-.907-13 .02-2.77.543-2.77.543-6.77.543l-.625-2c-1.771-3.542-4-4.774-7.05-6.75 1.964-1.506 3.783-2.891 6-4l-3-2v-2l-2-.812c-2.562-1-3.885-2-5.688-4.08l7 1-1-2v-3l-1-1.05c-2-2-2-3.756-2.563-6.625l-1.687-3.02L1589 676q.975-2 2-4c-1-2.624-1-2.624-3-5l1-2 4 5 3-1-1.5-1.875C1593 665 1593 665 1593 663h-2v-2l-2-1a257 257 0 0 1-2-7c-.625-1.04-1.02-2.7-2-4"/>
    <path d="M867 413c3 0 5.636.764 8.5 2.625 3 1.836 4.822 1 8.5.05 9-1.567 9-1.567 14 1-2.05 2.05-4.676 2.936-8 4l-2 1-2 1-2.687 1.563c-3 0-3 0-5-.961a263 263 0 0 1-4.633-3.907c-2.669-2.05-4.833-2.609-8-2.695z"/>
    <path d="M1675 589h2v2l2-.03 3-.59 3.04-.597c3 0 5.965 0 9 .66l-2 7h-3l-3 2c.776 3.05.776 3.05 3 5-1.05 1.5-1.05 1.5-3 3h-2v2l4 1 1-2c1.08 2.688 1.08 2.688 2 6-1.05 2.875-1.05 2.875-3 5l3 1c-1.04 4-3.606 6.874-7 10l-2-3 4-5c-2.04 0-3.08 1.639-5 3v2.05c-.803 3.743-2.675 5.07-5.563 7.625-3 1.75-5.04 2-9 2l-2 3-5-2v-3l-3 2-3-1c-2.679 1.04-2.679 1.04-5 3l-1 3-3 1-1-1-1 2 4 2-1.5 1.688c-1.748 2.694-1.762 4.06-1.5 7h-2v2l-2.05.875c-2.722.974-2.722.974-4.625 3-2 0-2 0-5.5.03-4.858-.08-9.523 0-14 .718C1613 662 1613 662 1609 662l-1-2-2.05-1c-2.95-2-2.95-2-4.137-4.437-2.04-3-3-3.04-6.626-4-4.858-1.722-6.06-3.814-8.812-8.05-1.775-3.88-2.674-6.79-2.05-11.03l4 1-1-3 2-1c2.625.938 2.625.938 5 2l-2-4 6 1 1-2 5 1-1-3h3l1-3 8-1-1-3h3v-2c6.625-2 6.625-2 10-1v-2l1.715-.621 2-.817 2-.808c1.831-.608 1.831-.608 2.848-1.754v-2h8l1-2c3.82-.778 6-1 10 0v-2h2l1-3h3v-2c5.635-1.921 5.635-1.921 8-2.5l1.687-.5 1-2h3zm10 12 1 2Zm-3 28h2l-1 3z"/>
    <path d="m2599 335 1 3c-2 2.03-2 2.03-5 4-2 0-2 0-4-1 1-3 1-3 2.875-4 2.125-1 2.125-1 5.125 0z"/>
  </g>
  <g fill="#d4e79a">
    <path d="M1600 650q7.953-.04 15.906 0h14.79c4.559 0 8 0 12.03 2v3h-2v2l-2.05.875c-2.722.974-2.722.974-4.625 3-2 0-2 0-5.5.03-4.858-.08-9.523 0-14 .718C1613 662 1613 662 1609 662l-1-2-2.05-1c-2.971-1.91-4.02-3.541-5.625-6.688z"/>
    <path d="m2500 185 3 2v2l4 1v2l-1.02 1c-2 2-1.866 3.562-1.811 6.567v2.842l.05 2.958v2.995q.03 3.66 0 7l-.05-1.937L2503 212l-2-1v-2l-1 2h-2v-8h-6c1.05-2 1.05-2 3-4h2v-3l-1.898.03-2.07.59-2 .597C2488 198 2488 198 2486 197c-2 0-4.792.91-7.07 1-8 1.66-15.62 1.88-23.813 1.562l-1-3-3-2h3.08c10.04 0 20.03-1.04 30.05-3.08 4.728-.805 9-1 14-1.699zm-190 554c2 .687 2 .687 4 2.687h-2v2l-2-1c-1.07 1.07-1 2.988-1.562 5.03L2308 752h-3c-1.688 1-1.688 1-3 3l-2-2-3 3 1 2h-3l-1 2c-3 1-3 1-5 1a91 91 0 0 0-4 4l-1-2-3 4c-2-3-2-3-1.625-5.07L2280 760h-2l-2-6c3-2 3-2 6-2a104 104 0 0 1 5 2v4h2l-.562-1.687c-.514-2.712 0-4.657.562-7l3-1v-3c2-2.687 2-2.687 4-5v2h10v-2c2-1 2-1 4-.687"/>
    <path d="m2148 797 1 2 3-1 1 3c-3 2-3 2-6 2l1 4c-8.555 2.06-17 4-25.75 5.563-2.85.554-5.537 1-8 2v-2c11.534-5.94 11.534-5.94 15.875-7 6-2.09 12.06-5.524 18-8.563"/>
    <path d="M1387 618h3c1.671 0 3 .64 5 1v2l5-1v2l2.03.625c3.907 1.83 6.776 4 9.937 7.05-1.79 1-1.79 1-4 2a78 78 0 0 1-7-3l-6-2-2 1v-2h-7v-2l-4 1v-2l-3 1c-5.696-2.02-5.696-2.02-7-5 4.966-1 9.907-1 15-1M1786 564h2l1 6h-2l-.05 1.875C1786 574 1786 574 1784 576l-2 1-1 2h-2l-2 2-4 4-2-1-1 2-2-3-2 4-3-3 1-1.75c1-2 1-2 1-6h2v2l2-1c.652-2 .652-2 1-4l4 1 1-2c1-2.563 1-2.563 3.05-3.05l1.95-1.2 1 2 2-1 2-1c.652-2 .652-2 1-4m4 2 2 1-2 2z"/>
    <path d="m2405 636 3-.05c4.501-.61 8.626 0 13-.07h6.801c2.199.12 4.199.12 6.199.12h27.95c2.711-.03 4.752 0 7-1 2.764 0 5.05.02 8 .5 6.06 0 12.02.07 18 0 7.88-.636 7.88-.636 11.75 2.03 2.736 2.87 3 3.652 3.874 7.5 0 4-1 5.504-4 8.07-2.989.708-5.94.845-9 1a530 530 0 0 0-5 1c-7.581 1-7.581 1-10 0l-3.625-.05c-7-.868-13.502-4.02-19.98-7-4.841-2.03-7.935-3-13.05-2.871h-3.02c-2.884 0-2.884 0-5 .926-2.647.07-5 .56-7.77.524h-2.675L2426 646v-2l-1.06 1.04c-2 2-3.862 1.85-7 1.774h-6.03q-3-.05-6 0l-2.798-.04c-2.07 0-2.07 0-4.663.69L2396 648l-3-2c-.03-2.03-.03-2.03-.07-5l.02-2.758.05-2.242c8-1.882 8-1.882 12 0"/>
    <path d="m2227 770-2 3v3h-3l-1 3c-3 .703-6 1.05-9.687 2.03l-2.764.603-2.686.557-2 .523c-2.715.07-4.778 0-7-.746-2-1.806-3.05-3.804-5-6l1-2 1 1h5l-1-3h3v4h3v-2l3-1v2h2v-2a690 690 0 0 1 5.05-1.02l3-.598C2219 771 2219 771 2221 772v-2c3.75-1 3.75-1 6 0"/>
    <path d="M1675 589h2v2l2-.03 3-.59 3.04-.597c3 0 5.965 0 9 .66l-2 7h-3l-3 2c.776 3.05.776 3.05 3 5-1.05 1.5-1.05 1.5-3 3h-2v2l4 1 1-2c1.08 2.688 1.08 2.688 2 6-1.05 2.875-1.05 2.875-3 5l3 1c-1.04 4-3.606 6.874-7 10l-2-3 4-5c-2.04 0-3.08 1.639-5 3v2.05c-.803 3.743-2.675 5.07-5.563 7.625-3 1.75-5.04 2-9 2l-2 3-5-2v-3l-3 2-3-1c-2.679 1.04-2.679 1.04-5 3l-1 3-3 1-1-1-1 2 4 2-1.5 1.688c-1.748 2.694-1.762 4.06-1.5 7h-2v2l-2.05.875c-2.722.974-2.722.974-4.625 3-2 0-2 0-5.5.03-4.858-.08-9.523 0-14 .718C1613 662 1613 662 1609 662l-1-2-2.05-1c-2.971-1.91-4.02-3.541-5.625-6.688v-2h39l1-5 1.03-2.625c1-2 1-2 .937-5.05 1.05-2.07 1.05-2.07 3-4h2l1-2 1 4c2-1.925 2-1.925 3-5l1.813 1.563 1.895.8 3-1-4-1c.688-2 .688-2 2-5h2l3-1c1.86-2.967 1.86-2.967 3-6h3q2-1 4-3h2l1-2 2 2h3v-2h3c1.05-3.766 0-5.02-1-9-2.07 1.839-2.07 1.839-2 4.625V612c-2.621 0-4.51 0-7-1l2-3c0-2.03 0-2.03-1-4l-2 2-1-4-2 2 2 2-2 1-2-1-1 2h-3l-1-2c0 3 1 5 3 8l-4 2-2-4-1 3h-2l2 3-4 2-2-3-1 3c-2.562 1.08-2.562 1.08-5 2 0-4 0-4 1-6l-1-2c-1.837 3.782-2 5.946-1 10l-1.687.08c-3.03 1-5 3-7 5.812l-2-1c0-2 0-2 1.5-3.625L1637 624l-1-3-3 2-2-2c.998-2.993 1.752-3.948 4-6l4 3 .75-1.75c1-2.58 3-4 5-6h2v-2a91 91 0 0 1 4-4l-4 3-1-3c5.625-2 5.625-2 9-1v-2h2l1-3h3v-2c5.635-1.921 5.635-1.921 8-2.5l1.687-.5 1-2h3zm2 12-1 4h2l1-3zm8 0 1 2Zm-26 6-1 2h2zm-27 22h2l-1 2zm50 0h2l-1 3z"/>
    <path d="M1618 634h2v2h-2zm-2 2h2v2l-3 1zm6 1c3.937 1 6 2.92 9 6l4-2v3h-1.875c-2.09.556-2.09.556-3 2.75l-.813 2c-1.978 1.978-5 1.8-8 2h-12.587A1337 1337 0 0 1 1602 650l1-2 7 1 2-5-3-3 2-2h4l.938 2c1 3.06 2.737 3.953 6.02 5.562v2l3-2-2-3v-4zm-15 4 4 4h-3z"/>
    <path d="M1781 591c3 3 3 3 3 6a1049 1049 0 0 1-4 5c-.778 2.02-.778 2.02-1 4h-3a125 125 0 0 0-5 2l-3 1-1 3h-2l-.687 1.938C1763 616 1763 616 1760 616.625l-2 .375-1 2-2-1-1 2c-2.02 1-2.02 1-4 2-1-3-1-3 0-5.03 3.649-7 7.79-12 15-15.547l3 1 1-1c1.838-1.772 3.756-3 5.816-4.754 2-1.573 4-3 5.938-4.937m-1 11h2v2h-2zM1741 613l2 2c-.03 3.665-2 6.76-4 10-1 3-2.08 6-3 10h-2c-3.04.893-4 2-6.75 4.75h-2l-1 2h-3c-1-4-2-7.03-1-12l3-1a90 90 0 0 0 2-4l2-1 1-2c3.647-4.824 3.647-4.824 6-6v-2l7 1zm-9 13v2l-2 2h3l2-3zm-5 4c-2.512 2-4.51 4-6 7 2.828 1 2.828 1 5 .05 2.53-1.739 3.585-3.686 5-6.05-1.725-.955-1.725-.955-4-1m17-5h2l-1 2zm-1 2 2 1-2 1zm1 3-1 3c-4.75 1-4.75 1-7 0l1-3c3-1 3.99-.934 7 0"/>
    <path d="M2756.598 308.809c3.99 0 7 0 11-.809v2h2l1-2v3c-3 3.03-5.02 3-10 3l2 5-10-5-1 2-3-1-2 2v-4l-1 2c-1.598 3-1.598 3-4.785 3.813L2738 319v-4l-1.687 1.75c-6 6-6 6-10.03 6.676h-6c-4-.04-8.93-.644-13.03-1v-1l1.864-.06q4.03-.06 8.06 0h8.368c2.02-.07 4 0 6.02-1l1-3h2l.813-2.05C2736 311 2736 311 2739 309c5.928-1 11.561-.7 17.598 0"/>
    <path d="M1943 731h3v2l2-1h5.926c2 0 2 0 5-.531 4-.728 9.92-1.57 14.02.5 3 0 6.06 0 9.5-.625 3.508-.526 6 .624 9.5 1.625 4 .647 8.832 1 13 1 2.687 0 2.687 0 5 .5 2.731.618 2.731.618 6 .5 3 0 3 0 5 1l2-2h5.5l2.969.06C2035 735 2035 735 2037 737h-2l-1 4c-4.537 1.02-8 2-13 2v-2l-4 1v-2h-2v2h-3l-.781 1.797c-1 2-2.645 3.713-4.719 5.03l-1.844 1.578C2003 752 2003 752 2001 752c-1.643 3-2.02 4.671-1.5 8.08 1.02 3 1.02 3 4.625 4.07l2.875.85 1-4 1 2h39.092l1 1c3.559 0 6.577-.05 10-1q-.931 2-1.875 4.813l-1.05 2.707C2056 773 2056 773 2054 776h-2v3l-2.687 1.08c-5.644 3.07-9 7.896-13 12.812l2.875-1.02C2042 791 2042 791 2044 792l1-3 4 1-3 1v2h2c-1.555 3.817-4 6.02-7 9l-1-3-2-1v-3q-3.56-1-7-2l-2-.698c-7.592-2.568-12.636-3-20.06-.615l-2.08.66c-3.06 1-6.829 2-10.04 3.723-3.724 1.585-7 2-11 2q-2 .04-4 .563c-7 .836-7 .836-10-1-5.05-4.96-9.935-10-14-16-1.534-2-1.534-2-3.593-4.05-1-3.774-1-7.775-1.02-11.75v-7l-1.89-.04c-2-.816-2-.816-3-3l-.703-2.778-.734-2.785L1945 747h-2v-3l-3-1 .938-3.07c.819-2.94 1.517-5.815 2.02-8.813m-212-73c16 0 31.887 0 47.988 2 3 .07 6 .728 9.617.687L1792 661l1 1h6.813c12.797 0 25.503 1.607 38.07 3v-2c1.748-.05 3.08-.716 5-1.02l2.953-.598c2.665 0 4.06-.05 6.797.66v2l-10 2v2l-2.05 1c-3.849 1.92-7.04 4-11 6l-6 3c-3.965 2.67-4 4.644-6.02 9.02-3.913 1.957-8.792 1-13 1.621-3.854.05-7.08 1-10.895 2h-6c-2 .95-2 .95-4 2h-3l-.668 1.844c-1.792 2.901-3 3-6.645 4.656l-3 1.07c-4 1.582-8.968 2.905-13.535 4-3 1-5 2.82-7.91 5l1 3c7.557 1 14.943 1.07 22.563 1 27 0 27 0 33 2l-1 3-9 1v2c-9.05 5.536-16 8.981-27 7l-3.625-.5-3.05-.5c-4-.695-4-.695-9-1l-1 2c-3-.588-6-1.08-9.687-1.812l-2.764-.502c-4.736-.913-8.58-1.77-12.549-4.686l1-3-1.812-.5c-3.02-2.08-4-5.642-5.08-9.5v-4h-2v3C1717 713 1717 713 1716 717l-9-1v-3l-3 1a100 100 0 0 1-6-1l-.75-3.875c-.77-3.02-.77-3.02-3.05-5.625l-2.2-.5c3-2.04 6.03-2 10-2l-1-4h3.05c3 0 5.854-1 8.867-2.637 7-2.964 14.842-3.68 22.508-4.676q3 0 6.675-.896a759 759 0 0 1 6-.805c5-1 9-3 12.947-6.05l1.705-1 1.713-1.06 1.771-1.09c3-2.605 3-2.605 5-5.939h-3v3h-3v-3l-5-.937-3-.56a215 215 0 0 0-6-1c-2.742-.522-5-1-7.625-2.5h-2c-3.998-1-7.04-3-10.688-5.688z"/>
    <path d="M2363 141h2l1 8h-4v2c-1.61 1.621-1.61 1.621-3.75 3l-2 1.808c-5.8 4.754-5.8 4.754-8 4.754v2l-7 3v-2h-12l-1 3c2.917 1 2.917 1 5-.02 3.769-1.05 6.07 0 9.75 1.02-1 3-1 3-2 5h-2l5 6-1 2h3l2-6h4v-4l-3-1h4v10l-1-2h-4l-.04 1.793c0 4-.903 8.02-1.816 12l-3-1 2-7-13 1c-1 3.636-1 3.636-1 6l-3-1c-.687-2.02-.687-2.02-1-4l-2 2-1-3-1 5-2-3 1-2-4 2-2-2h-2l2 6h1.785l10.96 1A918 918 0 0 1 2346 194c-.836 1.953-.836 1.953-2 4-2.625.75-2.625.75-5 1l4 1-2 5-7 1 1-7h-13l-1 3-1-2c-2 0-2 0-4.562-.625h-2.504L2311 199v-6.07c0-1 .02-2.08 0-3 0-2.848.691-5.544 1-8h2v-6h4v6c1.626-.07 3-.05 4.875 0l2.742-.06c2.745 0 2.745 0 4.03-3.512-.722-3-1.835-4.82-4-7.07-4-2.06-8-3-13-3.813l1-3h2c7-.02 12.564-1.576 19-5 4.603-2.06 9-4.04 14-6l2.698-1.04C2359.737 148 2359.737 148 2362 148zm-28 30-1 5 2-1z"/>
    <path d="m2915 338 1-2 1.688.04c4 .537 7.658.838 11.687 0 3.625-.5 3.625-.5 6.625.5 2 0 4 0 6-.02 5 0 9.859.06 14.945 1.55 6 1.04 12.693 1 19.05 1.512l-1.863.875c-3.05 1.682-5.519 3.889-7 7h3l1-2 2 1h6l1 2h-2l-1 2v-2h-2l-1 2-1-1-2 2-1.937-.5-2.03-.5-3 2 5 2v3h2v2l-2.75-1.02c-3-.932-4-.986-7 .02h-3l1 3-3 2c-1 2.893-.964 4-.02 7L2957 374h-3l-2 2-3-9h-2l1 4-5 2c-.8-3.07-1.07-4.71 0-8l2-1v-3l-3 2-3-1v-2l-4 2-1-1-2 3-3-2-2 1v-2l-2 2.08c-3 1.812-3 1.812-5 1a72 72 0 0 1-4-1.801c-1.989-.993-1.989-.993-4.867-.797l-1.937 1.5C2907 365 2907 365 2903 365l-1-2-1.812 1.03C2898 365 2898 365 2895 364l1-2-4-1-1 3-4-2h2v-2l-1.812.688L2885 361l-1.05-1c-1.61-1.91-1.61-1.91-4.625-1.563-3 0-3 0-4.812-1L2873 355l-1-1v-3l2.75-1.07c3.02-1.937 5-3 7-6.813a91 91 0 0 0 1-5l2.773-.04 3.602-.03h3.586c14.5-1.51 14.5-1.51 22 .684m32 22v2h2v-2zM2079 765c2.02.599 4.686 1 7 2l1 2c3.05.924 3.05.924 7 1 1.964-1.03 1.964-1.03 3-3l1 3h2v-2l4 1v2h2l-1-3 2 .03 3 .59 2.989.597c2.792.55 2.792.55 5.699-.66l2.938.563c3 0 4 .03 7.02-1.563h3v2l3-1a90 90 0 0 1 4 2c2.925 0 2.925 0 5-1l2-1 1 2h4l3 1v-2l4 1v2l2 1c-3.08 1.765-4 2-8 2v5h2l1-2 1 5c-3.625 3.02-7.512 4-12 6v1l5 1c-2 3-2.02 3.02-5.59 4.824l-2 .928-2 .936-2 .97c-3.07 1-5 2-8.853 2l-1 2a144 144 0 0 1-4.965 2c-2 .885-4 1.879-6 2.918l-2 1c-1.07.752-2.95 1.552-4 2-3.689.852-6.06-.9-9-2v-3.05q-.05-2 0-4v-2c0-2.02 0-2.02-.883-5.951-2.894-1.97-2.894-1.97-6-3-1-2.908-.97-4.985 0-8h-2v-3l-3-1c-1.754-1.89-1.754-1.89-3.562-4l-1.817-2c-1.613-2-2.65-4.698-3.621-7"/>
  </g>
</svg>
