<svg width="1080" height="452"><path d="m2991 337 2 1Z" fill="#eff6db"/><def><g id="pine1" transform="translate(-100 -100) scale(-1 1)"><animateTransform attributeName="transform" type="rotate" values="-2 -250 220; 2 -250 220; -2 -250 220" keyTimes="0; 0.5; 1" dur="4s" repeatCount="indefinite" calcMode="spline" keySplines="0.45 0 0.55 1; 0.45 0 0.55 1"/><path d="M-248-52h-5l-1.5 6c0 1 0 1-.5 2-1 .5-2 .5-3 1-1.5 4-.5 5.5 1 9l-3 1 1 5h-2v2c.5.5 1.5.5 2 1 0 .5-.5 1-.5 2-.5 2-.5 2-.5 4h2v2h3c-2 .5-4 1-6 1v2l-4 1v-3h-2v-5c-1-.5-2-.5-3-1 .5 1 .5 1 .5 2 .5 2 0 3.5-.5 6v2l2.5 2.5c3 2.5 3 2.5 2.5 5.5l2 2-3 2c1 .5 1.5 1 2.5 1.5 3 1.5 3 1.5 3.5 4.5h-4V3h-2V1h-3l2-4h-3c-.5-1.5-.5-2.5-1-4h-2c-.5 1-.5 2-1 3 .5 1 1.5 2 2 3-.5 1-.5 2-1 3h2l1 2c1 2 1 2 2 3-1.5.5-2.5 1.5-4 2 1 0 2 0 3 .5 3 0 3 0 4 2 .5 1 .5 1.5 1 2.5l1.5 3c1.5 2.5 1.5 2.5 1.5 4l-4 1-2-3-1 1-1-3h-4c.5-1.5.5-2.5 1-4h-2l-1-3-3 1c.5-1 .5-2 1-3h-2c-.5-1-1.5-2-2-3l-3 2c0 2.5 0 2.5 1 5 2 1.5 2 1.5 4 2v3h2l1 4c-1-.5-2-.5-3-1v2c2 .5 4 1.5 6 2v4c.5 0 1 0 2 .5 2 .5 2 .5 3 2.5l1 2h4c.5.5.5 1.5 1 2l3-2v2l-3 1v1c1 .5 2.5.5 3.5 1 1 0 2.5.5 3.5 1l1 3h-3l-1 1c-1.5-.5-2.5-1.5-4-2v2h-3l-1-4 3-1v-2c-1.5 0-3 .5-4.5.5h-2.5c-2 .5-2 .5-4 1.5l1-8c-3-.5-3-.5-6-.5-1-.5-1-.5-2-.5-.5-.5-.5-1.5-1-2h-5c.5 2.5.5 4.5 1 7l3 1v2l2 1c.5.5.5 1.5 1 2 2 .5 4 1.5 6 2-.5 1-.5 2-1 3 1.5-.5 3.5-.5 5-1v3c2 .5 4 1.5 6 2-1 0-1.5 0-2.5.5-1 0-1.5.5-2.5.5-.5.5-.5 1.5-1 2-.5-.5-1.5-.5-2-1 0 4 .5 6.5 3.5 9.5C-266 62-266 62-262 62v2c-2.5.5-5.5.5-8 1v-2l-4 1v-2h-3c.5-1.5 1.5-3.5 2-5h-4l-1 1c-3.5-1.5-5-3-7-6-.5.5-1.5.5-2 1v-4c-1 .5-1 .5-2 .5-2 .5-3.5.5-6-.5l-1-4h-2c-1 3-1 4 0 7h2v4h3v2c1.5.5 2.5.5 4 1v2h-2v2h6c-.5 1.5-1.5 3.5-2 5l3 1v3c2.5.5 5.5.5 8 1v3c3-1 3-1 4-2 .5 1.5 1.5 2.5 2 4 1-.5 2-.5 3-1l1 6c2-.5 4-.5 6-1v3c-3.5 0-3.5 0-7-.5-3-.5-6 .5-9 1.5l-1 1-1.5-1.5C-282 84-282 84-284 84v-4h-2v2c-1.5-.5-2.5-.5-4-1-.5-1.5-.5-2.5-1-4h-6l1 6c-.5-.5-1.5-.5-2-1l-1-6-6-1v-2h-5v4h2v2h2c2 1 2 1 3 3.5 2.5 3.5 6 5.5 10 7.5-.5.5-1.5.5-2 1v-2h-3v2c1.5 1 3.5 2 5 3 .5.5.5 1.5 1 2 .5-.5 1.5-.5 2-1h6v5h-2l1 4c1 .5 2 .5 3 1l1-1c1.5 0 3-.5 4.5-.5 1 0 1.5 0 2.5-.5h2c-.5 1-.5 2-1 3 2.5-.5 4.5-.5 7-1v2c1 0 2.5 0 3.5.5 4 0 6 1 8.5 3.5-2.5 3.5-4 4-8 5 3 2 5.5 2 9 2v4h-2v-2c-3.5-1-5.5-.5-9 0-.5-1-1.5-2-2-3-4.5 0-8.5 0-13 1h-3c.5 1.5 1.5 2.5 2 4l-9-4v2l-6-1c-.5-.5-.5-1.5-1-2h-4c-1-.5-2-.5-3-1l-2-5c-2 .5-4 .5-6 1v2h2c.5 1 .5 2 1 3 .5 2 1.5 4 2 6 3 .5 6 .5 9 1-.5.5-1.5.5-2 1v3c2-.5 4-1 6-2v3c1 .5 2 .5 3 1v-2h3c-.5 1-.5 2-1 3h3v3c2 0 4 0 6-.5h3c3-.5 3-.5 6-2.5.5 1 .5 2 1 3 .5 0 1-.5 2-.5 4-1 8.5-2 13-2.5v3c-1 0-1 0-2-.5h-2.5c-.5 0-1.5-.5-2-.5-2.5 0-2.5 0-5.5 2l2 2c-1.5.5-3.5 1-5.5 1.5-.5.5-1.5.5-2.5 1-5 1-9 0-14-1-2-.5-2-.5-4 .5v-2h-6v-2h-2c-.5.5-.5 1.5-1 2-1-.5-2-.5-3-1v2h2v4c-1-.5-2-1-2.5-1.5-3.5-1.5-5-2-8.5-1.5-.5 1-1.5 2-2 3-.5-.5-.5-1.5-1-2-1-.5-2-.5-3-1-.5-.5-.5-1.5-1-2h-2c-1 7-1 7 0 9h3c.5.5.5 1.5 1 2h12c.5 1 .5 2 1 3v-2h2c-.5 1.5-.5 2.5-1 4h4c.5-.5.5-1.5 1-2 1-.5 2-.5 3-1 .5.5.5 1 1 1.5 0 1 .5 1.5 1 2.5s1 2 1.5 2.5c1.5 2.5 1.5 2.5 4 3.5h2.5v-2h5c-1 .5-2 .5-3 1v2c4-.5 7.5-2 11-4 .5.5.5 1.5 1 2l5 1v2h2v-4l4 1c.5 1 .5 2 1 3h4v7c-1-.5-2-.5-3.5-1-3.5-1-3.5-1-5.5 0-.5-.5-.5-1.5-1-2-.5.5-1.5.5-2 1-.5 0-1-.5-2-.5-3.5-1-6.5.5-10 1.5v-2h-2v2l-5-1c-.5-.5-.5-1.5-1-2h-3c-1.5-.5-2.5-.5-4-1v2c-2.5-.5-4.5-.5-7-1v-3h-6c-2 0-2 0-5-1v-2c-2-.5-4-.5-6-1v-2c-1 .5-2 .5-3 1 .5 1.5 1 2.5 2 4 0 .5.5 1.5 1 2 1 2 1 2 3 3v2c1.5-.5 2.5-.5 4-1 .5 2 .5 4 1 6h4c.5.5.5 1.5 1 2l5 1c1 .5 2 .5 3 .5.5.5 1.5.5 2 .5-.5.5-1.5.5-2 1v2h3v2c1 0 2.5 0 3.5.5 4 .5 6.5 1.5 9.5 3.5.5.5 1.5.5 2 1v-3h3v2h-2c.5.5.5 1.5 1 2h4v-2h7v-3c1 .5 2 .5 3 1 4 1 4 1 8 1 0 5-.5 10-.5 15-.5 1.5-.5 3-.5 5 0 2.5 0 4.5-.5 7v2.5c0 4 0 4-2.5 7.5h11v-38h3c-.5 1-.5 2-1 3h6c-.5-.5-.5-1.5-1-2h7v-2h2v2h2c.5 1.5.5 2.5 1 4 1.5-.5 3.5-.5 5-1v-2c.5 0 1.5.5 2 .5 8 1.5 13.5 1 21-1.5.5.5.5 1.5 1 2 2.5-.5 2.5-.5 5-2 1-2 1-2 1-4l3 1c4 1 4 1 6.5-.5 1-.5 1.5-1 2.5-1.5 3-.5 3-.5 6 0v-2c1-.5 2-1.5 3-2-.5-.5-1.5-.5-2-1l3-3c-.5-.5-1.5-.5-2-1l-1-2c-2.5.5-4.5.5-7 1v2l-5-4c-.5.5-.5 1.5-1 2-2 1.5-2 1.5-4 2-1-.5-2-.5-3-1-1 .5-2 .5-3 1v-5h-1v5h-2c-.5-.5-.5-1.5-1-2v2h-9v-2h-3v2c-2.5.5-4.5.5-7 1v-2h-9c-.5-1.5-1.5-2.5-2-4-1.5.5-3.5.5-5 1-.5 1.5-.5 2.5-1 4h-2v-2h-6c-.5-2.5-1.5-4.5-2-7 1 .5 2 .5 3 1v-2l12 2v-3c1.5.5 3.5.5 5 1v-2h2v-4c.5 0 1 .5 2 .5 2 .5 3.5.5 6-.5v-2h8c.5-.5.5-1.5 1-2l4-1v-3c.5.5 1.5.5 2 1h6l2-5c1.5.5 3.5.5 5 1 .5-1 .5-2 1-3 2.5-2.5 2.5-2.5 6-3 .5-1 .5-2 1-3-2-1-2-1-5-2l-2 2c-.5-1-.5-2-1-3h-2c-.5 1-.5 2-1 3h-2v2h-4v-3h-2l-1 2c-3.5 2-6 2-10 2-3-1-3-1-5-3l-2 2c-.5-.5-1.5-.5-2-1-4.5-1-4.5-1-7 0v-2h-2v2c-1 0-2-.5-3-.5-3-.5-3-.5-6 1.5h-10v-2c1-.5 2-.5 3-1v-2c-.5-.5-1.5-.5-2-1-.5-2-.5-2-.5-4-.5-2-.5-2-.5-4 1.5.5 2.5.5 4 1 .5-1 .5-2 1-3h3c.5 1 .5 2 1 3 1.5.5 2.5.5 4 1 .5 1 1.5 2 2 3 1-.5 2-.5 3-1l-3-5c1 .5 2 1.5 3.5 2 3 2 3 2 6 2 .5-.5.5-.5 1.5-1v-2h2l-1 7h2l1-5c.5 1 .5 2 1 3 1-.5 2-.5 3-1v-2c.5-.5 1.5-.5 2-1s1.5-.5 2-1v-2c1-.5 2-.5 3-1v-2c1.5.5 2.5.5 4 1 .5-1 .5-2 1-3h4v2h2v-2c1-.5 2-.5 3-1v-2h4c.5-1.5 1-2.5 1.5-4 .5-.5.5-1.5 1-2 .5-2 .5-2 .5-4h3v-2h2l-1-2h-5c-.5 1.5-1.5 2.5-2 4l-3-2c-.5 1-.5 2-1 3v-4c-2 .5-4 .5-6 1v-2h-4v3h-2v3h-3c.5-1 1.5-2 2-3v-3h-2v3h-2v2c-1 0-2 0-3-.5-1.5.5-1.5.5-3 .5-2 2.5-2 2.5-3 5v-3h-2v2h-2c-.5-.5-.5-1.5-1-2h-4c-.5-1.5-1.5-3.5-2-5 1-.5 2-1.5 3.5-2 .5-.5 1-1 1.5-1 2-1.5 2-1.5 5 0 .5-1.5.5-2.5 1-4 1 0 1 0 2.5-.5 8-1 8-1 11-4 .5-1 1-1.5 1.5-2.5 2.5-1.5 2.5-1.5 5-2v-2h2v-3h2v-3c-4 0-4 0-5.5 1.5-1 .5-1 .5-1.5 1.5h-2l-3 4c-.5-.5-1.5-.5-2-1 .5-1 .5-2 1-3h-2v2h-2l-1.5 1.5c-2 2-3.5 2-6.5 2-5 .5-5 .5-6 1.5-.5-1.5-1.5-3.5-2-5 1-.5 2-1.5 3-2h-2v-2l-1-1c2-.5 4-.5 6-1 .5-1 .5-2 1-3l7-2v-1h-6v-2c1 .5 2 .5 3 1v-2h7v-2c1-.5 2-.5 3-1 .5-2 .5-4 1-6 1.5-.5 3.5-.5 5-1-.5-2-.5-4-1-6l-6 1v4l-5-1v2c-3.5 0-6 0-9-1-.5 1.5-.5 3.5-1 5-.5-.5-1.5-.5-2-1l1-8h6v-2c1-.5 2-.5 3-1v-2h2l3-3c.5-.5 1.5-.5 2-1 2-1 2-1 2.5-3.5.5-1 .5-1 .5-2.5.5-.5.5-1.5 1-2h-6v5h-2v2h-3v-3h-2v2l-4-1 1 3h-2v2l-6-1v2h2c-.5.5-.5 1.5-1 2l-3-3c-.5 1-.5 2-1 3l-8 1v-2h-4c-.5.5-.5 1.5-1 2l-5 1v-3c.5 0 1.5-.5 2.5-.5 1-.5 1-.5 3-1 1-.5 1-.5 2.5-.5 2.5-1 5-2 7-3v-3c.5 0 1.5.5 2 .5 3 .5 3 .5 6-.5.5-1 1.5-1.5 2-2v-4l4 1v-2c1-.5 2-.5 3-1v-2c-1-.5-2-.5-3-1 1.5-.5 2.5-1.5 4-2-.5-.5-.5-1.5-1-2 1-1.5 1-1.5 4-3l1-7h-2l-1 2c-1 2-1 2-3 3 .5.5.5 1.5 1 2h-2v2h-3v3l-5-1v2h-4c-.5 1-.5 2-1 3h-5l-2-4c2.5-2.5 4.5-4.5 8-6l2-2v-3l-6 2c-.5 1-.5 2-1 3-.5.5-1.5.5-2 1l-1-3c-2 3-2 3-2 5l-3 1v2c-.5.5-.5 1.5-1 2l4-1c-.5 1-.5 1-1 2.5-1 2.5-1 2.5-1 4.5-.5 2-.5 2-2 4-2.5 1-2.5 1-5 1 0-2 0-2 1-4 2.5-1.5 2.5-1.5 5-2l-1-3h-2v3h-3v-4l4-2c-.5-.5-1.5-.5-2-1-.5.5-1.5.5-2 1v-4h2v2l3-1c.5-1 .5-2 1-3 1.5-1.5 1.5-1.5 3.5-3 3-2.5 5-4.5 6.5-8V9c1-.5 2-.5 3-1V6h3c-.5-1-.5-2-1-3l-5-1V0c1 .5 1 .5 2 .5 2 .5 2 .5 4.5-1L-226-2c-1.5-.5-2.5-1.5-4-2 1-.5 1.5-1 2.5-1.5 2.5-2.5 2.5-2.5 3-5-.5-2.5-.5-2.5-1.5-5.5h-3c.5 1.5.5 3.5 1 5-1.5-.5-3.5-1.5-5-2-.5 2-1 4-1 6l-4 1v3c-2.5 1.5-5.5 2-8 3l2 1v2c-1.5-.5-2.5-1.5-4-2l2-4 3-1v-2h3l4-5h-4c.5-.5 1-1.5 1.5-2 1.5-3 2-4.5 1.5-8h-2v4c-1-.5-2-.5-3-1l-1 2c-1 2.5-1 2.5-4 4l1 1c-.5.5-1.5.5-2 1-.5-1.5-.5-3.5-1-5l3-1c.5-1.5.5-1.5 1-4l2-5 3-1c-.5-1.5-.5-2.5-1-4h2v-2c-1.5-.5-3.5-.5-5-1l-1 4h-2c.5-.5 1-1.5 1.5-2 1.5-3.5 1.5-4.5.5-8l-2 1v-9h-2z"/></g></def><def><g id="shadow" transform="translate(-100 -100) scale(-1 1)"><path d="M-232 221h-63.5c-31 0-61.5 0-92.5 1v1c25.5 1 51.5 1 77 1h15.5c36 0 36 0 50.5-.5h3c3.5 0 6.5-.5 10-2.5" fill="#2C6348"/></g></def><use href="#pine1" transform="translate(770 250) scale(0.4)" fill="#2C6348"/><use href="#pine1" transform="translate(250 200) scale(0.2)" fill="#2C6348"/><use href="#pine1" transform="translate(650 270) scale(0.2)" fill="#2C6348"/><path d="M1006 107c3 1 5 2 8 5 4 2 8 3 12 4 2 0 3 1 5 1 1 1 2 1 2 1 2 1 2 1 3 2 5 0 10 1 14-2 1 0 1-1 2-2 4-3 7-4 12-4s10 1 14 3c3 4 2 7 2 12v216H205c-24 0-48 1-72 0-15 0-30 0-45 1H23c-16 0-16 0-22-6-2-2-2-4-2-7v-98c0-4 0-8 1-12v-10c0-3 1-4 3-5s5-1 7-1c6-2 10-6 15-11 9-9 20-12 33-15 5-2 9-3 13-7 7-6 19-8 28-9 4 0 7 1 11 4 3 4 5 9 5 14v3h2c3 5 1 14 0 20h2c1 1 1 1 2 1s1 1 2 1c2 1 2 1 3 3v2l4 2c1 0 2 1 2 1 3 1 3 1 7 1 3 1 3 1 5 3 2 1 4 1 6 2 1 0 1 0 2 1 7 2 14 0 20-2 2-1 3-2 5-3 17-5 39 2 54 9 2 1 3 2 5 3 6 2 12 3 18 4 3 1 3 1 4 2q9 1.5 18 0h4c2 1 4 1 7 1h8c5 0 11 0 16 1h4c4 1 6 2 9 5v4c3 1 5 2 8 2 2-3 4-5 6-8 0-1 0-1 1-2h3v2c0 7 0 7 3 13-1 0-1 1-2 2l2 4h2c1 0 1 1 2 1 0 1 0 1 1 2 0 1 1 2 1 3 2 1 4 1 7 1 2 1 2 1 4 3s3 2 6 2c4 0 6-1 9-3 5-2 10-3 15-4 6-1 10-3 15-6 2-1 2-1 4-1 0-1 1-2 1-3 7-6 13-7 21-7h15l3-6h3v-2c1 0 2 0 3 1 0 1-1 3-1 5h3c1 0 1 0 3 1 0 1 0 1 1 2 0 0 1 1 1 2 2 0 3 1 5 1 5 2 9 6 13 10 0 1 0 1 1 2v2c2 1 3 1 5 2s4 3 6 4l3 3c3 2 3 2 5 4s4 3 6 4 4 2 6 4c6 2 13 1 19 0 5-1 8 0 12 3 1 0 3 1 4 1 7 2 13 5 19 9 3 1 5 1 8 1 1 0 1 0 3 1h7c8 0 14 2 21 5l12 3c0-1 0-1 1-2 2-3 4-3 7-4 0-1-1-2-1-3 1-3 3-5 4-8s1-4 1-7v-4l6-3c-1-1-3-2-4-2 1-2 3-3 4-4-1-1-1-1-2-1 0-6 0-8 4-13 1-3 1-5 2-7-1-1-1-1-2-1 1-4 3-6 6-8h-2l6-12h3c0 1 1 2 1 4 2 3 3 6 6 9-1 0-1 1-2 2 0 2 0 2 1 4-1 0-2 0-3 1 1 1 1 2 2 3 0-1 1-2 1-2h2v4c1 0 3 0 4 1v2c-1 0-1 1-2 2 2 1 2 1 5 2v4c1 0 2 0 3 1 0-2-1-3-1-5h2c0-2 1-4 1-6 0-1 0-2 1-3v-5h2v-3c2-8 5-16 9-23h2c5 9 5 9 4 14 0 3 1 6 2 9h-2v3c1 0 1-1 2-1 2 0 2 0 5 1v-3h5v-2h-3c-4 1-5 1-8-1 0-1 1-2 1-3 0-2 0-2-1-4h5c1 1 1 1 2 1 1-1 1-2 2-2v-3c2-1 3-2 5-2v-3h2c0-1 1-2 1-3 1 0 1 0 2 1 0 3 0 6 1 10 0 3 1 4 3 7v2c1 3 1 3 3 4 1 0 1 0 2 1v2h-2c-1 0-2 1-3 1 0 0-1 1-1 2-1-1-3-1-4-1 3 3 5 4 9 5v3c-1 0-1 0-2 1 0 1 1 2 1 3h-9c4 3 9 5 13 6 5 2 8 4 11 7 2 1 4 2 5 3 1 0 2 0 3 1 1 0 1 0 2 1 1-1 1-2 2-3-1-1-2-2-3-2 6-5 6-5 8-5v-3h2c0-1 0-1-1-2 0-3 1-4 2-7 1 0 1-1 2-2 1-2 2-4 4-6h2v2l3 15c1 3 1 6 2 9-1 0-3 0-4 1 1 1 1 3 2 5 0 1 1 2 1 3 1 2 1 2 3 3v-2c1-3 3-4 6-6 2-1 5-2 7-2 1-1 1-1 2-1 3-1 5-1 7-1h3c3 0 5 0 7 1 0-1 0-1 1-2 2-5 5-8 10-10 1 0 2-1 2-1 3-1 5-2 7-3l3-9c1-4 3-6 6-8 3-1 5-1 8-2 8-1 13-2 18-8 2-2 4-3 6-5 4-3 5-8 5-13 1-5 3-8 7-11 1-1 1-1 3-1 0-1 1-2 1-2h2c0-1 1-2 1-3l2-6c2-2 2-2 3-6 1-5 4-8 8-12l2-2c5-4 8-7 15-8 2-1 4-2 6-4 4-4 9-6 13-9 1-1 1-1 2-1 4-3 7-4 12-3v-2c3-15 3-15 8-20 3-2 6-3 10-4 2 0 2 0 5-2h5s1 0 2-1h3c13 0 13 0 23-6 1-2 2-3 3-5 2-1 2-1 5-2M690 250l1 2Zm2 5v3c1 0 1 0 2 1 0-2 1-3 1-4z" fill="#0e4931"/><path d="M108 166c4 3 6 7 7 12v6h2c3 5 1 14 0 20 1 0 1 0 2 1h2c1 1 1 1 2 1 2 1 2 1 3 3v2l4 2c1 0 2 1 2 1 3 1 3 1 7 2 3 0 3 0 5 2 2 1 4 1 6 2 1 0 2 1 2 1 7 2 14 0 20-2 2-1 3-2 5-3 17-5 39 2 54 9 2 1 3 2 5 3 6 3 12 3 18 4 3 1 3 1 4 2q9 1.5 18 0c2 0 2 0 4 1h15c5 0 11 0 16 1h4c4 1 6 2 9 5 1 2 1 4 2 6 1 1 3 2 4 3 1 2 1 2 1 5-1 3-1 3-3 5v2c-1 3-3 4-5 5 2 0 3 1 5 1-6 4-6 4-9 4v2c1 0 2 1 3 1v2h-6c1 1 3 2 4 3-2 1-3 3-5 4-1-2-3-4-4-6 1 0 1 0 3-1 0-1-1-2-1-3-2-3-2-5-2-8h2c0-1-1-2-1-3-1 0-1-1-2-1 0-2 1-3 1-5h-2c-1-2-1-3-2-5l-4 2c0 1 1 2 1 3-1 2-1 2-3 4-1 0-1 1-2 2l-1 1h2c0 2-1 3-1 5h-2c-1 2-1 4-2 6-3-1-3-1-6-3-1-2-1-2-1-4h-2c-1-1-1-2-2-3-1 0-1 1-2 1-3 1-5 1-9 1s-4 0-9 1v4c-6 3-6 3-9 3-1 0-1-1-2-1 0-2-1-5-1-7-4 1-4 1-7 3 0-2-1-4-1-6s0-2-1-4c0-3 0-4 2-7 0-3 0-3-1-5v-2c0 1-1 1-1 2l-9 18h-4v-5c-1 0-2-1-3-1 0-1 1-2 1-3h-3v2h-2v-7h-2c0 2-1 3-1 5 0-1-1-3-1-4-1 0-3-1-4-1l-2 4h-2c-2-2-2-2-3-4-2 0-2 0-4 1h-2c-2 0-2 0-5 1-2 0-3-1-5-1h-6c-12-1-22-2-32-7-2 0-3-1-5-2-1 0-1 0-2-1-6-2-12-3-19-2-2 0-2 0-5-1-2-2-2-2-4-5-3-2-3-2-6-3-2-1-2-1-3-2-10-4-21-2-31 1-2 1-3 1-5 2-5 3-9 2-15 2v4c-1-1-3-1-4-2 1-1 1-3 2-4-1 0-1 1-2 1-2 1-2 1-5 1v-4c-1 0-1 1-2 1-3 1-3 1-7-1-2-1-4-2-6-4-5-4-9-5-16-6-2 0-5 0-7-1-4-1-8-1-12-1v-7c0-3 0-3 1-5 3-2 6-2 9-2 6-2 10-6 15-10 9-9 20-13 33-16 5-2 9-3 13-7 8-7 27-12 37-6" fill="#265d41"/><path d="M464 250c6 0 9 2 13 5l3 3c2 2 2 2 3 4v2c2 1 3 1 5 2s4 3 6 4l3 3c3 2 3 2 5 4s4 3 6 4 4 2 6 4c6 2 13 1 19 0 5 0 8 0 12 3 1 0 3 1 4 1 7 2 13 6 19 9 3 1 5 1 8 1 1 1 2 1 3 1h7c8 1 14 2 21 5 2 1 5 1 7 2 1 0 2 0 3 1 3 0 5-1 8-2 1 0 1 1 2 1v2c0 1 1 2 1 3l-2 2c-2 3-2 3-2 5 1 3 1 5 2 7-1 1-1 1-3 2 0 1-1 1-1 2-1 2-1 2-3 3-4 2-4 2-7 8 140 0 280 1 424 1v1H218v-1c112 0 224-1 340-1-3-5-3-5-7-8 1-5 2-10 3-14s1-6 0-9c-3-3-4-3-8-4h-8c-9 1-17 2-25 4-1-1-1-2-2-3l2-2-2-2 2-2-3-3c0-1 1-2 1-3-1 0-1 0-2-1-3-1-5-3-8-5v2c-1 1-1 2-1 3v3l-2 4 4-2c0 1-1 2-1 3h-2v3h-2v2l2 2c0 2 0 2-1 4-1 0-1 0-3 1 0 1-1 1-1 2-2 1-2 1-4 1-1 0-2 0-2 1h-2v-2c-1 0-2-1-3-1v-9c-1-1-3-1-4-2-1-4-1-4-1-7h-3c0-2 1-4 1-6-1 0-2-1-3-1-2-4-2-4-3-7l3-3-2-2c-1-2-1-5-2-7-1 1-2 3-3 4s-1 2-2 3c0 0-1 1-1 2s1 2 1 3c-1 3-1 3-2 5-2 0-2 0-4-1l-2-4c-1 0-1-1-2-1 0-3 0-3-1-6v-5h2v-2h-2c0-1 1-2 1-3 2 1 4 1 6 2 1-2 1-2 2-5-2-1-5-3-7-4v-2h2c0-1 1-1 1-2 1 0 1 0 2 1 0-1-1-3-1-4h2c2-1 2-1 3-2" fill="#215941"/><path d="M446 247c1 2 1 2 2 5-1 0-3-1-4-1 0 1 0 1 1 3v2h3c0 3-1 5-3 7l-3 3c-2 1-2 1-3 3h2v-2c2-2 2-2 5-3 0 1 0 1 1 3h2v3c-1 0-3 1-4 1 0 2 0 2 1 4v4c-2 2-2 2-5 4-2 2-2 2-3 4h4v-2c2-2 4-3 6-5 1 1 1 1 1 4v8h-2c0 1-1 2-1 3-3 3-6 4-10 4-1 0-2 1-3 1h-2c0-2-1-3-1-5-3 2-4 5-5 8-1 1-1 3-2 4-1 0-1 0-3-1v-2h-2c0-1 0-1 1-2 1 0 1 1 2 1-1-3-2-7-3-10 0-1-1-3-1-4s0-1-1-2v-2c1 0 1 0 3 1 0-1-1-2-1-3-2-2-2-4-3-7 1 0 1 1 2 1 0-5-1-8-3-12v-4h-2c0 1 0 1-1 3-1 3-3 6-5 9h-2c0 1 0 1 1 2h3c0 1-1 3-1 4-1 1-1 1-1 2l-2 4c1 0 1 1 2 1-1 0-1 0-3 1-1 2-1 2-1 4 0 1 0 1-1 2 1 0 1 1 2 1-2 2-4 5-6 7 1 0 2 1 3 1h-4v7c0 2 0 4-1 6-1 0-1 0-2-1 0-3 0-3-1-6 0-5 0-5-2-9 2 0 2 0 4-1l-2-2c0-1-1-3-1-4-1-1-1-3-2-4h3l-2-2c-2-2-2-2-2-4h-2v-8c-1 0-1-1-2-1l-3 6c0 1 0 3-1 4-1 3-1 3-1 6-2 3-2 3-4 5 1 1 1 1 4 2 0 1-1 1-1 2-2 2-3 4-3 7h-2v3h2c-1 3-1 3-2 7-1 0-2 1-3 1-3-2-3-2-5-5v-4c1 0 3 1 4 1v-3h-2c-1-3-1-6-1-9-1-2-1-2-3-4 0-1 1-1 1-2 1 1 2 1 3 2v-3c-1 0-1 0-3-1 0-1 0-1 1-2 0-3-1-5-2-8-3 2-3 2-5 5v3c-3 2-3 2-5 3 1 0 3 1 4 1-1 4-3 5-7 7 0 1 0 1 1 2 0 3-1 5-2 8h-3v-2c0-1-1-2-1-3v-2c-1-3-2-5-4-7v-2c2 0 2 0 4-1v-2c-1 0-2-1-3-1v-2c1 0 1 0 2-1-1-1-2-1-2-2-3-2-3-2-4-5 2 0 3 1 5 1 0-1 1-1 1-2-1 0-1-1-2-1-2-1-2-1-3-4 1 0 3 1 4 1v-5c-2-3-2-3-5-5 0-1 1-2 1-3v2c2 1 2 1 5 2l1-1c-1 0-1-1-2-1v-2c2 0 3-1 5-1 3 4 3 4 3 6h2c7 2 7 2 9 4s3 2 6 2c4 0 6 0 9-3 5-2 10-3 15-4 6-1 10-2 15-6 2-1 2-1 4-1 0-1 1-2 1-3 11-9 21-7 34-6" fill="#295e44"/><path d="M9 218h3c3 1 3 1 5 2h4c9 1 17 6 23 13 4 5 6 10 8 17 0 0 0 1 1 2v9c-1 10-1 10 4 19 6 5 13 7 21 10 3 1 6 2 8 3 1 0 2 0 2 1 7 2 13 4 20 7s15 5 23 6c5 1 11 2 16 3 1 0 2 0 3 1 7 1 13 3 20 5 5 1 11 3 17 4 10 3 20 5 30 10 2 0 3 1 5 2s5 2 7 3c1 0 2 1 3 1 0 0 1 0 2 1 4 2 9 3 14 3h194c40 0 79 1 119 1l50 1h455c14 0 14 1 14 1v-49c-3 0-3 0-14 6-8 6-13 15-15 25v2h-2l-3 3c-23 13-23 13-50 12h-80c-20 0-41-1-62-1H561v1H296c-11 0-23 0-34 1H21c-14 1-14 1-20-4-2-5-2-9-2-14v-41c0-7 0-15 1-22v-43c3-2 5-1 9-1" fill="#002e13"/><use href="#pine1" transform="translate(550 250) scale(0.4)" fill="#0e4931"/><use href="#pine1" transform="translate(415 240) scale(0.3)" fill="#0e4931"/><use href="#pine1" transform="translate(580 276) scale(0.3)" fill="#0e4931"/><use href="#pine1" transform="translate(860 240) scale(0.4)" fill="#0e4931"/><use href="#pine1" transform="translate(340 250) scale(0.4)" fill="#0e4931"/><use href="#pine1" transform="translate(1130 30) scale(0.4)" fill="#0e4931"/><use href="#pine1" transform="translate(1100 186) scale(0.7)" fill="#002e13"/></svg>
