<svg xmlns="http://www.w3.org/2000/svg" width="1600" height="672">
  <g transform="translate(0, 80) scale(1.5)">
    <path d="m2991 337 2 1Z" fill="#eff6db"/>
    <def>
      <g id="pine1" transform="translate(-100 -100) scale(-1 1)">
        <animateTransform attributeName="transform" type="rotate" values="-2 -250 220; 2 -250 220; -2 -250 220" keyTimes="0; 0.5; 1" dur="4s" repeatCount="indefinite" calcMode="spline" keySplines="0.45 0 0.55 1; 0.45 0 0.55 1"/>
        <path d="M-248-52h-5l-1.5 6c0 1 0 1-.5 2-1 .5-2 .5-3 1-1.5 4-.5 5.5 1 9l-3 1 1 5h-2v2c.5.5 1.5.5 2 1 0 .5-.5 1-.5 2-.5 2-.5 2-.5 4h2v2h3c-2 .5-4 1-6 1v2l-4 1v-3h-2v-5c-1-.5-2-.5-3-1 .5 1 .5 1 .5 2 .5 2 0 3.5-.5 6v2l2.5 2.5c3 2.5 3 2.5 2.5 5.5l2 2-3 2c1 .5 1.5 1 2.5 1.5 3 1.5 3 1.5 3.5 4.5h-4V3h-2V1h-3l2-4h-3c-.5-1.5-.5-2.5-1-4h-2c-.5 1-.5 2-1 3 .5 1 1.5 2 2 3-.5 1-.5 2-1 3h2l1 2c1 2 1 2 2 3-1.5.5-2.5 1.5-4 2 1 0 2 0 3 .5 3 0 3 0 4 2 .5 1 .5 1.5 1 2.5l1.5 3c1.5 2.5 1.5 2.5 1.5 4l-4 1-2-3-1 1-1-3h-4c.5-1.5.5-2.5 1-4h-2l-1-3-3 1c.5-1 .5-2 1-3h-2c-.5-1-1.5-2-2-3l-3 2c0 2.5 0 2.5 1 5 2 1.5 2 1.5 4 2v3h2l1 4c-1-.5-2-.5-3-1v2c2 .5 4 1.5 6 2v4c.5 0 1 0 2 .5 2 .5 2 .5 3 2.5l1 2h4c.5.5.5 1.5 1 2l3-2v2l-3 1v1c1 .5 2.5.5 3.5 1 1 0 2.5.5 3.5 1l1 3h-3l-1 1c-1.5-.5-2.5-1.5-4-2v2h-3l-1-4 3-1v-2c-1.5 0-3 .5-4.5.5h-2.5c-2 .5-2 .5-4 1.5l1-8c-3-.5-3-.5-6-.5-1-.5-1-.5-2-.5-.5-.5-.5-1.5-1-2h-5c.5 2.5.5 4.5 1 7l3 1v2l2 1c.5.5.5 1.5 1 2 2 .5 4 1.5 6 2-.5 1-.5 2-1 3 1.5-.5 3.5-.5 5-1v3c2 .5 4 1.5 6 2-1 0-1.5 0-2.5.5-1 0-1.5.5-2.5.5-.5.5-.5 1.5-1 2-.5-.5-1.5-.5-2-1 0 4 .5 6.5 3.5 9.5C-266 62-266 62-262 62v2c-2.5.5-5.5.5-8 1v-2l-4 1v-2h-3c.5-1.5 1.5-3.5 2-5h-4l-1 1c-3.5-1.5-5-3-7-6-.5.5-1.5.5-2 1v-4c-1 .5-1 .5-2 .5-2 .5-3.5.5-6-.5l-1-4h-2c-1 3-1 4 0 7h2v4h3v2c1.5.5 2.5.5 4 1v2h-2v2h6c-.5 1.5-1.5 3.5-2 5l3 1v3c2.5.5 5.5.5 8 1v3c3-1 3-1 4-2 .5 1.5 1.5 2.5 2 4 1-.5 2-.5 3-1l1 6c2-.5 4-.5 6-1v3c-3.5 0-3.5 0-7-.5-3-.5-6 .5-9 1.5l-1 1-1.5-1.5C-282 84-282 84-284 84v-4h-2v2c-1.5-.5-2.5-.5-4-1-.5-1.5-.5-2.5-1-4h-6l1 6c-.5-.5-1.5-.5-2-1l-1-6-6-1v-2h-5v4h2v2h2c2 1 2 1 3 3.5 2.5 3.5 6 5.5 10 7.5-.5.5-1.5.5-2 1v-2h-3v2c1.5 1 3.5 2 5 3 .5.5.5 1.5 1 2 .5-.5 1.5-.5 2-1h6v5h-2l1 4c1 .5 2 .5 3 1l1-1c1.5 0 3-.5 4.5-.5 1 0 1.5 0 2.5-.5h2c-.5 1-.5 2-1 3 2.5-.5 4.5-.5 7-1v2c1 0 2.5 0 3.5.5 4 0 6 1 8.5 3.5-2.5 3.5-4 4-8 5 3 2 5.5 2 9 2v4h-2v-2c-3.5-1-5.5-.5-9 0-.5-1-1.5-2-2-3-4.5 0-8.5 0-13 1h-3c.5 1.5 1.5 2.5 2 4l-9-4v2l-6-1c-.5-.5-.5-1.5-1-2h-4c-1-.5-2-.5-3-1l-2-5c-2 .5-4 .5-6 1v2h2c.5 1 .5 2 1 3 .5 2 1.5 4 2 6 3 .5 6 .5 9 1-.5.5-1.5.5-2 1v3c2-.5 4-1 6-2v3c1 .5 2 .5 3 1v-2h3c-.5 1-.5 2-1 3h3v3c2 0 4 0 6-.5h3c3-.5 3-.5 6-2.5.5 1 .5 2 1 3 .5 0 1-.5 2-.5 4-1 8.5-2 13-2.5v3c-1 0-1 0-2-.5h-2.5c-.5 0-1.5-.5-2-.5-2.5 0-2.5 0-5.5 2l2 2c-1.5.5-3.5 1-5.5 1.5-.5.5-1.5.5-2.5 1-5 1-9 0-14-1-2-.5-2-.5-4 .5v-2h-6v-2h-2c-.5.5-.5 1.5-1 2-1-.5-2-.5-3-1v2h2v4c-1-.5-2-1-2.5-1.5-3.5-1.5-5-2-8.5-1.5-.5 1-1.5 2-2 3-.5-.5-.5-1.5-1-2-1-.5-2-.5-3-1-.5-.5-.5-1.5-1-2h-2c-1 7-1 7 0 9h3c.5.5.5 1.5 1 2h12c.5 1 .5 2 1 3v-2h2c-.5 1.5-.5 2.5-1 4h4c.5-.5.5-1.5 1-2 1-.5 2-.5 3-1 .5.5.5 1 1 1.5 0 1 .5 1.5 1 2.5s1 2 1.5 2.5c1.5 2.5 1.5 2.5 4 3.5h2.5v-2h5c-1 .5-2 .5-3 1v2c4-.5 7.5-2 11-4 .5.5.5 1.5 1 2l5 1v2h2v-4l4 1c.5 1 .5 2 1 3h4v7c-1-.5-2-.5-3.5-1-3.5-1-3.5-1-5.5 0-.5-.5-.5-1.5-1-2-.5.5-1.5.5-2 1-.5 0-1-.5-2-.5-3.5-1-6.5.5-10 1.5v-2h-2v2l-5-1c-.5-.5-.5-1.5-1-2h-3c-1.5-.5-2.5-.5-4-1v2c-2.5-.5-4.5-.5-7-1v-3h-6c-2 0-2 0-5-1v-2c-2-.5-4-.5-6-1v-2c-1 .5-2 .5-3 1 .5 1.5 1 2.5 2 4 0 .5.5 1.5 1 2 1 2 1 2 3 3v2c1.5-.5 2.5-.5 4-1 .5 2 .5 4 1 6h4c.5.5.5 1.5 1 2l5 1c1 .5 2 .5 3 .5.5.5 1.5.5 2 .5-.5.5-1.5.5-2 1v2h3v2c1 0 2.5 0 3.5.5 4 .5 6.5 1.5 9.5 3.5.5.5 1.5.5 2 1v-3h3v2h-2c.5.5.5 1.5 1 2h4v-2h7v-3c1 .5 2 .5 3 1 4 1 4 1 8 1 0 5-.5 10-.5 15-.5 1.5-.5 3-.5 5 0 2.5 0 4.5-.5 7v2.5c0 4 0 4-2.5 7.5h11v-38h3c-.5 1-.5 2-1 3h6c-.5-.5-.5-1.5-1-2h7v-2h2v2h2c.5 1.5.5 2.5 1 4 1.5-.5 3.5-.5 5-1v-2c.5 0 1.5.5 2 .5 8 1.5 13.5 1 21-1.5.5.5.5 1.5 1 2 2.5-.5 2.5-.5 5-2 1-2 1-2 1-4l3 1c4 1 4 1 6.5-.5 1-.5 1.5-1 2.5-1.5 3-.5 3-.5 6 0v-2c1-.5 2-1.5 3-2-.5-.5-1.5-.5-2-1l3-3c-.5-.5-1.5-.5-2-1l-1-2c-2.5.5-4.5.5-7 1v2l-5-4c-.5.5-.5 1.5-1 2-2 1.5-2 1.5-4 2-1-.5-2-.5-3-1-1 .5-2 .5-3 1v-5h-1v5h-2c-.5-.5-.5-1.5-1-2v2h-9v-2h-3v2c-2.5.5-4.5.5-7 1v-2h-9c-.5-1.5-1.5-2.5-2-4-1.5.5-3.5.5-5 1-.5 1.5-.5 2.5-1 4h-2v-2h-6c-.5-2.5-1.5-4.5-2-7 1 .5 2 .5 3 1v-2l12 2v-3c1.5.5 3.5.5 5 1v-2h2v-4c.5 0 1 .5 2 .5 2 .5 3.5.5 6-.5v-2h8c.5-.5.5-1.5 1-2l4-1v-3c.5.5 1.5.5 2 1h6l2-5c1.5.5 3.5.5 5 1 .5-1 .5-2 1-3 2.5-2.5 2.5-2.5 6-3 .5-1 .5-2 1-3-2-1-2-1-5-2l-2 2c-.5-1-.5-2-1-3h-2c-.5 1-.5 2-1 3h-2v2h-4v-3h-2l-1 2c-3.5 2-6 2-10 2-3-1-3-1-5-3l-2 2c-.5-.5-1.5-.5-2-1-4.5-1-4.5-1-7 0v-2h-2v2c-1 0-2-.5-3-.5-3-.5-3-.5-6 1.5h-10v-2c1-.5 2-.5 3-1v-2c-.5-.5-1.5-.5-2-1-.5-2-.5-2-.5-4-.5-2-.5-2-.5-4 1.5.5 2.5.5 4 1 .5-1 .5-2 1-3h3c.5 1 .5 2 1 3 1.5.5 2.5.5 4 1 .5 1 1.5 2 2 3 1-.5 2-.5 3-1l-3-5c1 .5 2 1.5 3.5 2 3 2 3 2 6 2 .5-.5.5-.5 1.5-1v-2h2l-1 7h2l1-5c.5 1 .5 2 1 3 1-.5 2-.5 3-1v-2c.5-.5 1.5-.5 2-1s1.5-.5 2-1v-2c1-.5 2-.5 3-1v-2c1.5.5 2.5.5 4 1 .5-1 .5-2 1-3h4v2h2v-2c1-.5 2-.5 3-1v-2h4c.5-1.5 1-2.5 1.5-4 .5-.5.5-1.5 1-2 .5-2 .5-2 .5-4h3v-2h2l-1-2h-5c-.5 1.5-1.5 2.5-2 4l-3-2c-.5 1-.5 2-1 3v-4c-2 .5-4 .5-6 1v-2h-4v3h-2v3h-3c.5-1 1.5-2 2-3v-3h-2v3h-2v2c-1 0-2 0-3-.5-1.5.5-1.5.5-3 .5-2 2.5-2 2.5-3 5v-3h-2v2h-2c-.5-.5-.5-1.5-1-2h-4c-.5-1.5-1.5-3.5-2-5 1-.5 2-1.5 3.5-2 .5-.5 1-1 1.5-1 2-1.5 2-1.5 5 0 .5-1.5.5-2.5 1-4 1 0 1 0 2.5-.5 8-1 8-1 11-4 .5-1 1-1.5 1.5-2.5 2.5-1.5 2.5-1.5 5-2v-2h2v-3h2v-3c-4 0-4 0-5.5 1.5-1 .5-1 .5-1.5 1.5h-2l-3 4c-.5-.5-1.5-.5-2-1 .5-1 .5-2 1-3h-2v2h-2l-1.5 1.5c-2 2-3.5 2-6.5 2-5 .5-5 .5-6 1.5-.5-1.5-1.5-3.5-2-5 1-.5 2-1.5 3-2h-2v-2l-1-1c2-.5 4-.5 6-1 .5-1 .5-2 1-3l7-2v-1h-6v-2c1 .5 2 .5 3 1v-2h7v-2c1-.5 2-.5 3-1 .5-2 .5-4 1-6 1.5-.5 3.5-.5 5-1-.5-2-.5-4-1-6l-6 1v4l-5-1v2c-3.5 0-6 0-9-1-.5 1.5-.5 3.5-1 5-.5-.5-1.5-.5-2-1l1-8h6v-2c1-.5 2-.5 3-1v-2h2l3-3c.5-.5 1.5-.5 2-1 2-1 2-1 2.5-3.5.5-1 .5-1 .5-2.5.5-.5.5-1.5 1-2h-6v5h-2v2h-3v-3h-2v2l-4-1 1 3h-2v2l-6-1v2h2c-.5.5-.5 1.5-1 2l-3-3c-.5 1-.5 2-1 3l-8 1v-2h-4c-.5.5-.5 1.5-1 2l-5 1v-3c.5 0 1.5-.5 2.5-.5 1-.5 1-.5 3-1 1-.5 1-.5 2.5-.5 2.5-1 5-2 7-3v-3c.5 0 1.5.5 2 .5 3 .5 3 .5 6-.5.5-1 1.5-1.5 2-2v-4l4 1v-2c1-.5 2-.5 3-1v-2c-1-.5-2-.5-3-1 1.5-.5 2.5-1.5 4-2-.5-.5-.5-1.5-1-2 1-1.5 1-1.5 4-3l1-7h-2l-1 2c-1 2-1 2-3 3 .5.5.5 1.5 1 2h-2v2h-3v3l-5-1v2h-4c-.5 1-.5 2-1 3h-5l-2-4c2.5-2.5 4.5-4.5 8-6l2-2v-3l-6 2c-.5 1-.5 2-1 3-.5.5-1.5.5-2 1l-1-3c-2 3-2 3-2 5l-3 1v2c-.5.5-.5 1.5-1 2l4-1c-.5 1-.5 1-1 2.5-1 2.5-1 2.5-1 4.5-.5 2-.5 2-2 4-2.5 1-2.5 1-5 1 0-2 0-2 1-4 2.5-1.5 2.5-1.5 5-2l-1-3h-2v3h-3v-4l4-2c-.5-.5-1.5-.5-2-1-.5.5-1.5.5-2 1v-4h2v2l3-1c.5-1 .5-2 1-3 1.5-1.5 1.5-1.5 3.5-3 3-2.5 5-4.5 6.5-8V9c1-.5 2-.5 3-1V6h3c-.5-1-.5-2-1-3l-5-1V0c1 .5 1 .5 2 .5 2 .5 2 .5 4.5-1L-226-2c-1.5-.5-2.5-1.5-4-2 1-.5 1.5-1 2.5-1.5 2.5-2.5 2.5-2.5 3-5-.5-2.5-.5-2.5-1.5-5.5h-3c.5 1.5.5 3.5 1 5-1.5-.5-3.5-1.5-5-2-.5 2-1 4-1 6l-4 1v3c-2.5 1.5-5.5 2-8 3l2 1v2c-1.5-.5-2.5-1.5-4-2l2-4 3-1v-2h3l4-5h-4c.5-.5 1-1.5 1.5-2 1.5-3 2-4.5 1.5-8h-2v4c-1-.5-2-.5-3-1l-1 2c-1 2.5-1 2.5-4 4l1 1c-.5.5-1.5.5-2 1-.5-1.5-.5-3.5-1-5l3-1c.5-1.5.5-1.5 1-4l2-5 3-1c-.5-1.5-.5-2.5-1-4h2v-2c-1.5-.5-3.5-.5-5-1l-1 4h-2c.5-.5 1-1.5 1.5-2 1.5-3.5 1.5-4.5.5-8l-2 1v-9h-2z"/>
      </g>
    </def>
    <path d="M1006 90c3 1 5 2 8 5 4 2 8 3 12 4 2 0 3 1 5 1 1 1 2 1 2 1 2 1 2 1 3 2 5 0 10 1 14-2 1 0 1-1 2-2 4-3 7-4 12-4s10 1 14 3c3 4 2 7 2 12v216H205c-24 0-48 1-72 0-15 0-30 0-45 1H23c-16 0-16 0-22-6-2-2-2-4-2-7v-98c0-4 0-8 1-12v-10c6-2 10-6 15-11 9-9 20-12 33-15 5-2 9-3 13-7 7-6 19-8 28-9 4 0 7 1 11 4 3 4 5 9 5 14v3h2c3 5 1 14 0 20h2c1 1 1 1 2 1s1 1 2 1c2 1 2 1 3 3v2l4 2c1 0 2 1 2 1 3 1 3 1 7 1 3 1 3 1 5 3 2 1 4 1 6 2 1 0 1 0 2 1 7 2 14 0 20-2 2-1 3-2 5-3 17-5 39 2 54 9 2 1 3 2 5 3 6 2 12 3 18 4 3 1 3 1 4 2q9 1.5 18 0h4c2 1 4 1 7 1h8c5 0 11 0 16 1h4c4 1 6 2 9 5v4c3 1 5 2 8 2 2-3 4-5 6-8 0-1 0-1 1-2h3v2c0 7 0 7 3 13-1 0-1 1-2 2l2 4h2c1 0 1 1 2 1 0 1 0 1 1 2 0 1 1 2 1 3 2 1 4 1 7 1 2 1 2 1 4 3s3 2 6 2c4 0 6-1 9-3 5-2 10-3 15-4 6-1 10-3 15-6 2-1 2-1 4-1 0-1 1-2 1-3 7-6 13-7 21-7h15l3-6h3v-2c1 0 2 0 3 1 0 1-1 3-1 5h3c1 0 1 0 3 1 0 1 0 1 1 2 0 0 1 1 1 2 2 0 3 1 5 1 5 2 9 6 13 10 0 1 0 1 1 2v2c2 1 3 1 5 2s4 3 6 4l3 3c3 2 3 2 5 4s4 3 6 4 4 2 6 4c6 2 13 1 19 0 5-1 8 0 12 3 1 0 3 1 4 1 7 2 13 5 19 9 3 1 5 1 8 1 1 0 1 0 3 1h7c8 0 14 2 21 5l12 3c0-1 0-1 1-2 2-3 4-3 7-4 0-1-1-2-1-3 1-3 3-5 4-8s1-4 1-7v-4l6-3c-1-1-3-2-4-2 1-2 3-3 4-4-1-1-1-1-2-1 0-6 0-8 4-13 1-3 1-5 2-7-1-1-1-1-2-1 1-4 3-6 6-8h-2l6-12h3c0 1 1 2 1 4 2 3 3 6 6 9-1 0-1 1-2 2 0 2 0 2 1 4-1 0-2 0-3 1 1 1 1 2 2 3 0-1 1-2 1-2h2v4c1 0 3 0 4 1v2c-1 0-1 1-2 2 2 1 2 1 5 2v4c5 9 5 9 4 14 0 3 1 6 2 9h-2v3c1 0 1-1 2-1 2 0 2 0 5 1v-3h5v-2h-3c-4 1-5 1-8-1 0-1 1-2 1-3 0-2 0-2-1-4h5c1 1 1 1 2 1 1-1 1-2 2-2v-3c2-1 3-2 5-2v-3h2c0-1 1-2 1-3 1 0 1 0 2 1 0 3 0 6 1 10 0 3 1 4 3 7v2c1 3 1 3 3 4 1 0 1 0 2 1v2h-2c-1 0-2 1-3 1 0 0-1 1-1 2-1-1-3-1-4-1 3 3 5 4 9 5v3c-1 0-1 0-2 1 0 1 1 2 1 3h-9c4 3 9 5 13 6 5 2 8 4 11 7 2 1 4 2 5 3 1 0 2 0 3 1 1 0 1 0 2 1 1-1 1-2 2-3-1-1-2-2-3-2 6-5 6-5 8-5v-3h2c0-1 0-1-1-2 0-3 1-4 2-7 1 0 1-1 2-2 1-2 2-4 4-6h2v2l3 15c1 3 1 6 2 9-1 0-3 0-4 1 1 1 1 3 2 5 0 1 1 2 1 3 1 2 1 2 3 3v-2c1-3 3-4 6-6 2-1 5-2 7-2 1-1 1-1 2-1 3-1 5-1 7-1h3c3 0 5 0 7 1 0-1 0-1 1-2 2-5 5-8 10-10 1 0 2-1 2-1 3-1 5-2 7-3l3-9c1-4 3-6 6-8 3-1 5-1 8-2 8-1 13-2 18-8 2-2 4-3 6-5 4-3 5-8 5-13 1-5 3-8 7-11 1-1 1-1 3-1 0-1 1-2 1-2h2c5-4 8-7 15-8 2-1 4-2 6-4 4-4 9-6 13-9 1-1 1-1 2-1 4-3 7-4 12-3v-2c3-15 3-15 8-20 3-2 6-3 10-4 2 0 2 0 5-2h5s1 0 2-1h3c13 0 13 0 23-6 1-2 2-3 3-5 2-1 2-1 5-2M690 250l1 2Zm2 5v3c1 0 1 0 2 1 0-2 1-3 1-4z" fill="#0e4931"/>
    <path d="M108 140c4 3 6 7 7 12v6h2c3 5 1 14 0 20 1 0 1 0 2 1h2c1 1 1 1 2 1 2 1 2 1 3 3v2l4 2c1 0 2 1 2 1 3 1 3 1 7 2 3 0 3 0 5 2 2 1 4 1 6 2 1 0 2 1 2 1 7 2 14 0 20-2 2-1 3-2 5-3 17-5 39 2 54 9 2 1 3 2 5 3 6 3 12 3 18 4 3 1 3 1 4 2q9 1.5 18 0c2 0 2 0 4 1h15c5 0 11 0 16 1h4c4 1 6 2 9 5 1 2 1 4 2 6 1 1 3 2 4 3 1 2 1 2 1 5-1 3-1 3-3 5v2c-1 3-3 4-5 5 2 0 3 1 5 1-6 4-6 4-9 4v2c1 0 2 1 3 1v2h-6c1 1 3 2 4 3-2 1-3 3-5 4-1-2-3-4-4-6 1 0 1 0 3-1 0-1-1-2-1-3-2-3-2-5-2-8h2c0-1-1-2-1-3-1 0-1-1-2-1 0-2 1-3 1-5h-2c-1-2-1-3-2-5l-4 2c0 1 1 2 1 3-1 2-1 2-3 4-1 0-1 1-2 2l-1 1h2c0 2-1 3-1 5h-2c-1 2-1 4-2 6-3-1-3-1-6-3-1-2-1-2-1-4h-2c-1-1-1-2-2-3-1 0-1 1-2 1-3 1-5 1-9 1s-4 0-9 1v4c-6 3-6 3-9 3-1 0-1-1-2-1 0-2-1-5-1-7-4 1-4 1-7 3 0-2-1-4-1-6s0-2-1-4c0-3 0-4 2-7 0-3 0-3-1-5v-2c0 1-1 1-1 2l-9 18h-4v-5c-1 0-2-1-3-1 0-1 1-2 1-3h-3v2h-2v-7h-2c0 2-1 3-1 5 0-1-1-3-1-4-1 0-3-1-4-1l-2 4h-2c-2-2-2-2-3-4-2 0-2 0-4 1h-2c-2 0-2 0-5 1-2 0-3-1-5-1h-6c-12-1-22-2-32-7-2 0-3-1-5-2-1 0-1 0-2-1-6-2-12-3-19-2-2 0-2 0-5-1-2-2-2-2-4-5-3-2-3-2-6-3-2-1-2-1-3-2-10-4-21-2-31 1-2 1-3 1-5 2-5 3-9 2-15 2v4c-1-1-3-1-4-2 1-1 1-3 2-4-1 0-1 1-2 1-2 1-2 1-5 1v-4c-1 0-1 1-2 1-3 1-3 1-7-1-2-1-4-2-6-4-5-4-9-5-16-6-2 0-5 0-7-1-4-1-8-1-12-1v-7c0-3 0-3 1-5 3-2 6-2 9-2 6-2 10-6 15-10 9-9 20-13 33-16 5-2 9-3 13-7 8-7 27-12 37-6" fill="#265d41"/>
    <path d="M464 250c6 0 9 2 13 5l3 3c2 2 2 2 3 4v2c2 1 3 1 5 2s4 3 6 4l3 3c3 2 3 2 5 4s4 3 6 4 4 2 6 4c6 2 13 1 19 0 5 0 8 0 12 3 1 0 3 1 4 1 7 2 13 6 19 9 3 1 5 1 8 1 1 1 2 1 3 1h7c8 1 14 2 21 5 2 1 5 1 7 2 1 0 2 0 3 1 3 0 5-1 8-2 1 0 1 1 2 1v2c0 1 1 2 1 3l-2 2c-2 3-2 3-2 5 1 3 1 5 2 7-1 1-1 1-3 2 0 1-1 1-1 2-1 2-1 2-3 3-4 2-4 2-7 8 140 0 280 1 424 1v1H218v-1c112 0 224-1 340-1-3-5-3-5-7-8 1-5 2-10 3-14s1-6 0-9c-3-3-4-3-8-4h-8c-9 1-17 2-25 4-1-1-1-2-2-3l2-2-2-2 2-2-3-3c0-1 1-2 1-3-1 0-1 0-2-1-3-1-5-3-8-5v2c-1 1-1 2-1 3v3l-2 4 4-2c0 1-1 2-1 3h-2v3h-2v2l2 2c0 2 0 2-1 4-1 0-1 0-3 1 0 1-1 1-1 2-2 1-2 1-4 1-1 0-2 0-2 1h-2v-2c-1 0-2-1-3-1v-9c-1-1-3-1-4-2-1-4-1-4-1-7h-3c0-2 1-4 1-6-1 0-2-1-3-1-2-4-2-4-3-7l3-3-2-2c-1-2-1-5-2-7-1 1-2 3-3 4s-1 2-2 3c0 0-1 1-1 2s1 2 1 3c-1 3-1 3-2 5-2 0-2 0-4-1l-2-4c-1 0-1-1-2-1 0-3 0-3-1-6v-5h2v-2h-2c0-1 1-2 1-3 2 1 4 1 6 2 1-2 1-2 2-5-2-1-5-3-7-4v-2h2c0-1 1-1 1-2 1 0 1 0 2 1 0-1-1-3-1-4h2c2-1 2-1 3-2" fill="#215941"/>
    <path d="M446 225c1 2 1 2 2 5-1 0-3-1-4-1 0 1 0 1 1 3v2h3c0 3-1 5-3 7l-3 3c-2 1-2 1-3 3h2v-2c2-2 2-2 5-3 0 1 0 1 1 3h2v3c-1 0-3 1-4 1 0 2 0 2 1 4v4c-2 2-2 2-5 4-2 2-2 2-3 4h4v-2c2-2 4-3 6-5 1 1 1 1 1 4v8h-2c0 1-1 2-1 3-3 3-6 4-10 4-1 0-2 1-3 1h-2c0-2-1-3-1-5-3 2-4 5-5 8-1 1-1 3-2 4-1 0-1 0-3-1v-2h-2c0-1 0-1 1-2 1 0 1 1 2 1-1-3-2-7-3-10 0-1-1-3-1-4s0-1-1-2v-2c1 0 1 0 3 1 0-1-1-2-1-3-2-2-2-4-3-7 1 0 1 1 2 1 0-5-1-8-3-12v-4h-2c0 1 0 1-1 3-1 3-3 6-5 9h-2c0 1 0 1 1 2h3c0 1-1 3-1 4-1 1-1 1-1 2l-2 4c1 0 1 1 2 1-1 0-1 0-3 1-1 2-1 2-1 4 0 1 0 1-1 2 1 0 1 1 2 1-2 2-4 5-6 7 1 0 2 1 3 1h-4v7c0 2 0 4-1 6-1 0-1 0-2-1 0-3 0-3-1-6 0-5 0-5-2-9 2 0 2 0 4-1l-2-2c0-1-1-3-1-4-1-1-1-3-2-4h3l-2-2c-2-2-2-2-2-4h-2v-8c-1 0-1-1-2-1l-3 6c0 1 0 3-1 4-1 3-1 3-1 6-2 3-2 3-4 5 1 1 1 1 4 2 0 1-1 1-1 2-2 2-3 4-3 7h-2v3h2c-1 3-1 3-2 7-1 0-2 1-3 1-3-2-3-2-5-5v-4c1 0 3 1 4 1v-3h-2c-1-3-1-6-1-9-1-2-1-2-3-4 0-1 1-1 1-2 1 1 2 1 3 2v-3c-1 0-1 0-3-1 0-1 0-1 1-2 0-3-1-5-2-8-3 2-3 2-5 5v3c-3 2-3 2-5 3 1 0 3 1 4 1-1 4-3 5-7 7 0 1 0 1 1 2 0 3-1 5-2 8h-3v-2c0-1-1-2-1-3v-2c-1-3-2-5-4-7v-2c2 0 2 0 4-1v-2c-1 0-2-1-3-1v-2c1 0 1 0 2-1-1-1-2-1-2-2-3-2-3-2-4-5 2 0 3 1 5 1 0-1 1-1 1-2-1 0-1-1-2-1-2-1-2-1-3-4 1 0 3 1 4 1v-5c-2-3-2-3-5-5 0-1 1-2 1-3v2c2 1 2 1 5 2l1-1c-1 0-1-1-2-1v-2c2 0 3-1 5-1 3 4 3 4 3 6h2c7 2 7 2 9 4s3 2 6 2c4 0 6 0 9-3 5-2 10-3 15-4 6-1 10-2 15-6 2-1 2-1 4-1 0-1 1-2 1-3 11-9 21-7 34-6" fill="#295e44"/>
    <path d="M19 200h3c3 1 3 1 5 2h4c9 1 17 6 23 13 4 5 6 10 8 17 0 0 0 1 1 2v9c-1 10-1 10 4 19 6 5 13 7 21 10 3 1 6 2 8 3 1 0 2 0 2 1 7 2 13 4 20 7s15 5 23 6c5 1 11 2 16 3 1 0 2 0 3 1 7 1 13 3 20 5 5 1 11 3 17 4 10 3 20 5 30 10 2 0 3 1 5 2s5 2 7 3c1 0 2 1 3 1 0 0 1 0 2 1 4 2 9 3 14 3h194c40 0 79 1 119 1l50 1h455c-3 0-3 0-14 6-8 6-13 15-15 25v2h-2l-3 3c-23 13-23 13-50 12h-80c-20 0-41-1-62-1H561v1H296c-11 0-23 0-34 1H21c-14 1-14 1-20-4-2-5-2-9-2-14v-41c0-7 0-15 1-22v-43c3-2 5-1 9-1" fill="#002e13"/>
  </g>
  <path d="M1015 331c4.515 3.283 4.709 9.37 5.625 14.5l.375 2.5h-2l1.938 3.063c2.13 3.69 2.717 6.716 3.062 10.937h-2l2 5h-3v2c3.588 1.866 7.278 3.425 11 5v-2l-4-1-1-4 6 1-.062-3.437C1033 361 1033 361 1034 360l-1.715-.367-2.223-.508-2.214-.492C1026 358 1026 358 1025 356l6-1-4-4 1-3 2 2c6.11.737 9.355-.312 14.434-3.71 1.703-1.224 1.703-1.224 2.566-3.29l-2.875 1.5C1041 346 1041 346 1039 346v-4c.746-.235 1.493-.47 2.262-.71 3.209-1.512 4.477-3.069 6.55-5.915l1.833-2.477L1051 331c1.784 3.062 2.229 5.22 2.125 8.75l-.055 2.422L1053 344h4c2.25 3 2.25 3 4 6h-3l1.094 1.645 1.406 2.168 1.406 2.144C1063 358 1063 358 1063 361l3 1v3h-3v3h2l1 3 2 1v2h-5v2h2l1 5h-2a274 274 0 0 0 1.313 3.813l.738 2.144c1.016 2.188 2.157 3.452 3.949 5.043l-1 3h-2l2 4-4-1 1 3 3 1v2h-9l-1 4-1-3c-1.94.276-1.94.276-4 1l-2 3c-2.437-.812-2.437-.812-5-2l-1-3h-2l-.437 3.438C1043 411 1043 411 1042 412l5 2v2l-6 1v3l7 1c4.008 7.515 1.858 16.468.857 24.535-1.7 14.742-2.112 29.65-2.857 44.465h-5v2h4v11h-3l1 2.313c1 2.687 1 2.687 1 5.687h-3l-.125 2.313C1040 516 1040 516 1037.063 517.5L1034 519a78 78 0 0 0-2 5c-2.125 1.313-2.125 1.313-4 2l-3-2v5l-3 1v2c-1.625 1.75-1.625 1.75-4 3-2.913-.7-5.33-1.665-8-3l1-2 5 2-2.187-2c-5.088-5.102-8.188-11.368-10.813-18l1.563.813c3.101 1.51 6.26 2.843 9.437 4.187-.624-3.761-2.348-6.19-4.562-9.25l-1.942-2.703L1006 503l1-2 6 2-1.277-1.32c-3.528-3.835-5.373-6.313-5.723-11.68a519 519 0 0 0-1-5l7 4-1.023-2.23-1.352-2.957-1.336-2.918C1005 473.509 1005 473.509 1005 470h2v-2l-4-1v-3l5 1-1.059-1.793-1.379-2.394-1.37-2.356c-1.514-3.121-2.192-5.991-2.192-9.457l5 2-2-2.937c-3.458-6.709-2.3-14.739-2-22.063l-2-1-.797 2.625C997.29 435.796 992.66 443.401 986 449l-3 1-1 2h4c-1.443 3.366-3.333 5.51-6 8l3 2 1.875-1.062L987 460l2 1c-4.694 5.81-9.71 10.901-16 15h-2v2c3.083-1.199 6.063-2.477 9-4-2.604 7.032-9.655 10.046-16 13v1l10-1c-2.048 4.097-3.257 5.533-7 8-3.312.75-3.312.75-6 1l4 2c-3.135 1.858-5.375 2.201-9 2l1 2c2.126.467 2.126.467 4.563.625l2.503.227L966 503l-1 3 4 1-13 4c4.984 2.037 4.984 2.037 9.813 1.625l2.394-.336L970 512c-2.025 4.812-5.322 6.909-10 9-2.51.381-4.45.266-7 0v3l6-1-3 3 7-1c-3.173 3.536-5.167 5.586-10 6v2h2v3l3 1q-1.935.755-3.875 1.5l-2.18.844C950 540 950 540 948 540v2l4 1c-5.75 3-5.75 3-8 3v4h12c-3.436 3.006-6.855 5.042-10.941 6.98-2.037 1.009-3.937 2.142-5.871 3.332L936 562l-3-1 1-2-10 1c3.268-2.179 6.38-3.498 10-5l-1-2h2v-2l-3.812 1c-9.006 1.987-18.1.984-27.188 0v-1l3.473-.332 4.59-.48 2.279-.213c5.082-.55 9.055-1.744 13.658-3.975-.64.01-1.28.02-1.94.032-2.916.041-5.832.067-8.747.093l-3.053.05-2.96.02-2.713.032c-4.3-.377-6.892-1.513-9.9-4.602C897 539 897 539 897 535l1.938.813L902 537l2.055.8c5.22 1.907 9.394 2.503 14.945 2.2-4.144-2.763-8.608-4.839-13.066-7.05-3.19-2.12-3.976-3.31-4.934-6.95l2.313 1.938c2.57 2.204 2.57 2.204 5.687 3.062v-2l-2-1v-2l2.625.5c6.073.893 12.255.576 18.375.5a557 557 0 0 0-8.605-2.824c-7.091-2.371-16.73-5.657-20.704-12.395L898 510c4.084 1.043 7.702 2.288 11.5 4.125 4.102 1.9 7.02 2.256 11.5 1.875l-1.75-.875L913 512v-1l2.992-.367 3.883-.508 3.867-.492c3.33-.332 3.33-.332 5.258-2.633-1.702.03-1.702.03-3.437.063C922 507 922 507 921 506a164 164 0 0 0-6.062-1.062l-3.348-.536L909 504v-2l-2-.125c-4.39-1.28-7.485-4.023-11-6.875l1-2 2.688 1.438c6.336 2.989 12.553 2.776 19.437 2.812l3.035.063 2.91.015 2.65.028c2.718-.425 3.582-1.248 5.28-3.356l-4-1 4-1v-2l-1.977.473-2.648.59-2.602.597c-3.177.39-5.64-.03-8.773-.66l-3.105-.43-3.082-.445-3.106-.43C905 489 905 489 902 486l13 1v-2l12-3c-1.125-1.356-1.125-1.356-4.062-1.062L920 481v-3l-1.863.07-2.45.055-2.425.07C911 478 911 478 908 476l-3.812-.687c-5.015-1.122-7.32-4.251-10.188-8.313l1-2 2.484 1.277 3.266 1.66 3.234 1.653c7.242 3.386 15.174 3.138 23.016 2.41 3.32-1.312 5.23-2.691 8-5l-2.055.438c-16.83 3.356-16.83 3.356-23.945-.438v-1l2.555-.621 3.32-.817 3.305-.808c2.745-.633 2.745-.633 4.82-1.754l-8-1c3.75-3.875 3.75-3.875 6-5l-1-2c3-2 3-2 6.375-2.875 3.716-1.153 5.775-2.534 8.625-5.125l-5-1 2-3v-4l2.012-.516c5.158-1.415 9.047-2.674 12.988-6.484l-1.875.938c-3.695 1.847-5.94 2.153-10.125 2.062.125-3.25.125-3.25 1-7 2.938-2.312 2.938-2.312 6-4l2-2-8 1v-5l10-4-1-4h-4c1.356-4.07 3.743-5.138 7.188-7.5 2.094-1.464 2.094-1.464 2.812-4.5l-2.875 2C945 401 945 401 943 401c1-3 1-3 4-5h-4v-2l2-1-2-1 1-3 3-1-2-1v-2c5.294-4 5.294-4 9-4l-4-1 1-1.75c1.27-2.449 1.27-2.449 1-6.25l1-2h-5c1-3 1-3 3.813-4.75 3.898-2.752 5.08-5.035 7.187-9.25l-4 1c1.325-4.637 3.255-8.054 6-12a86 86 0 0 0 2-4h3l.7 2.45c1.893 6.205 3.296 10.38 8.3 14.55v2c-4.75-1.875-4.75-1.875-7-3l6 9-1 2 4 2v2l-4 4v2h2l2-4 .75 1.875c1.456 2.476 2.628 3.076 5.25 4.125v2l-7-1v2l5 2v2h6v4l-5 2v2l2.75-.187c3.645.21 4.567.862 7.25 3.187a88 88 0 0 0 4 2l-1 4 4-4h-2l1-4h2v-2l-6 2v-2l3-2-3-1v-2l2-1-2-1v-2h2l.25-2.25c.89-3.262 2.235-4.56 4.75-6.75l-1-2 2-3-4-1c1-3 1-3 4-5 1.197-3.465 2-6.328 2-10a201 201 0 0 1 3-6c1.158-2.947 1.158-2.947 1-6 1.752-4.332 4.004-8.405 7-12" fill="#19483d"/>
  <path d="m144.438 246.625 2.892-.074c7.014-.03 7.014-.03 10.197 2.293L159 251l2.125 2.875c2.262 3.77 3.558 7.167 4.262 11.516.897 5.904.897 5.904 4.238 10.671 2.907 3.596 2.875 5.518 2.746 9.985C172 288 172 288 170 290c-.426 2.562-.426 2.562-.562 5.438-.206 3.142-.438 5.56-1.438 8.562l6-4-2-4 6-3-2-6 5-3-4-1c1.177-3.532 1.956-3.863 5.063-5.687l2.222-1.325L186 275l-2-1c1.32-2.89 2.787-5.044 4.938-7.375 2.642-2.991 4.448-5.949 6.062-9.625h3c2.733 7.602 4.804 15.006 6 23h-4l1 2.688c.912 3.021 1.183 5.196 1 8.312h-2l2.5 2.875c2.5 2.875 2.5 2.875 2.5 5.125h-3l1.348 1.172 1.714 1.578 1.723 1.547C208 305 208 305 207.684 307.203L207 309l2.375.938C212 311 212 311 214 312v2l-3 1 1 1c.141 2.67.042 5.324 0 8l-6-2c1.252 2.721 1.252 2.721 4 5 3.7.453 7.29.288 11 0l.809-1.867c1.706-3.056 4.282-4.276 7.191-6.133l1-2h-4v-2c2.5-1.625 2.5-1.625 5-3l-2-2 3-6-2-1c1.489-3.896 3.244-7.591 5.125-11.312l1.633-3.239L238 286c4.405 1.468 5.558 4.379 7.836 8.277 1.737 4.064 1.257 6.508.164 10.723h3c-.628 2.929-1.586 5.361-3 8 4.741-3.251 7.209-7.106 10-12 1.221 3.663.644 4.295-.937 7.688-1.42 3.319-2.302 5.764-2.063 9.375 0 7.933-4.72 14.5-9 20.937 4.389-3.267 8.753-6.549 13-10 .353 4.944-.697 7.671-3 12l-.461 2.324c-.602 2.988-1.584 5.595-2.719 8.422l-1.316 3.287-1.379 3.404-1.355 3.393c-2.08 5.17-4.23 10.206-6.77 15.17h-4l-1-6c-3.076 1.654-3.076 1.654-3.875 4.063C230 377 230 377 227.375 377.75L225 378c-4.429-5.143-4.429-5.143-5-9l-2 4h-2a125 125 0 0 1-4-6l1-2 3 2 2-1-6-6 1-2 1.645 1.496 2.167 1.942 2.145 1.933c2.042 1.82 2.042 1.82 5.043 2.629-5.416-8.554-5.416-8.554-11-17l1-2 5 3q-1.279-1.939-2.562-3.875l-1.653-2.5a144 144 0 0 0-3.601-5.062C205.66 331.119 202.007 323.314 201 314h-3l.25 3.375c-.045 8.542-4.358 15.292-9.371 21.91-2.257 2.06-3.882 2.38-6.879 2.715v2l11-3c-2.043 4.087-4.535 6.972-7.625 10.25l-1.562 1.68Q181.91 354.97 180 357l8-4c-1.345 4.042-3.05 6.387-6.125 9.313l-2.195 2.113L178 366c3.372-.727 5.266-1.904 8-4h2c-1.437 4.914-3.542 9.002-6.125 13.375l-1.129 1.941Q179.38 379.662 178 382l-2.312-1.437c-2.652-1.664-2.652-1.664-5.688-2.563v-2h-2v-2h4l-1-3h2c-4.193-16.527-4.193-16.527-15-29-6.758-1.3-13.56-1.169-20.422-1.046q-2.871.05-5.742.084c-3.55.05-7.099.128-10.649.212l-3.468.042c-7.146.209-13.44 1.077-19.719 4.708-2.161 2.529-2.161 2.529-3 5l-4-1v-2l-7 2-.312 1.938L83 354l-3 1c-1.562-1.187-1.562-1.187-3-3 .313-2.687.313-2.687 1-5l-4 3 1 4h-5l-1-2-1 1c-1.666.04-3.334.043-5 0l-.26-2.14q-.586-4.805-1.178-9.61l-.408-3.367-.4-3.242-.365-2.984c-.32-2.552-.32-2.552-.904-4.571-.491-2.112-.618-3.952-.63-6.117l-.02-2.367-.003-2.532-.01-2.63q-.007-2.751-.007-5.502c-.002-2.796-.02-5.591-.04-8.387q-.005-2.677-.005-5.356l-.022-2.52c.018-4.641.53-8.295 2.252-12.675.433-2.28.433-2.28.625-4.375L62 271l1 2 2.016-.567c3.033-.844 6.07-1.67 9.109-2.495l3.172-.893 3.086-.83 2.825-.778c3.177-.497 5.666-.117 8.792.563l.738-1.719c3.9-7.05 11.434-13.552 19.211-15.86 2.053-.421 3.962-.593 6.055-.667l2.244-.1q2.32-.091 4.64-.172c6.962-.321 12.257-2.847 19.55-2.857" fill="#336349" transform="translate(-20,0)"/>
  <path d="M770 336h2l.078 1.793c.392 5.46 1.292 7.972 4.922 12.207-.25 2.313-.25 2.313-1 4l-2-1 2 4h-3l1.563 2.188c1.694 3.315 1.264 4.318.437 7.812l2 3-1 2h-2v2l3 1v2l-4-2c1.079 3.236 2.495 6.074 4.125 9.063C778 386 778 386 778 389h-2c-1.625-2.5-1.625-2.5-3-5l1 11h-4c-.207 9.054-.207 9.054 1 18l-4 2v-2h-2l-1 12h2l1-3h2l.875-2.687C771 416 771 416 772.25 413.438c.978-3.18.143-4.496-1.25-7.438v-3l1.938-.812c2.393-1.075 2.393-1.075 3.062-4.188l2.438-1.25c3.56-2.432 3.664-4.604 4.562-8.75q.548-1.973 1.125-3.937L785 381l7 1 .184 1.934.254 2.503.246 2.497c.105 2.053.105 2.053 1.316 3.066.04 1.666.043 3.334 0 5l-2-1v5h-2v-2h-2c1.159 4.86 1.159 4.86 3.625 9.125 1.762 2.403 1.618 3.965 1.375 6.875h-2a240 240 0 0 0 2.188 4.875l1.23 2.742c1.89 2.848 3.355 3.44 6.582 4.383v2h7v7h2l1-3 .125 1.875c.734 2.437.734 2.437 3.688 3.563 3.108.888 3.108.888 5.312-.583 2.328-2.304 2.59-3.772 3.063-6.98.745-4.808.745-4.808 1.812-5.875a100 100 0 0 1 5 0c1.423 3.823 2.24 6.913 2 11h7l.813-1.625L841 432l1.313-3.187C844 426 844 426 846.688 425.125L849 425l1 8 1.875-1.937C854 429 854 429 856 428l-1-3c1.187-1.715 2.384-3.426 3.652-5.082 1.974-2.809 3.11-5.725 4.348-8.918l2 1v6l2 1h-2l.75 1.75.25 2.25c-1.937 2.25-1.937 2.25-4 4h6l1-3a260 260 0 0 1 4.242-2.684c2.874-2.152 4.992-4.93 7.242-7.707L882 412h2c1.058 16.02 1.058 16.02-1.277 20.39-1.833 1.58-3.532 2.59-5.723 3.61l-2 1.148c-4.175 2.3-8.389 3.7-13 4.852l9 1-1 3c5.51-1.951 9.127-4.592 13.398-8.574C885 436 885 436 886 436c.136 2.856.235 5.705.313 8.563l.126 2.423c.108 5.256-.654 8.53-4.028 12.631-5.179 5.075-12.706 5.61-19.598 5.633A237 237 0 0 1 857 465l1 2a96 96 0 0 0 7.563.625l2.154.117c1.76.095 3.522.177 5.283.258-2.23 2.23-3.13 2.436-6.133 3.07l-2.441.528-2.551.527-2.574.55c-2.1.449-4.2.888-6.301 1.325 5.33 2.665 14.148 1.796 20 1 3.821-1.5 6.87-3.357 10-6-1.318 3.65-2.592 5.79-5 9l8-6c.108 2.564.187 5.123.25 7.688l.102 2.185c.07 3.82-.057 5.665-2.164 8.97L882 493l-1.578 1.582c-6.724 4.948-14.48 3.852-22.422 3.418l1 2c3.03.658 3.03.658 6 1v2l-10 1 1 2h7c-2.55 2.354-3.71 2.983-7.25 3.188L853 509v2c12.112-.272 23.093-4.065 33-11-2.327 8.339-6.53 11.606-13.758 15.863C870 517 870 517 868 517l1 3-4 1v2C675.04 429.113 674 427.83 674 423l-2-3c-1.277-6.11-1.115-12.218-1.062-18.437l.013-3.084q.018-3.74.049-7.479l1.813 1c2.24 1.208 2.24 1.208 5.187 1l-2.062-2.312L674 388l1-3 1.574 1.129c4.275 3.04 4.275 3.04 9.301 3.808 2.283-.854 2.283-.854 4.125-2.937a75 75 0 0 0 1.313-4.312c1.4-4.478 3.118-6.698 6.687-9.688l-2-1c1.2-3.414 2.333-5.565 5-8l1-2h-2c.188-1.812.188-1.812 1-4l5-3c1.645-1.798 3.164-3.657 4.668-5.574L712 348h2q.508 3.28 1 6.563l.563 3.69c.423 3.623.512 7.104.437 10.747h-2l3 10 1-4 3-1c1.23-3.512 1.23-3.512 2-7h5c1.355 2.71.876 4.494.563 7.5-.366 4.004-.679 7.979-.75 12l-.043 2.344c.26 2.431 1.019 4.05 2.23 6.156l3-4-1.937-.312L729 390l-1-3c1.215-2.262 1.215-2.262 2.938-4.687l1.714-2.45L734 378l-2 1 1-1.937c1.073-1.83 1.073-1.83 1-3.063 0-3.29.43-4.073 2.25-6.687l1.266-1.887C739 364 739 364 743 364c1.818 3.862 2.092 6.763 2 11l1 3h-2v3h2v2h-2l1 12-3 1-2 12h2l.25-2.062c.788-3.088 2.138-5.399 3.77-8.114 1.507-2.804 2.198-5.751 2.98-8.824a496 496 0 0 1 2-6h-3c1.03-2.577 1.51-3.763 4.063-5 2.095-.823 2.095-.823 2.75-2.875.314-2.128.314-2.128-.375-4.125-.438-2-.438-2 .25-4 1.522-2.32 3.288-4.11 5.312-6l-3-2c.688-2.812.688-2.812 2-6l2.313-1.25c5.078-3.307 7.447-9.94 8.687-15.75" fill="#346349" transform="translate(0,20)"/>
  <path d="M654 303c2.534 1.267 2.698 2.256 3.813 4.813 1.807 3.748 3.591 5.94 7.187 8.187 2.182.778 2.182.778 4 1v3l-5 1 1.5 2.813C667 327 667 327 667 330l-2 1 6 7-4 2 7 6c-1 3-1 3-3 4l2 2.313c2 2.687 2 2.687 2 5.687l-2.375.625L670 360l-.75 2.688c-1.903 5.041-5.926 7.305-10.25 10.312h2l2 1-4.59 3.71c-1.543 1.257-1.543 1.257-2.41 3.29l1.68-.875 2.195-1.125 2.18-1.125C664 377 664 377 666 377c-.582 4.202-2.003 7.107-4.25 10.688l-1.766 2.886c-2.181 2.667-3.72 3.464-6.984 4.426v2l6-2-1 3 8-6c-.539 5.277-1.773 9.256-4 14h-2l-.75 2.5C655.5 419 655.5 419 651 422a89 89 0 0 0-2 4 210 210 0 0 1-3 4c9.56-6.383 9.56-6.383 17-15h2c1.055 16.758 1.055 16.758-1.277 21.715-1.806 1.871-3.428 3.07-5.723 4.285l-1.895 1.023c-5.123 2.275-10.565 2.648-16.105 2.977v2q2.126-.214 4.25-.437l2.39-.247c2.184-.292 4.237-.737 6.36-1.316v3a412 412 0 0 0 3.875-2.312l2.18-1.301c2.213-1.405 2.213-1.405 3.945-4.387h2c1.929 16.807 1.929 16.807-.875 21.813-4.102 5.067-10.143 6.994-16.375 8.125-4.025.067-5.622-.494-8.75-2.938l.5-1.875c.622-2.643.725-3.675-.5-6.125l-2-1c-1.274-7.179-1.274-7.179 0-11-1.372-2.677-1.372-2.677-3-5a2545 2545 0 0 0-3.375 5.25l-1.898 2.953c-1.378 2.232-2.61 4.428-3.727 6.797l-3-2v-2l-5-2 1-3 3 1-2-5 3 1v-3h-2l-1-7h-2v-2h2l-7-12h3l2 2-1-8h-2v-5h2a85 85 0 0 0-2-7l-1-5a695 695 0 0 0-2-8c-4.388 5.15-4.388 5.15-6.07 11.46q.375 2.31.832 4.603c.238 1.937.238 1.937-1.137 4.25L603 412l-.45 1.879c-.615 2.372-1.533 3.786-2.987 5.746l-1.31 1.79C597 423 597 423 595 425l6-3c-1.126 3.097-2.47 5.826-4.187 8.625L595 434l1 3-2 1.625c-2.329 2.248-2.329 2.248-2 5.438V447a125 125 0 0 1-4 3c-.334 2.626-.334 2.626 0 5h-3l1.125 2.688c.875 3.312.875 3.312.25 6.062-1.565 2.561-2.702 3.05-5.375 4.25l.07-3.254q.029-2.154.055-4.308l.05-2.135c.045-4.822-.647-8.726-2.175-13.303l5 1-1.5-2.125c-1.694-3.246-1.752-5.268-1.5-8.875l-1.812-.625c-2.998-1.884-3.802-4.186-5.188-7.375l6 2v-2l-2.187-.562c-3.972-2.03-6.077-4.408-7.813-8.438-.995-4.983-1.564-9.94-2-15h-2l-.297 3.29-.453 4.335-.187 2.16c-.56 5.075-2.036 7.998-5.063 12.215l.563 2.438c.437 2.562.437 2.562-.594 4.43A94 94 0 0 1 556 437l1 2 1.375-1.5C560 436 560 436 562 436c-1.102 3.124-2.241 5.321-4.25 8l-1.75 3c.767 2.543.767 2.543 2 5-.117 5.494-2.426 8.001-6 12l-1.5 2.688c-1.784 2.75-3.613 3.83-6.5 5.312l-.312-2.812c-.369-3.15-.369-3.15-2.188-4.625-2.37-2.47-2.189-5.264-2.5-8.563h4l-1.5-1.875C540 452 540 452 540 450h3l-2-2.875C539 444 539 444 539 442h3v-2l-1.937-.375L538 439c-1.354-2.709-1.065-5.01-1-8l5 3-1.312-2.187L539 429l-1.687-2.687C536 424 536 424 536 422h3l-1-1.562c-1.32-3.218-1.132-5.995-1-9.438h-2l-.285 1.691c-.895 2.89-2.354 4.82-4.153 7.247-2.419 3.267-4.196 6.225-5.562 10.062h3l-1 5-3 1c-1.092 1.933-1.092 1.933-2 4l-2 2v3l-1.062 2.5c-1.264 2.571-1.264 2.571.062 5.5-1.812 2-1.812 2-4 4h-3l-.48-1.715c-.706-2.217-1.412-4.237-2.52-6.285-2.57-1.134-2.57-1.134-5-1l1-3 5 1-1.785-2.738q-1.14-1.787-2.277-3.575l-1.182-1.802c-.998-1.581-1.885-3.23-2.756-4.885l1-3 5-1-4-4 2-6-1.875-.312C502 418 502 418 500 415l1-3h3c-.474-4.269-3.035-6.11-6-9l-1-3h3v2h4l2-3v2h2c-1.41-2.375-2.826-4.737-4.348-7.043l-1.402-2.144-1.36-2.043L500 388l1-2 2 1v-6h-2v-2l4-2 3.71 4.59c1.257 1.543 1.257 1.543 3.29 2.41 2.333.04 4.667.043 7 0l1.68-3.246 2.195-4.192 1.105-2.142c2.793-5.307 2.793-5.307 5.02-6.42 3.104 5.688 5 10.405 5 17l1 3h-3c2.546 3.524 2.546 3.524 6 6v2h-3v2l5-1v3h4v-2l2.563.375c3.807-.415 3.944-.656 6.375-3.25 5.045-4.862 12.41-4.628 19.062-5.125v-2l2.5-1.375L577 385v-4c1.75-1.484 1.75-1.484 4-2.75l2.25-1.297L585 376l-2-1v-2l-3-1v-2l2.938-1.437c2.867-1.265 2.867-1.265 4.062-2.563l-2-1v-2l5.371-2.93c1.795-.984 1.795-.984 2.629-3.07h-2c1.933-4.015 4.245-7.762 6.563-11.562A86 86 0 0 0 601 339h2l1 11c3.25-6.236 5.997-12.259 8-19l3 1 2 10h2l1-1-2-1c.48-4.314 1.746-6.166 5-9h-3c0-2 0-2 2-4.062l1.355-1.297c3.39-3.382 6.487-7.045 9.645-10.641l2 1c.563 2.363.563 2.363 1 5.313.542 3.625 1.177 6.49 3 9.687l-4-1 .621 2.563c3.995 16.82 3.995 16.82 2.379 25.437l6-1-.875-3.875c-.76-6.212 2.365-10.252 5.875-15.125l-5 2c.607-3.153 1.642-5.189 3.563-7.75l1.378-1.86c.35-.458.7-.917 1.059-1.39l-3 1c.498-3.735.875-5.812 3-9h-3c.656-4.024 1.912-7.5 3.5-11.25l1.344-3.203C653 304 653 304 654 303" fill="#326148" transform="translate(0,45)"/>
  <path d="M963 341h3l.7 2.45c1.893 6.205 3.296 10.38 8.3 14.55v2c-4.75-1.875-4.75-1.875-7-3l6 9-1 2 4 2v2l-5 5c-1.295 2.166-1.295 2.166-2 4l-3-1v2h2v2l7 2 1 5-3 1 1 2-4-1c3.407 3.975 7.328 5.868 12 8v2h-10l1.75 1.242 2.25 1.633 2.25 1.617L981 409v2l-6.836-1.465C972 409 972 409 970 408c2.551 5.102 4.992 8.177 9.61 11.543C981 421 981 421 981 425l1 3-4-1v2l4 1-1 5h2v2h-2v2l7 1 2 5c-2.363 2.526-3.665 3.888-7 5l-1 2h4c-1.443 3.366-3.333 5.51-6 8l3 2 1.875-1.062L987 460l2 1c-4.694 5.81-9.71 10.901-16 15h-2v2c3.083-1.199 6.063-2.477 9-4-2.604 7.032-9.655 10.046-16 13v1l10-1c-2.048 4.097-3.257 5.533-7 8-3.312.75-3.312.75-6 1l4 2c-3.135 1.858-5.375 2.201-9 2l1 2c2.126.467 2.126.467 4.563.625l2.503.227L966 503l-1 3 4 1-13 4c4.984 2.037 4.984 2.037 9.813 1.625l2.394-.336L970 512c-2.025 4.812-5.322 6.909-10 9-2.51.381-4.45.266-7 0v3l6-1-3 3 7-1c-3.173 3.536-5.167 5.586-10 6v2h2v3l3 1q-1.935.755-3.875 1.5l-2.18.844C950 540 950 540 948 540v2l4 1c-5.75 3-5.75 3-8 3v4h12c-3.436 3.006-6.855 5.042-10.941 6.98-2.037 1.009-3.937 2.142-5.871 3.332L936 562l-3-1 1-2-10 1c3.268-2.179 6.38-3.498 10-5l-1-2h2v-2l-3.812 1c-9.006 1.987-18.1.984-27.188 0v-1l3.473-.332 4.59-.48 2.279-.213c5.082-.55 9.055-1.744 13.658-3.975-.64.01-1.28.02-1.94.032-2.916.041-5.832.067-8.747.093l-3.053.05-2.96.02-2.713.032c-4.3-.377-6.892-1.513-9.9-4.602C897 539 897 539 897 535l1.938.813L902 537l2.055.8c5.22 1.907 9.394 2.503 14.945 2.2-4.144-2.763-8.608-4.839-13.066-7.05-3.19-2.12-3.976-3.31-4.934-6.95l2.313 1.938c2.57 2.204 2.57 2.204 5.687 3.062v-2l-2-1v-2l2.625.5c6.073.893 12.255.576 18.375.5a557 557 0 0 0-8.605-2.824c-7.091-2.371-16.73-5.657-20.704-12.395L898 510c4.084 1.043 7.702 2.288 11.5 4.125 4.102 1.9 7.02 2.256 11.5 1.875l-1.75-.875L913 512v-1l2.992-.367 3.883-.508 3.867-.492c3.33-.332 3.33-.332 5.258-2.633-1.702.03-1.702.03-3.437.063C922 507 922 507 921 506a164 164 0 0 0-6.062-1.062l-3.348-.536L909 504v-2l-2-.125c-4.39-1.28-7.485-4.023-11-6.875l1-2 2.688 1.438c6.336 2.989 12.553 2.776 19.437 2.812l3.035.063 2.91.015 2.65.028c2.718-.425 3.582-1.248 5.28-3.356l-4-1 4-1v-2l-1.977.473-2.648.59-2.602.597c-3.177.39-5.64-.03-8.773-.66l-3.105-.43-3.082-.445-3.106-.43C905 489 905 489 902 486l13 1v-2l12-3c-1.125-1.356-1.125-1.356-4.062-1.062L920 481v-3l-1.863.07-2.45.055-2.425.07C911 478 911 478 908 476l-3.812-.687c-5.015-1.122-7.32-4.251-10.188-8.313l1-2 2.484 1.277 3.266 1.66 3.234 1.653c7.242 3.386 15.174 3.138 23.016 2.41 3.32-1.312 5.23-2.691 8-5l-2.055.438c-16.83 3.356-16.83 3.356-23.945-.438v-1l2.555-.621 3.32-.817 3.305-.808c2.745-.633 2.745-.633 4.82-1.754l-8-1c3.75-3.875 3.75-3.875 6-5l-1-2c3-2 3-2 6.375-2.875 3.716-1.153 5.775-2.534 8.625-5.125l-5-1 2-3v-4l2.012-.516c5.158-1.415 9.047-2.674 12.988-6.484l-1.875.938c-3.695 1.847-5.94 2.153-10.125 2.062.125-3.25.125-3.25 1-7 2.938-2.312 2.938-2.312 6-4l2-2-8 1v-5l10-4-1-4h-4c1.356-4.07 3.743-5.138 7.188-7.5 2.094-1.464 2.094-1.464 2.812-4.5l-2.875 2C945 401 945 401 943 401c1-3 1-3 4-5h-4v-2l2-1-2-1 1-3 3-1-2-1v-2c5.294-4 5.294-4 9-4l-4-1 1-1.75c1.27-2.449 1.27-2.449 1-6.25l1-2h-5c1-3 1-3 3.813-4.75 3.898-2.752 5.08-5.035 7.187-9.25l-4 1c1.325-4.637 3.255-8.054 6-12a86 86 0 0 0 2-4" fill="#1b4a3e"/>
  <path d="M373 265h1l.375 3.313c.38 3.76.38 3.76 2.625 6.687h-2l.438 1.863.562 2.45.563 2.425C377 284 377 284 377 287l2 2c-.375 2.125-.375 2.125-1 4l-2-3c.537 3.377 1.11 6.697 2 10h-1v5l2 1v5l6-4 1 3h3c-3.167 8.89-9.474 16.43-17 22h-2v2c5.65-1.657 10.263-3.478 15-7-1.25 3.46-2.675 6.147-5 9 4.115-1.83 6.451-3.304 9-7h2c1.051 10.314 1.051 10.314-1.242 13.992-4.253 3.783-9.492 5.978-14.758 8.008l4 1v2c-2.012 1.84-2.012 1.84-4.687 3.938l-2.637 2.09C369 362 369 362 366.23 363.627c-2.352 1.177-2.352 1.177-3.23 3.372 7.963-1.225 13.535-5.367 20-10l2 1-2.59 2.3-3.348 3.012-1.708 1.514C373.94 367.9 373.94 367.9 372 372l2.75-1.437C378 369 378 369 379.914 368.75c3.265-1.174 4.637-3.597 6.711-6.312A134 134 0 0 1 391 357h2c.287 6.606.422 13.744-3.668 19.242A72 72 0 0 1 376 387h-3v2l-5 1v-3h-2l-1 3-6 1v-12h2l-1-2a121 121 0 0 1-.562-5.125l-.254-2.758L359 367l-.805 1.61L355 375l-1.035 2.148C353 379 353 379 351.438 380.875c-1.652 2.112-1.652 2.112-1.875 5.063-.681 3.705-2 5.348-4.563 8.062l-3 2-1-5-4-1-.437-1.812c-.45-1.75-.992-3.475-1.563-5.188l-2-1-2 4h-2c-1.61-3.65-2.449-7.05-3-11l-1 6h-2l-1-4-3 2-3-4-4 8-1.687-2.312c-3.207-3.727-5.573-5.483-10.5-6.063L297 375l-2 3h-2l-1 3-7-8 1-2 2.313 1.938c2.57 2.204 2.57 2.204 5.687 3.062-3.769-7.046-8.408-13.476-13-20l1-2 .688 1.875c1.695 2.745 3.341 3.06 6.312 4.125l-.854-1.585C276.36 336.48 276.36 336.48 275 331l1-2 2.25 1.938c2.538 1.903 3.768 2.457 6.75 3.062l-1.531-2.082-1.969-2.73-1.969-2.708C278 324 278 324 278 321h5l1-5-4 1 4-10h-2l.563-2.25c.429-2.7.288-4.196-.563-6.75l2.25-1.5c3.409-3.099 4.937-6.328 6.75-10.5h3l.148 2.23.227 2.957c.07.963.14 1.926.21 2.918.418 2.918 1.282 5.19 2.415 7.895.125 2.813.125 2.813 0 5 2.786-3.901 4.681-7.385 6-12h2l.586 2.3.789 3.012.773 2.989c.771 2.88.771 2.88 2.852 5.699l-1 1a100 100 0 0 0 0 5l5-1 .438-1.875C315 310 315 310 316 308h-3l2-5h2v-2h-2c1.326-3.623 2.943-6.635 5.125-9.812l1.633-2.395L323 287c1.895.695 1.895.695 4 2 1.012 2.242 1.012 2.242 1.688 4.875l.699 2.617L330 299l.582 2.32L331 303h-3l1.563 2.188c1.651 3.232 1.5 4.428.437 7.812l-3 1c2.642 3.62 4.778 6.348 9 8 3.382-.057 6.663-.462 10-1v-3l8-1v-2l4-1v-2l-3-1 2.813-2.25c2.458-2.04 4.403-4.075 6.187-6.75l-7 1c1.37-3.995 3.257-6.8 6-10l-1-1c.813-1.937.813-1.937 2-4l3-1 1-5-5 2 2-1.812c2.337-2.063 2.337-2.063 2-5.188l-1-1 2.375-2.687c2.197-2.62 3.563-5.03 4.625-8.313" fill="#33644a" transform="translate(0,30)"/>
  <path d="M464 352c1 3.25 1 3.25 1 6l4 1 1-3c1.5 1.313 1.5 1.313 3 3v3l2.125.688c3.486 1.59 5.94 3.866 8.875 6.312l2.813 1.125L489 371l1 3-3 1-1 3c-1.562 1.688-1.562 1.688-3 3l6-4 2 1-4 6h4l1-3 1 4-2.3 1.39-3.012 1.86-2.989 1.828c-2.528 1.8-4.026 3.34-5.699 5.922l3 2a862 862 0 0 1-6 5l-2.187 1.813C472 406 472 406 469 406v2h8c-.187 1.75-.187 1.75-1 4l-2.375 1.875c-2.99 2.42-4.115 4.63-5.625 8.125l2 2-1.875 2.188c-1.962 2.596-3.078 4.759-4.125 7.812l-2-1-1-5-2-1c-.778-3.82-1.244-6.268 0-10-.308-2.076-.308-2.076-.937-4.187L457 409l5 2c-1.125-2.972-2.223-5.334-4-8 .059-2.453.059-2.453.438-5.25.506-4.549.627-8.294-.438-12.75l-2-1c-.852-1.848-.852-1.848-1.625-4.062-.26-.734-.52-1.467-.79-2.223-.192-.566-.386-1.132-.585-1.715l-.937 1.875L450 382h-2v2h-2c-2.806 4.676-3 9.65-3 15h-2l-.875 2.75c-.89 2.572-1.84 4.863-3.125 7.25l2 1-1 3c-6.63-.348-12.054-.96-18-4l.688-2.5c.414-4.641-.855-7.247-2.688-11.5l-.812 1.938C416 399 416 399 413 400l2 1v4c-2.245 1.123-3.515 1.134-6 1.125l-2.125.008C405 406 405 406 403 405v-2h2v-2h-4c-1.156-3.467-1.328-6.541-1.562-10.187l-.254-3.856L399 384l2.184 1.484c3.013 1.622 4.51 1.868 7.878 1.766l2.891-.086L415 387l3.172-.164c7.613-.496 7.613-.496 14.828-2.836l1-2-2 1c-2.374.071-4.75.084-7.125.063l-3.883-.028L418 383v-2h3v-2l-2.562-.516c-15.201-3.247-15.201-3.247-19.438-7.484a110 110 0 0 1-.062-5.562l.027-3.067L399 360l9 1 1-2h-2v-2h-2v-2l2.02.656c6.827 2.063 12.867 2.715 19.98 2.344v-2l-4-1h4l1-2v2l2.625-1.375c9.64-4.642 24.323-9.014 33.375-1.625" fill="#316148" transform="translate(0,20)"/>
  <path d="M1015 331c4.515 3.283 4.709 9.37 5.625 14.5l.375 2.5h-2l1.938 3.063c2.13 3.69 2.717 6.716 3.062 10.937h-2l2 5h-3v2c2.937 1.523 5.917 2.801 9 4l-2 1 1 4c4.516.077 8.59.102 13-1-1.366 5.311-4.53 7.31-9 10-4.614 2.671-8.936 1.985-14 1l-2-1c1.67 3.224 1.67 3.224 4.625 3.688L1024 391v1h-7c1.048 1.638 1.048 1.638 3 3 3.43.364 3.43.364 7.188.188l3.855-.083L1034 395c-1.71 3.789-3.216 5.152-7 7-2.812.688-2.812.688-5 1 1.076 1.288 1.076 1.288 3.625 1.25 4.098-.304 6.688-1.48 10.375-3.25-.664 5.197-2.602 7.323-6.523 10.617-4.325 2.415-8.68 1.939-13.477 1.383l-1 2 10 1c-2 2-2 2-3.945 2.195L1015 418v2c5.946.357 9.685-.018 15-3l2 1c-4.322 4.322-9 5.748-15 6-2.698-.675-4.55-1.616-7-3 .04 1.923.04 1.923 1 4 3.476 2.4 5.384 3.042 9.625 2.75 3.704-.808 3.704-.808 7.375-1.75v2l-5 2 1 1 3.313-1c3.687-1 3.687-1 6.687-1-6.198 5.381-10.92 6.63-19.082 6.309-2.415-.256-4.594-.628-6.918-1.309l2.5 2.375C1013 439 1013 439 1013 441c7.766-.234 13.534-.545 20-5h2c-1.366 3.35-2.53 4.631-5.812 6.125l-2.184.996L1025 444l-2.375 1.188c-3.389 1.048-6.69 1.25-10.223 1.468-2.508.36-4.217 1.092-6.402 2.344-3.133-5.148-3.38-9.053-3.187-14.875l.04-2.375c.036-1.917.09-3.834.147-5.75l-2-1-.785 2.605c-1.252 3.497-2.793 6.496-4.653 9.707-.596 1.049-1.193 2.097-1.808 3.176C992 443 992 443 989 444l-1-3c-3.512-1.23-3.512-1.23-7-2v-2h2v-2h-2l1-5-4-1v-2l4 1-3-5h2v-2l-1.766-.754c-2.55-1.422-4.07-2.987-5.984-5.183l-1.86-2.09C970 411 970 411 970 408l11 3-2.187-2.187L971 401l12 2v-2l-2.062-.75c-3.507-1.492-6.654-3.318-9.938-5.25v-2h3l-1-2h4c.043-1.931.043-1.931-1-4-3.488-1.793-3.488-1.793-7-3v-2h-2v-2l1.938-.312L971 379l1-3 1 2h2l2-4 .75 1.875c1.456 2.476 2.628 3.076 5.25 4.125v2l-7-1v2l5 2v2h6v4l-5 2v2l2.75-.187c3.645.21 4.567.862 7.25 3.187a88 88 0 0 0 4 2l-1 4 4-4h-2l1-4h2v-2l-6 2v-2l3-2-3-1v-2l2-1-2-1v-2h2l.25-2.25c.89-3.262 2.235-4.56 4.75-6.75l-1-2 2-3-4-1c1-3 1-3 4-5 1.197-3.465 2-6.328 2-10a201 201 0 0 1 3-6c1.158-2.947 1.158-2.947 1-6 1.752-4.332 4.004-8.405 7-12" fill="#447352"/>
  <path d="M0 400c-1-2-1-2-3-5-2-1-2-1-4-1 A197 197 0 0 0 0 324 v-34l120-2z" fill="#326349" transform="translate(-5,-20)"/>
  <path d="M1051 331c1.784 3.062 2.229 5.22 2.125 8.75l-.055 2.422L1053 344h4c2.25 3 2.25 3 4 6h-3l1.094 1.645 1.406 2.168 1.406 2.144C1063 358 1063 358 1063 361l3 1v3h-3v3h2l1 3 2 1v2h-5v2h2l1 5h-2a274 274 0 0 0 1.313 3.813l.738 2.144c1.016 2.188 2.157 3.452 3.949 5.043l-1 3h-2l2 4-4-1v3q-2.159-.427-4.312-.875l-2.426-.492C1056 399 1056 399 1053 397v-2h-2c-3-3.462-3-3.462-3-6h-2l1-4 3.063 2c3.718 2.155 6.626 2.352 10.937 2l-5-5 6 1v-2l-3.062-.5c-5.131-1.45-7.952-5.28-10.938-9.5-1.437-3-1.437-3-2-5l-1.75.938c-4.837 2.284-7.949 1.833-13.25 1.062l-3 1-1-4 6 1-.062-3.437C1033 361 1033 361 1034 360l-1.715-.367-2.223-.508-2.214-.492C1026 358 1026 358 1025 356l6-1-4-4 1-3 2 2c6.11.737 9.355-.312 14.434-3.71 1.703-1.224 1.703-1.224 2.566-3.29l-2.875 1.5C1041 346 1041 346 1039 346v-4c.746-.235 1.493-.47 2.262-.71 3.209-1.512 4.477-3.069 6.55-5.915l1.833-2.477z" fill="#255242"/>
  <path d="m1065 362 1 3h-3v3h2l1 3 2 1v2h-5v2h2l1 5h-2a274 274 0 0 0 1.313 3.813l.738 2.144c1.016 2.188 2.157 3.452 3.949 5.043l-1 3h-2l2 4-4-1v3q-2.159-.427-4.312-.875l-2.426-.492C1056 399 1056 399 1053 397v-2h-2c-3-3.462-3-3.462-3-6h-2l1-4 3.063 2c3.718 2.155 6.626 2.352 10.937 2l-5-5 6 1v-2l-3.062-.5c-5.135-1.461-7.996-5.23-10.938-9.5-1.45-3.34-2-5.386-2-9h2v5c2.937 1.523 5.917 2.801 9 4v-2l5-1v-3l-2.937-.875C1056 365 1056 365 1055 363c6.625-.125 6.625-.125 10 1z" fill="#4a775c"/>
  <path d="M385 388v2c-4.353 4-4.353 4-8 4v2c5.055-1.553 9.51-3.143 14-6h2c.118 10.397.118 10.397-2.414 14.027-1.785 1.546-3.55 2.78-5.586 3.973l-3.187 1.938C379 411 379 411 376.688 410.875 375 410 375 410 374 407h-2q-.504-2.906-1-5.812l-.562-3.27C370 395 370 395 370 392q3.187-1.005 6.375-2l3.586-1.125C383 388 383 388 385 388" fill="#2f5e48"/>
  <path d="m674 358 1 12 7 2v2h-5l1 6c-2.169-.506-4-1-6-2v4h-7l1-5-3.312 2c-2.625 1.585-3.514 2-6.688 2 1.112-3.335 2.474-4.637 5-7l-5 1c2.313-2.462 4.82-4.348 7.563-6.312 3.807-2.903 5.41-4.894 6.437-9.688 2-1 2-1 4-1" fill="#214641"/>
  <path d="m173 360 3 1c1.188 3.063 1.188 3.063 2 6l1.68-1.094 2.195-1.406 2.18-1.406C186 362 186 362 188 362c-1.437 4.914-3.542 9.002-6.125 13.375l-1.129 1.941Q179.38 379.662 178 382l-2.312-1.437c-2.652-1.664-2.652-1.664-5.688-2.563v-2h-2v-2h4l-1-3h2l-1-2.75c-1-3.25-1-3.25-1-7.25z" fill="#18483e"/>
  <path d="m1044 346 2 1-1 3h-2c-1.008 2.72-1.101 3.747 0 6.5 1.113 2.783 1.128 3.774 0 6.5-2.762 2.762-5.207 2.579-9 3a88 88 0 0 1-1-5l1-1-1.715-.367-2.223-.508-2.214-.492C1026 358 1026 358 1025 356l6-1-4-4 1-3 2 2c6.244.624 9.125-.1 14-4" fill="#385c4c"/>
  <path d="m1046 385 1.504.875c4.806 2.627 8.03 3.58 13.496 3.125v-2h3l.75 2.375c1.404 2.948 2.257 3.527 5.25 4.625l-3 1 2 4-4-1v3q-2.159-.427-4.312-.875l-2.426-.492C1056 399 1056 399 1053 397v-2h-2c-3-3.462-3-3.462-3-6h-2z" fill="#467558"/>
  <path d="M925.188 452.375 927 453v3h2v2h-2v2l5 1-1 3h-2l-1 4c-6.167 1.78-13.233 2.076-19-1v-1l2.555-.621 3.32-.817 3.305-.808c2.745-.633 2.745-.633 4.82-1.754l-8-1c3.75-3.875 3.75-3.875 6-5l-1-2c3-2 3-2 5.188-1.625" fill="#3a6750"/>
  <path d="M1074 421c-1 2-1 2-4.062 3.125L1067 425v2l3.313-1.375 1.863-.773c2.09-.92 2.09-.92 4.824-2.852-1.622 3.585-3.793 6.59-6.125 9.75l-2.195 2.984L1067 437l5 2c-1.375 2.5-1.375 2.5-3 5h-2c-3.852-7.154-6.522-13.824-6-22 4.386-.702 8.558-1.108 13-1" fill="#2e5847"/>
  <path d="M1051 331c1.784 3.062 2.229 5.22 2.125 8.75l-.055 2.422L1053 344h4c2.25 3 2.25 3 4 6h-3l5 8h-3l-1-2a78 78 0 0 0-5-2l-1-8h-2l-1-3h-2l-1 2v-2l-2.875 1.5C1041 346 1041 346 1039 346v-4l2.262-.71c3.209-1.512 4.477-3.069 6.55-5.915l1.833-2.477z" fill="#315845"/>
  <path d="m976 374 1.25 1.875c1.806 2.193 3.16 3.053 5.75 4.125v2l-7-1v2l1.938.625C980 385 980 385 980.75 388.125L981 391h-2l1 3h-2v2l2 1-2 2-7-4v-2h3l-1-2h4c.043-1.931.043-1.931-1-4-3.488-1.793-3.488-1.793-7-3v-2h-2v-2l1.938-.312L971 379l1-3 1 2h2z" fill="#36644f"/>
  <path d="m894 465 2.527 1.242c9.657 4.624 17.898 6.75 28.473 7.758a88 88 0 0 1 1 5c-1 1-1 1-3.562 1.063L920 480v-2l-1.863.07-2.45.055-2.425.07C911 478 911 478 908 476l-3.812-.687c-4.408-1.003-6.4-3.196-9.157-6.657C894 467 894 467 894 465" fill="#2a574a"/>
  <path d="M1059 437h2a320 320 0 0 1 2.125 5.688l1.195 3.199c.771 3.53.346 4.973-1.32 8.113l3 1c-1 3-1 3-4 5h-4c-.185-15.745-.185-15.745 1-23" fill="#153a33"/>
  <path d="m419 416 15 1c-2 6-2 6-5 8-.364 1.66-.7 3.327-1 5l-2 1a1661 1661 0 0 1-3.5-6.375l-1.012-1.828C419 418.227 419 418.227 419 416" fill="#2d5c48"/>
  <path d="m896 493 2.563 1.375C904.605 497.02 911.5 497.289 918 498l1 4h-2v3l-8-1v-2l-2-.125c-4.327-1.262-7.718-3.805-11-6.875z" fill="#2d5d4b"/>
  <path d="m685 422 3 1-.5 1.813c-.764 3.343-.396 5.938.5 9.187-3.01.363-5.083.612-8 0-2.502-1.994-4.36-4.256-6-7v-2c3.623-1.208 4.641-.543 8 1z" fill="#225144"/>
  <path d="m460 417 1 2 3.438.938C468 421 468 421 470 424l-1.875 2.188c-1.962 2.596-3.078 4.759-4.125 7.812l-2-1-1-5-2-1c-.75-3.375-.75-3.375-1-7z" fill="#275646"/>
  <path d="m885 500 1 2c-2.41 5.538-5.72 9.184-11 12h-2v-2h-5l-1-3c.713-.23 1.426-.461 2.16-.7 6.075-2.068 10.827-4.29 15.84-8.3" fill="#3e6856"/>
  <path d="m863 411 2 1v6l2 1h-2l.75 1.75c.25 2.25.25 2.25-1.312 4.438-2.854 2.121-4.934 2.493-8.438 2.812l-1-3c1.187-1.715 2.384-3.426 3.652-5.082 1.974-2.809 3.11-5.725 4.348-8.918" fill="#416653"/>
  <path d="M660 473h2l-2 6h3l-5 6c-4.75-.875-4.75-.875-7-2-.625-2.062-.625-2.062-1-4l1.934-1.059 2.504-1.378 2.496-1.372c1.99-1.028 1.99-1.028 3.066-2.191m3 3h2l-1 3z" fill="#255548"/>
  <path d="m1051 340 2 4h4c2.25 3 2.25 3 4 6h-3l5 8h-3l-1-2a78 78 0 0 0-5-2l-1-8h-2z" fill="#597e67"/>
  <path d="m980 385 1 2h6v4l-5 2v2h6c-2.937 1.523-5.917 2.801-9 4-1.087-3.912-.878-5.478 1-9l-1-3z" fill="#557f64"/>
  <path d="M413 399c2 2 2 2 2 6-2.245 1.123-3.515 1.134-6 1.125l-2.125.008C405 406 405 406 403 405v-2h2v-2l-2-1c3.394-.776 6.516-1.282 10-1" fill="#184639"/>
  <path d="m943 414 2 1v4l4-1 1 3-5 3-2-2h-7v-5a136 136 0 0 1 7-3" fill="#406059"/>
  <path d="M714 385h4v10h-2l-.437 1.875C715 399 715 399 714 401h-2v-10h2z" fill="#678e79"/>
  <path d="m641 468 3.688.563c3.342.427 6.032.36 9.312-.563v2l4 1c-3.182 2.121-4.654 2.403-8.375 2.75l-2.836.297c-3.044-.051-5.055-.754-7.789-2.047l2-1z" fill="#114035"/>
  <path d="m923 462 1 2 2 1-2 4c-10.558.369-10.558.369-15-2v-1l2.555-.621 3.32-.817 3.305-.808c2.745-.633 2.745-.633 4.82-1.754" fill="#376750"/>
  <path d="m556 451 2 1c-.393 5.501-2.382 7.952-6 12l-1.687 2.875L549 469h-2l1-3h2l.438-2.312C551 461 551 461 552 458h-2v-3c3-2.187 3-2.187 6-4" fill="#2a5a48"/>
  <path d="M1042 377c-1.362 5.295-4.603 7.237-9 10l-2-1a109 109 0 0 1-1-7 909 909 0 0 1 4.313-1l2.425-.562C1039 377 1039 377 1042 377" fill="#3b6c50"/>
  <path d="M1056 355c1.875.125 1.875.125 4 1 1.625 2.5 1.625 2.5 3 5l2 1v2c-1.77.108-3.54.186-5.312.25l-2.989.14c-2.699-.39-2.699-.39-4.554-2.406L1051 360l1-2 5 2-2-4z" fill="#38614c"/>
  <path d="M771 359h4c1 3 1 3 .438 5.5-.776 2.74-.776 2.74 1.562 5.5l-1 2h-2v2l3 1v2c-1.875-.625-1.875-.625-4-2-1.944-4.165-2.012-6.617-1-11-.377-2.725-.377-2.725-1-5" fill="#839b90"/>
  <path d="m285 371 9 5 1-4h10l2 4-10-1-2 3h-2l-1 3a640 640 0 0 1-3.5-3.875l-1.969-2.18C285 373 285 373 285 371" fill="#21443f"/>
  <path d="M1061 431c4.131 3.726 5.844 8.5 6.188 14l-.188 2h-3q-1.048-2.869-2.062-5.75l-1.16-3.234c-.758-2.939-.85-4.24.222-7.016" fill="#092825"/>
  <path d="M1071 429c0 3.908-1.506 5.116-4 8l5 2c-1.375 2.5-1.375 2.5-3 5h-2c-1.962-3.668-3.393-6.872-4-11l2.875-.875c3.177-.893 3.177-.893 5.125-3.125" fill="#184438"/>
  <path d="m709 452 4 2v2h4v2h-2v2h2v3l-4 1c-3.538-3.692-3.591-7.094-4-12" fill="#1f4f3f"/>
  <path d="M1076 422c0 3.848-1.038 4.498-3.687 7.188l-2.075 2.167c-2.65 1.947-4.025 1.988-7.238 1.645l-1-5 1.793-.297c5.077-.96 8.382-2.002 12.207-5.703" fill="#3e6c55"/>
  <path d="m675 385 12 8h-7l1 4-3-1a93 93 0 0 1-1-4l-1.625-2.062L674 388z" fill="#23473e"/>
  <path d="M914 474h11l1 5c-1 1-1 1-3.375 1.25-2.625-.25-2.625-.25-4.437-1.625C917 477 917 477 917 475z" fill="#346650"/>
  <path d="M770 374c2.686 2.507 4.528 4.635 6 8l1.125 2.063C778 386 778 386 778 389h-2c-1.625-2.5-1.625-2.5-3-5l-2 1c-.693-3.724-1.111-7.21-1-11" fill="#587365"/>
  <use href="#pine1" transform="translate(355 240) scale(0.7)" fill="#0e4931"/>
  <use href="#pine1" transform="translate(435 280) scale(0.7)" fill="#0e4931"/>
  <use href="#pine1" transform="translate(1700 360)" fill="#002e13"/>
  <use href="#pine1" transform="translate(1040 430) scale(0.6)" fill="#0e4931"/>
  <use href="#pine1" transform="translate(1300 340)" fill="#0e4931"/>
  <use href="#pine1" transform="translate(1700 100) scale(0.6)" fill="#0e4931"/>
</svg>
