<svg version="1.0" xmlns="http://www.w3.org/2000/svg"
 width="10320.000000pt" height="4320.000000pt" viewBox="0 0 10320.000000 4320.000000"
 preserveAspectRatio="xMidYMid meet">
<g transform="translate(0.000000,4320.000000) scale(0.100000,-0.100000)"
fill="#134f5c" stroke="none">
<path d="M11884 42179 c3 -118 9 -284 12 -369 l6 -155 -31 -57 c-43 -79 -41
-118 5 -156 31 -26 34 -33 25 -50 -9 -18 -8 -23 9 -32 22 -12 26 -56 11 -124
-9 -36 -2 -111 18 -191 4 -16 4 -48 0 -70 -4 -27 -2 -50 9 -72 15 -31 15 -38
-3 -89 -10 -30 -22 -57 -26 -60 -4 -2 -34 17 -66 43 -32 27 -75 59 -96 73 -20
14 -40 33 -43 43 -3 9 -14 22 -25 27 -10 6 -19 21 -19 33 0 32 -18 47 -55 47
-63 0 -120 -45 -94 -76 16 -20 2 -34 -36 -34 -46 0 -95 -29 -95 -57 0 -26 -16
-29 -44 -8 -27 20 -31 19 -44 -9 -8 -17 -26 -30 -59 -40 -26 -8 -66 -23 -88
-34 -43 -22 -57 -25 -94 -23 -23 1 -24 2 -17 64 4 34 10 107 12 162 2 55 9
113 15 128 9 21 9 31 0 40 -14 14 -14 121 -1 201 11 66 10 69 -13 61 -30 -12
-57 -130 -57 -250 0 -34 -7 -73 -15 -89 -9 -16 -20 -68 -26 -115 -6 -47 -13
-105 -16 -128 -7 -58 -20 -66 -95 -59 -35 3 -180 10 -323 15 -212 8 -263 8
-280 -3 -13 -8 -27 -39 -38 -82 -10 -38 -23 -79 -28 -92 -23 -58 7 -118 125
-252 65 -72 67 -77 63 -120 -2 -25 -12 -74 -21 -109 -17 -62 -17 -65 3 -118
22 -58 27 -136 12 -187 -5 -17 -13 -44 -18 -61 -5 -20 -34 -49 -88 -92 -44
-34 -86 -62 -92 -63 -7 0 -41 -27 -75 -60 l-63 -61 -60 6 c-32 4 -67 11 -76
16 -10 5 -42 9 -71 9 -29 0 -75 7 -102 15 -27 8 -68 15 -91 15 -24 0 -59 7
-78 15 -20 8 -54 15 -76 15 -22 0 -52 6 -68 14 -45 23 -77 34 -93 34 -37 1
-97 16 -112 30 -10 8 -18 26 -18 39 0 20 3 22 19 13 22 -11 39 4 18 17 -30 19
-47 63 -47 122 0 66 -14 87 -31 44 -19 -50 -60 -128 -72 -135 -7 -4 -12 -18
-12 -30 0 -27 -28 -36 -51 -17 -10 8 -14 24 -11 42 5 34 -15 46 -40 26 -13
-11 -17 -11 -20 -2 -3 7 -12 22 -22 34 l-17 21 -36 -21 c-19 -12 -43 -19 -52
-15 -22 8 -32 -21 -16 -50 7 -13 9 -32 6 -43 -5 -15 0 -23 20 -31 27 -13 27
-21 14 -182 -13 -163 -20 -273 -21 -350 -1 -55 -8 -110 -16 -130 -8 -19 -11
-45 -8 -58 7 -27 -21 -71 -58 -91 -14 -7 -30 -24 -36 -37 -7 -16 -19 -24 -35
-24 -16 0 -27 -7 -31 -20 -7 -23 -51 -60 -71 -60 -8 0 -14 7 -14 17 0 9 -12
32 -27 52 -63 82 -74 134 -21 97 12 -9 26 -16 30 -16 16 0 7 34 -18 67 -23 31
-25 38 -14 59 11 20 11 27 -2 41 -9 10 -19 35 -22 57 -6 31 -5 38 7 33 7 -3
20 -1 27 3 11 7 11 13 -2 32 -9 14 -19 49 -23 80 -6 48 -4 57 11 66 18 10 18
11 1 29 -9 11 -17 26 -17 34 0 8 -6 21 -12 28 -11 10 -10 15 5 25 9 7 17 17
17 21 0 4 -8 14 -17 21 -14 10 -18 28 -19 91 0 43 -4 77 -8 76 -9 -2 -22 -23
-56 -89 -11 -23 -34 -54 -50 -69 -17 -16 -30 -39 -30 -52 0 -13 -12 -35 -27
-49 -25 -23 -26 -27 -10 -35 27 -16 20 -45 -20 -78 -30 -24 -34 -33 -24 -44 9
-12 5 -21 -21 -47 -28 -28 -30 -33 -15 -42 15 -8 15 -11 1 -33 -8 -12 -25 -26
-38 -29 -12 -3 -28 -17 -34 -31 -6 -14 -18 -25 -27 -25 -29 0 -15 -19 17 -22
40 -4 47 -24 14 -39 -38 -18 -33 -39 9 -39 31 0 34 -2 26 -22 -5 -14 -24 -29
-49 -38 -56 -21 -61 -28 -32 -51 l25 -19 -22 -6 c-17 -5 -23 -14 -23 -36 0
-22 -11 -41 -41 -70 -42 -41 -48 -70 -14 -76 41 -8 35 -20 -19 -46 -30 -14
-58 -31 -61 -36 -7 -11 -74 -14 -99 -4 -13 5 -10 12 15 36 16 17 28 33 25 35
-3 3 -27 0 -53 -7 -34 -9 -68 -10 -109 -5 -36 6 -49 10 -34 12 43 7 90 24 90
34 0 5 -24 9 -52 9 -80 0 -172 60 -141 91 9 9 20 6 46 -10 38 -23 122 -30 115
-9 -3 7 -13 15 -24 18 -28 8 -84 39 -84 48 0 4 12 15 25 25 20 14 31 16 67 7
24 -5 54 -10 68 -9 20 0 16 4 -23 24 -27 14 -55 25 -63 25 -8 0 -14 4 -14 10
0 5 -11 12 -25 16 -24 6 -52 40 -42 51 3 3 32 -5 64 -16 69 -24 84 -26 58 -8
-23 18 -11 37 23 37 15 0 34 4 42 10 16 10 -3 19 -81 40 -64 17 -118 43 -119
58 0 9 33 12 131 12 130 0 130 0 127 23 -2 18 -11 23 -48 29 -25 3 -68 7 -97
7 -28 1 -55 6 -58 11 -8 12 36 30 74 30 31 0 57 23 46 40 -3 5 -23 10 -43 10
-20 0 -46 7 -56 15 -11 8 -30 15 -42 15 -21 0 -74 39 -74 54 0 11 35 6 55 -8
27 -19 109 -27 173 -18 74 10 60 27 -23 27 -69 0 -100 9 -90 25 3 4 20 11 38
14 30 6 34 9 29 32 -3 16 1 30 9 36 10 7 7 8 -11 4 -58 -15 -126 -17 -150 -4
-15 8 -31 32 -42 63 -27 74 -26 76 38 74 43 -2 59 2 66 14 5 10 21 17 38 17
16 0 32 5 36 11 5 9 -11 11 -62 7 -38 -3 -63 -3 -56 -1 21 8 13 27 -24 57 -42
33 -74 82 -74 114 0 27 23 29 68 7 34 -18 152 -17 153 0 0 6 -24 15 -53 21
-44 8 -49 12 -30 18 43 14 18 36 -42 36 -45 0 -106 52 -106 90 0 35 13 45 41
30 16 -9 28 -9 50 1 28 11 29 13 12 28 -10 9 -36 26 -58 37 -41 22 -62 64 -31
64 20 0 21 34 2 50 -8 6 -16 21 -18 32 -5 36 -26 31 -52 -11 -14 -22 -35 -45
-46 -51 -29 -15 -25 -33 6 -27 52 10 35 -41 -40 -118 l-30 -30 28 -3 c16 -2
33 1 39 7 6 6 17 11 24 11 18 0 17 -55 -2 -70 -8 -7 -15 -16 -15 -21 0 -9 -28
-44 -62 -81 -10 -10 -18 -24 -18 -31 0 -8 -9 -22 -20 -32 -11 -10 -20 -26 -20
-36 0 -9 -6 -19 -12 -22 -8 -2 -9 -8 -4 -13 5 -5 11 -4 13 4 3 6 13 12 22 12
10 0 40 20 67 45 26 25 53 45 60 45 17 0 28 -87 14 -119 -13 -32 -79 -77 -134
-92 -44 -12 -37 -22 25 -33 28 -5 42 -2 62 14 14 11 35 20 46 20 19 0 21 -6
21 -62 -1 -50 -5 -68 -23 -88 -33 -37 -85 -59 -147 -62 -61 -3 -71 -21 -15
-26 54 -5 37 -25 -31 -37 -32 -6 -52 -13 -44 -16 28 -11 168 -11 175 0 12 20
73 13 85 -9 19 -36 2 -110 -33 -139 -50 -43 -69 -50 -134 -51 -58 0 -78 -10
-53 -25 20 -12 10 -35 -16 -35 -21 0 -25 -4 -22 -22 3 -21 8 -23 53 -22 28 1
66 9 85 18 69 34 90 47 90 57 0 5 7 9 15 9 42 0 -18 -85 -81 -115 -20 -9 -39
-26 -41 -36 -7 -24 -63 -59 -96 -59 -38 0 -40 -14 -7 -38 34 -25 57 -27 84 -7
11 8 35 15 53 15 25 0 41 8 62 30 34 38 45 29 23 -17 -16 -34 -104 -97 -147
-105 -11 -2 -18 -8 -15 -13 6 -12 57 -12 82 -1 13 6 15 3 11 -12 -7 -28 11
-35 44 -15 29 16 63 13 63 -6 0 -37 -111 -100 -180 -101 -38 -1 -70 -11 -64
-21 3 -5 13 -9 22 -9 9 0 24 -4 32 -10 12 -8 12 -11 -3 -28 -27 -30 -20 -41
29 -44 44 -3 78 -27 62 -43 -3 -3 -42 -10 -86 -14 l-80 -8 -64 -68 c-34 -37
-82 -88 -105 -113 -38 -42 -44 -45 -67 -34 -19 8 -25 20 -28 49 -3 42 -5 42
-138 62 -47 7 -63 16 -112 61 -64 59 -68 72 -38 139 16 34 20 65 20 145 0 102
0 102 -30 124 -16 12 -33 22 -38 22 -5 0 -19 12 -33 26 -13 14 -42 35 -64 46
-22 11 -66 41 -99 66 -52 40 -67 47 -143 59 l-85 13 -49 -30 c-27 -16 -53 -30
-58 -30 -5 0 -14 -6 -20 -14 -10 -11 -65 -14 -153 -7 -5 1 -8 7 -8 14 0 16
-41 37 -71 37 -22 0 -87 38 -108 64 -11 13 -11 17 2 22 9 3 24 1 35 -5 31 -16
208 -26 216 -12 15 24 -15 39 -93 46 -99 9 -113 17 -80 44 13 11 36 20 51 21
14 0 34 3 43 6 25 10 -32 41 -90 50 -39 5 -58 16 -98 55 -54 52 -57 85 -4 45
62 -46 126 -69 184 -64 31 3 61 12 70 21 15 15 14 16 -8 21 -13 3 -39 5 -58 3
-31 -2 -34 0 -37 31 -4 30 -2 32 29 32 31 0 114 46 103 57 -2 3 -28 0 -56 -6
-136 -29 -253 4 -273 77 -3 15 1 27 15 36 13 9 16 16 8 21 -6 4 -24 -4 -38
-16 -15 -13 -29 -25 -32 -27 -3 -2 -5 -24 -6 -48 -1 -31 -7 -49 -20 -59 -15
-10 -19 -26 -18 -64 0 -46 -2 -51 -21 -51 -20 0 -55 -28 -55 -43 0 -18 59 -5
72 15 23 35 38 13 38 -55 0 -61 -1 -62 -42 -92 -56 -40 -70 -45 -135 -46 l-55
-2 4 -33 c3 -27 0 -34 -17 -36 -11 -2 -20 -10 -20 -18 0 -11 11 -15 44 -13 50
2 103 22 162 59 26 16 45 22 51 16 13 -13 -71 -97 -116 -116 -24 -10 -34 -20
-30 -29 5 -15 -54 -49 -109 -63 -27 -6 -27 -7 -11 -25 21 -23 50 -24 99 -4 20
9 45 13 56 10 14 -5 28 2 48 24 35 37 41 38 41 6 0 -28 -64 -95 -90 -95 -10 0
-23 -7 -30 -15 -7 -8 -21 -15 -31 -15 -24 0 -34 -19 -14 -26 9 -4 32 1 52 10
38 18 67 11 39 -10 -28 -20 -9 -38 20 -20 13 9 35 16 49 16 20 0 25 -5 25 -23
0 -13 -8 -31 -18 -40 -26 -24 -128 -57 -176 -57 -55 0 -81 -16 -40 -25 47 -11
54 -14 54 -24 0 -5 -9 -13 -20 -16 -57 -18 20 -50 118 -49 96 0 95 -20 -3 -53
-148 -50 -183 -70 -252 -143 -43 -44 -63 -73 -63 -90 0 -38 -9 -46 -95 -88
-85 -42 -112 -41 -101 3 4 15 -3 30 -24 50 -23 22 -30 38 -30 65 0 20 4 40 10
46 6 6 2 22 -12 44 -38 60 -58 111 -58 146 0 38 -29 74 -59 74 -10 0 -33 6
-51 14 -24 10 -64 12 -144 9 -121 -4 -144 -9 -355 -63 -45 -12 -61 -3 -145 82
-40 40 -91 79 -122 94 -28 13 -66 39 -83 56 -30 31 -31 36 -29 101 3 76 -10
97 -62 97 -26 0 -164 46 -227 75 -17 8 -39 15 -50 15 -25 1 -48 21 -56 49 -5
21 -3 23 25 17 35 -7 80 2 72 15 -3 5 -18 9 -35 9 -18 0 -29 5 -29 14 0 8 -10
16 -22 18 -12 2 -23 9 -26 16 -5 16 23 15 37 -2 6 -7 30 -16 54 -20 23 -3 66
-10 96 -14 53 -9 132 0 101 10 -89 30 -118 38 -133 38 -47 0 -196 103 -165
115 8 3 31 -1 51 -10 45 -19 110 -20 105 -2 -3 6 -19 14 -37 17 -52 8 -36 25
28 30 33 3 62 8 66 12 12 11 -5 28 -28 29 -21 0 -21 1 -2 9 11 4 40 13 65 18
40 9 35 10 -56 11 -156 2 -194 9 -205 40 -7 17 -7 27 0 29 18 6 12 22 -8 22
-27 0 -51 26 -51 55 0 33 18 41 43 18 36 -33 43 -34 103 -18 32 8 99 15 149
15 86 0 139 12 105 24 -8 3 -49 6 -91 8 -63 3 -83 8 -117 31 -23 15 -56 27
-73 27 -49 0 -141 82 -124 110 4 6 18 4 36 -5 26 -14 29 -14 29 0 0 8 -4 15
-10 15 -16 0 -12 18 10 40 22 22 79 26 155 11 44 -8 98 5 92 23 -2 6 -19 11
-38 12 -80 1 -100 5 -116 24 -10 11 -23 20 -30 20 -8 0 -18 12 -23 26 -9 24
-14 26 -47 21 -58 -10 -73 5 -73 70 l0 55 27 -7 c35 -8 52 -8 133 0 97 9 117
15 99 26 -7 5 -28 9 -45 9 -17 0 -37 6 -43 14 -6 7 -45 23 -87 36 -80 24 -99
43 -92 99 2 21 10 27 42 32 21 3 41 11 45 17 3 6 27 10 53 9 71 -3 80 17 16
33 -50 13 -101 33 -124 50 -19 14 -44 50 -44 64 0 11 48 6 52 -5 2 -7 9 -10
16 -8 6 2 -5 23 -28 48 -63 70 -49 87 36 44 32 -16 70 -12 59 7 -3 5 -17 10
-31 10 -33 0 -31 26 3 35 21 5 24 8 12 16 -7 5 -23 9 -35 9 -24 0 -104 65
-104 85 0 7 10 19 22 27 l22 15 -31 64 c-18 35 -33 77 -35 93 -2 16 -9 31 -15
34 -10 3 -13 -16 -13 -70 0 -76 -6 -91 -56 -145 -31 -33 -17 -54 19 -30 37 24
40 9 7 -33 -17 -21 -30 -42 -30 -47 0 -10 -30 -37 -59 -53 -30 -15 -28 -44 2
-34 12 3 26 13 30 20 4 8 14 14 22 14 7 0 16 6 18 13 4 9 6 9 6 -1 1 -7 -4
-22 -10 -34 -13 -25 -3 -37 14 -16 6 9 22 19 33 22 17 5 23 1 28 -16 3 -13 6
-28 6 -35 0 -23 -60 -80 -89 -86 -24 -5 -31 -13 -36 -40 -6 -33 -49 -77 -75
-77 -5 0 -10 -7 -10 -15 0 -8 6 -15 14 -15 7 0 19 7 26 15 13 16 60 21 60 6 0
-4 -9 -20 -20 -34 -24 -30 -25 -37 -6 -37 7 0 37 25 65 55 29 30 56 55 61 55
5 0 9 -29 9 -64 -1 -58 -3 -66 -32 -93 -62 -57 -147 -113 -171 -113 -14 0 -28
-5 -31 -10 -11 -17 26 -24 59 -11 57 24 78 25 92 6 12 -16 14 -16 43 1 29 17
32 17 47 2 15 -15 15 -21 4 -50 -7 -18 -22 -43 -34 -56 -20 -22 -113 -71 -138
-73 -7 0 -3 -5 9 -11 30 -15 29 -34 -2 -42 -35 -9 -31 -26 5 -26 17 0 39 -5
49 -12 16 -9 24 -6 52 20 49 46 69 43 69 -11 0 -55 -30 -87 -81 -87 -53 0 -67
-15 -28 -29 19 -6 29 -15 23 -19 -14 -13 -96 -41 -129 -44 -45 -5 -42 -30 7
-54 78 -39 89 -38 175 24 l32 22 7 -46 c6 -42 4 -48 -27 -80 -40 -41 -128 -94
-157 -94 -11 0 -22 8 -25 19 -3 12 -35 34 -89 59 -47 22 -88 47 -91 56 -4 9
-16 16 -27 16 -17 0 -20 4 -15 21 6 18 4 20 -15 14 -19 -6 -21 -4 -15 15 11
33 -26 22 -43 -14 -12 -25 -18 -27 -47 -22 -38 7 -140 59 -170 87 -21 19 -41
55 -71 129 -10 25 -24 52 -32 62 -18 22 3 35 26 15 9 -8 29 -17 44 -21 50 -12
36 31 -31 97 -33 32 -66 71 -73 87 -7 17 -16 30 -20 30 -5 0 -8 7 -8 16 0 12
9 9 38 -13 78 -61 122 -79 122 -51 0 6 -36 47 -80 89 -80 78 -94 102 -64 113
13 5 9 14 -20 49 -36 45 -45 72 -25 79 7 2 -7 41 -34 98 -50 102 -70 165 -46
143 16 -16 49 -17 49 -2 0 6 -16 30 -36 55 -28 34 -35 50 -31 71 4 18 -2 44
-16 71 -21 43 -21 44 -3 58 17 12 18 15 4 31 -13 16 -38 88 -52 154 -7 30 -35
46 -48 27 -4 -7 -8 -25 -8 -40 0 -27 -12 -59 -54 -146 -37 -75 -41 -82 -48
-82 -5 0 -8 -8 -8 -17 1 -17 1 -17 14 0 25 33 36 19 35 -45 -1 -63 -13 -97
-52 -150 -11 -15 -18 -30 -15 -34 10 -10 47 6 68 28 16 17 20 18 25 6 3 -8 -1
-28 -10 -44 -8 -16 -15 -38 -15 -50 0 -11 -7 -29 -15 -40 -8 -10 -15 -27 -15
-36 0 -10 -13 -46 -29 -80 -16 -35 -31 -72 -33 -83 -4 -26 -48 -33 -60 -11 -8
15 -12 14 -35 -4 -14 -11 -29 -20 -34 -20 -13 0 -39 31 -34 41 4 5 -4 8 -16 6
-32 -3 -34 19 -5 46 l26 24 -35 39 c-45 50 -52 72 -28 89 17 13 17 15 -6 36
-30 28 -81 109 -81 128 0 28 -33 102 -44 98 -6 -2 -18 -23 -27 -48 -31 -85
-49 -119 -79 -140 -31 -24 -31 -39 1 -39 26 0 24 -6 -11 -47 -25 -28 -29 -38
-19 -49 9 -11 8 -19 -5 -39 -20 -31 -21 -65 -1 -65 8 0 15 -9 15 -20 0 -11 -4
-20 -9 -20 -5 0 -14 -12 -20 -27 -14 -34 -58 -110 -83 -142 -23 -30 -7 -45 29
-28 31 14 34 8 22 -39 -7 -26 -29 -57 -65 -92 -39 -37 -50 -54 -40 -58 8 -3
23 -1 35 5 35 19 43 13 25 -18 -17 -28 -36 -42 -78 -55 -12 -4 -16 -12 -12
-23 4 -9 -1 -24 -11 -35 -21 -24 -8 -39 44 -47 53 -9 52 -30 -1 -83 -35 -35
-54 -46 -87 -51 -33 -4 -46 -2 -55 11 -11 15 -14 14 -23 -10 -6 -16 -14 -28
-19 -28 -4 0 -34 -25 -66 -55 -78 -74 -155 -122 -202 -127 l-39 -3 -3 45 c-2
41 -12 70 -49 142 -7 14 -13 35 -13 46 0 11 -7 25 -15 32 -8 7 -15 18 -15 25
0 7 -46 62 -101 121 -104 110 -123 140 -132 209 -28 195 -39 293 -49 435 -16
233 -21 577 -9 625 6 22 12 72 13 110 3 70 3 70 -24 73 l-27 3 -3 122 c-3 117
-4 122 -25 125 -25 4 -29 14 -38 99 -6 55 -10 65 -33 75 -18 9 -31 28 -41 61
-23 74 -36 53 -38 -64 -4 -206 -3 -235 12 -319 38 -219 58 -567 35 -611 -6
-10 -13 -72 -17 -137 -3 -72 -11 -123 -18 -132 -7 -8 -15 -42 -18 -75 -7 -81
-21 -142 -40 -163 -61 -70 -61 -178 0 -215 8 -5 13 -27 13 -56 0 -34 5 -51 15
-55 11 -4 15 -20 15 -55 0 -65 -15 -103 -38 -99 -23 4 -29 70 -8 100 17 23 22
58 9 58 -17 -1 -73 -61 -73 -77 0 -10 9 -43 21 -73 16 -42 19 -67 14 -104 -7
-57 -20 -86 -39 -86 -7 0 -35 -16 -62 -35 -27 -19 -57 -35 -68 -35 -17 0 -18
5 -12 46 3 26 2 52 -3 58 -5 6 -11 29 -13 50 -2 27 -10 43 -26 54 l-22 14 0
-976 0 -976 6743 2 6742 3 3 1889 c1 1212 -1 1893 -8 1900 -13 13 -80 36 -106
36 -48 0 -257 -142 -270 -183 -4 -12 -16 -34 -28 -50 -17 -24 -26 -27 -61 -25
l-40 3 3 43 4 42 -41 0 c-46 0 -54 16 -16 30 46 18 20 50 -48 59 -29 4 -43 11
-45 24 -3 15 2 17 37 11 33 -5 41 -4 41 9 0 8 -8 18 -17 21 -21 8 -7 23 26 28
36 5 37 24 2 31 -38 8 -56 39 -43 75 5 15 5 39 1 55 -5 18 -2 38 8 59 16 30
15 32 -13 52 -37 28 -65 44 -86 52 -19 7 -25 34 -8 34 6 0 19 -9 30 -20 23
-23 58 -26 66 -7 2 7 -2 27 -11 43 -8 16 -15 45 -15 65 0 20 -7 53 -16 74 -17
42 -15 47 20 50 44 5 49 14 26 51 -11 20 -20 41 -20 48 0 7 -11 23 -25 36 -30
28 -31 38 -7 56 16 12 16 16 -5 81 -13 37 -24 85 -25 106 -2 20 -7 38 -12 38
-10 1 -19 -14 -71 -125 -16 -32 -35 -64 -42 -72 -8 -7 -16 -24 -18 -36 -3 -13
-19 -35 -36 -50 -26 -22 -30 -30 -20 -42 12 -14 2 -26 -55 -63 -17 -11 -18
-13 -3 -23 15 -8 15 -15 4 -46 -7 -20 -18 -40 -26 -45 -12 -8 -11 -12 4 -23
13 -10 15 -21 11 -46 -8 -37 11 -57 35 -37 12 10 12 9 0 -13 -18 -32 -42 -50
-102 -76 -27 -11 -48 -25 -48 -30 0 -16 29 -16 61 1 17 9 35 13 41 10 11 -8
-30 -55 -48 -55 -18 0 -27 -21 -13 -30 7 -4 30 -5 51 -3 24 4 39 2 39 -5 0
-16 -63 -49 -109 -57 -22 -4 -41 -10 -41 -15 0 -5 16 -23 35 -41 21 -20 35
-43 35 -57 0 -28 -36 -61 -67 -62 -14 0 -23 -6 -23 -15 0 -11 12 -15 45 -15
50 0 56 -10 23 -33 -23 -15 -23 -15 -3 -30 20 -15 20 -15 -5 -21 -14 -3 -43
-7 -65 -8 -30 -2 -42 -9 -51 -27 -7 -13 -18 -28 -26 -33 -16 -10 8 -32 60 -54
18 -8 30 -19 27 -24 -3 -4 -34 -12 -70 -15 -36 -4 -65 -10 -65 -14 0 -3 14
-14 31 -24 26 -14 29 -20 19 -32 -7 -8 -23 -15 -35 -15 -40 0 -52 -9 -47 -36
3 -18 0 -24 -12 -24 -14 0 -16 -6 -10 -35 6 -32 2 -39 -32 -73 -21 -20 -46
-41 -55 -47 -10 -5 -31 -20 -48 -33 -23 -17 -32 -20 -35 -10 -18 60 -29 182
-32 339 -2 102 -6 193 -10 202 -3 10 -3 28 0 42 4 14 2 34 -4 45 -6 11 -10 48
-8 82 l3 62 44 -43 c41 -40 43 -45 37 -82 -7 -46 3 -169 14 -169 4 0 5 11 2
25 -3 19 0 25 13 25 10 0 24 -8 31 -17 7 -10 16 -14 20 -10 4 4 -7 21 -24 37
-26 23 -32 37 -32 69 0 46 22 57 35 19 7 -22 7 -22 12 -3 3 10 0 21 -6 23 -6
2 -11 14 -11 26 0 13 -17 39 -41 61 -51 49 -77 100 -91 173 -16 86 -16 126 2
129 27 5 42 -14 47 -61 3 -25 10 -46 15 -46 5 0 7 9 3 19 -4 14 0 23 15 31 11
6 20 15 20 20 0 6 -25 37 -55 70 -30 32 -57 69 -59 82 -10 43 -17 123 -24 268
-6 107 -12 153 -25 177 -9 18 -17 41 -17 52 0 11 -5 23 -11 27 -9 5 -10 -48
-5 -207z m40 -688 l-6 -38 -24 22 c-29 27 -30 35 -2 70 l22 28 8 -22 c4 -13 5
-40 2 -60z m-2906 -1861 c24 -20 22 -40 -3 -40 -7 0 -15 -7 -19 -15 -3 -8 -17
-15 -32 -15 -23 0 -25 3 -20 27 5 16 3 29 -5 33 -6 4 -8 13 -5 19 11 17 59 12
84 -9z m292 -60 c25 -6 65 -18 90 -26 25 -8 60 -14 78 -14 18 0 49 -7 69 -15
19 -8 61 -15 92 -15 31 0 62 -5 68 -11 6 -6 46 -15 89 -19 92 -10 179 -26 195
-35 7 -5 4 -14 -7 -26 -11 -12 -21 -46 -26 -86 -4 -36 -14 -73 -23 -82 -8 -10
-18 -35 -23 -56 -15 -74 -52 -46 -52 39 0 20 -50 86 -66 86 -41 0 -148 -28
-181 -47 -48 -28 -63 -62 -51 -115 10 -45 -3 -82 -33 -99 -13 -6 -40 -28 -62
-48 -21 -20 -46 -40 -55 -45 -9 -5 -31 -25 -48 -43 -17 -18 -38 -33 -47 -33
-23 0 -37 30 -24 50 7 13 6 26 -7 50 -15 31 -15 35 0 51 13 15 14 23 4 54 -6
20 -23 43 -36 51 -18 12 -21 20 -14 34 7 13 3 23 -15 40 -28 26 -33 68 -10 76
8 4 15 12 15 20 0 8 -7 14 -15 14 -13 0 -16 5 -15 25 1 3 -7 19 -16 35 -17 27
-17 30 -1 48 21 23 22 58 2 66 -8 3 -15 12 -15 21 0 9 7 18 15 21 8 4 15 17
15 31 0 23 3 25 33 20 17 -3 52 -11 77 -17z m-355 -109 c3 -5 1 -13 -5 -16
-15 -9 -43 3 -35 15 8 13 32 13 40 1z m-5605 -304 c0 -24 -9 -42 -31 -65 -36
-37 -45 -39 -71 -15 -18 16 -17 18 29 63 59 57 73 61 73 17z m-120 -2 c0 -8
-7 -15 -15 -15 -8 0 -15 7 -15 15 0 8 7 15 15 15 8 0 15 -7 15 -15z m4347
-131 c-9 -9 -28 6 -21 18 4 6 10 6 17 -1 6 -6 8 -13 4 -17z m-1820 -180 c25
-7 38 -33 24 -47 -14 -14 -58 10 -64 34 -5 20 3 23 40 13z m42 -148 c28 -30
19 -50 -18 -41 -31 8 -65 41 -56 55 11 18 51 10 74 -14z m-72 -62 c61 -28 69
-57 19 -62 -32 -4 -86 39 -86 70 0 23 3 23 67 -8z m1763 -255 c0 -27 -41 -45
-69 -30 -26 14 -20 27 22 45 37 15 47 12 47 -15z m-145 -89 c3 -6 -1 -13 -10
-16 -19 -8 -30 0 -20 15 8 14 22 14 30 1z m-35 -312 c0 -29 -38 -68 -67 -68
-32 0 -29 19 10 56 38 38 57 42 57 12z"/>
<path d="M11868 41314 c-9 -18 -14 -34 -11 -34 17 0 43 24 43 40 0 33 -16 30
-32 -6z"/>
<path d="M5626 40111 c-12 -22 -13 -37 -5 -65 10 -36 16 -40 41 -31 12 5 13
17 5 65 -5 33 -14 60 -18 60 -5 0 -15 -13 -23 -29z"/>
<path d="M5634 39955 c-9 -21 3 -45 21 -45 21 0 30 27 15 45 -16 19 -29 19
-36 0z"/>
<path d="M5596 39809 c-19 -38 -19 -39 -6 -39 6 0 10 7 10 16 0 12 6 15 26 10
22 -6 25 -4 22 16 -5 35 -34 34 -52 -3z"/>
<path d="M5562 39714 c-66 -61 -88 -94 -61 -94 6 0 27 16 46 35 19 19 39 35
43 35 13 0 20 -28 20 -76 0 -42 11 -56 26 -33 4 7 23 -8 50 -37 39 -44 46 -48
81 -45 45 3 65 18 43 31 -8 5 -27 10 -42 10 -51 0 -107 87 -108 165 0 37 -10
75 -19 75 -4 0 -39 -30 -79 -66z"/>
<path d="M3623 39543 c9 -2 25 -2 35 0 9 3 1 5 -18 5 -19 0 -27 -2 -17 -5z"/>
<path d="M5507 39476 c-3 -8 -16 -16 -29 -19 l-23 -4 23 -2 c27 -1 62 15 62
29 0 15 -27 12 -33 -4z"/>
<path d="M5730 39465 c0 -11 50 -24 66 -18 13 5 13 7 2 14 -14 9 -68 12 -68 4z"/>
<path d="M5385 39250 c-3 -5 3 -10 15 -10 12 0 18 5 15 10 -3 6 -10 10 -15 10
-5 0 -12 -4 -15 -10z"/>
<path d="M5385 39195 l-50 -12 48 -8 c33 -5 52 -4 60 4 21 21 -7 28 -58 16z"/>
<path d="M7760 38610 c0 -13 11 -13 30 0 12 8 11 10 -7 10 -13 0 -23 -4 -23
-10z"/>
</g>
</svg>
