<svg xmlns="http://www.w3.org/2000/svg" width="400" height="400" viewBox="0 0 400 400">
  <path d="M110.6 32.017c-17.38.147-42.175.293-55.1.325L32 32.4v128.8h116.992l-7.79-7.798-7.791-7.798-42.805-.102L47.8 145.4V48.2l31.8-.242c17.49-.133 42.019-.268 54.508-.3l22.709-.058-.709-7.9.492-7.9-7.2-.025c-3.96-.014-21.42.095-38.8.242" fill="#043433"/>
  <path d="M205.875 81.058c-.151.151-.273 25.76-.27 56.909l.005 56.633 7.522 7.5c4.136 4.125 7.645 7.5 7.796 7.5s.229-28.935.173-64.3L221 81l-7.425-.109c-4.083-.059-7.548.016-7.7.167" fill="#043433"/>
  <path d="M122.407 89.1l-22.192.107 7.788 7.796 7.789 7.797h14.461c12.818 0 14.489.072 14.704.633.134.348.243 6.963.243 14.7V134.2l7.8 7.79 7.8 7.791V89.324l-5.7-.26c-3.135-.144-6.78-.218-8.1-.166s-12.387.143-24.593.202" fill="#043433"/>
  <path d="M262.267 124.267c-.147.146-.267 28.705-.267 63.463v63.197l7.57 7.536c4.163 4.146 7.673 7.537 7.8 7.537s.23-31.95.23-71v-71h-7.533c-4.144 0-7.654.12-7.8.267" fill="#043433"/>
  <path d="M318.4 237.901v69.501l26.701 26.7c14.686 14.684 26.915 26.698 27.176 26.698.354 0 .484-2.72.51-10.675l.035-10.676-19.211-19.238-19.211-19.238V168.4h-16z" fill="#043433"/>
  <path d="M54.2 183.065a9425 9425 0 0 1 25.809 25.099 15929 15929 0 0 0 20.809 20.227c12.684 12.305 16.203 15.731 35.391 34.46a5001 5001 0 0 0 15 14.574 6923 6923 0 0 1 28.6 27.822c10.486 10.251 20.813 20.283 24.8 24.093l3.2 3.057 112.383.003-7.792-7.8-7.792-7.8h-90.344l-5.432-5.325a5833 5833 0 0 0-19.967-19.478c-.989-.923-5.405-5.215-9.813-9.538a6114 6114 0 0 0-20.8-20.25 11350 11350 0 0 1-19.586-19.021c-21.963-21.416-30.956-30.166-43.583-42.41L71.8 178.018l-22.8.007z" fill="#043433"/>
</svg>
