<svg width="800" height="600" xmlns="http://www.w3.org/2000/svg">
  <g>
    <animateTransform attributeName="transform" type="rotate" values="
    0 160 283;
    3.536 160 283;
    5 160 283;
    3.536 160 283;
    0 160 283;
    -3.536 160 283;
    -5 160 283;
    -3.536 160 283;
    0 160 283" keyTimes="0;0.125;0.25;0.375;0.5;0.625;0.75;0.875;1" dur="3s" repeatCount="indefinite" calcMode="linear"/>
    <defs>
      <path id="a" d="M0 0c15 20 15 35 0 50-15-15-15-30 0-50"/>
    </defs>
    <g transform="matrix(.2 0 0 .2 140 70)">
      <use href="#a" fill="#036349">
        <animateTransform begin="-2s" dur="20s" repeatCount="indefinite" attributeName="transform" type="translate" from="0 -50" to="0 1220"/>
        <animateTransform begin="-2s" dur="4s" repeatCount="indefinite" attributeName="transform" type="rotate" values="0; 15; -10; 0" additive="sum"/>
        <animateTransform begin="-2s" dur="4s" repeatCount="indefinite" attributeName="transform" type="translate" values="0; -20; 30; 0" additive="sum"/>
      </use>
    </g>
    <g transform="matrix(.2 0 0 .2 160 70)">
      <use href="#a" fill="#036349">
        <animateTransform begin="-2s" dur="10s" repeatCount="indefinite" attributeName="transform" type="translate" from="0 -50" to="0 1205"/>
        <animateTransform begin="-2s" dur="4s" repeatCount="indefinite" attributeName="transform" type="rotate" values="0; 15; -10; 0" additive="sum"/>
        <animateTransform begin="-2s" dur="4s" repeatCount="indefinite" attributeName="transform" type="translate" values="0; -20; 30; 0" additive="sum"/>
      </use>
    </g>
    <g transform="matrix(.2 0 0 .2 125 90)">
      <use href="#a" fill="#036349">
        <animateTransform begin="-2s" dur="15s" repeatCount="indefinite" attributeName="transform" type="translate" from="0 -50" to="0 1130"/>
        <animateTransform begin="-2s" dur="4s" repeatCount="indefinite" attributeName="transform" type="rotate" values="0; 15; -10; 0" additive="sum"/>
        <animateTransform begin="-2s" dur="4s" repeatCount="indefinite" attributeName="transform" type="translate" values="0; -20; 30; 0" additive="sum"/>
      </use>
    </g>
    <g transform="matrix(.2 0 0 .2 195 150)">
      <use href="#a" fill="#036349">
        <animateTransform begin="-2s" dur="20s" repeatCount="indefinite" attributeName="transform" type="translate" from="0 -50" to="0 810"/>
        <animateTransform begin="-2s" dur="4s" repeatCount="indefinite" attributeName="transform" type="rotate" values="0; 15; -10; 0" additive="sum"/>
        <animateTransform begin="-2s" dur="4s" repeatCount="indefinite" attributeName="transform" type="translate" values="0; -20; 30; 0" additive="sum"/>
      </use>
    </g>
    <g transform="matrix(.2 0 0 .2 80 279)">
      <use href="#a" fill="#036349">
        <animateTransform begin="-2s" dur="5s" repeatCount="indefinite" attributeName="transform" type="translate" from="0 -50" to="0 170"/>
        <animateTransform begin="-2s" dur="4s" repeatCount="indefinite" attributeName="transform" type="rotate" values="0; 15; -10; 0" additive="sum"/>
        <animateTransform begin="-2s" dur="4s" repeatCount="indefinite" attributeName="transform" type="translate" values="0; -20; 30; 0" additive="sum"/>
      </use>
    </g>
    <g transform="matrix(.2 0 0 .2 180 279)">
      <use href="#a" fill="#036349">
        <animateTransform begin="-2s" dur="3s" repeatCount="indefinite" attributeName="transform" type="translate" from="0 -50" to="0 170"/>
        <animateTransform begin="-2s" dur="14s" repeatCount="indefinite" attributeName="transform" type="rotate" values="0; 15; -10; 0" additive="sum"/>
        <animateTransform begin="-2s" dur="4s" repeatCount="indefinite" attributeName="transform" type="translate" values="0; -20; 30; 0" additive="sum"/>
      </use>
    </g>
    <g transform="matrix(.2 0 0 .2 210 270)">
      <use href="#a" fill="#036349">
        <animateTransform begin="-2s" dur="5s" repeatCount="indefinite" attributeName="transform" type="translate" from="0 -50" to="0 220"/>
        <animateTransform begin="-2s" dur="4s" repeatCount="indefinite" attributeName="transform" type="rotate" values="0; 15; -10; 0" additive="sum"/>
        <animateTransform begin="-2s" dur="4s" repeatCount="indefinite" attributeName="transform" type="translate" values="0; -20; 30; 0" additive="sum"/>
      </use>
    </g>
    <g transform="matrix(.2 0 0 .2 85 250)">
      <use href="#a" fill="#036349">
        <animateTransform begin="-2s" dur="7s" repeatCount="indefinite" attributeName="transform" type="translate" from="0 -50" to="0 330"/>
        <animateTransform begin="-2s" dur="4s" repeatCount="indefinite" attributeName="transform" type="rotate" values="0; 15; -10; 0" additive="sum"/>
        <animateTransform begin="-2s" dur="4s" repeatCount="indefinite" attributeName="transform" type="translate" values="0; -20; 30; 0" additive="sum"/>
      </use>
    </g>
    <path fill="#7f8e56" d="M150 267c1-3 1-3 3-2v2l-4-1-1 6h-4l-1 2c-2 1-2 1-5 1l-3 1 49-2 2 1v2h-3v2h-4c-4 0-6 1-9 4l-2 1v-3h-3v2h2l-1 2h-4v-2h-7v-3l-3 1c0 4 0 4 3 8h-6l1-2h-7v-2h-2v2h-20c-8 2-13 1-21-1M158 151c2 1 2 1 3 2 2 0 2 0 4-1l-1 6h-2v2h3v5l-3 2h3l3 3-1 3h-3v2c-1 2-1 2-3 4l-1 4-8-2v7h-4l-1 3-2-1 2-3c0-2 1-4 1-6-3-2-3-2-7-2l1 4c-2 1-2 1-4 1-2-1-2-1-3-3h2l2-1 1-2-7 1v-2h-5l2-1 1-2 1 1 1-2-2-1 1-3h2v-3l-4 1v3c-2 1-2 1-4 1l-4-4v-4h2l1-4 2 1-2 3h2v2l2-1-1-5h2v2h2a91 91 0 0 1 4 4v-2h3l2-8 1 2h11l-1 2c-1 3-1 3 0 6h-4v2l5-1v2c-2 2-3 2-6 3l8 1c1-2 1-2 1-4-1-3-1-3-3-6l2-2h-2v-2h2v-4h2v3c1-1 1-1 1-4zM121 272l2 1-1 5h2v-2c0-3 0-3 1-4h6l-1 2h-3v5h4l-3 10-5-1v-2h-2c-5 1-9 2-14 1l-1-4 2-1v-2c3 0 6 1 9 2l-1-2-3-1 1-2h7v-2l-2-1h2zM160 191h5v4l1-3 5-1v5l-3 1 1 2-1 2h-3l-1 2c-3 0-3 0-5-1a78 78 0 0 1-2-5l2-1c2-2 2-2 2-5zM134 238h13l-2 1 1 6-4 2v4l-2 1 3 1v2l-5-1v-3l-4-1v-4h3l2-2 1 3 2-5-5-2v2h-2zM100 270c2 2 2 2 2 5l3-1 2 1v2l4 1-2 1-2 1-2 1c-2 1-2 1-4 4l4 1-2 1-2-1-1 2v-2c0-2 0-2-3-4v-1l-2-1 6-3zM113 210l4 2c-1 3-1 4-3 6l-2-3-3-1v-2h4zM170 197h5l1 2h-2v4h-2l1 3-7-1v2c-2 1-2 1-5 1l-3-2h4l1-2q3-1 6-1l2-2c0-2 0-2-1-4zM145 176h9v1h-3l-4 1-1 2h-4l1 3h-2l1 4c-2 1-2 1-4 1-2-1-2-1-3-3h2l2-1 1-2-5 1 1-2h2v-2h7zM150 193l2 1v2h3l3 6-2 2v-3h-2v-3l-3 1h-6v-3c4-1 4-1 5-1zM118 215h13c-1 3-1 3-3 4l-2 1-2 1c-3 0-3 0-6-1zM137 212h6v3l1-2c3-1 3-1 6-1l-1 3h-2v5h-4v-2l-3 1c-3 1-6 1-9 1v-4l5 1zM131 176c7 0 7 0 10 2l-1 2-2-1v2l-5 2v-2h-5l2-1 1-2 1 1 1-2zM140 172h5v7h-2v-2l-3-1zM178 188l1 3h2l1-2v2l2-1h2l2 2c-2 3-2 3-4 4-3 0-6 1-10 0l-2-2 3-1v-4zM172 241 172 241l3 1v-3l-3-1zm-20-135 1 3 7 1v-3l7-1v2h5l-2 2h-4l-1 2-1 2-1 3c-2 3-4 5-7 7l-2-1 1-7c4-1 4-1 6 0l-1-2h-4v-2l-7 1v-3h3z"/>
    <path fill="#61623d" d="M148 48h5c1 2 1 4 1 6l1 2 3 1c1 4 0 5-1 9l3 1-1 5h2v2l-2 1 1 2v4h-2v2h-3c2 1 4 1 6 1v2l4 1v-3h2v-5l3-1-1 2c0 2 0 4 1 6v2l-3 2c-3 2-3 2-3 6l-2 2 3 2-2 1c-3 1-3 1-4 5h4v-3h2v-2h3l-2-4h3l1-4h2l1 3-2 3 1 3h-2l-1 2c0 2 0 2-1 3l4 2h-3c-3 0-3 0-4 2l-1 3-2 3c-1 2-1 2-1 4l4 1 2-3 1 1 1-3h4l-1-4h2l1-3 3 1-1-3h2l2-3 3 2c0 2 0 2-1 5l-4 2v3h-2l-1 4 3-1v2l-6 2v4h-2c-2 1-2 1-3 3l-1 2h-4l-1 2-3-2v2l3 1v1l-3 1-4 1-1 3h3l1 1 4-2v2h3l1-4-3-1v-2h6c3 1 3 1 5 2l-1-8 6 1 2-2 1-2h5l-1 7-3 1v2l-2 1-1 2a101 101 0 0 1-6 2l1 3-5-1v3l-6 2 2 1v4c-5 0-8-1-11-5h-2l-1 7h-4v-2h-3l-1 3-3-1v2l-2 1-3 1c-1 3-1 3-1 6h-2l-1-3h2l-1-5h3v-2l-5 1v-3l-1 1h-6v-2h-6v-2l-3-1v-2h-2l-3-3-2-1c-2-1-2-1-3-3v-3l-1-2h6v5h2v2h3v-3h2v2l4-1-1 3h2v2l6-1v2h-2l1 2 3-3 1 3c4 1 4 1 8 1v-2h4l1 2c3 1 3 1 5 1v-3l-2-1-3-1-3-1a35 35 0 0 1-7-2v-3l-2 1c-3 0-3 0-6-1l-2-2v-4l-4 1v-2l-3-1v-2l3-1-4-2 1-2c-1-1-1-1-4-3-1-4-1-4-1-7h2l1 2c1 2 1 2 3 3l-1 2h2v2h3v3l5-1v2h4l1 3h5l2-4c-3-3-5-4-8-6l-2-2v-3l6 2 1 3 2 1 1-3c2 3 2 3 2 5l3 1v2l1 2-4-1 1 2c1 3 1 3 1 5l2 4c3 1 3 1 5 1 0-2 0-2-1-4-2-1-2-1-5-2l1-3h2v3h3v-4l-4-2 2-1 2 1v-4h-2v2l-3-1-1-3c-2-1-2-1-3-3-3-2-5-5-7-8v-2l-3-1v-2h-3l1-3 5-1v-2l-2 1c-2 0-2 0-5-1l-1-2 4-2-3-2c-2-2-2-2-2-5 0-2 0-2 1-5h3l-1 5 5-2c1 2 1 4 1 6l4 1v3c3 1 5 2 8 3l-2 1v2l4-2-2-4-3-1v-2h-3c-2-3-2-3-4-5h4l-2-2c-2-3-2-5-2-8h2v4l3-1 1 2c2 2 2 2 5 4l-1 1 2 1 1-5-3-1c-1-2-1-2-1-4-1-3-1-3-2-5l-3-1 1-4h-2v-2l5-1 1 4h2l-2-2c-2-3-2-4 0-8l2 1v-9h2z"/>
    <path fill="#5f6e45" d="M160 191h5v4l1-3 5-1v5l-3 1 2 7h-3c-3 0-6 1-9 2l-1 3-3 2c2 4 4 4 8 5-3 2-5 2-9 2v4h2v-2c3-1 5-1 9 0l2-3c5 0 9 0 13 1h3l-2 4 9-4v2c3 0 3 0 6-1l1-2h4l3-1c1-3 1-3 2-5l6 1v2h-2l-1 3-2 6-9 1 2 1v3c-2-1-4-1-6-2v3l-3 1v-2h-3l1 3h-3v3a592 592 0 0 1-6 0h-3c-3-1-3-1-6-3l-1 3h-2c-4-1-9-2-13-3v3h6c3-1 3-1 6 1l-2 2 2 1v2h3v2h-2l-1 4-6-2v-2h-4c-4 0-4 0-6-3 0-4 1-6 2-9l-2-1c-1-2-1-2-1-4h-5l-1-3h-3l-1 3q-2 1-4 1l-2 3-3-1 3-5-3 2c-3 2-3 2-6 2l-1-4h-3c-2-3-2-4-2-8h9c3 0 5 1 8 2l1-5h6c2 0 2 0 3-3h2v-2l-4 4-3-1v-2l-6-2c-1-6-1-6 0-8l5 1v4h5v-2l4 1v2l6 1 1-3h-2v-3l-3 1c-3-1-3-1-5-1v-3c4-1-4-1 5-1l1-2 1 3h3c2 3 2 3 3 5l-1-2v-2c1-2 1-2 3-3zM196 235h2l1 2 3-1v2h-2v4l3-2c3-1 5-2 8-2l2 3 1-2 3-1 1-2h2c1 7 1 7 0 9h-3l-1 2h-12l-1 3v-2h-2l1 4h-4l-1-2-3-1-1 2-1 3-1 3c-2 2-2 2-5 3h-2v-2h-5l3 1v2c-4-1-7-2-11-4l-1 2c-3 1-3 1-5 1v2h-2v-4c-2 0-2 0-4 1l-2 3c-1-3-2-4-2-7h-2v2l-2 1v11l-3-1c-1-2-1-2-1-4v-2l-1-2h-3c-4-1-4-1-6-3h3v-2h3v-2l-4-1 3-1v-2c2 0 2 0 5 1l1 2h11v-5c6 0 6 0 8 1l2-5 2 1 2-3 2 1v3h2l1-2c4-2 8-2 12-3v-3h6zM118 215h13l1 4c6 0 6 0 11-1v2h4l1 4-4 1-1-3h-3l-1 3q-2 1-4 1l-2 3-3-1 3-5-3 2c-3 2-3 2-6 2l-1-4h-3c-2-3-2-3-2-8M183 241c3 3 5 5 6 9l-2 1v-2h-2v4l2 1v2c-7 1-7 1-10 0v2l-6-1 1-2h3l2-2v2h6v-2l-6-1v-2h2v-2l2-1a101 101 0 0 0 2-6M155 253c2 3 2 5 2 9h-3v8l3 1-1 3-5-1v-2h-2l-1 3c-1-2-1-2-1-4l2-2 2 1-1-12h3v-2h2zM142 249c2 0 2 0 5 1l2 4h-2l1 4h-3v2c-6-1-6-1-8-3h3v-2h3v-2l-4-1 3-1zM140 218h3v2h4l1 4-4 1-1-3h-3l-1 3q-2 1-4 1l-2 3-3-1 3-6-2-1 1-2h3c3 0 3 0 5-1M149 214c1 3 1 6 1 10l2 1h-3c-2-4-2-6-2-10zM140 142.5 142 142l5 2-2 2c-2 0-2 0-5-1l-2-1h-2l4-1zM161 113h2c-1 5-2 8-7 11l-2-1 1-7c4-1 4-1 6 0zM162 127l5 2v4c-5-1-5-1-7-2zM152 210l1 4h-3v-2h-2l-1 2a101 101 0 0 1-6 2l1-3-3-2c4-1 9-1 13-1M161 141l1 2 3 2c-6 2-6 2-9 2l-1 2-4-2c2-2 2-2 5-2h2v-2zM148 224l3 3-1 2 3 1-1 4h-2l-2 4v-2l-3-1v-2l2-1c0-2 0-2 1-4zM182 224l1 2 2 2-6 1-1 3-1-3h-3c2-4 3-5 8-5M176 197h3l-2 6c-5-1-5-1-7-3l6-1zM162 171c3 0 3 0 5 2l1 1-1 3c-2 0-2 0-4-1l-2-4z"/>
    <path fill="#818651" d="m148 224 3 3-1 2 3 1-2 9 2 1 3 1 2 1c2 0 2 0 3 2a78 78 0 0 0 5 2l1-4h2v-2l-3-1h6c5 0 9 0 13-2l3 1 2 2-3 1c-4 1-7 3-10 4h-2l-2-2-1 1-2 2-1 2c-2 1-2 1-4 1-2-1-4-1-6-2l1 3-1 2c-3 0-3 0-6 1h-5l-1-3-5-1v2l-2 1 3 1v2h-3l-1 3 7 1 1 4-3 1v-2l-12 2v-3l-5 1v-2h-2v-4l-2 1c-2 0-4 0-6-1v-2h-8l-1-2c-2-1-2-1-4-1v-3l-2 1h-6l-2-5-5 1-1-3c-3-2-3-2-6-3l-1-3c2-1 2-1 5-2l2 2 1-3h2l1 3h2v2h4v-3h2l1 2c3 2 6 2 10 2 3-1 3-1 5-3l2 2 2-1c5-1 5-1 7 0v-2h2v2l3-1c3 0 3 0 6 2h10v-2l-3-1v-2l2-1c0-2 0-2 1-4z"/>
    <path fill="#757854" d="M148 48h5c1 2 1 4 1 6l1 2 3 1c1 4 0 5-1 9l3 1-1 5h2v2l-2 1 1 2v4h-2v2h-3c2 1 4 1 6 1v2l4 1v-3h2v-5l3-1-1 2c0 2 0 4 1 6v2l-3 2c-3 2-3 2-3 6l-2 2 3 2-2 1c-3 1-3 1-4 5h4v-3h2v-2h3l-2-4h3l1-4h2l1 3-2 3 1 3h-2l-1 2c0 2 0 2-2 3h-7v3h-3c-4-1-4-1-8 0-2-3-2-3-3-5l5 1-1-6h-2v-2l-5-1v-2h-3c-2-3-2-3-4-5h4l-2-2c-2-3-2-5-2-8h2v4l3-1 1 2c2 1 2 1 5 3l-1 1 2 1 1-5-3-1c-1-2-1-2-1-4-1-3-1-3-2-5l-3-1 1-4h-2v-2l5-1 1 4h2l-2-2c-2-3-2-4 0-8l2 1v-9h2z"/>
    <path fill="#545841" d="M155 253c2 3 2 5 2 9h-3v7l3-1c4-1 4-1 6 0l1-2 2 1h2c4-1 7 0 10 1v-2h2v2c2 0 2 0 5-1l1-2h3a93 93 0 0 0 4-1v2l7-1v-3h6c2 0 2 0 5-1v-2l6-1v-2l3 1a435 435 0 0 1-2 4l-1 2c-1 2-1 2-3 3v2l-4-1-1 6h-4l-1 2c-2 1-2 1-5 1l-3 1h-2l2 1v2h-3v2l-6 1c-2 0-2 0-5 1v-2h-6c-3 1-3 1-5 0l-1 3-1-4-7-1 1-6-2 2-2-1v2l2 1-2 2-2-5h-3v3l2 1-5-1-1 5-3-1h2v-2h-2l-3-3-1 3-4-1v-3c3-1 5-2 8-3l1-5 3 1-1-12h3v-2h2z"/>
    <path fill="#a4a57c" d="m153 148 5 1 1 4 2-1c2 0 2 0 5 2l1-4h2l1 2 2-1c0 6 0 6-4 9-1 1-2 1-2 2l-3-3 1-2h-2l-2 2-2-4 1 6h-2v-3h-2v4h-2v2l3-1-1 2c-1 2-1 2-1 4l1 2 3 1h-2l-1 6-1-2h-7v-3l6-1-5-1v-2h4l-1-2c-1-3 0-4 0-6l-2 2v-2h-7l-1 3c-2 3-2 3-4 4l-1 2c-2-1-2-1-4-3v-2h-2v4h-3v-2h-2v-3l-1 3h-2l2 7h6v-3l4-1v3h-2l1 7h-3l3 1v2l7-1c-1 3-1 3-3 4l4 1v-4l3-1c2 1 2 1 4 3v5h-2l-1 3-5 1-1-3-1 2c-6 0-6 0-8-1l-1-2-2-1 1-6-3-2h2v-2l1-1-6-1-1-3c-4-1-4-1-7-2v-1h6v-2l-3 1v-2h-7v-2l-3-1-1-6-5-1 1-6 6 1v4l5-1v2c3 0 6 0 9-1l1 5 2-1-1-6 8-2-1 4 5-1v2h-3l1 2c0 3 0 3-1 6h2v-6l6-2v-2h3l1-2h3v2h4l-1-3c1-3 1-3 2-5M146 190l2 1-2 3 1 2h-2v3l3-1h6v3h2v6l-1-3-6-1v-2l-4-1 1 3-6-1-1-4-4-1v8c-2 0-2 0-4-2l-1-1c1-3 2-6 5-8 3-1 3-1 6-1 2 0 2 0 4-1z"/>
    <path fill="#6f743e" d="M160 191h5v4l1-3 5-1v5l-3 1 2 7h-3c-3 0-6 1-9 2l-1 3-3 2c2 4 4 4 8 5-3 2-5 2-9 2v7l-3-1c-1-3-1-6-1-9h-2l1 9-4 1-1-3h-3l-1 3q-2 1-4 1l-2 3-3-1 3-5-3 2c-3 2-3 2-6 2l-1-4h-3c-2-3-2-4-2-8h9c3 0 5 1 8 2l1-5h6c2 0 2 0 3-3h2v-2l-4 4-3-1v-2l-6-2c-1-6-1-6 0-8l5 1v4h5v-2l4 1v2l6 1 1-3h-2v-3l-3 1c-3-1-3-1-5-1v-3c4-1 4-1 5-1l1-2 1 3h3c2 3 2 3 3 5l-1-2v-2c1-2 1-2 3-3zM158 155c2 1 2 1 3 2 2 0 2 0 4-1l-1 6h-2v2h3v5l-3 2h3l3 3-1 3h-3v2c-1 2-1 2-3 4l-1 4-8-2v7h-4l-1 3-2-1 2-3c0-2 1-4 1-6l-2-1-4-2v-2h4l1-3h7c1-2 1-2 2-5-1-3-1-3-3-6l2-2h-2v-2h2v-4h2v3c1-1 1-1 1-4zM142 249c2 0 2 0 5 1l1-3h2l1 4c-3 1-5 1-8 0v2h-2v2l-2 1v11l-3-1c-1-2-1-2-1-4v-2l-1-2h-3c-4-1-4-1-6-3h3v-2h3v-2l-4-1 3-1zM158 155c2 1 2 1 3 2 2 0 2 0 4-1l-1 6h-2v2h3v5l-4 2 2 6h-2v-2l-5 1v-2c-1-3-2-5-3-8l2-2h-2v-2h2v-4h2v3c1-1 1-1 1-4zM133 246l1 2c1 2 1 2 4 3v3h2l-1 4 7 1 1 4-3 1v-2l-11 2v-2l2-1-4-1 1-9-4 2-1-4 3-2 1 2zM159 124l2 2 3 1a100 100 0 0 1 4 3l-1 3h-4l-1 2-3-2v2l3 1c-3 1-6 1-9 0v5c-2-4-2-6 0-10l2-2 1 3-1 2 5-3-2-1v-4zm2 17 1 2 3 2c-6 2-6 2-9 2l-1 2h-2l-1 7h-4v-2h-3l-1 3-2-2v-3l7-1v-3l-4-1v-2l6-2 3 2h4v-2zM150 258h1v11l-3-1-1-6h3zM138 213 142 218c-4 2-7 2-11 2v-4l5 1zM165 248l3 1v2l3 2v2h-4v2h-2v-6l-2-1h2zm-35-26v3l-6 2v-2l-1-2-2-1c3-1 5-1 9 0M124 246c2 2 3 3 3 6l-2 2c-5-3-5-3-6-6h5zM152 129 154 130l-1 4 6-1v2l3 1c-3 1-6 1-9 0v5c-2-4-2-6-2-10zM150 214 162 216c-4 2-5 2-9 2v7l-3-1c-1-4-1-6 0-10M124 246c2 2 3 4 4 6l4-1v7l-5 1v-2l-1-2-3-1v-2l-3-1-1-3h5zm56 29 1 4 2-4h7v2h-5v2l4 1h-3l-3 1-1 2h-9v-2l-2-1 3-1c4-1 4-1 6-4M150 183c2 0 2 0 4 1l-2 1v7h-4l-1 3-2-1 2-3q1-3 2-7zM128 272h3l-1 2h-3c0 4 0 4 1 7l-1 2h-2v-3h-4v-2h3v-2c0-4 0-4 4-4m33-44 3 1v2l4-1c3-1 6-1 9-1l-3 1 1 3-5-2-1 3c-1 0-3-1-4-1h-2l-3-1-1-3zM164 253l3 1-2 3h2v-2h4l-1 4-5 1v2h-2v-4c-2 0-2 0-4 1l-2 3-2-4c3-3 5-3 9-3zM167 255h4c0 2 0 2-1 4l-6 2v-4h3zm-4-22-2 2 1 3h-5v-2l-3-1c3-2 5-2 9-2"/>
    <path fill="#9d9e75" d="M97 267h1v5h2l1-2v2h9v-2h3v2l7 1v-2h9l2-4c2 0 2 0 5 1l1 2-2 2c-2 2-2 2-3 5h-2l-1 3-3-1 1-5 3-1h-5l-1 5h-2v-5l-1 4-7 1 3 1v3l-3 1v-2l-6-1 1 4-3-1v3l-6-1-1 2c-2-1-2-1-5-2-1-2-1-2-1-4l-3 1c-4 1-4 1-7 0l-2-2h-6v-2l-3-2 2-1-3-3 2-1 1-2 7 1v2l5-4 1 2 4 2 3-1 3 1z"/>
    <path fill="#a7a67f" d="M81 200h6l2 4 3-2 1 3v-4l6 1v-2h4v3h2v3h3l-2-3v-3h2v3h2v2h6l3 7-2 2-1-2-2-1c-3 0-3 0-5 1l1 2h3c2 3 2 3 3 6l-1 3 4-1v2h-2v5l-3-1v-2l-2-1-2-1v-2l-3-1v-2l-4 1-1-3h-4v2h-2v-2l-3-1v-2h-4a752 752 0 0 1-2-4l-1-2v-4h-3v-2h-2z"/>
    <path fill="#67662f" d="m148 224 3 3-1 2 3 1-2 9 2 1 3 1 2 1c2 0 2 0 3 2a78 78 0 0 0 5 2l1-4h2v-2l-3-1h6c5 0 9 0 13-2l3 1 2 2-3 1c-4 1-7 3-10 4h-2l-2-2-1 1-2 2-1 2c-2 1-2 1-4 1-2-1-4-1-6-2l1 3-1 2c-3 0-3 0-6 1h-5l-1-3-5-1v2l-2 1 3 1v2l-5-1v-3l-4-1v-4h3l2-2 1 3 2-5-5-2v2h-2l-1-4h14v-2l-3-1v-2l2-1c0-2 0-2 1-4z"/>
    <path fill="#9fac6d" d="M205 173h5v4h-2v2h-2c-2 1-2 1-3 3-2 4-6 6-10 8l2 1v-2h3v2a264 264 0 0 1-5 3l-1 2-2-1h-6v5h2c0 2 0 2-1 4l-3 1-1-1a236 236 0 0 0-7-1l1-5-3-1v-3l3-1v-4l5-1v-3l4-1v-4h2v2l4-1 1-4h6l-1 6 2-1c1-3 1-3 1-6l6-1zM153 148l5 1 1 4 2-1c2 0 2 0 5 2l1-4h2l1 2 2-1c0 6 0 6-4 9l-2 2-3-3 1-2h-2l-2 2-2-4 1 6h-2v-3h-2v4h-2v2l3-1-1 2c-1 2-1 2-1 4l1 2 3 1h-2l-1 6-1-2h-7v-3l6-1-5-1v-2h4l-1-2c-1-3-1-4 0-6l-2 2v-2h-7l-1 3c-2 3-2 3-4 4l-1 2c-2-1-2-1-4-3v-2l-2-1h3v2h2v-6l6-2v-2h3l1-2h3v2h4l-1-3c1-3 1-3 2-5M131 267c2 0 2 0 5 1l1 2-2 2c-2 2-2 2-3 5h-2l-1 3-3-1 1-5 3-1h-5l-1 5h-2v-5l-1 4-7 1 3 1v3l-3 1v-2l-6-1 1 4-3-1v3l-6-2 1-5 1 2a105 105 0 0 0 5-4v-2h-5l1-3h7v-2h3v2l7 1v-2h9zM118 282l2 1-2 3h2v-2h6l2 5-5-1v-2h-2c-5 1-9 2-14 1 1-2 1-2 3-3h3v2h2v-2zM153 123h7l-2 3h-2v4l3 1c-4 3-4 3-6 3l-1-5h-2v-2h3zm8 71 1 2c2 2 2 2 5 2h2l-1 3h-3l-1 2c-3 0-3 0-5-1a78 78 0 0 1-2-5zM177 256h13l-1 3-5 1v-2h-5l3 1v2c-5-1-5-1-7-3h2zM159 189h1l1 6h-2c-1 2-1 2-1 4l2 3-4-2c-1-2-1-2-1-4h-3l-1-3 7 1zM195 189h3v2a264 264 0 0 1-5 3l-1 2-4-2 1-3h6zM134 170v3h-2l1 7h-3l3 1 1 6-4-2v3h2l-1 3-4-2 1-6-3-2h2v-2l1-1-6-1-1-4 3 1c3 1 3 1 6 1v-3c2-1 2-1 4-1M136 181h5l1 6c-2 1-2 1-4 1-2-1-2-1-3-3h2l2-1 1-2-5 1z"/>
    <path fill="#8f9a7a" d="M146 112h10v2l5-1v3h-6v7h5l-2 3h-2v4l3 1c-4 3-4 3-6 3v-4c-1 1-1 1-1 5v3l1-2h5l-1 1c-2 2-2 2-3 5h3l-1 3-3 1-3-2-3 1c-3-1-3-1-5-3v-2l-5-1-1 2-1-4h4l1-2c-4 1-4 1-7 2l-2-1 1-5h5l2-4c-3-3-5-4-8-6l-2-2v-3l6 2 1 3 2 1 1-3c2 3 2 3 2 5l3 1v2l1 2-4-1 1 2c1 3 1 3 1 5l2 4c3 1 3 1 5 1 0-2 0-2-1-4-2-1-2-1-5-2l1-3h2v3h3v-4l-4-2c2-1 4-1 7-1v-4l-4-2v-2l-3-1zM130 239l1 2c-5 1-5 1-7 0l-1 4h4v-2l2 1c3 1 3 1 5-1-1 3-2 5-4 7l-1-2-1 4 4-1v7l-5 1v-2l-1-2-3-1v-2l-3-1v-2h-3l-1 2v-2h-2c-3-1-3-1-5-2l1-5h2l1 2a101 101 0 0 0 6 2c0-1 0-1-2-4h2v-2c4-3 6-2 11-1M141 159l1 2h11l-1 2c-1 3-1 3 0 6h-4v2l5-1v2c-2 2-3 2-6 3l7 1v1h-3l-4 1-1 2h-4l1 3h-2l1 4c-2 1-2 1-4 1-2-1-2-1-3-3h2l2-1 1-2-5 1 1-2h2v-2h5v-2l-3-1v-4h-2v-2l5-1 1-4-5 1zM120 249l1 2h3v3l2 1 1 3h4v2h7c-3 2-3 2-5 2l-1 2v-3l-5 1v-2h-2v-4l-2 1c-2 0-4 0-6-1v-2h-2v-2h-4v-2c3-1 6-1 9-1M146 112h10v2l5-1v3h-6v7c-2-1-4-1-6-2v-2l-3-1zM172 241l3 1v3h2l1-2c3-1 3-1 5-1l-2 6h-2v2l-6 1c-2-3-2-4-2-7zM146 241l5 1-4 5 2 3 3-3v5l-4 1-1-3-5-1v-2l3-3zM163 179v2l-2 2c-1 2-1 2-1 4l-6-2c1-2 1-4 2-6 4-1 4-1 7 0M178 281h11l-3 5-1-3h-3v2h2l-1 2h-4v-2l-5-1 3-1zM129 279h2l-3 9-1-2c-3-1-3-1-5-1l-1-4 4-1v3h2zm40-36c4 5 4 5 4 7l2 1-1 3v-2l-2 1c-2 0-2 0-5-2zM160 249h2l1 4c-3 1-5 1-8 0v2h-2v2h-2v-3l-2-1 10-1zM118 220l2 1v2h3l1 3h-2v-2h-2l1 7h-2l-2-7 1-1-3-1zM108 280l6 1c-1 3-1 3-3 5h-5v-3l2-1zM179 197l4 1v3h2v3l-3 1c-2-1-2-1-3-3v-2l-2-1h2zm-21-35a85 85 0 0 1 7 2v5l-6 2 1-3h4v-2h-4zM200 274c-2 2-3 2-6 3l2 1v2h-3v2c-8 1-8 1-11 1l1-2c3-1 5-1 8-1v-5c3-2 5-2 9-1m-29-90c2 1 5 1 7 2l1 2-2 2-2-1 1 6-4-1-2-7 1-1zM143 203l4 1-2 5h-4v-3h2zM141 159l1 2h6v3l-9 2z"/>
    <path fill="#aeb67a" d="M164 178h5l-1 5-6-1v3c3 0 3 0 7-1 3-1 6 0 9 2l1 2-2 2-2-1 1 6-4-1v3l4 1-2 1v4h-2l1 3-7-1v2c-2 1-2 1-5 1l-3-2h4l1-2c3-1 3-1 6-1l-2-6 4-1v-5l-5 1-1 4-2-4h-2v3h-2c-1 2-1 2-1 4l2 3-4-2c-1-2-1-2-1-4h-3l-1-1-1 2-3-3 1-2h4v-7c6 0 6 0 8 1l1-5h2zM100 205c1 1 3 2 4 3l2 2c2 2 2 2 2 5v1l-3-1-1 5-2-1v-2h-4v2h-2v-2l-3-1v-2h-4v-4l4-1v2h-2v2l2-1c3 0 3 0 6 1zM130 203l1 3a117 117 0 0 1-4 5v2l2 1v-4c2 0 2 0 4 1l1 3 2 1-1-3h2v6l-12-3v-3l-5 1-1-6h2v2h2l1-2h4zM152 185c6 0 6 0 8 1-1 6-1 6-1 8-3 2-6 0-9-1l1 4-4-3 1-2h4zM155 163v8l3 1h-2l-1 6-1-2h-7v-3l6-1-5-1v-2h4l-2-4zM84 276c3 1 4 2 6 4v-2c4 0 5 0 8 2v2q0 2 1 4l-5-1-1-4-7 2c-2-6-2-6-2-7M153 240l7 2-3 2 1 2 2 4-1 2c-2 0-2 0-5 1h-5a91 91 0 0 1 4-4h2v-7l-3-1zM190 239q-7.5 4.5-15 6l-1-2c-1-2-1-2-5-3h-3v-1h6c3 0 6 0 9-1s5-1 8 0M178 228h8v2h-2v2l-9 1-1-3 4 1zM133 246l1 2c1 2 1 2 4 3v3h2v2l-8-1v-4l-4 2-1-4 3-2 1 2zM112 214l4 5c-3 2-3 2-5 2l-2-1 1-2-2-1c1-2 1-2 4-3zM164 178h5l-1 5-6-1-1 3-1-3 3-1zM144 196l1 3h3c4-1 4-1 6-1v3h2v6l-1-3-6-1v-2l-4-1 1 3-5-2v-2h2zM80 275l3 1 1 5-9-1v-2l-3-2h3c3 0 3 0 5-1z"/>
    <path fill="#6f743e" d="M129 210c2 0 2 0 4 1l1 3 2 1-1-3h2v6l-8-3z"/>
    <path fill="#909371" d="M95 178c4 0 4 0 6 2l1 1h2c2 2 2 2 3 4l2-1-1-3h2v2h2l1 1c2 2 3 2 6 2 5 0 8 2 12 5v2l4-2v2h2l1-4v2l3 1h-2l-1 3h-2c-3 0-3 0-5 3l-1 3-3-2c-4-2-4-2-7 0l-1-4h-2c-8-1-8-1-11-4l-2-3c-3-1-3-1-5-2v-2h-2v-3h-2z"/>
    <path fill="#5e604c" d="m180 105 4 2c0 2 0 2-1 5l-4 2v3h-2l-1 4 3-1v2l-6 2v4h-2c-2 1-2 1-3 3l-1 2h-4l-1 2-3-2v2l3 1c-3 1-6 1-9 0v5c-2-4-2-6 0-10l2-2 1 3-1 2 5-3-2-1v-4l3-2-1-2c3-1 4-1 7 0l2-3 1 1-1-3h4l-1-4h2l1-3 3 1-1-3h2z"/>
    <path fill="#747655" d="M202 236v2h-2v4l3-2c3-1 5-2 8-2l2 3 1-2 3-1 1-2h2c1 7 1 7 0 9h-3l-1 2h-12l-1 3v-2h-2l1 4h-4l-1-2-3-1h-4l-2-6 2-2c2 0 2 0 4 1h4l-1-2h-4c3-2 5-4 9-4"/>
    <path fill="#4f5133" d="m217 256 3 1a435 435 0 0 1-2 4l-1 2c-1 2-1 2-3 3v2l-4-1-1 6h-4l-1 2c-2 1-2 1-5 1l-3 1h-2l2 1v2h-3v2c-8 1-8 1-11 1l1-2c3-1 5-1 8-1v-5l4-2v-4l2-1 1-3h2v-3h6c2 0 2 0 5-1v-2l6-1z"/>
    <path fill="#6f7269" d="M182 127h5l-1 7-3 1v2l-2 1-1 2a101 101 0 0 1-6 2l1 3-5-1v3l-6 2 2 1v4c-6-1-6-1-9-2-1-2-1-2-1-5l4-1c2 0 2 0 4-1 2-3 2-3 2-6l-3-1v-2h6c3 1 3 1 5 2l-1-8 6-1h2z"/>
    <path fill="#4c4e2d" d="m192 264 1 2 5-1-1 3 2 1h-4l1 2 1 2-1 2h-5v5l-6 1h-2l-1 2h-9v-2l-2-1 3-1c4-2 5-4 7-8 1-2 1-2 1-4h3l1-2h3zM180 217l2 1-2 4 3-2c3-1 3-1 5-1l2 4h3v2l-4 1v-2h-2v2l-6 1-1 3c-3 1-5 2-7 4l2-6h2z"/>
    <path fill="#83886b" d="M126 84h3l-1 5 5-2c1 2 1 4 1 6l4 1v3l2 1 1 2h-2l-3 1-1 2h2v2l2 1c3 1 4 3 6 5 0 3 0 3-1 6l-2-4 1-2-5 1-1 4c-3-5-3-5-3-7l-3-1v-2h-3l1-3 5-1v-2l-2 1c-2 0-2 0-5-1l-1-2 4-2-3-2c-2-2-2-2-2-5 0-2 0-2 1-5"/>
    <path fill="#6b6e59" d="m205 211 6 1v2h-2l-1 3-2 6-9 1 2 1v3c-2-1-4-1-6-2v3l-3 1v-2h-3l1 3h-3v3l-10-1-1-3 4 1v-3h7v-2h2v-2h2v2l4-1v-2l-5-1 1-4v2c3 0 3 0 6-1l1-2h4l3-1c1-3 1-3 2-5"/>
    <path fill="#a3a576" d="M190 239q-7.5 4.5-15 6l-2-2-1 1-2 2-1 2c-2 1-2 1-4 1-2-1-4-1-6-2l1 3-1 2c-3 0-3 0-6 1h-5l-1-3-5-1v-2l3-3 1-3 5 1-4 5 2 3 3-3 1 2h2v-7l-3-1c3 0 5 0 8 1l1 2a78 78 0 0 0 5 2l1-4h2v-2l-3-1h6c3 0 6 0 9-1s5-1 8 0"/>
    <path fill="#505337" d="M149 214c1 3 1 6 1 10h2l2-2c1 2 1 3 0 6l5-1-1 3h-4v4h6c3-1 3-1 6 1l-2 2 2 1v2h3v2h-2l-1 4-6-2v-2h-4c-4 0-4 0-6-3 0-4 1-6 2-9l-2-1a140 140 0 0 1-1-4l-2-3a98 98 0 0 1 0-7z"/>
    <path fill="#8c8f6e" d="M198 145h2c1 3 1 4 0 7h-2v4h-3v2l-4 1v2h2v2h-6l2 5-3 1v3h-6v-2l2-1-1-3 5-1v-2l-6-1v-5l2-1c3-1 3-1 5-4l2 1v-4l2 1c2 0 4 0 6-1z"/>
    <path fill="#86865d" d="m102 152 6 1v4l5-1v2c3 0 6 0 9-1 1 7 1 7 1 9l-2 1c-3 1-3 1-4 3v-2h-7v-2l-3-1-1-6-5-1z"/>
    <path fill="#5c5c3f" d="m174 217 2 1c3 1 3 1 6 1l-2 4 3-2c3-2 3-2 5-2l2 4h3v2l-4 1v-2h-2v2h-2v2l-6 1-1 3-1-3-13 2v-2l-2-1h6l2-2 1-3 3-1 2 1z"/>
    <path fill="#a6a78f" d="m129 146 6 2 1 3 2 1-1-3c2 3 2 3 2 5l3 1v2l1 2-4-1 1 2c1 3 1 3 1 5 1 3 2 4 4 5l4 1v4c-5-2-5-2-7-3v-2l-5-1-1 2-1-4h4l1-2c-4 1-4 1-7 2l-2-1 1-5h5l2-4c-3-3-5-4-8-6l-2-2z"/>
    <path fill="#858967" d="M104 136h6v5h2v2h3v-3h2v2l4-1-1 3h2v2l6-1v2h-2l1 7-3 1v-2h-6v-2l-3-1v-2h-2l-3-3-2-1c-2-1-2-1-3-3v-3z"/>
    <path fill="#868972" d="M148 48h5c1 2 1 4 1 6l1 2 3 1-2 2v5l-4 2h2l1 3h-5v-2h-2v2l-3-1c-1-2-1-2-1-5l2-2 1 3V53h2z"/>
    <path fill="#888360" d="m178 188 1 3h2l1-2v2l2-1h2l2 2-2 3h-2v5h2c0 2 0 2-1 4l-3 1-1-1a236 236 0 0 0-7-1l1-5-3-1v-3l3-1v-4z"/>
    <path fill="#75734f" d="M196 235h2c-1 3-1 3-4 5l5-1c-1 3-1 3-3 4l-2 3-1-4-4 1 2 6h3c-1 3-2 5-4 7l-1 3-5 1v-2h-5l3 1v2c-5-1-5-1-7-3h2v-2h10v-2l-4-2 2-1v-2h3l-3-2v-7h5v-3h6z"/>
    <path fill="#7d7f66" d="M171 93h2l1 3-2 3 1 3h-2l-1 2c-1 2-1 2-3 3h-7v3h-3c-4-1-4-1-8 0-2-3-2-3-3-5l7 1 2-6 5-1-1 2h-2c2 2 2 2 4 3l-1 3h4v-3h2v-2h3l-2-4h3z"/>
    <path fill="#6e724c" d="m129 146 2 1v2c4 1 4 1 8 1v-2h4l2 4h-3v2l2 1c-3 2-5 4-8 5l-1 6h-2l-1-3h2l-1-5h3v-2l-5 1v-3l-5 1c0-4 1-6 3-9"/>
    <path fill="#8d8f70" d="M112 115h2l1 2c1 2 1 2 3 3l-1 2h2v2h3v3l5-1v2h4v4h-2l-1 2-1-2-2 4 7 1-4 3-4-2v-4l-4 1v-2l-3-1v-2l3-1-4-2 1-2c-1-1-1-1-4-3-1-4-1-4-1-7"/>
    <path fill="#74754b" d="M202 236v2h-2v4l3-2c3-1 5-2 8-2l1 4-5 1v-2h-4v3c-3 1-3 1-6 1l-2 3h3l-1 2c-3-1-3-1-7-2l-2-6 2-2c2 0 2 0 4 1h4l-1-2h-4c3-2 5-4 9-4"/>
    <path fill="#4f5835" d="m181 268 2 1c-3 7-6 10-12 13l-1 3-1-4-4-1 1-2 3 1-1-4c3-3 4-3 8-3v-2c3-2 3-2 5-2M149 214c1 3 1 6 1 10h2l2-2c1 2 1 3 0 6l5-1-1 3h-4c0 2 0 2 1 5l2 1v2l2 1h-3l-4 2-2-2c0-4 1-6 2-9l-2-1a140 140 0 0 1-1-4l-2-3a98 98 0 0 1 0-7zM148 275l3 1c3 1 4 2 5 4l-5-1-1 5-3-1h2v-2h-2l-3-3-1 3-4-1v-3c3-2 5-2 9-1M162 171c3 0 3 0 5 2l1 1-1 3h-3v2l-10 1 1-4 6-1v2h2l-2-5zM171 225l2 1v2h-2v2l-7 1v-2l-2-1h2l2-1 2-1c2 0 2 0 3-1"/>
    <path fill="#8b8b71" d="M81 200h6l2 4 3-2 1 3 1-4 2 5 4-1c0 6 0 6-1 8h-8v-2h2v-2l-6 1-1-6h-3v-2h-2z"/>
    <path fill="#757864" d="M182 127h5l-1 7-3 1v2l-2 1-1 2h-5l-2-10h6l2-1z"/>
    <path fill="#6b6b4f" d="M165 217c4 0 7 1 10 2l1 4h-5v2l-1 2c-3 1-5 1-8 1-2-3-2-3-2-6l1-2h3z"/>
    <path fill="#7c8272" d="M168 78h2l-1 2c0 2 0 4 1 6v2l-3 2c-3 2-3 2-3 6l-2-1c-3-1-3-1-6 2l-1-3 4-5-1-3-2-1 4-1v2l4 1v-3h2v-2c1-3 1-3 2-4"/>
    <path fill="#585932" d="M127 189c3 1 3 1 5 2v2l4-2v2h2l1-4v2l3 1h-2l-1 3h-2c-3 0-3 0-5 3l-2 3c-3-1-3-1-7-3-1-2-1-2-1-4l5-1-2-1v-2z"/>
    <path fill="#8a8d6e" d="m205 211 6 1v2h-2l-1 3-2 6-10 1-2-4 2-3h4l3-1c1-3 1-3 2-5"/>
    <path fill="#9e9f75" d="M120 187h5l2 3h-2v2l3 1-2 1c-2 1-3 3-4 5h-2l-1-4-3-1-4-1-1-3 9-1z"/>
    <path fill="#a1a280" d="m186 154 4 4-5 2c3 1 3 1 6 0l2 1v2h-6l2 5-3 1v3h-6v-2l2-1-1-3 5-1v-2l-6-1v-5l2-1z"/>
    <path fill="#a6a86d" d="M132 238h2l1 4h2v-2c2 0 2 0 4 1 1 3 1 3 0 5l-1 2-2-2-2 3v-3l-6-2-1 2v-3h-2v2h-4l-1 2 1-6h9z"/>
    <path d="M167 150h2l1 2 2-1c0 6 0 6-4 9l-2 2-3-3 1-2h-2l-2 2c-1-2-2-3-2-6l1-2v2l2-1c2 0 2 0 5 2z" fill="#036349"/>
    <path fill="#9a9a87" d="m102 152 6 1v4l5-1-1 5h-2v5l-3-1-1-6-5-1z"/>
    <path fill="#7c805c" d="m160 89-3 6c2 0 2 0 4-1l3 2-1 2 3 2-8 3-1-3 2-1-4-1-1-5h-2c0-2 0-2 1-4 3-1 4-1 7 0"/>
    <path fill="#878b6c" d="M104 136h6v5h2v2h3v-3h2v2l4-1-1 3 2 1h-3l-3 1-1 2h-2l-3-3-2-1c-2-1-2-1-3-3v-3z"/>
    <path fill="#4c4d37" d="m180 217l2 1-2 4 3-2c3-1 3-1 5-1l2 4h3v2l-4 1v-2h-2v2l-6 1-1 3c-3 1-5 2-7 4l2-6h2z"/>
    <path fill="#9ca06a" d="M147 263h1v11l-10 2-1 6h-2v-3l-3-1h2v-4l3-1 2 1v-4h6z"/>
    <path fill="#636334" d="m135 197 5 1v4l4 1-1 3c-5 0-5 0-8-1-2-3-1-5 0-8"/>
    <path fill="#8a8a70" d="M170 145v2l-6 2 2 1v4c-6-1-6-1-9-2-1-2-1-2-1-5 9-4 9-4 14-2"/>
    <path fill="#adae8a" d="M89 233h2l1 2 2 4q2 1 4 1c-2 2-2 2-4 2-3 0-6-1-9-2l-3-1-1-3c2-1 2-1 5-2l2 2z"/>
    <path fill="#b0b089" d="m157 98 3 1-3 1 1 3-2 4 4 1v2h-3c-4-1-4-1-8 0-2-3-2-3-3-5l7 1 1-3c1-4 1-4 3-5"/>
    <path fill="#94977d" d="M155 58h4l-1 3c0 2 0 2-1 5l2 1-1 3c-5 1-5 1-7 0l-1 3-1-3-3 1-1-2h2v-2h2v2l4-1h-3l2-4h3z"/>
    <path fill="#969971" d="m73 269 6 1v5l-2-1v2l5-1 2 6-9-1v-2l-3-2 2-1-3-3 2-1z"/>
    <path fill="#979787" d="M205 173h5v4h-2v2h-2c-2 1-2 1-3 3l-1 2-4-2 1-6 6-1z"/>
    <path fill="#93957f" d="m174 110 2 1 1 3 2 1v2l-5 1-2-5h2z"/>
    <path fill="#96965d" d="M97 267h1v5h2c1 2 1 2 1 4-2 2-2 2-5 2h-2v-2l-3 1-2-1c0-2 0-2 1-4 2-1 2-1 5-1l2 1z"/>
    <path fill="#7a7b57" d="m147 97 1 2h2v2c0 2 0 2 3 4-3 1-3 1-5 1-2 2-2 2-3 4v-2l-4-1 7-6z"/>
    <path fill="#9a9d79" d="M127 235h2v2l6-1 1 2h-4l-1 3-3-1c-4-1-6-1-9 0l1-3c5-1 5-1 7 0z"/>
    <path fill="#9f9c6d" d="m135 205 7 2v2h2l2-3h2v2h-2l-1 3-8 1v-2c0-2 0-2-2-3z"/>
    <path fill="#c7c7be" d="m169 128 3 2-3 1-2 6 2 1c-7-1-7-1-10-3v-2h3l2-1h3z"/>
    <path fill="#71735f" d="M137 79h2v4l3-1 1 2c1 2 1 2 4 4l-5 1 1 3 2 1c-6-1-6-1-8-3l-1-1h4l-2-2c-2-3-2-5-2-8"/>
    <path fill="#6c7150" d="M136 100h10l-2 1 1 2v2l-2 2c-2 0-4-1-6-2v-2h-2z"/>
    <path fill="#4f5644" d="m166 266 9 2h3v-2h2l-2 4h-2v2l-7 2v-3a88 88 0 0 0-3-5"/>
    <path fill="#989a85" d="M144 67v2c0 2 1 3 2 5l6 2v1l-8 1-1-3-3-1 1-4h-2v-2c3-1 3-1 5-1"/>
    <path fill="#8e9075" d="M218 237h2c1 7 1 7 0 9h-3l-1 2-2-1 1-2h-2v-5h2l2-1z"/>
    <path fill="#9d9e94" d="m129 116 6 2 1 3 2 1-1-3c2 3 2 4 2 8-2-1-4-2-6-4l-2-1c-2-1-2-1-4-3z"/>
    <path fill="#686b40" d="M148 70h2l1 2 1-2h7l-1 3h-4v5c-3-1-3-1-6-3l-1-3z"/>
    <path fill="#03301c" d="M152 231a141 141 0 0 1 5 5v2l2 1h-3l-4 2-2-2c0-4 0-5 2-8"/>
    <path fill="#70704d" d="M129 194a101 101 0 0 1 2 6l-2 1c-3-1-3-1-6-3-1-2-1-2-1-4 5-1 5-1 7 0"/>
    <path fill="#7e804b" d="m136 152 4 3c0 2 0 2-1 4l-3 1-1 6h-2l-1-3h2l-1-5h3z"/>
    <path fill="#656842" d="M116 145h6v3l2-1 1 5h-5l-1-4h-4z"/>
    <path fill="#6e7059" d="m160 121 3 2c3 3 6 3 10 4-3 1-4 2-7 2a168 168 0 0 1-6-2v-4l-2-1z"/>
    <path fill="#727558" d="m169 117 8 1-1 3 3-1v2l-5 2v-3l-5 1z"/>
    <path fill="#969a8e" d="M126 84h3l-1 5 5-2 1 4c-3 1-6 1-9 1 0-3 0-5 1-8"/>
    <path fill="#767646" d="M100 205c0 6 0 6-1 8h-8v-2l3-2v-3c5-1 5-1 6-1"/>
    <path fill="#949565" d="m188 181 1 2h2v2l4 2-4 4-4-2c-1-2-1-2-1-4l-1-2z"/>
    <path fill="#5e6144" d="M153 60h3v4l-4 2h2l1 3h-5v-2h-2v2h-2l1-4h3l1-4h2z"/>
    <path fill="#99986f" d="M146 112h10v2l5-1v3l-3-1c-3-1-3-1-5 1l-2-1-1 3-3-1z"/>
    <path fill="#5d5e3a" d="m197 243 3 1v2l3 1-1 6h-4v-4h-3z"/>
    <path fill="#b2b377" d="m132 238 2 1-1 6-3-1-1 2v-3h-2v2h-4l-1 2 1-6h9z"/>
    <path fill="#928e50" d="M171 191v5l-6 1 1-5c3-1 3-1 5-1"/>
    <path fill="#a3a598" d="M95 178h4l2 4-2 4v-2h-2v-3h-2z"/>
    <path fill="#9d9d89" d="M170 218q3 0 5 1l1 4-6 1a88 88 0 0 1-1-5z"/>
    <path fill="#dfdcc9" d="m153 148 5 1v6l-1-2h-5z"/>
    <path fill="#8e9167" d="m132 131 5 1c0 2 0 2-1 4l-3 1-2-1z"/>
    <path fill="#dcded1" d="M160 76c3 3 3 4 3 8l-8 1v-2h3v-2h2l-1-3z"/>
    <path fill="#656a50" d="m185 265 1 4-2 1h4v2h-5v2h-2l1-7h3z"/>
    <path fill="#818472" d="m192 264 1 2 3-1v2h-4v4c-3-1-3-1-4-2l-1-3z"/>
    <path fill="#b3b5a7" d="m193 226 2 4c-3 2-5 2-9 2l-1 2v-3l2-1v-2l6 1z"/>
    <path fill="#929263" d="M165 165h7v3c0 1 1 3 1 4-4 1-7 1-11 0l-2 1 1-3c2-1 2-1 4-1z"/>
    <path fill="#c8c8b3" d="M186 166h3l-1 3h-2v3h-6c0-2 0-2 2-4h4z"/>
    <path fill="#7b7c48" d="M184 161v2h2v2l-6 1v-2l-4-1c3-1 5-2 8-2"/>
    <path fill="#696b5f" d="m168 150 2 2 2-1-1 7h-4z"/>
    <path fill="#acada5" d="M182 127h4l-1 7h-3z"/>
    <path fill="#b1b4a0" d="m134 101 2 4-3 1 1 2h-3v-2h-3l1-3c3-1 3-1 5-2"/>
    <path fill="#878753" d="M157 243c3 1 5 2 8 3v1l-7 1-2-4z"/>
    <path fill="#aaad9b" d="M198 145h2c1 3 1 4 0 7h-2l-1 4c-3-4-3-4-3-7h3z"/>
    <path fill="#a3a597" d="M104 136h6v9l-4-2c-1-3-1-3-1-5z"/>
    <path fill="#797b49" d="m174 162 2 4-1 1 2 1v2l-6 1 2-1-4-3 2-1-1-3 4 1z"/>
    <path fill="#c5c7bf" d="M134 74h2v4a57 57 0 0 0 7-4l2 5h-4v4h-2v-4l-5 1z"/>
    <path fill="#a09b5e" d="m136 272-3 2-1 3h-2l-1 3-3-1c0-2 0-2 1-5 6-3 6-3 9-2"/>
    <path fill="#6d6f4a" d="m114 189 1 2c4 0 4 0 7-1l-1 5c-7-1-7-1-9-3l-1-1z"/>
    <path fill="#cacba0" d="M136 156v2h-3l1 5-4 1-2-4c2-4 4-4 8-4"/>
    <path fill="#919289" d="M112 115h2l1 2c1 2 1 2 3 3l-1 2h2l1 6-4-1 1-2c-1-1-1-1-4-3-1-4-1-4-1-7"/>
    <path fill="#7e8153" d="M134 238h13l-2 1v5l-2-2-3-1-3-1v2h-2z"/>
    <path fill="#4b4f39" d="m188 219 2 4h3v2l-4 1v-2h-2l-1 2v-2l-1-3-2-1c3-1 3-1 5-1"/>
    <path fill="#7d8059" d="M186 152c5 2 5 2 6 5 0 2 0 2-1 4l-2 1-5-2 2-1 1-3 1 2c0-2-1-4-2-6"/>
    <path fill="#515441" d="M167 106v2h5l-2 2h-4v2l-4-1-1-4c2-1 4-1 6-1"/>
    <path fill="#0a341c" d="m179 275-2 4c-4 1-4 1-7 1 0-2 0-2 1-4 3-2 5-3 8-1"/>
    <path fill="#6f6f2f" d="M91 274h-2v2h5v2h-4v2l-3-1c-1-3-1-3-2-5 2-1 3-1 6 0"/>
    <path fill="#0b321a" d="M163 268c3 3 3 4 3 8l-2-1a111 111 0 0 0-6-2v-2c3-2 3-2 5-3"/>
    <path fill="#0f4525" d="M164 238h2v2h3v2h-2l-1 4-4-2v-4h2z"/>
    <path fill="#82856a" d="M83 234c4 1 4 1 5 2l2-2-1 5c-3 1-4 1-7 0l-1-3 2-1z"/>
    <path fill="#929274" d="m203 267 2 2c2 1 2 1 4 1v3h-4l-1 2-3 1v-3h3z"/>
    <path fill="#666643" d="M200 267a91 91 0 0 1 4 4v2h-3l-1 2-3-1c-1-3-1-3-2-5z"/>
    <path fill="#6d6f4d" d="M142 88h3v3h2l1 4-5 1v-2h-3l1-3 2 1v-2l-2-1z"/>
    <path fill="#d8d8d1" d="M172 203h8l-3 2 1 2h-2l-1 2-6-2v-2h3z"/>
    <path fill="#9e9e99" d="M171 93h2l1 3-2 3 1 3-3 1-3-2h2l-2-4h3z"/>
    <path fill="#8d8e6e" d="M147 263h1v11l-3 1-1-2h-4v-2l5-1z"/>
    <path fill="#67694c" d="m212 242 1 3h2v2l-8 1v-4z"/>
    <path fill="#93966e" d="M149 80c2 2 2 2 3 5h3l-1 3-3 1v5l-4-1v-2l-2-1h3l1-5-3-1 1-3z"/>
    <path fill="#9da26c" d="M98 235h2l1 2 3 1 1 8-3-3-2 1c-2-1-2-1-3-4l-5 1-1-5 1 2h4z"/>
    <path fill="#64644d" d="m160 94 4 2-1 2 3 2-8 3-1-3 2-1-2-2z"/>
    <path fill="#4f5026" d="M154 94v2l1 2 2 1-2 1v3l-4 1c-1-3-1-3 0-6l-2-1c3-3 3-3 5-3"/>
    <path fill="#959975" d="m211 239 1 4-5 1v-2h-4v3l-3 1v-4c4-3 6-3 11-3"/>
    <path fill="#8b8b4e" d="m125 163 2 1-2 3h2v2l3 1-3 1v2l-5-2v-4h2z"/>
    <path fill="#99995c" d="m137 161 4 2c-2 4-2 4-4 5l-1 2c-2-1-2-1-4-3v-2l-2-1h3v2h2v-2c1-2 1-2 2-3"/>
    <path fill="#a7a86a" d="M102 272h9v2h2l-1 3h-5v-2h-5z"/>
    <path fill="#a3a597" d="M104 136h6v9l-4-2c-1-3-1-3-1-5z"/>
    <path fill="#8b8b4e" d="m125 163 2 1-2 3h2v2l3 1-3 1v2l-5-2v-4h2z"/>
    <path d="M112 115h2l1 2c1 2 1 2 3 3l-1 2h2v2h3v3l5-1v2h4v4h-2l-1 2-1-2-2 4 7 1-4 3-4-2v-4l-4 1v-2l-3-1v-2l3-1-4-2 1-2c-1-1-1-1-4-3-1-4-1-4-1-7" fill="#8d8f70"/>
    <path d="m133 246 1 2c1 2 1 2 4 3v3h2l-1 4 7 1 1 4-3 1v-2l-11 2v-2l2-1-4-1 1-9-4 2-1-4 3-2 1 2z" fill="#6f743e"/>
    <path d="M202 236v2h-2v4l3-2c3-1 5-2 8-2l1 4-5 1v-2h-4v3c-3 1-3 1-6 1l-2 3h3l-1 2c-3-1-3-1-7-2l-2-6 2-2c2 0 2 0 4 1h4l-1-2h-4c3-2 5-4 9-4" fill="#74754b"/>
    <path d="m181 268 2 1c-3 7-6 10-12 13l-1 3-1-4-4-1 1-2 3 1-1-4c3-3 4-3 8-3v-2c3-2 3-2 5-2" fill="#4f5835"/>
    <path d="M100 205c1 1 3 2 4 3l2 2c2 2 2 2 2 5v1l-3-1-1 5-2-1v-2h-4v2h-2v-2l-3-1v-2h-4v-4l4-1v2h-2v2l2-1c3 0 3 0 6 1z" fill="#aeb67a"/>
    <path d="M81 200h6l2 4 3-2 1 3 1-4 2 5 4-1c0 6 0 6-1 8h-8v-2h2v-2l-6 1-1-6h-3v-2h-2z" fill="#8b8b71"/>
    <path d="m113 210 2 1c3 1 3 1 5 0l2-1v2h3v4h-6l1 7h3l1 3h-2v-2h-2l1 7h-2l-2-7 1-1h-3v-2l-2-1 2-1c-2-3-2-3-6-5v-2h4z" fill="#7f8e56"/>
    <path d="m159 124 2 2 3 1a100 100 0 0 1 4 3l-1 3h-4l-1 2-3-2v2l3 1c-3 1-6 1-9 0v5c-2-4-2-6 0-10l2-2 1 3-1 2 5-3-2-1v-4zm2 17 1 2 3 2c-6 2-6 2-9 2l-1 2h-2l-1 7h-4v-2h-3l-1 3-2-2v-3l7-1v-3l-4-1v-2l6-2 3 2h4v-2z" fill="#6f743e"/>
    <path d="M182 127h5l-1 7-3 1v2l-2 1-1 2h-5l-2-10h6l2-1z" fill="#757864"/>
    <path d="M165 217c4 0 7 1 10 2l1 4h-5v2l-1 2c-3 1-5 1-8 1-2-3-2-3-2-6l1-2h3z" fill="#6b6b4f"/>
    <path d="m134 101 1 2h2v2l2 1c3 1 4 3 6 5 0 3 0 3-1 6l-2-4 1-2-5 1-1 4c-3-5-3-5-3-7l-3-1v-2h-3l1-3c3-1 3-1 5-2" fill="#8f9a7a"/>
    <path d="M168 78h2l-1 2c0 2 0 4 1 6v2l-3 2c-3 2-3 2-3 6l-2-1c-3-1-3-1-6 2l-1-3 4-5-1-3-2-1 4-1v2l4 1v-3h2v-2c1-3 1-3 2-4" fill="#7c8272"/>
    <path d="M127 189c3 1 3 1 5 2v2l4-2v2h2l1-4v2l3 1h-2l-1 3h-2c-3 0-3 0-5 3l-2 3c-3-1-3-1-7-3-1-2-1-2-1-4l5-1-2-1v-2z" fill="#585932"/>
    <path d="m205 211 6 1v2h-2l-1 3-2 6-10 1-2-4 2-3h4l3-1c1-3 1-3 2-5" fill="#8a8d6e"/>
    <path d="M160 191h5v4l1-3 5-1v5l-3 1 1 2-1 2h-3l-1 2c-3 0-3 0-5-1a78 78 0 0 1-2-5l2-1c2-2 2-2 2-5" fill="#7f8e56"/>
    <path d="M134 170v3h-2l1 7h-3l3 1 1 6-4-2v3h2l-1 3-4-2 1-6-3-2h2v-2l1-1-6-1-1-4 3 1c3 1 3 1 6 1v-3c2-1 2-1 4-1" fill="#9fac6d"/>
    <path d="M134 238h13l-2 1 1 6-4 2v4l-2 1 3 1v2l-5-1v-3l-4-1v-4h3l2-2 1 3 2-5-5-2v2h-2z" fill="#7f8e56"/>
    <path d="M149 214c1 3 1 6 1 10h2l2-2c1 2 1 3 0 6l5-1-1 3h-4c0 2 0 2 1 5l2 1v2l2 1h-3l-4 2-2-2c0-4 1-6 2-9l-2-1a140 140 0 0 1-1-4l-2-3a98 98 0 0 1 0-7z" fill="#4f5835"/>
    <path d="M183 241c3 3 5 5 6 9l-2 1v-2h-2v4l2 1v2c-7 1-7 1-10 0v2l-6-1 1-2h3l2-2v2h6v-2l-6-1v-2h2v-2l2-1a101 101 0 0 0 2-6" fill="#5f6e45"/>
    <path d="M120 187h5l2 3h-2v2l3 1-2 1c-2 1-3 3-4 5h-2l-1-4-3-1-4-1-1-3 9-1z" fill="#9e9f75"/>
    <path d="m186 154 4 4-5 2c3 1 3 1 6 0l2 1v2h-6l2 5-3 1v3h-6v-2l2-1-1-3 5-1v-2l-6-1v-5l2-1z" fill="#a1a280"/>
    <path d="M155 253c2 3 2 5 2 9h-3v8l3 1-1 3-5-1v-2h-2l-1 3c-1-2-1-2-1-4l2-2 2 1-1-12h3v-2h2z" fill="#5f6e45"/>
    <path d="m120 249 1 2h3v3l2 1 1 3h4v2h7c-3 2-3 2-5 2l-1 2v-3l-5 1v-2h-2v-4l-2 1c-2 0-4 0-6-1v-2h-2v-2h-4v-2c3-1 6-1 9-1" fill="#8f9a7a"/>
    <path d="M132 238h2l1 4h2v-2c2 0 2 0 4 1 1 3 1 3 0 5l-1 2-2-2-2 3v-3l-6-2-1 2v-3h-2v2h-4l-1 2 1-6h9z" fill="#a6a86d"/>
    <path d="M146 112h10v2l5-1v3h-6v7c-2-1-4-1-6-2v-2l-3-1z" fill="#8f9a7a"/>
    <path d="M137 212h6v3l1-2c3-1 3-1 6-1l-1 3h-2v5h-4v-2l-3 1c-3 1-6 1-9 1v-4l5 1z" fill="#7f8e56"/>
    <path d="M140 218h3v2h4l1 4-4 1-1-3h-3l-1 3q-2 1-4 1l-2 3-3-1 3-6-2-1 1-2h3c3 0 3 0 5-1" fill="#5f6e45"/>
    <path d="m130 203 1 3a117 117 0 0 1-4 5v2l2 1v-4c2 0 2 0 4 1l1 3 2 1-1-3h2v6l-12-3v-3l-5 1-1-6h2v2h2l1-2h4z" fill="#aeb67a"/>
    <path d="m102 152 6 1v4l5-1-1 5h-2v5l-3-1-1-6-5-1z" fill="#9a9a87"/>
    <path d="m160 89-3 6c2 0 2 0 4-1l3 2-1 2 3 2-8 3-1-3 2-1-4-1-1-5h-2c0-2 0-2 1-4 3-1 4-1 7 0" fill="#7c805c"/>
    <path d="M104 136h6v5h2v2h3v-3h2v2l4-1-1 3 2 1h-3l-3 1-1 2h-2l-3-3-2-1c-2-1-2-1-3-3v-3z" fill="#878b6c"/>
    <path d="m180 217 2 1-2 4 3-2c3-1 3-1 5-1l2 4h3v2l-4 1v-2h-2v2l-6 1 1-3c-3 1-5 2-7 4l2-6h2z" fill="#4c4d37"/>
    <path d="M100 270c2 2 2 2 2 5l3-1 2 1v2l4 1-2 1-2 1-2 1c-2 1-2 1-4 4l4 1-2 1-2-1-1 2v-2c0-2 0-2-3-4v-1l-2-1 6-3z" fill="#7f8e56"/>
    <path d="M147 263h1v11l-10 2-1 6h-2v-3l-3-1h2v-4l3-1 2 1v-4h6z" fill="#9ca06a"/>
    <path d="M152 185c6 0 6 0 8 1-1 6-1 6-1 8-3 2-6 0-9-1l1 4-4-3 1-2h4z" fill="#aeb67a"/>
    <path d="M124 246c2 2 3 4 4 6l4-1v7l-5 1v-2l-1-2-3-1v-2l-3-1-1-3h5zm56 29 1 4 2-4h7v2h-5v2l4 1h-3l-3 1-1 2h-9v-2l-2-1 3-1c4-1 4-1 6-4" fill="#6f743e"/>
    <path d="M155 163v8l3 1h-2l-1 6-1-2h-7v-3l6-1-5-1v-2h4l-2-4z" fill="#aeb67a"/>
    <path d="M142 249c2 0 2 0 5 1l2 4h-2l1 4h-3v2c-6-1-6-1-8-3h3v-2h3v-2l-4-1 3-1z" fill="#5f6e45"/>
    <path d="m178 188 1 3h2l1-2v2l2-1h2l2 2c-2 3-2 3-4 4-3 0-6 1-10 0l-2-2 3-1v-4z" fill="#7f8e56"/>
    <path d="m172 241 3 1v3h2l1-2c3-1 3-1 5-1l-2 6h-2v2l-6 1c-2-3-2-4-2-7z" fill="#8f9a7a"/>
    <path d="M170 145v2l-6 2 2 1v4c-6-1-6-1-9-2-1-2-1-2-1-5 9-4 9-4 14-2" fill="#8a8a70"/>
    <path d="M89 233h2l1 2 2 4q2 1 4 1c-2 2-2 2-4 2-3 0-6-1-9-2l-3-1-1-3c2-1 2-1 5-2l2 2z" fill="#adae8a"/>
    <path d="m157 98 3 1-3 1 1 3-2 4 4 1v2h-3c-4-1-4-1-8 0-2-3-2-3-3-5l7 1 1-3c1-4 1-4 3-5" fill="#b0b089"/>
    <path d="M155 58h4l-1 3c0 2 0 2-1 5l2 1-1 3c-5 1-5 1-7 0l-1 3-1-3-3 1-1-2h2v-2h2v2l4-1h-3l2-4h3z" fill="#94977d"/>
    <path d="m73 269 6 1v5l-2-1v2l5-1 2 6-9-1v-2l-3-2 2-1-3-3 2-1z" fill="#969971"/>
    <path d="m164 253 3 1-2 3h2v-2h4l-1 4-5 1v2h-2v-4c-2 0-2 0-4 1l-2 3-2-4c3-3 5-3 9-3z" fill="#6f743e"/>
    <path d="M205 173h5v4h-2v2h-2c-2 1-2 1-3 3l-1 2-4-2 1-6 6-1z" fill="#979787"/>
    <path d="M84 276c3 1 4 2 6 4v-2c4 0 5 0 8 2v2q0 2 1 4l-5-1-1-4-7 2c-2-6-2-6-2-7" fill="#aeb67a"/>
    <path d="M154 275h3l2 5-1 1 5 1-1 2c-2 0-2 0-5 1h-5v-2h-2l1-5h3z" fill="#8f9a7a"/>
    <path d="M164 178h5l-1 5-6-1v3c4 0 4 0 7-1l-1 6h-5v-2l-3-1v-5l3-1z" fill="#9fac6d"/>
    <path d="m180 105 4 2c0 2 0 2-1 5l-4 2v3l-5 1-2-5h2l1-3 3 1-1-3h2z" fill="#9d9f98"/>
    <path d="M97 267h1v5h2c1 2 1 2 1 4-2 2-2 2-5 2h-2v-2l-3 1-2-1c0-2 0-2 1-4 2-1 2-1 5-1l2 1z" fill="#96965d"/>
    <path d="m148 275 3 1c3 1 4 2 5 4l-5-1-1 5-3-1h2v-2h-2l-3-3-1 3-4-1v-3c3-2 5-2 9-1" fill="#4f5835"/>
    <path d="m135 197 5 1v4l4 1-1 3c-5 0-5 0-8-1-2-3-1-5 0-8" fill="#636334"/>
    <path d="m144 196 1 3h3c4-1 4-1 6-1v3h2v6l-1-3-6-1v-2l-4-1 1 3-5-2v-2h2z" fill="#aeb67a"/>
    <path d="m212 263 4 1-2 4-4-1-1 6h-4l-1 2-3 1v-3h3l-1-6 1 2 4-2v-2h3z" fill="#696d50"/>
    <path d="M138 134c2 0 2 0 5 1l2 4 4 2v4c-5-2-5-2-7-3v-2l-5-1-1 2-1-4h4l1-2z" fill="#aeb67a"/>
    <path d="M165 165h7v3c0 1 1 3 1 4-4 1-7 1-11 0l-2 1 1-3c2-1 2-1 4-1z" fill="#929263"/>
    <path d="m133 246 1 2c1 2 1 2 4 3v3h2v2l-8-1v-4l-4 2-1-4 3-2 1 2z" fill="#aeb67a"/>
    <path d="m150 214 12 2c-4 2-5 2-9 2v7l-3-1c-1-4-1-6 0-10" fill="#6f743e"/>
    <path d="m153 148 5 1v8l-2-1v-2h-2l-1 3c-4 1-5 1-8-1v-2h3v2h4l-1-3c1-3 1-3 2-5" fill="#036349"/>
    <path d="M190 239q-7.5 4.5-15 6l-1-2c-1-2-1-2-5-3h-3v-1h6c3 0 6 0 9-1s5-1 8 0" fill="#aeb67a"/>
    <path d="M162 171c3 0 3 0 5 2l1 1-1 3h-3v2l-10 1 1-4 6-1v2h2l-2-5z" fill="#4f5835"/>
    <path d="M149 80c2 2 2 2 3 5h3l-1 3-3 1v5l-4-1v-2l-2-1h3l1-5-3-1 1-3z" fill="#93966e"/>
    <path d="M98 235h2l1 2 3 1 1 8-3-3-2 1c-2-1-2-1-3-4l-5 1 1-5 1 2h4z" fill="#9da26c"/>
    <path d="M118 215h13c-1 3-1 3-3 4l-2 1-2 1c-3 0-3 0-6-1z" fill="#7f8e56"/>
    <path d="M137 79h2v4l3-1 1 2c1 2 1 2 4 4l-5 1 1 3 2 1c-6-1-6-1-8-3l-1-1h4l-2-2c-2-3-2-5-2-8" fill="#71735f"/>
    <path d="M170 197h5l1 2h-2v4h-2l1 3-7-1v2c-2 1-2 1-5 1l-3-2h4l1-2q3-1 6-1l2-2c0-2 0-2-1-4" fill="#7f8e56"/>
    <path d="M136 100h10l-2 1 1 2v2l-2 2c-2 0-4-1-6-2v-2h-2z" fill="#6c7150"/>
    <path d="m166 266 9 2h3v-2h2l-2 4h-2v2l-7 2v-3a88 88 0 0 0-3-5" fill="#4f5644"/>
    <path d="M145 176h9v1h-3l-4 1-1 2h-4l1 3h-2l1 4c-2 1-2 1-4 1-2-1-2-1-3-3h2l2-1 1-2-5 1 1-2h2v-2h7z" fill="#7f8e56"/>
    <path d="M144 67v2c0 2 1 3 2 5l6 2v1l-8 1-1-3-3-1 1-4h-2v-2c3-1 3-1 5-1" fill="#989a85"/>
    <path d="M218 237h2c1 7 1 7 0 9h-3l-1 2-2-1 1-2h-2v-5h2l2-1z" fill="#8e9075"/>
    <path d="m118 282 2 1-2 3h2v-2h6l2 5-5-1v-2h-2c-5 1-9 2-14 1 1-2 1-2 3-3h3v2h2v-2z" fill="#9fac6d"/>
    <path d="m146 241 5 1-4 5 2 3 3-3v5l-4 1-1-3-5-1v-2l3-3z" fill="#8f9a7a"/>
    <path d="m153 240 7 2-3 2 1 2 2 4-1 2c-2 0-2 0-5 1h-5a91 91 0 0 1 4-4h2v-7l-3-1z" fill="#aeb67a"/>
    <path d="M153 123h7l-2 3h-2v4l3 1c-4 3-4 3-6 3l-1-5h-2v-2h3zm8 71 1 2c2 2 2 2 5 2h2l-1 3h-3l-1 2c-3 0-3 0-5-1a78 78 0 0 1-2-5z" fill="#9fac6d"/>
    <path d="m129 116 6 2 1 3 2 1 1-3c2 3 2 4 2 8-2-1-4-2-6-4l-2-1c-2-1-2-1-4-3z" fill="#9d9e94"/>
    <path d="M148 70h2l1 2 1-2h7l-1 3h-4v5c-3-1-3-1-6-3l-1-3z" fill="#686b40"/>
    <path d="M200 274c-2 2-3 2-6 3l2 1v2h-3v2c-8 1-8 1-11 1l1-2c3-1 5-1 8-1v-5c3-2 5-2 9-1m-29-90c2 1 5 1 7 2l1 2-2 2-2-1 1 6-4-1-2-7 1-1z" fill="#8f9a7a"/>
    <path d="m148 224 3 3-1 2 3 1-1 4h-2l-2 4v-2l-3-1v-2l2-1c0-2 0-2 1-4z" fill="#5f6e45"/>
    <path d="M163 179v2l-2 2c-1 2-1 2-1 4l-6-2c1-2 1-4 2-6 4-1 4-1 7 0m8 103h11l-3 5-1-3h-3v2h2l-1 2h-4v-2l-5-1 3-1z" fill="#8f9a7a"/>
    <path d="m109 278 2 1-1 2-2-1 1 4-3-1v3l-6-2 1-5 1 2 2-2c3-1 3-1 5-1" fill="#036349"/>
    <path d="M183 241c3 3 5 5 6 9l-2 1v-2h-2v2l-4 1v-3l-2-1 2-1a101 101 0 0 0 2-6" fill="#6f743e"/>
    <path d="m130 239 1 2c-5 1-5 1-7 0l-3 5-2-3-1 2-1-3h2v-2c4-3 6-2 11-1" fill="#6c6e34"/>
    <path d="M131 176c7 0 7 0 10 2l-1 2-2-1v2l-5 2v-2h-5l2-1 1-2 1 1 1-2z" fill="#7f8e56"/>
    <path d="M161 113h2c-1 5-2 8-7 11l-2-1 1-7c4-1 4-1 6 0z" fill="#5f6e45"/>
    <path d="m205 211 6 1v2h-2l-1 3c-1 3-1 3-2 5l-4-2v-3h2z" fill="#999c8b"/>
    <path d="M100 205c0 6 0 6-1 8h-8v-2l3-2v-3c5-1 5-1 6-1" fill="#767646"/>
    <path d="m188 181 1 2h2v2l4 2-4 4-4-2c-1-2-1-2-1-4l-1-2z" fill="#949565"/>
    <path d="M150 183c2 0 2 0 4 1l-2 1v7h-4l-1 3-2-1 2-3q1-3 2-7z" fill="#6f743e"/>
    <path d="M153 60h3v4l-4 2h2l1 3h-5v-2h-2v2h-2l1-4h3l1-4h2z" fill="#5e6144"/>
    <path d="M128 272h3l-1 2h-3c0 4 0 4 1 7l-1 2h-2v-3h-4v-2h3v-2c0-4 0-4 4-4m33-44 3 1v2l4-1c3-1 6-1 9-1l-3 1 1 3-5-2-1 3c-1 0-3-1-4-1h-2l-3-1-1-3z" fill="#6f743e"/>
    <path d="m159 215 7 1-1 5-10-1v2h-2v-4l6-1zm-14-51h3l-1 8c-3 1-6 1-9 0v-2h2l3-1c1-2 1-2 2-5" fill="#036349"/>
    <path d="m152 129 2 1-1 4 6-1v2l3 1c-3 1-6 1-9 0v5c-2-4-2-6-2-10z" fill="#6f743e"/>
    <path d="M146 112h10v2l5-1v3l-3-1c-3-1-3-1-5 1l-2-1-1 3-3-1z" fill="#99986f"/>
    <path d="m197 243 3 1v2l3 1-1 6h-4v-4h-3z" fill="#5d5e3a"/>
    <path d="m132 238 2 1-1 6-3-1-1 2v-3h-2v2h-4l-1 2 1-6h9z" fill="#b2b377"/>
    <path d="M127 235h2v2l6-1 1 2h-4l-1 3-3-1c-4-1-6-1-9 0l1-3c5-1 5-1 7 0z" fill="#9a9d79"/>
    <path d="m150 193 2 1v2h3l3 6-2 2v-3h-2v-3l-3 1h-6v-3c4-1 4-1 5-1z" fill="#7f8e56"/>
    <path d="m147 97 1 2h2v2c0 2 0 2 3 4-3 1-3 1-5 1-2 2-2 2-3 4v-2l-4-1 7-6z" fill="#7a7b57"/>
    <path d="M177 256h13l-1 3-5 1v-2h-5l3 1v2c-5-1-5-1-7-3h2z" fill="#9fac6d"/>
    <path d="M196 235h2c-1 3-1 3-4 5l5-1c-1 3-1 3-3 4l-2 3-1-4h-5v-2h2v-3h6z" fill="#52523a"/>
    <path d="m135 205 7 2v2h2l2-3h2v2h-2l-1 3-8 1v-2c0-2 0-2-2-3z" fill="#9f9c6d"/>
    <path d="M159 189h1l1 6h-2c-1 2-1 2-1 4l2 3-4-2c-1-2-1-2-1-4h-3l-1-3 7 1z" fill="#9fac6d"/>
    <path d="m169 128 3 2-3 1-2 6 2 1c-7-1-7-1-10-3v-2h3l2-1h3z" fill="#c7c7be"/>
    <path d="M178 228h8v2h-2v2l-9 1-1-3 4 1z" fill="#aeb67a"/>
    <path d="M128 181h5l1 6-4-2v3h2l-1 3-4-2z" fill="#036349"/>
    <path d="m160 94 4 2-1 2 3 2-8 3-1-3 2-1-2-2z" fill="#64644d"/>
    <path d="M154 94v2l1 2 2 1-2 1v3l-4 1c-1-3-1-3 0-6l-2-1c3-3 3-3 5-3" fill="#4f5026"/>
    <path d="m211 239 1 4-5 1v-2h-4v3l-3 1v-4c4-3 6-3 11-3" fill="#959975"/>
    <path d="m152 210 1 4h-3v-2h-2l-1 2a101 101 0 0 1-6 2l1-3-3-2c4-1 9-1 13-1" fill="#5f6e45"/>
    <path d="m125 163 2 1-2 3h2v2l3 1-3 1v2l-5-2v-4h2z" fill="#8b8b4e"/>
    <path d="m137 161 4 2c-2 4-2 4-4 5l-1 2c-2-1-2-1-4-3v-2l-2-1h3v2h2v-2c1-2 1-2 2-3" fill="#99995c"/>
    <path d="m161 141 1 2 3 2c-6 2-6 2-9 2l-1 2-4-2c2-2 2-2 5-2h2v-2z" fill="#5f6e45"/>
    <path d="M102 272h9v2h2l-1 3h-5v-2h-5z" fill="#a7a86a"/>
    <path d="M200 267a91 91 0 0 1 4 4v2h-3l-1 2-3-1c-1-3-1-3-2-5z" fill="#666643"/>
    <path d="m108 247 5 1v2h-2v2h4v2h-6l-1-2-4-2 3-1z" fill="#aeb67a"/>
    <path d="M152 231a141 141 0 0 1 5 5v2l2 1h-3l-4 2-2-2c0-4 0-5 2-8" fill="#03301c"/>
    <path d="M129 194a101 101 0 0 1 2 6l-2 1c-3-1-3-1-6-3-1-2-1-2-1-4 5-1 5-1 7 0" fill="#70704d"/>
    <path d="m136 152 4 3c0 2 0 2-1 4l-3 1-1 6h-2l-1-3h2l-1-5h3z" fill="#7e804b"/>
    <path d="M116 145h6v3l2-1 1 5h-5l-1-4h-4z" fill="#656842"/>
    <path d="m160 121 3 2c3 3 6 3 10 4-3 1-4 2-7 2a168 168 0 0 1-6-2v-4l-2-1z" fill="#6e7059"/>
    <path d="m169 117 8 1-1 3 3-1v2l-5 2v-3l-5 1z" fill="#727558"/>
    <path d="M126 84h3l-1 5 5-2 1 4c-3 1-6 1-9 1 0-3 0-5 1-8" fill="#969a8e"/>
    <path d="M129 279h2l-3 9-1-2c-3-1-3-1-5-1l-1-4 4-1v3h2zm40-36c4 5 4 5 4 7l2 1-1 3v-2l-2 1c-2 0-2 0-5-2z" fill="#8f9a7a"/>
    <path d="m138 213 4 5c-4 2-7 2-11 2v-4l5 1z" fill="#6f743e"/>
    <path d="M99 200h4v3l2 1h-2l-1 2v-2l-3 2h-3l-2-5 5 1z" fill="#036349"/>
    <path d="m174 162 2 4-1 1 2 1v2l-6 1 2-1-4-3 2-1-1-3 4 1z" fill="#797b49"/>
    <path d="M131 96h3l-1 3 2-1c3 0 4 0 6 2-2 0-3 0-5 1h-3c-3 0-4-1-7-3 2-2 2-2 5-2" fill="#6a6d4e"/>
    <path d="M134 74h2v4a57 57 0 0 0 7-4l2 5h-4v4h-2v-4l-5 1z" fill="#c5c7bf"/>
    <path d="m136 272-3 2-1 3h-2l-1 3-3-1c0-2 0-2 1-5 6-3 6-3 9-2" fill="#a09b5e"/>
    <path d="M160 249h2l1 4c-3 1-5 1-8 0v2h-2v2h-2v-3l-2-1 10-1z" fill="#8f9a7a"/>
    <path d="M129 210c2 0 2 0 4 1l1 3 2 1-1-3h2v6l-8-3z" fill="#aeb67a"/>
    <path d="m114 189 1 2c4 0 4 0 7-1l-1 5c-7-1-7-1-9-3l-1-1z" fill="#6d6f4a"/>
    <path d="m156 172-1 6-1-2h-7v-3c6-2 6-2 9-1" fill="#036349"/>
    <path d="M136 156v2h-3l1 5-4 1-2-4c2-4 4-4 8-4" fill="#cacba0"/>
    <path d="M112 115h2l1 2c1 2 1 2 3 3l-1 2h2l1 6-4-1 1-2c-1-1-1-1-4-3-1-4-1-4-1-7" fill="#919289"/>
    <path d="m162 115 1 2h3v5c-3 1-4 1-6 0l-2-1 3-1z" fill="#036349"/>
    <path d="M134 238h13l-2 1v5l-2-2-3-1-3-1v2h-2z" fill="#7e8153"/>
    <path d="m182 224 1 2 2 2-6 1-1 3-1-3h-3c2-4 3-5 8-5" fill="#5f6e45"/>
    <path d="M115 221v2l4-1v2h-2v5l-3-1v-2l-2-1-2-1v-2c2-1 2-1 5-1" fill="#036349"/>
    <path d="M147 177h7v3l-2 2h-6z" fill="#7f8e56"/>
    <path d="m113 156-1 5h-2v5l-3-1c-1-2-1-2-1-4h3l-1-4c3-1 3-1 5-1" fill="#aaaa86"/>
    <path d="m118 220 2 1v2h3l1 3h-2v-2h-2l1 7h-2l-2-7 1-1-3-1z" fill="#8f9a7a"/>
    <path d="m188 219 2 4h3v2l-4 1v-2h-2l-1 2v-2l-1-3-2-1c3-1 3-1 5-1" fill="#4b4f39"/>
    <path d="m113 210 4 2c-1 3-1 4-3 6l-2-3-3-1v-2h4z" fill="#7f8e56"/>
    <path d="M186 152c5 2 5 2 6 5 0 2 0 2-1 4l-2 1-5-2 2-1 1-3 1 2c0-2-1-4-2-6" fill="#7d8059"/>
    <path d="M167 106v2h5l-2 2h-4v2l-4-1-1-4c2-1 4-1 6-1" fill="#515441"/>
    <path d="m179 275-2 4c-4 1-4 1-7 1 0-2 0-2 1-4 3-2 5-3 8-1" fill="#0a341c"/>
    <path d="m80 275 3 1 1 5-9-1v-2l-3-2h3c3 0 3 0 5-1" fill="#aeb67a"/>
    <path d="M91 274h-2v2h5v2h-4v2l-3-1c-1-3-1-3-2-5 2-1 3-1 6 0" fill="#6f6f2f"/>
    <path d="M163 268c3 3 3 4 3 8l-2-1a111 111 0 0 0-6-2v-2c3-2 3-2 5-3" fill="#0b321a"/>
    <path d="M164 238h2v2h3v2h-2l-1 4-4-2v-4h2z" fill="#0f4525"/>
    <path d="M83 234c4 1 4 1 5 2l2-2-1 5c-3 1-4 1-7 0l-1-3 2-1z" fill="#82856a"/>
    <path d="M198 145h2c1 3 1 4 0 7h-2l-1 4c-3-4-3-4-3-7h3z" fill="#aaad9b"/>
    <path d="M104 136h6v9l-4-2c-1-3-1-3-1-5z" fill="#a3a597"/>
    <path d="m155 138 3 1v2l5-1v3l2 1-2-1c-2-1-2-1-5-1v2l-2-1 1-2h-3z" fill="#036349"/>
    <path d="m162 127 5 2v4c-5-1-5-1-7-2z" fill="#5f6e45"/>
    <path d="M142 88h3v3h2l1 4-5 1v-2h-3l1-3 2 1v-2l-2-1z" fill="#6d6f4d"/>
    <path d="m165 248 3 1v2l3 2v2h-4v2h-2v-6l-2-1h2zm-35-26v3l-6 2v-2l-1-2-2-1c3-1 5-1 9 0" fill="#6f743e"/>
    <path d="M172 203h8l-3 2 1 2h-2l-1 2-6-2v-2h3z" fill="#d8d8d1"/>
    <path d="M136 172h4v2l1 2 2 1v2c-5-2-5-2-7-3l-1 2v-2l-3-1h3zm14-29 2 1c1 2 1 2 1 5l-2 2-2-1v-2l-4-1v-2c2-1 2-1 5-2" fill="#5f6e45"/>
    <path d="M171 93h2l1 3-2 3 1 3-3 1-3-2h2l-2-4h3z" fill="#9e9e99"/>
    <path d="M131 283h2v2l8-1v3l-4 1v-2h-8l-1 2 1-4 2 1z" fill="#036349"/>
    <path d="M147 263h1v11l-3 1-1-2h-4v-2l5-1z" fill="#8d8e6e"/>
    <path d="M124 246c2 2 3 3 3 6l-2 2c-5-3-5-3-6-6h5z" fill="#6f743e"/>
    <path d="m212 242 1 3h2v2l-8 1v-4z" fill="#67694c"/>
    <path d="m112 214 4 5c-3 2-3 2-5 2l-2-1 1-2-2-1c1-2 1-2 4-3" fill="#aeb67a"/>
    <path d="m108 211 2 1v8l-3 1v-2l-3 1 1-5h2z" fill="#8f9a7a"/>
    <path d="M164 178h5l-1 5-6-1-1 3-1-3 3-1z" fill="#aeb67a"/>
    <path d="m141 159 1 2h6v3l-9 2z" fill="#8f9a7a"/>
    <path d="M140 140h2v2l5 2-2 2c-2 0-2 0-5-1l-2-1h-2l4-1z" fill="#6f743e"/>
    <path d="m174 110 2 1 1 3 2 1v2l-5 1-2-5h2z" fill="#93957f"/>
    <path d="M137 111h6l-1 8h-2c-3-7-3-7-3-8" fill="#7f8e56"/>
    <path d="M168 78h2l-1 2c0 2 0 4 1 6l-1 2h-5l1-4h2v-2c0-3 0-3 1-4" fill="#a6a7a1"/>
    <path d="m108 280 6 1c-1 3-1 3-3 5h-5v-3l2-1z" fill="#8f9a7a"/>
    <path d="m203 267 2 2c2 1 2 1 4 1v3h-4l-1 2-3 1v-3h3z" fill="#929274"/>
    <path d="m116 254 1 2 2-1c3 0 3 0 6 1v6l-4 2 3-5-8-2z" fill="#036349"/>
    <path d="m171 225 2 1v2h-2v2l-7 1v-2l-2-1h2l2-1 2-1c2 0 2 0 3-1" fill="#4f5835"/>
    <path d="m179 197 4 1v3h2v3l-3 1c-2-1-2-1-3-3v-2l-2-1h2zm-21-35a85 85 0 0 1 7 2v5l-6 2 1-3h4v-2h-4z" fill="#8f9a7a"/>
    <path d="m104 274 3 1v2l4 1-9 3-1-4 3 1-1-3z" fill="#6f743e"/>
    <path d="m111 239 1 3h-2l-1 5h-3v-6z" fill="#a1a66b"/>
    <path d="M170 218q3 0 5 1l1 4-6 1a88 88 0 0 1-1-5z" fill="#9d9d89"/>
    <path d="m176 197 3 2v3h5v1h-10v-4h2zm-34-33h3l-2 6c-5-1-5-1-7-3l6-1z" fill="#5f6e45"/>
    <path d="m153 148 5 1v6l-1-2h-5z" fill="#dfdcc9"/>
    <path d="m132 131 5 1c0 2 0 2-1 4l-3 1-2-1z" fill="#8e9167"/>
    <path d="M160 76c3 3 3 4 3 8l-8 1v-2h3v-2h2l-1-3z" fill="#dcded1"/>
    <path d="m185 265 1 4-2 1h4v2h-5v2h-2l1-7h3z" fill="#656a50"/>
    <path d="m192 264 1 2 3-1v2h-4v4c-3-1-3-1-4-2l-1-3z" fill="#818472"/>
    <path d="M167 255h4c0 2 0 2-1 4l-6 2v-4h3zm-4-22-2 2 1 3h-5v-2l-3-1c3-2 5-2 9-2" fill="#8f9a7a"/>
    <path d="m193 226 2 4c-3 2-5 2-9 2l-1 2v-3l2-1v-2l6 1z" fill="#b3b5a7"/>
    <path d="M149 214c1 3 1 6 1 10l2 1h-3c-2-4-2-6-2-10z" fill="#5f6e45"/>
    <path d="M195 189h3v2a264 264 0 0 1-5 3l-1 2-4-2 1-3h6z" fill="#9fac6d"/>
    <path d="M140 172h5v7h-2v-2l-3-1z" fill="#7f8e56"/>
    <path d="M186 166h3l-1 3h-2v3h-6c0-2 0-2 2-4h4z" fill="#c8c8b3"/>
    <path d="M184 161v2h2v2l-6 1v-2l-4-1c3-1 5-2 8-2" fill="#7b7c48"/>
    <path d="m168 150 2 2 2-1-1 7h-4z" fill="#696b5f"/>
    <path d="M182 127h4l-1 7h-3z" fill="#acada5"/>
    <path d="m134 101 2 4-3 1 1 2h-3v-2h-3l1-3c3-1 3-1 5-2" fill="#b1b4a0"/>
    <path d="M150 258h1v11l-3-1-1-6h3z" fill="#6f743e"/>
    <path d="M157 243c3 1 5 2 8 3v1l-7 1-2-4z" fill="#878753"/>
    <path d="m143 203 4 1-2 5h-4v-3h2z" fill="#8f9a7a"/>
    <path d="M171 191v5l-6 1 1-5c3-1 3-1 5-1" fill="#928e50"/>
    <path d="M136 181h5l1 6c-2 1-2 1-4 1-2-1-2-1-3-3h2l2-1 1-2-5 1z" fill="#9fac6d"/>
    <path d="M95 178h4l2 4-2 4v-2h-2v-3h-2z" fill="#a3a598"/>
    <path d="M162 171c3 0 3 0 5 2l1 1-1 3c-2 0-2 0-4-1l-2-4z" fill="#5f6e45"/>
    <path d="M157 170c3 1 4 2 6 5v2h-2v-2l-5 1z" fill="#7f8e56"/>
    <path d="m113 162 4 2v2l-7 1c0-2 0-2 1-4z" fill="#6f743e"/>
    <path d="M158 155c2 1 2 1 3 2 2 0 2 0 4-1l-1 6-6-2z" fill="#81814f"/>
    <path d="M153 136h5l-1 1c-2 2-2 2-3 5h3l-1 3-3 1z" fill="#aeb67a"/>
    <path d="M147 107c2 1 2 1 3 3l-1 2h-3l-1 3v-2c0-2-1-3-2-5 2-1 2-1 4-1" fill="#5f6e45"/>
    <path d="M161 72c0 2 0 2-2 4s-2 2-5 2v-5c2-1 4-1 7-1" fill="#919576"/>
    <path d="M152 265h2v5l3 1-1 3-5-1z" fill="#072417"/>
    <path d="m217 256 3 1-3 6-4-2 1-3h3z" fill="#6e706a"/>
    <path d="M98 235h2v6l-3-1c-3-1-3-1-5 1l1-5 1 2h4z" fill="#787956"/>
    <path d="M140 222h3l1 4-6 2c1-2 1-4 2-6" fill="#aeb67a"/>
    <path d="M100 204h5v4l4 1-1 2c-3-1-6-3-8-6z" fill="#8f9a7a"/>
    <path d="M143 157v2h-2v3c-3 1-3 1-6 1 0-2 0-2 1-4 2-1 4-2 7-2" fill="#c5c69c"/>
    <path d="M141 156h3v2h5v3h-7l1-4z" fill="#aeb67a"/>
    <path d="M155 158h2l1 11-3-3v-2h-2v-2h2z" fill="#8f9a7a"/>
    <path d="M170 145v2c-3 1-4 1-7 1h-2l-2-1v-1c4-2 7-2 11-1" fill="#797a6a"/>
    <path d="M147 119h2v2l3 1 1 5h-3v-4l-4-2z" fill="#5f6e45"/>
    <path d="M167 114h3v2l3 1h-4l-1 4-3-5z" fill="#dfdfd5"/>
    <path d="M161 84v2l2 1v3h-2l1 3h-4l1-2c1-2 1-2 0-5l-2-1c2-1 2-1 4-1" fill="#acb19c"/>
    <path d="M135 281h3v2l3 1-8 1v-2l-2-1c1-1 1-1 4-1" fill="#8f9a7a"/>
    <path d="M188 275h2v2h-5v2l4 1-6 1c1-6 1-6 5-6m-43 0 2 1h-3l-1 4-4-1v-3c3-2 3-2 6-1" fill="#5f6e45"/>
    <path d="m196 265 2 1-1 2 2 1h-4v3l-3-1v-4h4z" fill="#404228"/>
    <path d="M211 259h2v2l3 1-5 4v-2h-2v-3h2z" fill="#5b5d4a"/>
    <path d="m109 204 7 1v4l-6 1 1-2h2v-2h-4zm66-15h2l3 7h-6l-2-2 3-1z" fill="#7f8e56"/>
    <path d="m138 189 1 2 3 1h-2l-1 3-7-1 4-3v2h2z" fill="#73735d"/>
    <path d="M138 119c2 1 2 1 3 3v5c-3-1-4-2-5-4l-1-2 3 1z" fill="#8d8e80"/>
    <path d="M150 79h3c2 3 2 3 2 6l-4 1z" fill="#53572e"/>
    <path d="M153 48h3l1 2 2 1-4 4c-2-2-2-2-3-4z" fill="#d8dbd4"/>
    <path d="m137 275 4 1h-2v3l4 1-3 1v2h-2c-1-7-1-7-1-8" fill="#7f8e56"/>
    <path d="m134 274 1 2h3l-1 6h-2v-3l-3-1h2z" fill="#aeb67a"/>
    <path d="M139 259h8v4l-3 1v-2h-5zm-19-10v3c-3 2-6 1-9 0v-2c3-1 6-1 9-1" fill="#9fac6d"/>
    <path d="m219 239 2 2c0 3 0 3-1 5h-3l-1 2-2-1 2-3h2z" fill="#bebfaf"/>
    <path d="M190 241c2 0 2 0 4 1l-3 6c-2-1-2-1-3-3v-2z" fill="#aeb67a"/>
    <path d="m151 160 2 1-1 2c-1 3-1 3 0 6h-2l-3-7z" fill="#7f8e56"/>
    <path d="M183 127h4l-1 7h-3z" fill="#acada5"/>
    <path d="m160 107 2 1v3l3 1-2 2-6-2 3-1z" fill="#62644c"/>
    <path d="M137 103h8l-2 4c-2-1-4-1-6-2z" fill="#414322"/>
    <path d="m162 273 2 1-1 2c-1 3-1 3 1 5l-4-1-1-5h2z" fill="#7f8e56"/>
    <path d="M79 270h2l1 5-5 2c0-4 0-4 2-7" fill="#757641"/>
    <path d="m83 271 2 1v8l-3-1-1-7z" fill="#92935b"/>
    <path d="m151 265 2 1c0 2 0 2-1 4l-3 1-1 3c-1-2-1-2-1-4l2-2 2 1z" fill="#4f5835"/>
    <path d="M200 262h6l-1 2h-3v2h-3v2h-2l1-3h2z" fill="#6b6b57"/>
    <path d="M137 257h11l-3 1v2c-6-1-6-1-8-3" fill="#443a17"/>
    <path d="M97 244h2l1 3 3-1 3 3H96z" fill="#aeb67a"/>
    <path d="M183 241a91 91 0 0 1 4 4v2l-5 2z" fill="#4f5835"/>
    <path d="m112 242 3 1h3l3 1-2 3h-3v-2l-4-1z" fill="#b1b273"/>
    <path d="M202 236v2h-2l-1 4-2-2h-4c3-2 5-4 9-4" fill="#9c9d8d"/>
    <path d="M107 235h2v2l6-1-1 3c-5 1-5 1-7 0z" fill="#c8ccbc"/>
    <path d="m150 235 2 1c-1 2-1 2-2 5-3 1-3 1-5 1v-3h2l2-1z" fill="#5f6e45"/>
    <path d="m153 215 9 1c-4 2-6 2-10 3z" fill="#7f8e56"/>
    <path d="m121 210 1 2h3v4h-6z" fill="#9fac6d"/>
    <path d="M149 206c2 0 2 0 4 1 1 2 1 2 2 5l1 2-4-1v-3l-3-1z" fill="#6f743e"/>
    <path d="M171 174h2l-1 4h-8c3-4 3-4 7-4" fill="#7f8e56"/>
    <path d="m130 146 2 1c3 1 3 1 7 1l2 5-3-2h-3c-3-1-4-1-6-4z" fill="#d9dcbe"/>
    <path d="M159 92c4 1 4 1 7 2l-2 2-2-1h-2l-3 2-1-3z" fill="#9fac6d"/>
    <use href="#a" fill="#6d7162" transform="matrix(.2 0 0 .2 152 45)"/>
    <use href="#a" fill="#6d7162" transform="matrix(.2 0 0 .2 177 160)"/>
    <path d="M120 271h9l-4 2c-1 3-1 3-1 5h-2v-2c0-3 0-3-2-5" fill="#b3b381"/>
    <path d="m179 268 4 1-2 5-1-2h-3z" fill="#063d22"/>
    <path d="M179 258c5 0 5 0 7 1l-2 4-5-1 3-1v-2l-3 1z" fill="#036349"/>
    <path d="m146 241 5 1-5 6c-1-3-1-4 0-7" fill="#a7a774"/>
    <path d="m89 240 7 3-1 3-1-2-5 1-1-3z" fill="#787853"/>
    <path d="M152 240v2h3l-1 4h-3l-1-3-2-2c2-1 2-1 4-1" fill="#808051"/>
    <path d="m188 218 1 2h5l2 3c-6 0-6 0-8-1z" fill="#717361"/>
    <path d="M162 204h7l-3 1v2c-2 1-2 1-5 1l-3-2h4z" fill="#036349"/>
    <path d="m191 185 4 2-4 4-4-2z" fill="#7f8e56"/>
    <path d="m130 168 2 3h-2v3c-4 1-4 1-6 0l1-2 2 1v-2z" fill="#80813b"/>
    <path d="M122 157c1 2 1 2 1 4l-2 2h-2l-2-5c3-1 3-1 5-1" fill="#a7a789"/>
    <path d="m116 147 3 1 1 3 4 2h-6v-2l-3-1z" fill="#94967a"/>
    <path d="M150 138h2l1 7-7-4 4-1z" fill="#7f8e56"/>
    <path d="m166 119 3 2 2-1 3 1v3c-6-1-6-1-8-2z" fill="#4a4b35"/>
    <path d="m137 116 3 1 1 3h-2l-1 2-3-1v-3h2z" fill="#036349"/>
    <path d="M145 97h2v3l2 1-2 2h-3v-2l-3-2h4z" fill="#dddfc1"/>
    <path d="M152 70h7l-1 3h-4l-1 2z" fill="#7c805b"/>
    <path d="m148 48 3 1-1 1q0 4 1 7l-4-1v-3h2z" fill="#b1b5a8"/>
    <path d="m190 274 3 1h-2v5l-6-1v-2h5z" fill="#4f5835"/>
    <path d="m194 250 4 1-1 2-3 1v2h-2c1-2 1-4 2-6" fill="#b5b69d"/>
    <path d="m124 240 3 2v3h-4l-1 2c1-6 1-6 2-7" fill="#aeb67a"/>
    <path d="m166 239 10 1 1 5h-2l-1-2c-1-2-1-2-5-3h-3z" fill="#b7bc96"/>
    <path d="M148 230c2 3 2 3 2 6l-1 2-1-2-3-1c0-2 0-2 2-4z" fill="#8f9a7a"/>
    <path d="m157 219 3 2-1 2h-2v2h-2l-1-3z" fill="#7f8e56"/>
    <path d="m101 217 2 1c2 1 2 1 4 1v2l2 1h-7z" fill="#036349"/>
    <path d="M137 212h6c0 4 0 4-1 6a105 105 0 0 1-5-4z" fill="#8f9a7a"/>
    <path d="M147 195c3 1 3 1 5 2v2h-7v-3z" fill="#7f8e56"/>
    <path d="M120 193h5l-3 6h-2c-1-4-1-4 0-6" fill="#9fac6d"/>
    <path d="m175 185 4 2-2 3-2-1-1 3-1-2c1-3 1-3 2-5" fill="#aeb67a"/>
    <path d="m195 180 2 1-1 2h5v2l-4 1v-2l-3 1z" fill="#828364"/>
    <path d="m115 158 2 1-1 3-3-1v2l-3 1c0-3 0-3 1-5 2-1 2-1 4-1" fill="#98996b"/>
    <path d="M154 154h2l3 7h-2v-3h-2l-1 3c-1-3-1-4 0-7" fill="#aeb67a"/>
    <path d="m129 146 2 1v2l3 1-2 2v-2l-4 3c-1-2-1-2-1-4z" fill="#8b9067"/>
    <path d="M141 108h2c1 2 1 2 2 5l-2 4c-1-4-1-4 0-6h-3z" fill="#036349"/>
    <path d="m156 84 2 1 1 3 2 1h-3c-3 0-3 0-5 1 2-5 2-5 3-6" fill="#595e40"/>
    <path d="M93 282h5l1 4-5-1z" fill="#036349"/>
    <path d="M157 273h5l-1 3-2-1v2l2 1-2 2c-2-3-2-3-2-7" fill="#5f6e45"/>
    <path d="M219 257h1c0 3 0 5-2 7l-1 2-4-1 2-1c3-2 3-4 4-7" fill="#cbcec5"/>
    <path d="m134 222 4 1-3 1c-1 2-1 2-1 4l-4 1z" fill="#8f9a7a"/>
    <path d="M183 221h2l1 5-5 1z" fill="#0c3e25"/>
    <path d="M144 220h3l1 4-4 1c-1-2-1-2-1-4z" fill="#6f743e"/>
    <path d="M97 216h8l-2 4-1-3h-4v2h-2z" fill="#aeb67a"/>
    <path d="M116 208c2 1 2 1 3 3l-2 3-3-3-2 1v-3c2-1 2-1 4-1" fill="#9fac6d"/>
    <path d="M144 196h1l1 7-5-2v-2h2z" fill="#94945f"/>
    <path d="m158 181 3 1v5l-4-2z" fill="#4f5835"/>
    <path d="M165 156h2v2l2 1-3 3-3-3c1-2 1-2 2-3" fill="#a3a483"/>
    <path d="M105 156h3l1 5h-3v-2h-2z" fill="#8f9a7a"/>
    <path d="m191 153 4 1v4l-3 1c-1-1-1-1-1-4z" fill="#a5a986"/>
    <path d="m136 152 4 3-1 4-3-1z" fill="#53562a"/>
    <path d="m131 153 1 2-2 3c-2 0-2 0-5-1l-1-2z" fill="#abae83"/>
    <path d="m135 150 4 1-3 1 1 4-4-1z" fill="#83885b"/>
    <path d="m160 121 5 5-4 2v-2l-1-3-2-1z" fill="#7f7f67"/>
    <path d="M153 123h7l-2 3h-2v2l-2-1c-1-2-1-2-1-4" fill="#036349"/>
    <path d="m147 97 1 2h2v2c0 2 0 2 3 4l-3 1-1-3-2-1z" fill="#87885f"/>
    <path d="M164 275h3c-1 3-1 4-3 6l-2-2z" fill="#5f6e45"/>
    <path d="M100 270c2 2 3 5 4 8l-4 1z" fill="#8f9a7a"/>
    <path d="m169 258 2 1v2c-2 1-3 2-6 2l-2-1h2v-2z" fill="#cbcbba"/>
    <path d="m177 256 3 1v2h2v2c-5-1-5-1-7-3h2z" fill="#8f9a7a"/>
    <path d="M181 249v3l4 1-2 2v-2l-6-1v-2c2-1 2-1 4-1" fill="#5f6e45"/>
    <path d="m142 249 5 1-1 2c-2 0-5 1-7 1l1-2h2z" fill="#6f743e"/>
    <path d="M204 248h7v2l-7 1z" fill="#036349"/>
    <path d="m169 243 4 5-1 2h-3c-1-3-1-4 0-7" fill="#7f8e56"/>
    <path d="m176 239 5 2-1 3h-4z" fill="#9b9f70"/>
    <path d="M159 234h7l-2 3v3c-2-1-2-1-3-4z" fill="#4d4d3f"/>
    <path d="m174 217 5 2v3h-2l-1 3c-1-3-2-5-2-8" fill="#5d5f4c"/>
    <path d="m131 216 5 1v3h-5z" fill="#7f8e56"/>
    <path d="M150 187h1v5h-3l-1 3-2-1c1-3 1-3 3-5h2z" fill="#5f6e45"/>
    <path d="m130 178 7 2-2 3h-2v-2h-5l2-1z" fill="#6f743e"/>
    <path d="m209 173 1 4h-2v2h-3v-3h2l1-2z" fill="#c4c4b9"/>
    <path d="M134 170v3h-2l-1 3-3-2h2v-3c2-1 2-1 4-1" fill="#aeb67a"/>
    <path d="M165 165h7c-2 3-4 3-7 4z" fill="#afaf85"/>
    <path d="m127 163 2 1c1 3 1 3 1 5h-3v-2h-2z" fill="#b1b07a"/>
    <path d="m156 147 5 1v5c-2 0-2 0-4-1-1-2-1-2-1-5" fill="#7f8e56"/>
    <path d="M155 117c2 1 2 1 3 3v3l-4 1z" fill="#4e4e2d"/>
    <path d="m146 112 4 1 1 4h-3c-2-3-2-3-2-5" fill="#aeb67a"/>
    <path d="m138 105 3 2v5l-3-1c-1-2-1-2-1-4z" fill="#959871"/>
    <path d="m128 96 4 2v3l-6-2z" fill="#8f927b"/>
    <path d="m140 88 1 2h2v2l2 1c-6-1-6-1-8-3l-1-1z" fill="#aaac95"/>
  </g>
  <g id="trunk" transform="translate(-1,0)">
    <path d="M153 306h1v3l1 4v4c0 3 0 3 3 5h-11c0-3 1-7 2-10h2v-2c1-3 1-3 2-4" fill="#7f8e7f"/>
    <path d="m147 285 1 3h3c1 6 1 12 1 18h-2l-1 9h-1c-1-21-1-21-1-30" fill="#99aa99"/>
    <path d="M149 284c2 1 2 1 4 4 2 8 2 16 2 24h-1l-1-5-2 5h-2v-6l2-2v-16h-3z" fill="#8f9a8f"/>
    <path d="m147 285 1 3h3l1 6h-3v2h-2z" fill="#a7bfa7"/>
    <path d="M154 285h7v3h-3v-2h-3v18h-1z" fill="#d2c9d2"/>
    <path d="m151 284 3 1v9h-1c-2-7-2-7-2-10" fill="#6f746f"/>
    <path d="M150 315h4v6l4 1h-11v-3l2-1z" fill="#5f6e5f"/>
    <path d="M152 317h2v4l4 1h-8v-2h2z" fill="#454545"/>
    <path d="m152 303 3 1v8h-1l-1-5-2 5h-2c0-6 0-6 2-8z" fill="#858585"/>
    <path d="M153 306h1l2 15h-2c-2-10-2-10-2-14z" fill="#6e6e6e"/>
  </g>
  <g id="shadow">
    <path d="M132 321h63c31 0 62 0 93 1v1c-26 1-51 1-77 1h-15c-36 0-36 0-51-1h-3c-4 0-7-1-10-3" fill="#fff"/>
    <path d="M132 321c31 0 62 0 93 1v1c-13 1-25 1-38 1h-9c-10 0-21 0-31-1h-8c-2 0-4-1-6-2" fill="#a6a6a4"/>
    <path d="M160 321h16v3h-17z" fill="#d1d1d1"/>
  </g>
</svg>
